<svg version="1.1" viewBox="0 0 16 16" xmlns="http://www.w3.org/2000/svg" xmlns:osb="http://www.openswatchbook.org/uri/2009/osb">
 <g fill="#808080" stroke-width=".18401">
  <path d="m11.865 7.8537c-0.0679-0.13858-0.0097-0.30485 0.12886-0.37275 0.13856-0.067881 0.30484-0.0097 0.37274 0.12886 0.0679 0.13858 0.0097 0.30485-0.12886 0.37275-0.13856 0.067882-0.30484 0.0097-0.37274-0.12886zm1.3482 2.7713c-0.0679-0.13856-0.0097-0.30484 0.12886-0.37274 0.13856-0.0679 0.30484-0.0097 0.37274 0.12886 0.0679 0.13856 0.0097 0.30484-0.12886 0.37274-0.13856 0.0679-0.30485 0.0097-0.37274-0.12886zm0.11777-3.5957c-0.88682-0.63324-2.0438-0.79674-3.1149-0.38243l2.9279 6.0206c0.98659-0.58614 1.5714-1.599 1.6213-2.6868l1.1113 0.078978c0.06367 0.0042 0.11924-0.04295 0.12329-0.10809 0.0042-0.063742-0.04288-0.11917-0.10802-0.12331l-1.1252-0.080377c-0.01104-0.47389-0.12458-0.95747-0.35053-1.4231-0.22586-0.46419-0.53623-0.85216-0.90205-1.1542l0.63186-0.93532c0.03601-0.052646 0.02215-0.12471-0.03049-0.16073-0.05265-0.03603-0.12471-0.022173-0.16074 0.030491l-0.62355 0.92284" enable-background="new"/>
  <path d="m10.632 9.2961c-0.82585 0.39907-1.7141 0.60137-2.6397 0.60137-2.0854 0-3.9796-1.0586-5.084-2.7436-0.087296-0.13302-0.26743-0.16489-0.39629-0.070679l-1.0628 0.7829c-0.12055 0.088676-0.14826 0.25773-0.063742 0.38243 1.4508 2.1658 3.9075 3.5223 6.6068 3.5223 1.2097 0 2.3722-0.26466 3.4544-0.78704z" enable-background="new"/>
  <path d="m7.9825 2.6353h0.57504v-1.2706c0-0.31731-0.25773-0.57504-0.57504-0.57504s-0.57506 0.25773-0.57506 0.57504v1.2706z" enable-background="new"/>
  <path d="m6.4859 5.1156-3.9533 8.1365c-0.085898 0.17599-0.13162 0.3672-0.13578 0.56258l-0.023554 1.0656c-0.00555 0.27574 0.31315 0.43094 0.52654 0.25635l0.82307-0.67619c0.15104-0.12332 0.27298-0.27852 0.3589-0.45449l3.8964-8.0215-1.491-0.86742z" enable-background="new"/>
  <path d="m13.569 13.813c-0.0042-0.19537-0.05127-0.38659-0.13578-0.56256l-3.9533-8.1365-1.491 0.87019 3.8965 8.0187c0.0859 0.17597 0.20784 0.32979 0.35888 0.45449l0.82307 0.67619c0.21338 0.17459 0.53347 0.0194 0.52655-0.25635l-0.02355-1.0656z" enable-background="new"/>
  <path d="m7.9824 2.5342c-0.95194 0-1.7251 0.77458-1.7251 1.7251 0 0.95055 0.77457 1.7251 1.7251 1.7251s1.7251-0.77458 1.7251-1.7251c0-0.95055-0.77459-1.7251-1.7251-1.7251zm0 2.6743c-0.52238 0-0.94916-0.4254-0.94916-0.94917 0-0.52377 0.42538-0.94917 0.94916-0.94917s0.94918 0.4254 0.94918 0.94917c0 0.52377-0.4254 0.94917-0.94918 0.94917z" enable-background="new"/>
 </g>
</svg>
