<?xml version="1.0" encoding="UTF-8" standalone="no"?>
<svg
   version="1.1"
   viewBox="0 0 16 16"
   id="svg3"
   sodipodi:docname="audacity-app-symbolic.svg"
   inkscape:version="1.3.2 (1:1.3.2+202311252150+091e20ef0f)"
   xmlns:inkscape="http://www.inkscape.org/namespaces/inkscape"
   xmlns:sodipodi="http://sodipodi.sourceforge.net/DTD/sodipodi-0.dtd"
   xmlns="http://www.w3.org/2000/svg"
   xmlns:svg="http://www.w3.org/2000/svg">
  <defs
     id="defs3" />
  <sodipodi:namedview
     id="namedview3"
     pagecolor="#505050"
     bordercolor="#eeeeee"
     borderopacity="1"
     inkscape:showpageshadow="0"
     inkscape:pageopacity="0"
     inkscape:pagecheckerboard="0"
     inkscape:deskcolor="#505050"
     inkscape:zoom="30.9375"
     inkscape:cx="7.9838384"
     inkscape:cy="10.585859"
     inkscape:window-width="1312"
     inkscape:window-height="699"
     inkscape:window-x="0"
     inkscape:window-y="0"
     inkscape:window-maximized="1"
     inkscape:current-layer="svg3" />
  <path
     style="color:#000000;fill:#808080;-inkscape-stroke:none;opacity:0.5"
     d="M 9.0429688,8.3476563 8.2246094,12.533203 7.7871094,8.7519531 7.3222656,8.7324219 6.453125,13.003906 5.8984375,9.5136719 5.4394531,9.484375 l -0.8886719,3.027344 0.453125,0.132812 0.59375,-2.021484 0.59375,3.744141 0.4648438,0.0098 0.8339844,-4.099609 0.4394531,3.816406 0.4667969,0.01758 L 9.2011719,10 l 0.3945312,3.923828 0.4648439,0.0293 0.65625,-2.884766 0.271484,1.230469 0.460938,-0.101562 -0.5,-2.2578129 L 10.488281,9.9375 9.9199219,12.443359 9.5097656,8.3691406 Z"
     id="path1" />
  <path
     style="color:#000000;fill:#888888;stroke-linecap:round;stroke-linejoin:bevel;-inkscape-stroke:none;paint-order:fill markers stroke"
     d="M 6.0859375,8.9472656 4.8535156,13.087891 3.6816406,9.8496094 A 0.22680999,0.22680999 0 0 0 3.390625,9.7148438 0.22680999,0.22680999 0 0 0 3.2539063,10.003906 L 4.6621094,13.890625 5.0917969,13.878906 6.2460937,10 l 0.6074219,3.480469 0.4355469,0.03711 1.0429688,-2.908203 0.5644531,3.884766 0.4472656,0.0078 0.748047,-4.136719 0.619141,3.19336 a 0.22680999,0.22680999 0 0 0 0.265625,0.179687 0.22680999,0.22680999 0 0 0 0.179687,-0.265625 L 10.306641,9.0859375 9.8613281,9.0878906 9.1445313,13.052734 8.6503906,9.6445313 8.2109375,9.5996094 7.1523437,12.560547 6.5253906,8.9746094 Z"
     id="path2" />
  <path
     d="m8.0003 0.90002c-1.4056-8.0196e-4 -2.5384 0.26187-3.4593 0.68383-0.18829 0.083032-0.37174 0.17306-0.54822 0.27315-0.047824 0.027971-0.091149 0.058875-0.13753 0.087824-0.11654 0.070611-0.23372 0.141-0.34382 0.21967-0.091051 0.065037-0.17282 0.13711-0.25788 0.2063-0.59906 0.48732-1.0375 1.0783-1.3638 1.721-0.016235 0.032274-0.037946 0.063081-0.053496 0.09555-0.016039 0.03335-0.026699 0.067677-0.042054 0.10123-0.19986 0.43395-0.36496 0.88215-0.46226 1.3486-0.018191 0.087335-0.021223 0.17748-0.036284 0.26551-0.044108 0.23998-0.077946 0.47692-0.099325 0.71058-0.00196 0.021125-0.00391 0.041858-0.00587 0.063081-0.02357 0.28096-0.016626 0.53709-0.013398 0.80035 0.00196 0.097702-7.726e-4 0.19463 0.00391 0.29225 0.01291 0.28133 0.034034 0.53269 0.068753 0.77743 0.020831 0.17099 0.048117 0.33906 0.076381 0.5081 0.00489 0.022494 0.00685 0.054474 0.011443 0.076382v0.00196l0.021027 0.095452c0.030318 0.16612 0.053007 0.33535 0.08978 0.49855l0.10697 0.47754 0.00782-2e-3 1.0315 4.8976 1.148-0.20247c0.64581-0.11451 1.1062-0.21501 1.3199-0.38585 0.10731-0.08577 0.16882-0.17851 0.20057-0.34382 0.031785-0.16532 0.023667-0.40634-0.045868-0.73541l-0.77361-3.6579c-0.069535-0.32909-0.15936-0.55594-0.25787-0.70103-0.098504-0.14509-0.1981-0.21378-0.33619-0.25787-0.27618-0.088215-0.74261-0.023472-1.3925 0.091638l-0.15854 0.028655c-0.17808-1.0451-0.21315-2.1242-0.0097799-3.1002 0.24123-1.1564 0.78542-2.1572 1.7898-2.8748 0.98919-0.70673 2.4598-1.0632 3.9215-1.0601 1.4618-0.00293 2.9323 0.3534 3.9215 1.0601 1.0044 0.71758 1.5486 1.7184 1.7898 2.8748 0.20337 0.97592 0.16854 2.0551-0.0098 3.1002l-0.15854-0.028655c-0.64989-0.11511-1.1163-0.1799-1.3925-0.091638-0.13808 0.044108-0.23768 0.11278-0.33618 0.25787-0.0985 0.14509-0.18833 0.37194-0.25787 0.70103l-0.77361 3.6579c-0.06954 0.32908-0.07765 0.57009-0.04587 0.73541 0.03179 0.16531 0.0933 0.25805 0.20057 0.34382 0.21374 0.17084 0.6741 0.27134 1.3199 0.38585l1.148 0.20247 1.0315-4.8976 0.0078 2e-3 0.10697-0.47754c0.03677-0.1632 0.05946-0.33242 0.08978-0.49855l0.02103-0.095452v-0.00196c0.0049-0.021907 0.0068-0.053888 0.01144-0.076382 0.02826-0.16904 0.05555-0.3371 0.07638-0.5081 0.03472-0.24473 0.05584-0.4961 0.06875-0.77743 0.0049-0.097604 2e-3 -0.19455 0.0039-0.29225 0.0029-0.26327 0.01017-0.51939-0.0134-0.80035-2e-3 -0.021222-0.0039-0.041858-0.0059-0.063081-0.02142-0.23366-0.05526-0.4706-0.09932-0.71058-0.01506-0.088019-0.01809-0.17817-0.03628-0.26551-0.09731-0.46642-0.2624-0.91462-0.46226-1.3486-0.01535-0.033545-0.02601-0.067873-0.04205-0.10123-0.01555-0.032469-0.03726-0.063276-0.0535-0.09555-0.32621-0.64275-0.7647-1.2338-1.3638-1.7211-0.085086-0.069242-0.16683-0.14126-0.25788-0.2063-0.1101-0.078631-0.22729-0.14906-0.34382-0.21967-0.046357-0.028949-0.089682-0.059853-0.13753-0.087824-0.17648-0.1001-0.35992-0.19012-0.54822-0.27315-0.92046-0.42197-2.0533-0.68464-3.4588-0.68383z"
     color="#000000"
     color-rendering="auto"
     fill="#808080"
     image-rendering="auto"
     shape-rendering="auto"
     style="isolation:auto;text-decoration-color:#000000;text-decoration-line:none;text-decoration-style:solid;text-indent:0;text-transform:none"
     id="path3" />
</svg>
