<svg version="1.1" viewBox="0 0 16 16" xmlns="http://www.w3.org/2000/svg" xmlns:osb="http://www.openswatchbook.org/uri/2009/osb">
 <path d="m8 0a8 8 0 0 0-8 8 8 8 0 0 0 8 8 8 8 0 0 0 8-8 8 8 0 0 0-8-8zm0.5 1.0195a7 7 0 0 1 4.082 1.6914l-1.7539 1.7539 0.70703 0.70703 1.7539-1.7539a7 7 0 0 1 1.6914 4.082h-2.4805v1h2.4609a7 7 0 0 1-1.6855 4.0684l-1.7402-1.7402-0.70703 0.70703 1.7402 1.7402a7 7 0 0 1-4.0684 1.6855v-2.4609h-1v2.4609a7 7 0 0 1-4.0684-1.6855l1.7402-1.7402-0.70703-0.70703-1.7402 1.7402a7 7 0 0 1-1.6855-4.0684h2.4609v-1h-2.4609a7 7 0 0 1 1.6855-4.0684l1.7402 1.7402 0.70703-0.70703-1.7402-1.7402a7 7 0 0 1 4.0684-1.6855v2.4609h1v-2.4805z" fill="#808080"/>
 <path d="m8 4.166-0.75 1-0.51172 0.68164a2.5 2.5 0 0 0-1.2383 2.1523 2.5 2.5 0 0 0 2.5 2.5 2.5 2.5 0 0 0 2.5-2.5 2.5 2.5 0 0 0-1.2461-2.1621l-1.2539-1.6719z" fill="#808080" stroke-linecap="square" stroke-linejoin="round" stroke-miterlimit="1" stroke-width="1.9031" style="paint-order:stroke fill markers"/>
</svg>
