<svg version="1.1" viewBox="0 0 16 16" xmlns="http://www.w3.org/2000/svg" xmlns:osb="http://www.openswatchbook.org/uri/2009/osb">
 <g transform="translate(18.738 .75002)" fill="#808080">
  <path d="m-14.295-0.75c-1.6832 0-2.761 0.025701-3.5293 0.625-0.38416 0.29965-0.6253 0.74023-0.75195 1.2539-0.12665 0.51368-0.16211 1.117-0.16211 1.8711v8.5c0 0.75405 0.03546 1.3574 0.16211 1.8711 0.12665 0.51368 0.36779 0.95426 0.75195 1.2539 0.76832 0.5993 1.8461 0.625 3.5293 0.625h7.1113c1.6836 0 2.7664-0.02605 3.5371-0.625 0.38533-0.29947 0.62808-0.73937 0.75391-1.2539 0.1257-0.514 0.1587-1.1176 0.1543-1.8711v-8.5c0.0043987-0.75347-0.028596-1.3571-0.1543-1.8711-0.12583-0.51453-0.36857-0.95443-0.75391-1.2539-0.77066-0.59894-1.8535-0.625-3.5371-0.625zm0 1h7.1113c1.6534 0 2.552 0.12512 2.9238 0.41406 0.18589 0.14447 0.30379 0.33207 0.39453 0.70312 0.090742 0.37105 0.13122 0.9098 0.12695 1.6289v8.5079c0.00428 0.71911-0.036213 1.2579-0.12695 1.6289-0.09074 0.37105-0.20864 0.55865-0.39453 0.70312-0.37179 0.2889-1.2704 0.41402-2.9238 0.41402h-7.1113c-1.653 0-2.546-0.12548-2.916-0.41406-0.18499-0.14429-0.30284-0.33122-0.39453-0.70312-0.0917-0.37191-0.13281-0.91317-0.13281-1.6328v-8.5c0-0.71964 0.04112-1.2609 0.13281-1.6328 0.09169-0.37191 0.20955-0.55883 0.39453-0.70312 0.36997-0.28858 1.263-0.41406 2.916-0.41406z" color="#000000" style="-inkscape-stroke:none"/>
  <path d="m-17.738 5.25v1h5.0996l0.43359-0.83789 0.36914 0.83789h8.0977v-1z" enable-background="new"/>
  <path d="m-17.738 8.25v1h14v-1h-6.2285l-0.23438 0.46875-0.23438-0.46875h-0.46094l-0.38477 0.83789-0.36914-0.83789z" enable-background="new"/>
  <path transform="rotate(-90)" d="m-0.25-12.738h-6.1934l1.0312 0.5332-1.0605 0.4668h6.2227zm-6.6367 0.48633-0.94141-0.48633h-6.4219v1h6.1992z" enable-background="new"/>
  <path transform="rotate(-90)" d="m-0.25-9.7383h-6.9648v1h6.9648zm-7.6016 0h-6.3984v1h6.3984z" enable-background="new"/>
  <path d="m-14.238 3.75v3.4648h1.1016l0.93164-1.8027 0.93555 2.125 0.58984-1.2852 0.47852 1.043 0.04102-0.080078h2.9219v-3.4648zm1.9863 3.1367-0.49805 0.96484h-1.4883v2.8984h7v-2.8984h-2.5293l-0.43359 0.86719-0.47461-0.94727-0.60547 1.3164z" enable-background="new"/>
 </g>
</svg>
