<?xml version="1.0" encoding="UTF-8" standalone="no"?>
<svg
   version="1.1"
   viewBox="0 0 16 16"
   id="svg2"
   sodipodi:docname="bitwarden-app-symbolic.svg"
   inkscape:version="1.3.2 (1:1.3.2+202311252150+091e20ef0f)"
   xmlns:inkscape="http://www.inkscape.org/namespaces/inkscape"
   xmlns:sodipodi="http://sodipodi.sourceforge.net/DTD/sodipodi-0.dtd"
   xmlns="http://www.w3.org/2000/svg"
   xmlns:svg="http://www.w3.org/2000/svg">
  <defs
     id="defs2" />
  <sodipodi:namedview
     id="namedview2"
     pagecolor="#505050"
     bordercolor="#eeeeee"
     borderopacity="1"
     inkscape:showpageshadow="0"
     inkscape:pageopacity="0"
     inkscape:pagecheckerboard="0"
     inkscape:deskcolor="#505050"
     inkscape:zoom="30.9375"
     inkscape:cx="7.9838384"
     inkscape:cy="8"
     inkscape:window-width="1312"
     inkscape:window-height="699"
     inkscape:window-x="0"
     inkscape:window-y="0"
     inkscape:window-maximized="1"
     inkscape:current-layer="svg2" />
  <path
     d="m8 0.26172s-1.636 2.7383-6 2.7383c0 9.31 6 12.594 6 12.594s6-3.2838 6-12.594c-4.364 0-6-2.7383-6-2.7383zm0 1.3867c0.272 0.312 0.25725 0.41992 0.78125 0.79492 0.912 0.654 2.3613 1.1896 4.1523 1.3906-0.174 3.943-1.4395 6.6416-2.7305 8.3516-0.982 1.298-1.7391 1.8784-2.2031 2.1934-0.463-0.315-1.2221-0.89536-2.2031-2.1934-1.292-1.71-2.5575-4.4086-2.7305-8.3516 1.79-0.2 3.2403-0.73763 4.1523-1.3906 0.524-0.377 0.51025-0.48192 0.78125-0.79492zm0 1.4082c-0.092 0.08-0.072219 0.10822-0.19922 0.19922-0.888 0.637-2.151 1.0657-3.582 1.3457 0.305 3.23 1.302 5.5585 2.377 6.9805 0.656 0.868 1.0153 1.0972 1.4043 1.4082v-9.9336z"
     id="path1"
     style="fill:#808080;fill-opacity:1" />
  <path
     d="m7.7839-2.4495s0.21606 22.764 0.21606 22.764"
     fill="#751717"
     opacity=".72154"
     style="paint-order:stroke fill markers"
     id="path2" />
</svg>
