<?xml version="1.0" encoding="UTF-8" standalone="no"?>
<svg
   version="1.1"
   viewBox="0 0 16 16"
   id="svg1"
   sodipodi:docname="blackbox-app-symbolic.svg"
   inkscape:version="1.3 (1:1.3+202307231459+0e150ed6c4)"
   xmlns:inkscape="http://www.inkscape.org/namespaces/inkscape"
   xmlns:sodipodi="http://sodipodi.sourceforge.net/DTD/sodipodi-0.dtd"
   xmlns="http://www.w3.org/2000/svg"
   xmlns:svg="http://www.w3.org/2000/svg">
  <defs
     id="defs1" />
  <sodipodi:namedview
     id="namedview1"
     pagecolor="#ffffff"
     bordercolor="#000000"
     borderopacity="0.25"
     inkscape:showpageshadow="2"
     inkscape:pageopacity="0.0"
     inkscape:pagecheckerboard="0"
     inkscape:deskcolor="#d1d1d1"
     inkscape:zoom="31.5"
     inkscape:cx="7.984127"
     inkscape:cy="8"
     inkscape:window-width="1312"
     inkscape:window-height="704"
     inkscape:window-x="0"
     inkscape:window-y="0"
     inkscape:window-maximized="1"
     inkscape:current-layer="svg1" />
  <path
     d="m3.9942 2.0001c-1.2582 0.0145-2.1789-0.0306-2.9316 0.38477-0.37637 0.20766-0.67323 0.55938-0.83789 0.99804-0.16467 0.43867-0.22461 0.95958-0.22461 1.6172v7c0 0.65761 0.0599 1.1785 0.22461 1.6172 0.16467 0.43866 0.46152 0.79039 0.83789 0.99804 0.75275 0.41532 1.6734 0.3702 2.9316 0.38477h4e-3 8.0039 4e-3c1.2582-0.0145 2.1789 0.0306 2.9316-0.38477 0.37637-0.20766 0.67322-0.55938 0.83789-0.99804 0.16413-0.43867 0.22443-0.95958 0.22443-1.6172v-7c0-0.65761-0.0599-1.1785-0.22461-1.6172-0.16466-0.43866-0.46152-0.79038-0.83789-0.99804-0.75275-0.41534-1.6734-0.37025-2.9316-0.38477h-4e-3 -8.0039zm2.9023 1.0918c1.749-4e-3 3.4973-1e-3 5.2461 0.0215 0.86117 0.14671 2.161-0.34154 2.6738 0.66797 0.25574 2.924 0.0694 5.882 0.1289 8.8184-0.0871 0.38019-0.18482 1.1436-0.73047 1.1289-3.5364 0.23538-7.0915 0.10846-10.635 0.13476-0.78646-0.11198-1.9999 0.2903-2.4043-0.6914-0.1705-2.4656-0.0888-4.9496-0.0898-7.4356 0.12175-0.84105-0.29598-2.0645 0.6875-2.5117 1.6892-0.21162 3.4084-0.0775 5.123-0.13281z"
     color="#000000"
     color-rendering="auto"
     dominant-baseline="auto"
     fill="#808080"
     image-rendering="auto"
     shape-rendering="auto"
     solid-color="#000000"
     style="font-feature-settings:normal;font-variant-alternates:normal;font-variant-caps:normal;font-variant-ligatures:normal;font-variant-numeric:normal;font-variant-position:normal;isolation:auto;mix-blend-mode:normal;shape-padding:0;text-decoration-color:#000000;text-decoration-line:none;text-decoration-style:solid;text-indent:0;text-orientation:mixed;text-transform:none;white-space:normal"
     id="path1" />
  <path
     id="path2"
     style="color:#000000;fill:#808080;-inkscape-stroke:none"
     d="M 4.0410156 4.5742188 L 4.0410156 5.25 C 3.8933307 5.2840192 3.7509496 5.3252715 3.6347656 5.390625 C 3.4975963 5.4638838 3.3837104 5.5569831 3.2949219 5.6679688 C 3.2074054 5.7773644 3.1412248 5.9000937 3.0976562 6.0351562 L 3.0957031 6.0371094 C 3.0568032 6.1667752 3.0390625 6.3022687 3.0390625 6.4433594 C 3.0390625 6.6269869 3.0707759 6.7913227 3.1386719 6.9316406 L 3.1386719 6.9335938 L 3.140625 6.9335938 C 3.2102429 7.0641268 3.300244 7.1772049 3.4101562 7.2695312 L 3.4101562 7.2714844 L 3.4121094 7.2714844 C 3.5221721 7.3603876 3.6428345 7.4368051 3.7734375 7.5 L 3.7753906 7.5019531 C 3.905346 7.5588104 4.0378935 7.6114358 4.171875 7.6601562 L 4.1738281 7.6601562 C 4.3083288 7.7076272 4.4257322 7.7519322 4.5273438 7.7949219 L 4.5292969 7.796875 L 4.53125 7.796875 C 4.6305989 7.835086 4.7094493 7.875186 4.7695312 7.9140625 C 4.8280432 7.9519235 4.8695292 7.9912736 4.8964844 8.0332031 L 4.8964844 8.0351562 L 4.8984375 8.0371094 C 4.9214595 8.0703633 4.9335938 8.1116645 4.9335938 8.171875 C 4.9335938 8.2663189 4.9053254 8.3217596 4.8359375 8.3730469 C 4.7828686 8.4110278 4.6326788 8.4492188 4.3984375 8.4492188 C 4.1910799 8.4492188 3.9952632 8.4224746 3.8085938 8.3691406 C 3.6207793 8.3143669 3.4597154 8.2543172 3.3261719 8.1894531 L 3.2265625 8.140625 L 2.8984375 9.0195312 L 2.9804688 9.0585938 C 3.0744317 9.1055747 3.2089948 9.1618528 3.390625 9.2304688 L 3.3925781 9.2324219 C 3.5641016 9.2920818 3.7917548 9.3257099 4.0410156 9.3515625 L 4.0410156 10.083984 L 4.9960938 10.083984 L 4.9960938 9.3222656 C 5.1595127 9.2884827 5.3140373 9.2498715 5.4355469 9.1835938 C 5.5809418 9.1066198 5.7014291 9.0136446 5.7949219 8.9023438 C 5.8866448 8.7931498 5.9540259 8.6722274 5.9941406 8.5429688 C 6.0327766 8.4141816 6.0527344 8.2842965 6.0527344 8.1542969 C 6.0527344 7.9661761 6.0169243 7.7961366 5.9453125 7.6484375 C 5.8798172 7.5053073 5.7867809 7.3794154 5.6660156 7.2753906 C 5.5501219 7.1680816 5.4131242 7.0757028 5.2539062 6.9960938 C 5.1017244 6.9179463 4.9353461 6.8465179 4.7558594 6.78125 L 4.7539062 6.78125 C 4.6408943 6.7422814 4.5445479 6.7068095 4.4628906 6.6757812 L 4.4570312 6.6738281 C 4.3833103 6.6403627 4.3205896 6.6077395 4.2714844 6.5761719 C 4.227648 6.5479913 4.2003427 6.5194888 4.1816406 6.4921875 C 4.1660357 6.4603489 4.15625 6.4218096 4.15625 6.3710938 C 4.15625 6.2940168 4.1789586 6.2473938 4.2421875 6.1992188 C 4.2969724 6.1574778 4.4148146 6.1230469 4.5957031 6.1230469 C 4.7807583 6.1230469 4.955137 6.1434997 5.1191406 6.1816406 C 5.2905744 6.2206026 5.4392832 6.2672097 5.5644531 6.3203125 L 5.671875 6.3652344 L 5.9082031 5.4511719 L 5.8320312 5.4160156 C 5.7361673 5.3724407 5.6113578 5.3317056 5.4570312 5.2910156 L 5.4550781 5.2910156 C 5.3254673 5.2560949 5.1649682 5.2326935 4.9960938 5.2128906 L 4.9960938 4.5742188 L 4.0410156 4.5742188 z " />
</svg>
