<svg version="1.1" viewBox="0 0 16 16" xmlns="http://www.w3.org/2000/svg" xmlns:osb="http://www.openswatchbook.org/uri/2009/osb">
 <path d="m8 16a8 8 0 0 1-8-8 8 8 0 0 1 8-8 8 8 0 0 1 8 8 8 8 0 0 1-8 8zm0-1a7 7 0 0 0 7-7 7 7 0 0 0-7-7 7 7 0 0 0-7 7 7 7 0 0 0 7 7z" fill="#808080"/>
 <path d="m11.364 2.8827c-0.37698-0.012251-0.77186 0.17958-0.94518 0.46335l-1.0878 2.3098c-0.034809 0.057-0.062037 0.11555-0.083527 0.17438l-0.9266-0.49504c-0.11299 0.4198-0.017312 0.64648-0.16596 1.0994l-0.17282-0.092987c-0.12514-0.067374-0.28407-0.027437-0.35632 0.089024l-0.19036 0.30789c-0.072264 0.11677-0.029713 0.26524 0.095425 0.33271l0.022523 0.01225c-1.2088 0.10121-2.7392 2.3428-4.867 3.3143 1.7062 1.651 4.2218 2.5177 5.3557 2.4834 1.399-1.3332 1.8026-3.534 1.6574-4.641l0.31997 0.17256c0.12514 0.067374 0.28407 0.027437 0.35632-0.089025l0.19036-0.30789c0.07225-0.11677 0.02971-0.26524-0.09542-0.33261l-0.15718-0.084761c0.31719-0.29847 0.6776-0.37996 0.99738-0.66557l-0.9601-0.51292c0.04002-0.044811 0.07718-0.093587 0.10989-0.14695l1.5439-2.0348c0.23115-0.37841 0.16397-1.0612-0.27834-1.2708-0.1128-0.053387-0.23646-0.080174-0.36214-0.084137zm-0.05972 0.43634c0.07396 6.289e-4 0.14565 0.023861 0.20413 0.066149 0.05846 0.042285 0.10046 0.1013 0.1196 0.16799 0.02319 0.080912 0.011 0.1671-0.03386 0.23963-0.04486 0.072525-0.11875 0.12545-0.20542 0.14711-0.08662 0.02165-0.17892 0.010377-0.2566-0.031525-0.07766-0.041861-0.13437-0.11079-0.15763-0.19164-0.0232-0.080899-0.01112-0.16709 0.0338-0.23961 0.04484-0.072537 0.1187-0.12546 0.20534-0.14715 0.02947-0.00789 0.05996-0.012 0.09061-0.012252z" clip-rule="evenodd" fill="#808080" fill-rule="evenodd" stroke-width=".1282"/>
</svg>
