<svg version="1.1" viewBox="0 0 16 16" xmlns="http://www.w3.org/2000/svg" xmlns:osb="http://www.openswatchbook.org/uri/2009/osb">
 <path d="m6.7617 0.0058594c-0.35212 4.4563e-4 -0.70826 0.093605-1.0137 0.30859-0.30861 0.21627-0.5236 0.54121-0.55664 0.9043-0.019809 0.21768 0.15046 0.3928 0.25977 0.58789a0.50005 0.50005 0 0 0 0.17188 0.39453l1.3105 1.0645-4.5469-0.0097656a0.50005 0.50005 0 0 0-0.00391 0c-0.44701 0.0021117-0.86022 0.12966-1.1855 0.36719-0.32532 0.23752-0.5724 0.6161-0.56836 1.0547 0.0040925 0.43858 0.25752 0.81336 0.58594 1.0469 0.32842 0.23352 0.74243 0.35566 1.1895 0.35352l0.53711 0.00977-1.9551 1.4824c-0.42358 0.32125-0.73025 0.72498-0.88477 1.1621-0.15452 0.43712-0.14913 0.95077 0.15039 1.3457 0.29953 0.39494 0.79325 0.53871 1.2559 0.50781 0.24354-0.01627 0.47474-0.18347 0.71484-0.2832 0.018156 0.32352 0.07897 0.71916 0.19922 1.0996 0.26422 0.8444 0.71448 1.6238 1.3301 2.3027 0.63361 0.70049 1.4147 1.2621 2.3086 1.6602a0.50005 0.50005 0 0 0 0 2e-3c0.94003 0.41592 1.9623 0.62695 3.0156 0.62695 1.0538-0.0016 2.0752-0.21704 3.0156-0.63867 0.89278-0.40105 1.6747-0.96366 2.3086-1.668 0.61861-0.6854 1.0674-1.4656 1.3301-2.3105 0.13294-0.42542 0.21804-0.85943 0.25195-1.2949 0.0331-0.42708 0.01767-0.85796-0.04297-1.2871-0.11832-0.83255-0.40818-1.6188-0.84961-2.3262-0.403-0.65399-0.92535-1.2219-1.5391-1.6973-0.0022-0.00172-0.0036-0.00414-0.0059-0.00586a0.50005 0.50005 0 0 0 0-0.00195l-5.7617-4.4258a0.50005 0.50005 0 0 0-0.00391-0.003906c0.00672 0.005029-0.012027-0.009171-0.00977-0.007813-5.225e-4 -4.0174e-4 -0.00143 4.0089e-4 -0.00195 0-0.29655-0.22736-0.65435-0.32076-1.0059-0.32031zm0.00195 1c0.16456-2.083e-4 0.31574 0.051202 0.39648 0.11328a0.50005 0.50005 0 0 0 0.033203 0.023437c-0.048717-0.03134-0.054093-0.038081-0.013672-0.00781l5.75 4.418a0.50005 0.50005 0 0 0 2e-3 0.00391c0.52906 0.40882 0.96903 0.88766 1.3066 1.4355a0.50005 0.50005 0 0 0 2e-3 0.00195c0.37094 0.59351 0.6101 1.2457 0.70898 1.9414 0.05066 0.35849 0.0626 0.71431 0.03516 1.0684-0.02793 0.35866-0.09783 0.71852-0.20898 1.0742a0.50005 0.50005 0 0 0 0 2e-3c-0.219 0.70435-0.59014 1.3536-1.1172 1.9375a0.50005 0.50005 0 0 0 0 2e-3c-0.53782 0.59757-1.201 1.0763-1.9746 1.4238-0.81 0.36315-1.6896 0.54912-2.6074 0.55078-0.91905 0-1.7986-0.18423-2.6094-0.54297v2e-3c-0.77262-0.34415-1.4366-0.82324-1.9747-1.4181a0.50005 0.50005 0 0 0 0-2e-3c-0.52315-0.57692-0.89705-1.2274-1.1172-1.9316a0.50005 0.50005 0 0 0 0-2e-3c-0.097364-0.30804-0.17125-0.78569-0.17383-0.93164a0.50005 0.50005 0 0 0-0.00977-0.02539c-6.992e-4 -0.1605 0.042973-0.55269 0.042973-0.55269l-0.025391 0.097656a0.50005 0.50005 0 0 0-0.76562-0.57617l-0.18359 0.13867c-0.28283 0.21451-0.59178 0.32263-0.82031 0.33789-0.22853 0.015263-0.33745-0.04317-0.39062-0.11328-0.053176-0.070114-0.08219-0.19227-0.0058594-0.4082 0.076331-0.21593 0.26598-0.4847 0.54883-0.69922l3.0293-2.2969a0.50005 0.50005 0 0 0 0.0097657-0.0078125l0.072266-0.058594a0.50005 0.50005 0 0 0-0.30273-0.89062l-1.9902-0.035156a0.50005 0.50005 0 0 0-0.00977 0c-0.25365 0.0012141-0.47366-0.074249-0.60546-0.16797-0.13181-0.093719-0.1654-0.17405-0.16602-0.24023-6.101e-4 -0.066163 0.029395-0.14424 0.1582-0.23828 0.12804-0.093482 0.34594-0.17367 0.59766-0.17578l5.957 0.013672a0.50005 0.50005 0 0 0 0.18555-0.035156l0.00195-0.00195a0.50005 0.50005 0 0 0 0.13086-0.85157l-2.3965-1.9492a0.50005 0.50005 0 0 0-0.00586-0.00781c-0.078276-0.063985-0.073077-0.084854-0.070312-0.11524 0.0027649-0.030383 0.023518-0.097822 0.13477-0.17578 0.10793-0.075979 0.27684-0.12674 0.44141-0.12695zm2.3262 4.1016c-1.0749 0-2.1085 0.36011-2.9258 1.0234a0.50005 0.50005 0 0 0-0.00195 0.00195c-0.41333 0.34018-0.75446 0.74617-1.0039 1.1973-0.25597 0.46096-0.41746 0.97477-0.46289 1.5117-0.048 0.54751 0.024788 1.0943 0.21094 1.6074a0.50005 0.50005 0 0 0 0.00195 0c0.19095 0.52043 0.49794 1.0062 0.91016 1.4258 0.84361 0.85835 2.022 1.3321 3.2773 1.3301 1.2511-5.07e-4 2.4241-0.48249 3.2656-1.3359a0.50005 0.50005 0 0 0 0.0039 0c0.0011-0.0011 8.99e-4 -0.0028 2e-3 -0.0039 0.03262-0.03327 0.04096-0.07919 0.07226-0.11328l0.0078 0.0059 2e-3 -0.0039a0.50005 0.50005 0 0 0 0-0.01758c0.35623-0.39138 0.65337-0.82064 0.82617-1.2969 0.18593-0.51255 0.25976-1.0591 0.21289-1.6055-0.04511-0.5406-0.20765-1.0539-0.46296-1.5137-0.25003-0.45155-0.59104-0.85611-1.0059-1.1953-0.81845-0.66467-1.8533-1.0192-2.9297-1.0176zm0 1a0.50005 0.50005 0 0 0 0.00195 0c0.85693-0.0013 1.6637 0.27879 2.2969 0.79297 0.31971 0.26187 0.578 0.57094 0.76367 0.90625 0.18929 0.34088 0.30482 0.71257 0.33789 1.1094a0.50005 0.50005 0 0 0 0 0.00195c0.03481 0.40332-0.01695 0.80106-0.1543 1.1797-0.13974 0.3851-0.36629 0.74455-0.68164 1.0664-0.64825 0.65958-1.5626 1.041-2.5605 1.041-1.0034 0.0016-1.9155-0.3729-2.5625-1.0312-0.31616-0.32181-0.54249-0.68294-0.68359-1.0664-0.13736-0.37865-0.19157-0.77683-0.15625-1.1797 0.03333-0.3939 0.15122-0.77164 0.33984-1.1113a0.50005 0.50005 0 0 0 0-0.00195c0.18526-0.33559 0.44412-0.64556 0.76562-0.91016 0.63406-0.51388 1.4419-0.79688 2.293-0.79688z" clip-rule="evenodd" color="#000000" fill="#808080" stroke-linejoin="round" stroke-miterlimit="3.1" style="-inkscape-stroke:none"/>
</svg>
