<svg version="1.1" viewBox="0 0 16 16" xmlns="http://www.w3.org/2000/svg" xmlns:osb="http://www.openswatchbook.org/uri/2009/osb">
 <g transform="translate(17.816 -1.3066)" fill="#808080">
  <path d="m-14.555 3.3555c-0.08743 0-0.15625 0.066203-0.15625 0.14648v0.55664c1e-6 0.080282 0.06882 0.14453 0.15625 0.14453h0.02539v3.6289a1.9376 1.9376 0 0 0-1.1074 1.0742c0.58981-0.093867 1.3137-0.099609 2.2246-0.099609h1.2832a1.9376 1.9376 0 0 0-1.0684-0.97266v-3.6309h0.02344c0.08743 0 0.1582-0.064249 0.1582-0.14453v-0.55664c0-0.080282-0.07077-0.14648-0.1582-0.14648zm4.0488 0c-0.08743 0-0.1582 0.066203-0.1582 0.14648v0.55664c0 0.080282 0.07077 0.14453 0.1582 0.14453h0.02344v3.6309a1.9376 1.9376 0 0 0-1.0684 0.97266h3.4687a1.9376 1.9376 0 0 0-1.0684-0.97266v-3.6309h0.023437c0.087429 0 0.1582-0.064249 0.1582-0.14453v-0.55664c0-0.080282-0.070774-0.14648-0.1582-0.14648zm4.0488 0c-0.08743 0-0.1582 0.066203-0.1582 0.14648v0.55664c0 0.080282 0.070774 0.14453 0.1582 0.14453h0.023437v3.6309a1.9376 1.9376 0 0 0-1.0684 0.97266h1.2812c0.91392 0 1.6389 0.00634 2.2285 0.10156a1.9376 1.9376 0 0 0-1.1094-1.0742v-3.6309h0.023437c0.087429 0 0.1582-0.064249 0.1582-0.14453v-0.55664c0-0.080282-0.070774-0.14648-0.1582-0.14648z"/>
  <path d="m-9.9591 10.557a1.5027 1.5027 0 0 0-0.55257 0.54866 1.5027 1.5027 0 0 0 0.32092 1.886l-0.82885 1.4356-0.62356-0.36-0.28175 0.488 1.7351 1.0018 0.28175-0.48801-0.62355-0.36 0.82885-1.4356a1.5027 1.5027 0 0 0 1.7938-0.66503 1.5027 1.5027 0 0 0 0.20108-0.7516z" enable-background="new" style="paint-order:normal"/>
  <path d="m-13.412 8.8066c-1.7528 0-2.8197 0.019418-3.5527 0.65234-0.36654 0.31646-0.56866 0.7681-0.66797 1.2852-0.09931 0.51705-0.11565 1.1247-0.11133 1.8887v0.9082h0.0039c-0.0028 0.72979 0.01129 1.3277 0.10742 1.8281 0.09931 0.51705 0.30143 0.96869 0.66797 1.2852 0.73307 0.63293 1.7999 0.65234 3.5527 0.65234h7.1914c1.7528 0 2.8163-0.02093 3.5469-0.6543 0.36531-0.31668 0.56595-0.76698 0.66602-1.2832 0.097055-0.50071 0.11406-1.0967 0.11523-1.8281h0.00391v-0.91016c0-0.76346-0.019077-1.3705-0.11914-1.8867-0.10006-0.51622-0.3007-0.96651-0.66601-1.2832-0.73062-0.63337-1.794-0.6543-3.5469-0.6543zm0 1h7.1914c1.7232 0 2.5757 0.13546 2.8926 0.41016 0.15844 0.13735 0.26435 0.32731 0.33984 0.7168 0.075498 0.38949 0.099609 0.95354 0.099609 1.6973v0.85352c0 0.74372-0.024112 1.3058-0.099609 1.6953-0.075497 0.38949-0.1814 0.5814-0.33984 0.71875-0.31688 0.2747-1.1694 0.4082-2.8926 0.4082h-7.1914c-1.7232 0-2.5798-0.13501-2.8984-0.41016-0.15934-0.13757-0.26519-0.32813-0.33984-0.7168-0.07465-0.38866-0.09794-0.95016-0.09375-1.6934v-0.85947c-0.0042-0.74319 0.0191-1.3047 0.09375-1.6934 0.07465-0.38866 0.1805-0.57922 0.33984-0.7168 0.31868-0.27515 1.1752-0.41016 2.8984-0.41016z" color="#000000" style="-inkscape-stroke:none"/>
  <path d="m-13.371 1.3066c-1.6832 0-2.7629 0.025701-3.5312 0.625-0.38416 0.29965-0.6253 0.74023-0.75195 1.2539-0.12665 0.51368-0.16211 1.117-0.16211 1.8711v8.5c0 0.75405 0.03546 1.3574 0.16211 1.8711 0.12665 0.51368 0.36779 0.95426 0.75195 1.2539 0.76832 0.5993 1.8481 0.625 3.5312 0.625h7.1094c1.6836 0 2.7664-0.02605 3.5371-0.625 0.38533-0.29947 0.62808-0.73937 0.75391-1.2539 0.1257-0.514 0.1587-1.1176 0.1543-1.8711v-8.5c0.0044-0.75347-0.028596-1.3571-0.1543-1.8711-0.12583-0.51453-0.36857-0.95443-0.75391-1.2539-0.77066-0.59894-1.8535-0.625-3.5371-0.625zm0 1h7.1094c1.6534 0 2.552 0.12512 2.9238 0.41406 0.18589 0.14447 0.30379 0.33207 0.39453 0.70312 0.090742 0.37105 0.13122 0.9098 0.12695 1.6289v8.5079c0.00428 0.71911-0.036213 1.2579-0.12695 1.6289-0.09074 0.37105-0.20864 0.55865-0.39453 0.70312-0.37179 0.28895-1.2704 0.41406-2.9238 0.41406h-7.1094c-1.653 0-2.546-0.12548-2.916-0.41406-0.18499-0.14429-0.30479-0.33122-0.39648-0.70312-0.0917-0.37191-0.13281-0.91317-0.13281-1.6328v-8.5c0-0.71964 0.04112-1.2609 0.13281-1.6328 0.09169-0.37191 0.2115-0.55883 0.39648-0.70312 0.36997-0.28858 1.263-0.41406 2.916-0.41406z" color="#000000" style="-inkscape-stroke:none"/>
 </g>
</svg>
