<svg version="1.1" viewBox="0 0 16 16" xmlns="http://www.w3.org/2000/svg" xmlns:osb="http://www.openswatchbook.org/uri/2009/osb">
 <g transform="matrix(.9943 0 0 .9943 .3884 -1.3877)" fill="#808080" fill-rule="evenodd">
  <path d="m4.9199 1.3956-0.14258 0.12891-1.2891 1.1699-0.94726-0.068359-1.4434 1.4434 0.18945 0.70508-1.2871 2.1289 2.3242 7.2129 5.3301 3.3711 5.332-3.3711 2.3242-7.2129-1.2871-2.1289 0.1875-0.70508-1.4434-1.4434-0.94531 0.068359-1.4336-1.2988h-2.7344zm0.38672 1h4.6973l1.4629 1.3262 0.91797-0.064453 0.71094 0.71094-0.15039 0.56055 1.2734 2.1016-2.0723 6.4336-4.4922 2.8398-4.4902-2.8398-2.0723-6.4336 1.2715-2.1016-0.14844-0.56055 0.71094-0.71094 0.91797 0.064453z" color="#000000" style="-inkscape-stroke:none"/>
  <path d="m11.238 4.5386s1.8616 2.0638 1.8616 2.5049c0 0.44108-0.23418 0.5575-0.46963 0.7868s-1.2638 1.2307-1.3959 1.3593c-0.132 0.12867-0.40698 0.3236-0.24527 0.67457 0.16167 0.35095 0.40027 0.79755 0.135 1.2505-0.26532 0.45297-0.71982 0.7553-1.011 0.70532-0.29123-0.05-0.97518-0.3778-1.2267-0.52752-0.25152-0.14967-1.0487-0.75265-1.0487-0.98335 0-0.23067 0.82403-0.64485 0.97625-0.73895 0.15233-0.094167 0.84665-0.45832 0.86088-0.60128 0.015-0.143 0.00833-0.18492-0.19613-0.53817-0.20492-0.3533-0.57395-0.82472-0.51253-1.1384 0.0615-0.31363 0.6566-0.47673 1.0813-0.62383 0.42467-0.147 1.2424-0.42487 1.3445-0.46805 0.10217-0.043167 0.07583-0.084333-0.23368-0.11133-0.30942-0.026833-1.1875-0.13383-1.5834-0.0325-0.3959 0.10117-1.0723 0.25517-1.1271 0.3368-0.054833 0.081667-0.10317 0.084333-0.046833 0.36605 0.056167 0.28165 0.34592 1.6331 0.37402 1.8732 0.028167 0.24005 0.083167 0.39873-0.1991 0.45792-0.28227 0.059167-0.75738 0.162-0.92065 0.162-0.16333 0-0.63842-0.10283-0.92063-0.162-0.28227-0.059167-0.22727-0.21787-0.19913-0.45792 0.028167-0.24005 0.31777-1.5915 0.37405-1.8732 0.056167-0.28165 0.00833-0.2844-0.046833-0.36605-0.054833-0.081667-0.73118-0.23562-1.1271-0.3368-0.3959-0.10117-1.274 5e-3 -1.5834 0.0325-0.30945 0.027-0.33585 0.068-0.2337 0.11133 0.10217 0.043167 0.91992 0.32097 1.3446 0.46805 0.4247 0.14717 1.0199 0.3102 1.0813 0.62383 0.0615 0.31367-0.30765 0.78508-0.51253 1.1384-0.20493 0.35325-0.21037 0.39518-0.19613 0.53817 0.015 0.143 0.70858 0.5072 0.86085 0.60128 0.15233 0.094167 0.97623 0.50828 0.97623 0.73895 0 0.2307-0.79712 0.83362-1.0486 0.98335-0.25152 0.14967-0.93547 0.4775-1.2267 0.52752-0.29123 0.05-0.74572-0.25235-1.011-0.70532-0.26528-0.45297-0.02667-0.89957 0.135-1.2505 0.16167-0.35097-0.11317-0.54595-0.24528-0.67457-0.132-0.12867-1.1604-1.13-1.3958-1.3593-0.23547-0.2293-0.46962-0.34572-0.46962-0.7868 0-0.44108 1.8616-2.5049 1.8616-2.5049s1.5709 0.27518 1.7827 0.27518c0.2118 0 0.67072-0.16183 1.0943-0.29137 0.42362-0.1295 0.70602-0.1305 0.70602-0.1305s0.28242 9e-4 0.70602 0.1305c0.42362 0.1295 0.88252 0.29137 1.0943 0.29137 0.2118 0 1.7827-0.27518 1.7827-0.27518zm-1.3956 7.8945c0.11517 0.06617 0.045 0.19092-0.06 0.25895-0.105 0.068-1.5156 1.0698-1.6525 1.1805-0.137 0.11083-0.33812 0.29363-0.4749 0.29363-0.13683 0-0.338-0.18288-0.4749-0.29363-0.137-0.11067-1.5475-1.1125-1.6525-1.1805-0.105-0.068-0.17523-0.19278-0.06-0.25895 0.11533-0.06617 0.47578-0.23308 0.97328-0.46918 0.49742-0.23607 1.1174-0.43678 1.2142-0.43678 0.096833 0 0.71672 0.20072 1.2142 0.43678 0.49747 0.2361 0.85798 0.40305 0.97325 0.46918z" enable-background="new" style="paint-order:normal"/>
 </g>
</svg>
