<svg version="1.1" viewBox="0 0 16 16" xmlns="http://www.w3.org/2000/svg" xmlns:osb="http://www.openswatchbook.org/uri/2009/osb">
 <g fill="#808080">
  <path d="m8 6e-5c-0.23347 2e-3 -0.46677 0.0132-0.69922 0.0352-0.12011 0.0123-0.23993 0.0272-0.35937 0.0449-0.1392 0.0172-0.27792 0.038-0.41602 0.0625-0.12433 0.0244-0.24806 0.0517-0.37109 0.082-0.14092 0.032-0.28094 0.0678-0.41992 0.10742-0.10884 0.0335-0.21692 0.0693-0.32422 0.10742-0.14605 0.0492-0.29064 0.10261-0.4336 0.16016-0.10714 0.0452-0.21329 0.0927-0.31836 0.14258-0.13256 0.0596-0.26347 0.12275-0.39258 0.18945-2.6217 1.3838-4.2632 4.1039-4.2656 7.0684 3.8e-4 2.9107 1.5816 5.5915 4.1289 7h0.0176c1.127 0.62142 2.3872 0.96178 3.6738 0.99219 0.0599 3e-3 0.11977 6e-3 0.17969 8e-3 0.23347-2e-3 0.46677-0.0132 0.69922-0.0352 0.12011-0.0123 0.23993-0.0272 0.35937-0.0449 0.1392-0.0172 0.27792-0.038 0.41602-0.0625 0.11776-0.0234 0.23497-0.0494 0.35156-0.0781 0.15479-0.0351 0.30851-0.0749 0.46094-0.11914 0.0864-0.0272 0.17237-0.0558 0.25781-0.0859 0.16265-0.0534 0.32354-0.11204 0.48242-0.17578 0.0978-0.041 0.19488-0.084 0.29102-0.12891 0.15066-0.0683 0.29917-0.14125 0.44531-0.21875 1.363-0.72538 2.487-1.8297 3.2363-3.1797v-0.0176c0.62142-1.127 0.96178-2.3872 0.99219-3.6738 3e-3 -0.0599 6e-3 -0.11977 8e-3 -0.17969-2e-3 -0.23347-0.0132-0.46677-0.0352-0.69922-0.0123-0.12011-0.0272-0.23993-0.0449-0.35937-0.0172-0.1392-0.038-0.27792-0.0625-0.41602-0.0244-0.12433-0.0518-0.24806-0.082-0.37109-0.032-0.14092-0.0678-0.28096-0.10742-0.41992-0.0335-0.10884-0.0693-0.21692-0.10742-0.32422-0.0492-0.14605-0.10261-0.29064-0.16016-0.4336-0.0452-0.10714-0.0928-0.21329-0.14258-0.31836-0.0596-0.13256-0.12275-0.26347-0.18945-0.39258-0.71899-1.3615-1.8156-2.4866-3.1582-3.2402-6e-3 -1.1e-4 -0.01-2e-3 -0.0156-2e-3 -0.69887-0.39233-1.4527-0.67742-2.2363-0.84571-0.2287-0.0478-0.45939-0.0856-0.6914-0.11328-0.0325-5e-3 -0.0651-0.0106-0.0977-0.0156h-0.0117c-0.16825-0.0158-0.33695-0.0264-0.50586-0.0312-0.11776-9e-3 -0.2345-0.0145-0.3518-0.0178zm0 1c3.866 0 7 3.134 7 7 0 3.866-3.134 7-7 7-3.866 0-7-3.134-7-7 0-3.866 3.134-7 7-7z" color="#000000" color-rendering="auto" dominant-baseline="auto" image-rendering="auto" shape-rendering="auto" solid-color="#000000" style="font-feature-settings:normal;font-variant-alternates:normal;font-variant-caps:normal;font-variant-ligatures:normal;font-variant-numeric:normal;font-variant-position:normal;isolation:auto;mix-blend-mode:normal;shape-padding:0;text-decoration-color:#000000;text-decoration-line:none;text-decoration-style:solid;text-indent:0;text-orientation:mixed;text-transform:none;white-space:normal"/>
  <g stroke-linejoin="bevel">
   <path d="m10.378 10.231-2.7754 4.752c0.13157 0.0074 0.26502 0.01172 0.39844 0.01172 0.2638 0 0.52308-0.0165 0.7793-0.04492l2.4609-4.2148z" color="#000000" style="-inkscape-stroke:none;paint-order:stroke fill markers"/>
   <path d="m2.0811 4.2561c-0.205 0.32397-0.38478 0.66639-0.53516 1.0234l2.3477 3.6953 0.84375-0.53711z" color="#000000" style="-inkscape-stroke:none;paint-order:stroke fill markers"/>
   <path d="m13.581 3.7659-4.9707 0.021484 0.0039 1 5.5977-0.023437c-0.18281-0.35086-0.39348-0.68519-0.63086-0.99805z" color="#000000" style="-inkscape-stroke:none;paint-order:stroke fill markers"/>
   <path d="m8 3.7441c-2.3451 0-4.2559 1.9108-4.2559 4.2559s1.9108 4.2578 4.2559 4.2578 4.2578-1.9128 4.2578-4.2578-1.9128-4.2559-4.2578-4.2559zm0 1c1.8046 0 3.2578 1.4512 3.2578 3.2559s-1.4532 3.2578-3.2578 3.2578-3.2559-1.4532-3.2559-3.2578 1.4512-3.2559 3.2559-3.2559z" color="#000000" style="-inkscape-stroke:none;paint-order:stroke fill markers"/>
  </g>
 </g>
</svg>
