<svg version="1.1" viewBox="0 0 16 16" xml:space="preserve" xmlns="http://www.w3.org/2000/svg" xmlns:osb="http://www.openswatchbook.org/uri/2009/osb"><path d="m1.9902 1.4902v11.02h1.0195v-10h8v1h-6.9961v11h6.0938v-1h-5.0918v-9h7.9941v3.6777l1 1v-5.6777h-2v-1h0.011718v-1.0195h-8.5293-1.502zm4.0195 4.0195v1h6.0195v-1h-6.0195zm0 2v1h4.0977v-0.81055a1.0001 1.0001 0 0 1 0.027344-0.18945h-4.125zm-0.0078125 2v1h3.0078v-1h-3.0078zm7.0078 1.5078v0.89258a1.0001 1.0001 0 0 1 0.61719-0.27539l-0.61719-0.61719z" fill="#808080"/><path d="m11.107 7.7-1.83e-4 6.9203 1.6249-1.6247 1.1058 2.6695c0.2719 0.65643 1.2426 0.2543 0.97068-0.40211l-1.1057-2.6695 2.2977 1.21e-4z" color="#000000" fill="#808080" fill-rule="evenodd" stroke-width="1.2008" style="paint-order:stroke fill markers"/></svg>
