<svg version="1.1" viewBox="0 0 16 16" xmlns="http://www.w3.org/2000/svg">
 <g fill="#808080">
  <rect x="4" width="2" height="3" rx=".5" ry=".5"/>
  <rect x="7" width="2" height="3" rx=".5" ry=".5"/>
  <rect x="10" width="2" height="3" rx=".5" ry=".5"/>
  <rect x="4" y="13" width="2" height="3" rx=".5" ry=".5"/>
  <rect x="7" y="13" width="2" height="3" rx=".5" ry=".5"/>
  <rect x="10" y="13" width="2" height="3" rx=".5" ry=".5"/>
  <rect transform="rotate(-90)" x="-6" y="13" width="2" height="3" rx=".5" ry=".5"/>
  <rect transform="rotate(-90)" x="-9" y="13" width="2" height="3" rx=".5" ry=".5"/>
  <rect transform="rotate(-90)" x="-12" y="13" width="2" height="3" rx=".5" ry=".5"/>
  <rect transform="rotate(-90)" x="-6" y="3.6739e-16" width="2" height="3" rx=".5" ry=".5"/>
  <rect transform="rotate(-90)" x="-9" y="5.5109e-16" width="2" height="3" rx=".5" ry=".5"/>
  <rect transform="rotate(-90)" x="-12" y="7.3479e-16" width="2" height="3" rx=".5" ry=".5"/>
  <path d="m4 2c-1.108 0-2 0.892-2 2v8c0 1.108 0.892 2 2 2h8c1.108 0 2-0.892 2-2v-8c0-1.108-0.892-2-2-2zm0.5 1h7c0.831 0 1.5 0.669 1.5 1.5v7c0 0.831-0.669 1.5-1.5 1.5h-7c-0.831 0-1.5-0.669-1.5-1.5v-7c0-0.831 0.669-1.5 1.5-1.5z"/>
  <path d="m7.5 12 2.5-4.3636h-1.5v-3.6364l-2.5 4.3636h1.5z" stroke-width=".8528"/>
 </g>
</svg>
