<svg version="1.1" viewBox="0 0 16 16" xmlns="http://www.w3.org/2000/svg" xmlns:osb="http://www.openswatchbook.org/uri/2009/osb">
 <g transform="translate(20.133 -.30858)" fill="#808080">
  <g fill-rule="evenodd">
   <rect transform="scale(-1)" x="8.5326" y="-15.315" width="1.5763" height="1.0084" enable-background="new"/>
   <rect transform="scale(-1)" x="6.5919" y="-12.131" width="5.2377" height="1.2631" rx=".2291" ry=".2291" enable-background="new"/>
   <rect transform="scale(-1)" x="6.5919" y="-3.75" width="5.2377" height="1.2631" rx=".2291" ry=".2291" enable-background="new"/>
  </g>
  <path d="m-9.7386 6.303-1.4195 2.7206h1.3321 2.0983l-1.0492-2.0109-0.29571 0.56681z" color="#000000"/>
  <path d="m-7.7291 5.5946c-0.31563 0-0.5715 0.25586-0.5715 0.5715 0 0.31562 0.25587 0.57149 0.5715 0.57149s0.5715-0.25587 0.5715-0.57149c0-0.31564-0.25586-0.5715-0.5715-0.5715z" color="#000000"/>
  <path d="m-15.277 0.30859c-0.7689 0-1.3773 0.018222-1.8906 0.10352-0.51334 0.085294-0.95647 0.24805-1.2852 0.57227-0.32868 0.32422-0.4962 0.76553-0.58203 1.2754-0.08583 0.50986-0.10143 1.1142-0.09766 1.877v6.3477c-0.0037 0.76159 0.01192 1.3657 0.09766 1.875 0.08583 0.50986 0.25335 0.94922 0.58203 1.2734 0.32868 0.32421 0.77182 0.48892 1.2852 0.57422 0.51334 0.08529 1.1217 0.10156 1.8906 0.10156h6.291c1.192 0 2.0043-0.02207 2.6582-0.32812 0.32693-0.15303 0.60449-0.39798 0.78516-0.70703 0.18067-0.30905 0.27394-0.66508 0.33008-1.0742l0.078125-0.56836h-7.6543c-0.55577 0-0.97479-0.01526-1.2598-0.0625-0.28498-0.04724-0.41223-0.11635-0.48438-0.1875-0.07215-0.07115-0.13672-0.18974-0.18359-0.46875-0.04687-0.27901-0.06333-0.69215-0.06055-1.2422v-4.7207c-0.0027-0.55005 0.01366-0.96512 0.06055-1.2441 0.04688-0.27902 0.11145-0.3976 0.18359-0.46875 0.07214-0.071146 0.19942-0.13831 0.48438-0.18555 0.28496-0.047239 0.704-0.064453 1.2598-0.064453h7.6543l-0.078125-0.56837c-0.056137-0.40915-0.14941-0.76322-0.33008-1.0723-0.18067-0.30905-0.45822-0.554-0.78516-0.70703-0.65386-0.30606-1.4662-0.33008-2.6582-0.33008zm0 1h6.291c1.1649 0 1.8898 0.073075 2.2344 0.23438 0.1723 0.08065 0.26103 0.1618 0.3457 0.30664 0.01642 0.028088 0.023666 0.10233 0.039063 0.13672h-6.4219c-0.57263 0-1.0289 0.012659-1.4238 0.078125-0.3949 0.065466-0.75227 0.19544-1.0215 0.46094s-0.40275 0.62282-0.46875 1.0156c-0.066 0.39281-0.07704 0.84586-0.07422 1.4141v4.7109c-0.0028 0.56712 0.0083 1.0198 0.07422 1.4121 0.06599 0.39282 0.19952 0.75013 0.46875 1.0156s0.62657 0.39547 1.0215 0.46094c0.39492 0.06546 0.8512 0.07617 1.4238 0.07617h6.4219c-0.015397 0.03439-0.022642 0.10863-0.039063 0.13672-0.084673 0.14484-0.1734 0.22599-0.3457 0.30664-0.3446 0.1613-1.0695 0.23438-2.2344 0.23438h-6.291c-0.75192 0-1.3233-0.02088-1.7266-0.08789-0.4033-0.06701-0.61425-0.16878-0.74609-0.29883s-0.23216-0.33249-0.29883-0.72852c-0.06667-0.39602-0.08766-0.96062-0.08398-1.7051v-6.3575c-0.0037-0.74445 0.01732-1.3091 0.08398-1.7051 0.06667-0.39602 0.16699-0.59847 0.29883-0.72852s0.3428-0.23182 0.74609-0.29883c0.4033-0.06701 0.97464-0.089844 1.7266-0.089844z" color="#000000" style="-inkscape-stroke:none"/>
  <path d="m-10.867 13.312c-0.82146 0-1.498 0.67659-1.498 1.498s0.67659 1.498 1.498 1.498c0.82146 0 1.498-0.67659 1.498-1.498s-0.67659-1.498-1.498-1.498zm0 1c0.28102 0 0.49805 0.21703 0.49805 0.49805s-0.21703 0.49805-0.49805 0.49805c-0.28102 0-0.49805-0.21703-0.49805-0.49805s0.21703-0.49805 0.49805-0.49805z" color="#000000" fill-rule="evenodd" stroke-linecap="round" stroke-miterlimit="5" style="-inkscape-stroke:none"/>
  <path d="m-7.5547 13.312c-0.82146 0-1.498 0.67659-1.498 1.498s0.67659 1.498 1.498 1.498 1.498-0.67659 1.498-1.498-0.67659-1.498-1.498-1.498zm0 1c0.28102 0 0.49805 0.21703 0.49805 0.49805s-0.21703 0.49805-0.49805 0.49805-0.49805-0.21703-0.49805-0.49805 0.21703-0.49805 0.49805-0.49805z" color="#000000" fill-rule="evenodd" stroke-linecap="round" stroke-miterlimit="5" style="-inkscape-stroke:none"/>
  <path d="m-10.863 3.25c-0.83959 0-1.4007-0.021307-1.8574 0.37305-0.22838 0.19718-0.35069 0.48067-0.4043 0.75977-0.05361 0.2791-0.05872 0.57927-0.05664 0.94727v3.9609c-0.0022 0.36599 0.0033 0.66531 0.05664 0.94336 0.05357 0.27919 0.17389 0.56262 0.40234 0.75977 0.4569 0.3943 1.0198 0.375 1.8594 0.375h3.4121c0.83959 0 1.4001 0.01979 1.8555-0.375 0.22771-0.1974 0.3484-0.47954 0.40234-0.75781 0.053939-0.27827 0.060547-0.57783 0.060547-0.94531v-3.9648c0-0.36749-0.00661-0.66509-0.060547-0.94336-0.053939-0.27827-0.17463-0.56041-0.40234-0.75781-0.45542-0.3948-1.0159-0.375-1.8555-0.375zm0 1h3.4121c0.80996 0 1.1575 0.094733 1.1992 0.13086 0.020837 0.018063 0.046798 0.039869 0.076172 0.19141 0.029374 0.15154 0.042969 0.40616 0.042969 0.75391v3.9648c0 0.34775-0.013595 0.60432-0.042969 0.75586-0.029374 0.15154-0.055335 0.17334-0.076172 0.19141-0.041674 0.03613-0.38926 0.13086-1.1992 0.13086h-3.4121c-0.80996 0-1.1626-0.09424-1.2051-0.13086-0.02122-0.01831-0.04532-0.04079-0.07422-0.19141-0.0289-0.15062-0.0432-0.40478-0.04102-0.75195l2e-3 -0.00195v-3.9668l-2e-3 -0.00195c-2e-3 -0.34722 0.01207-0.60124 0.04102-0.75195s0.05304-0.17312 0.07422-0.19141c0.04236-0.036577 0.39512-0.13086 1.2051-0.13086z" color="#000000" style="-inkscape-stroke:none"/>
 </g>
</svg>
