<svg version="1.1" viewBox="0 0 16 16" xmlns="http://www.w3.org/2000/svg" xmlns:osb="http://www.openswatchbook.org/uri/2009/osb">
 <g fill="#808080">
  <path d="m10.006 0c1.2582 0.0145 2.1789-0.0306 2.9316 0.38477 0.37637 0.20766 0.67323 0.55938 0.83789 0.99804 0.16467 0.43867 0.22461 0.95958 0.22461 1.6172v10c0 0.65761-0.0599 1.1786-0.22461 1.6172-0.16468 0.43861-0.46153 0.78852-0.83789 0.99609-0.75272 0.41513-1.6735 0.37165-2.9316 0.38672h-2e-3 -5.0059-4e-3c-1.2582-0.0145-2.1789 0.0306-2.9316-0.38477-0.37637-0.20766-0.67322-0.55938-0.83789-0.99804-0.16453-0.43867-0.22447-0.95958-0.22447-1.6172v-10c0-0.65761 0.0599-1.1786 0.22461-1.6172 0.16468-0.43861 0.46153-0.78852 0.83789-0.99609 0.75272-0.41513 1.6736-0.37165 2.9316-0.38672h2e-3 5.0059zm-6e-3 1h-5c-1.2586 0.0152-2.0891 0.0599-2.4551 0.26172-0.18342 0.10116-0.28722 0.21286-0.38476 0.47266-0.09741 0.25979-0.16002 0.67323-0.16002 1.2656v10c0 0.59239 0.0626 1.0057 0.16016 1.2656 0.0976 0.25991 0.20135 0.37147 0.38476 0.47266 0.36596 0.20192 1.1966 0.24701 2.4551 0.26172h4.9941 0.00586c1.2586-0.0152 2.0891-0.0599 2.4551-0.26172 0.18342-0.10116 0.28722-0.21286 0.38476-0.47266 0.09755-0.25979 0.16016-0.67323 0.16016-1.2656v-10c0-0.59239-0.0626-1.0057-0.16016-1.2656-0.0976-0.25991-0.20331-0.37147-0.38672-0.47266-0.36595-0.20191-1.1946-0.24702-2.4531-0.26172z" color="#000000" color-rendering="auto" dominant-baseline="auto" image-rendering="auto" shape-rendering="auto" solid-color="#000000" style="font-feature-settings:normal;font-variant-alternates:normal;font-variant-caps:normal;font-variant-ligatures:normal;font-variant-numeric:normal;font-variant-position:normal;isolation:auto;mix-blend-mode:normal;shape-padding:0;text-decoration-color:#000000;text-decoration-line:none;text-decoration-style:solid;text-indent:0;text-orientation:mixed;text-transform:none;white-space:normal"/>
  <rect transform="scale(-1,1)" x="-3.9999" y="1" width="1" height="14"/>
  <path d="m7.2615 11.996q-0.6935 0-1.0898-0.17337-0.39628-0.17338-0.56966-0.51187-0.16512-0.33024-0.16512-0.80082v-1.2466q0-0.34675-0.17337-0.5614-0.16512-0.21465-0.52838-0.21465v-0.9742q0.24768 0 0.39628-0.099071 0.15686-0.099071 0.23117-0.27245 0.074303-0.17337 0.074303-0.40454v-1.2466q0-0.47884 0.16512-0.80908 0.17337-0.33024 0.56966-0.50361 0.39628-0.17337 1.0898-0.17337h0.16512v0.98246h-0.2064q-0.24768 0-0.38803 0.074303-0.13209 0.074304-0.18989 0.22291-0.049536 0.14861-0.049536 0.37977v1.098q0 0.42931-0.11558 0.72652t-0.46233 0.51187q0.23117 0.14035 0.355 0.32198 0.12384 0.18163 0.17337 0.40454 0.049536 0.22291 0.049536 0.51187v1.098q0 0.22291 0.049536 0.37152 0.057792 0.15686 0.18989 0.23117 0.14035 0.0743 0.38803 0.0743h0.2064v0.98246zm2.3117 0v-0.98246h0.2064q0.24768 0 0.37977-0.0743 0.14035-0.0743 0.18989-0.23117 0.05779-0.14861 0.05779-0.37152v-1.098q0-0.28896 0.04954-0.51187 0.049533-0.22291 0.17337-0.40454 0.12384-0.18163 0.355-0.32198-0.34675-0.21465-0.46233-0.51187t-0.11558-0.72652v-1.098q0-0.23117-0.05779-0.37977-0.049537-0.14861-0.18989-0.22291-0.1321-0.074303-0.37977-0.074303h-0.2064v-0.98246h0.16512q0.6935 0 1.0898 0.17337 0.40454 0.17337 0.56966 0.50361 0.16512 0.33024 0.16512 0.80908v1.2466q0 0.23117 0.0743 0.40454 0.0743 0.17337 0.23117 0.27245 0.15686 0.099071 0.39628 0.099071v0.9742q-0.36326 0-0.53664 0.21465-0.16512 0.21465-0.16512 0.5614v1.2466q0 0.47059-0.16512 0.80082-0.16512 0.33849-0.56966 0.51187-0.39628 0.17337-1.0898 0.17337z" stroke-dashoffset="2.4" stroke-linecap="round" stroke-linejoin="round" stroke-miterlimit="1.5" stroke-width=".22114" aria-label="{ }"/>
 </g>
</svg>
