<svg version="1.1" viewBox="0 0 16 16" xmlns="http://www.w3.org/2000/svg" xmlns:osb="http://www.openswatchbook.org/uri/2009/osb">
 <path d="m2.2857 0c-1.088 0-2.2857 1.0281-2.2857 2.2857v8h4.0982l1.3906 5.7143 1.3683-1.1429 4.5714-4.5714-2.2857-10.286z" enable-background="new" fill="#77767b" stop-color="#000000"/>
 <path d="m7.1016 5.6172c-0.92369 0-1.6816 0.7599-1.6816 1.6836v7.0156c0 0.92369 0.068912 1.6836 0.068912 1.6836l8.8276 4e-6c0.92369 0 1.6836-0.7599 1.6836-1.6836v-7.0156c0-0.92369-0.7599-1.6836-1.6836-1.6836zm0 1h7.2148c0.38699 0 0.68359 0.2966 0.68359 0.68359v7.0156c0 0.38699-0.2966 0.68359-0.68359 0.68359h-7.2148c-0.38699 0-0.68164-0.2966-0.68164-0.68359v-7.0156c0-0.38699 0.29465-0.68359 0.68164-0.68359z" color="#000000" fill="#77767b" stroke-linejoin="round" style="-inkscape-stroke:none"/>
</svg>
