<svg version="1.1" viewBox="0 0 16 16" xml:space="preserve" xmlns="http://www.w3.org/2000/svg" xmlns:osb="http://www.openswatchbook.org/uri/2009/osb"><path d="m6.1473 1.626-0.34766 0.060547c-1.1311 0.19569-2.2138 0.53952-3.2246 1.0137l-0.12695 0.060547-0.07813 0.11719c-2.0181 3.0496-2.5788 6.0742-2.3047 9.0117l0.02148 0.22266 0.17773 0.13281c1.3453 1.0046 2.6615 1.6215 3.9453 2.0215l0.3418 0.10547 0.21094-0.28906c0.32151-0.4425 0.61007-0.91376 0.85742-1.4102l0.1211-0.24414c1.5103 0.38618 3.0137 0.38635 4.5156 2e-3l0.12109 0.24414c0.2468 0.49402 0.53178 0.96638 0.85547 1.4102l0.21094 0.28906 0.3418-0.10742c1.285-0.39996 2.6037-1.0155 3.9492-2.0215l0.17774-0.13281 0.02148-0.2207c0.32197-3.4092-0.56065-6.4035-2.3125-9.0196l-0.07813-0.11523-0.125-0.058594c-1.0107-0.47287-2.093-0.81607-3.2227-1.0117l-0.34961-0.060547-0.17188 0.31055c-0.09495 0.17167-0.18457 0.37396-0.27539 0.57031-0.93844-0.1105-1.8723-0.11069-2.7988 0-0.09255-0.19756-0.18401-0.40152-0.2793-0.57227zm-0.52539 1.1543c0.07181 0.14572 0.14909 0.28896 0.20117 0.41406l0.15039 0.36133 0.38672-0.060547c1.0828-0.1659 2.1754-0.16435 3.2812 0.00195l0.38477 0.056641 0.15039-0.35938c0.05275-0.12668 0.12863-0.26862 0.19922-0.41406 0.85887 0.17689 1.6931 0.42574 2.4746 0.7793 1.5445 2.3555 2.2989 4.9728 2.0684 7.9961-1.0568 0.75666-2.0789 1.238-3.0918 1.584-0.10296-0.15636-0.19965-0.31706-0.29297-0.48047 0.28036-0.12979 0.56898-0.24577 0.83203-0.4043l0.63476-0.38281-0.59375-0.44531c-0.09901-0.07417-0.19685-0.15227-0.29297-0.23242l-0.24609-0.20312-0.28711 0.13672c-2.3105 1.0938-4.8218 1.0936-7.1641-0.0019l-0.28906-0.13477-0.24414 0.20508c-0.09354 0.0789-0.19045 0.1555-0.28906 0.22852l-0.60156 0.44531 0.64062 0.38476c0.26122 0.15713 0.54912 0.27298 0.82812 0.40234-0.09348 0.1635-0.18784 0.32576-0.29102 0.48242-1.0133-0.34625-2.0353-0.82861-3.0938-1.5859-0.20206-2.6284 0.29612-5.2574 2.0684-7.9941 0.78157-0.35429 1.617-0.60239 2.4766-0.7793zm-0.11328 3.7441c-1.0602 0-1.8496 0.95754-1.8496 2.0352 0 1.0828 0.79752 2.0352 1.8496 2.0352 1.0582 0 1.8446-0.95486 1.8457-2.0312 0.01436-1.0858-0.7875-2.0391-1.8457-2.0391zm4.9824 0c-1.0603 0-1.8477 0.95755-1.8477 2.0352 0 1.0828 0.79556 2.0352 1.8477 2.0352 1.0582 0 1.8454-0.95552 1.8477-2.0312 0.01436-1.0858-0.78946-2.0391-1.8477-2.0391zm-4.9824 1c0.4481 0 0.85687 0.43 0.84766 1.0293v0.00782c6.75e-4 0.60632-0.39957 1.0332-0.84766 1.0332-0.42972 0-0.84961-0.4333-0.84961-1.0352 0-0.60697 0.40209-1.0352 0.84961-1.0352zm4.9824 0c0.44807 0 0.85883 0.43001 0.84961 1.0293v0.00586c0 0.60699-0.40154 1.0352-0.84961 1.0352-0.42972 0-0.84766-0.4333-0.84766-1.0352 0-0.60698 0.40011-1.0352 0.84766-1.0352z" color="#000000" fill="#808080" style="-inkscape-stroke:none"/></svg>
