<svg width="16mm" height="16mm" version="1.1" viewBox="0 0 16 16" xml:space="preserve" xmlns="http://www.w3.org/2000/svg"><g transform="translate(106.48 63.461)"><path d="m-95.529-60.17c-0.48861-0.002355-0.9715 0.11655-1.4258 0.31419-0.20815 0.09056-0.40705 0.20238-0.59583 0.31626-0.05173 0.0312-0.093361 0.066294-0.13074 0.091984-0.028035 0.019268-0.054271 0.02731-0.056844 0.029973-0.057665-0.001687-0.20856-0.065186-0.35708-0.10232-0.28294-0.07073-0.56648-0.12634-0.85163-0.17415-0.8176-0.1371-1.6633-0.17329-2.4882-0.11679-1.4217 0.09736-2.8262 0.65161-3.6721 1.879-0.19053 0.27644-0.35115 0.57908-0.47232 0.89245-0.0726 0.18755-0.11208 0.37509-0.17777 0.51935-0.0304 0.06663-0.18624 0.18278-0.30644 0.33383-0.15887 0.19965-0.31516 0.46864-0.38292 0.76016-0.0678 0.29152-0.03897 0.62296 0.19895 0.8692 0.21765 0.22528 0.51096 0.28146 0.77773 0.25166 0.26676-0.0298 0.52122-0.1371 0.72812-0.2403 0.60044-0.29944 1.1984-0.55009 1.8459-0.67748 0.17147-0.03374 0.34767-0.060043 0.51573-0.068213 0.071-0.0034 0.09513-0.007319 0.10335-0.009819 7e-3 0.01038 0.0133 0.01981 0.0217 0.03669 0.0239 0.04825 0.0406 0.10274 0.0739 0.1602 0.13754 0.23686 0.30798 0.45429 0.49403 0.64854 0.65325 0.68207 1.6052 1.0458 2.5177 1.1307 0.21077 0.0196 0.50202 0.088615 0.77566 0.029456 0.21325-0.0461 0.36346-0.25847 0.31058-0.48059-0.03831-0.1609-0.15902-0.25446-0.26768-0.32815-0.10867-0.07368-0.22061-0.13212-0.27544-0.17363-0.22347-0.1692-0.42844-0.37187-0.60358-0.5917-6.11e-4 -7.67e-4 -0.001367-0.001267-0.002067-0.002067 0.03067 0.0072 0.069039 0.017362 0.097669 0.025322 0.27659 0.0769 0.54971 0.16202 0.82217 0.25373 0.87342 0.294 1.7333 0.66957 2.5254 1.1348 0.19894 0.11684 0.39417 0.23729 0.57619 0.36949 0.09032 0.0656 0.18575 0.1601 0.31058 0.2403 0.14722 0.09459 0.34631 0.092265 0.48628-0.029455 0.0803-0.06984 0.12851-0.16746 0.13694-0.25993 0.0084-0.092469-0.014418-0.17696-0.044958-0.25166-0.06109-0.14941-0.16008-0.27628-0.21291-0.35553-0.37649-0.56479-0.82999-1.0696-1.3498-1.5059-1.2096-1.0153-2.7223-1.6077-4.2752-1.8009-0.67555-0.084059-1.3463-0.066725-2.0159-0.064595 0.67923-0.3707 1.5334-0.50041 2.3048-0.46664 2.6428 0.11572 4.9625 1.6173 6.6564 3.6055 0.64917 0.76195 1.2056 1.5882 1.7012 2.4608 0.09029 0.15898 0.15901 0.42307 0.33383 0.62322 0.12733 0.1458 0.34689 0.18748 0.5178 0.078031 0.13065-0.08367 0.18597-0.23358 0.18345-0.3514-0.0025-0.11782-0.038602-0.21805-0.060462-0.29507-0.11523-0.40602-0.25712-0.79783-0.40411-1.1875-0.63765-1.6905-1.6848-3.3501-3.0334-4.5703-0.36832-0.33324-0.7538-0.61576-1.1307-0.91416-0.03746-0.02966-0.093711-0.090638-0.12712-0.15038-0.03341-0.05974-0.03975-0.11181-0.03514-0.12868 0.01487-0.05433 0.10947-0.12854 0.22066-0.18965 0.2818-0.15487 0.60886-0.18264 0.96687-0.26975 0.25845-0.06288 0.39322-0.36647 0.25993-0.59945-0.17923-0.3133-0.55712-0.46469-0.82631-0.55449-0.29271-0.097647-0.58792-0.14276-0.88108-0.14418zm-0.068213 0.99736v5.17e-4c-0.06847 0.04878-0.14789 0.075096-0.20722 0.13642-0.15532 0.16055-0.27019 0.37433-0.27699 0.6289-0.0078 0.29212 0.12416 0.52994 0.29094 0.71313 0.16678 0.1832 0.36896 0.32462 0.53692 0.45114 0.19499 0.14687 0.38322 0.30342 0.56844 0.46664 0.34603 0.30494 0.59418 0.70763 0.89452 1.0645-1.685-1.5056-3.7408-2.579-6.0467-2.6799-1.0446-0.04574-2.2205 0.05659-3.1269 0.71107-0.2325 0.16787-0.45787 0.37784-0.6134 0.63872-0.0325 0.05459-0.0724 0.12126-0.0956 0.20516-0.0232 0.08389-0.02189 0.19382 0.03101 0.29094 0.0956 0.17537 0.28704 0.22114 0.44338 0.23048 0.15634 0.0093 0.30957-0.009819 0.39429-0.009819 0.67805 0 1.3565-0.023576 2.018 0.021704 1.3976 0.09571 2.7792 0.51922 3.9259 1.3219 0.083549 0.05848 0.15305 0.13206 0.23409 0.19379-0.02159-0.0098-0.043016-0.021793-0.064596-0.031523-0.7557-0.34068-1.5457-0.63727-2.3554-0.83974-0.21112-0.0528-0.42623-0.10805-0.64647-0.15244-0.07181-0.01447-0.17524-0.054817-0.30282-0.054777-0.19603 7.7e-5 -0.34677 0.13834-0.39016 0.31678-0.0541 0.22206 0.0717 0.3986 0.11524 0.49971 0.12368 0.28688 0.29832 0.55032 0.49609 0.78496-0.03989-0.01035-0.086537-0.016578-0.12506-0.028938-0.46752-0.14995-0.89137-0.40303-1.2345-0.75034-0.17372-0.17582-0.33209-0.39409-0.43357-0.61495-0.0286-0.06222-0.05478-0.15204-0.10955-0.24443-0.0548-0.09239-0.15996-0.19013-0.30283-0.21291-0.26946-0.04295-0.55834 0.024927-0.77308 0.054777-0.75277 0.10464-1.4637 0.35597-2.1348 0.69143-0.22007 0.11002-0.43326 0.22924-0.63304 0.25786-0.0386 0.0055-0.08257 0.008434-0.1111 0.004134-0.0285-0.0043-0.03182-0.010168-0.03152-0.009818-5e-3 -0.0065-0.01372-0.031932-0.00982-0.076482 4e-3 -0.04455 0.02051-0.10002 0.03721-0.14418 0.0994-0.26411 0.30964-0.43328 0.53123-0.68368 0.11603-0.13121 0.12231-0.28275 0.14624-0.35967 0.0552-0.17774 0.1201-0.35041 0.19534-0.51935 0.22053-0.49519 0.54953-0.93871 0.971-1.2754 0.73762-0.58921 1.7076-0.79449 2.6582-0.83612 0.66931-0.02932 1.3346 0.006154 1.9978 0.10387 0.311 0.04582 0.62427 0.10791 0.92398 0.1912 0.12445 0.03458 0.33456 0.15525 0.56637 0.14056 0.18305-0.01156 0.2919-0.13088 0.35915-0.1757 0.15109-0.10068 0.30958-0.19137 0.47284-0.2775 0.35756-0.18865 0.79311-0.12761 1.217-0.14263zm-3.9734 4.054c3.55e-4 1.34e-4 6.79e-4 3.83e-4 0.001034 5.17e-4l-5.17e-4 5.17e-4c-1.3e-4 -3.55e-4 -3.87e-4 -6.79e-4 -5.17e-4 -0.001034z" color="#000000" fill="#808080" style="-inkscape-stroke:none"/></g></svg>
