<svg version="1.1" viewBox="0 0 16 16" xmlns="http://www.w3.org/2000/svg" xmlns:osb="http://www.openswatchbook.org/uri/2009/osb">
 <g transform="rotate(90 281.15 -129.23)" enable-background="new" fill="#808080">
  <path d="m419.7 139.96-4.541 2.4727 0.47851 0.8789 4.541-2.4726z" color="#000000" style="-inkscape-stroke:none"/>
  <path d="m421.16 139.16-4.541 2.4727 0.47851 0.8789 4.541-2.4726z" color="#000000" enable-background="new" style="-inkscape-stroke:none"/>
  <path d="m415.67 144.48-0.47852 0.8789 4.541 2.4727 0.47851-0.87891z" color="#000000" style="-inkscape-stroke:none"/>
  <path d="m417.94 145.72-0.47852 0.8789 4.541 2.4727 0.47851-0.87891z" color="#000000" enable-background="new" style="-inkscape-stroke:none"/>
  <g shape-rendering="auto">
   <path d="m421.66 136c-0.57259 6e-5 -1.0367 0.46422-1.0368 1.0368l-0.0365 3.1104c6e-5 0.57258 0.46422 1.0367 1.0368 1.0368h3.0739c0.57259-6e-5 1.0367-0.46422 1.0368-1.0368l0.0365-3.1104c-6e-5 -0.57258-0.46422-1.0367-1.0368-1.0368z" color="#000000" color-rendering="auto" dominant-baseline="auto" enable-background="new" image-rendering="auto" solid-color="#000000" stop-color="#000000" style="font-feature-settings:normal;font-variant-alternates:normal;font-variant-caps:normal;font-variant-east-asian:normal;font-variant-ligatures:normal;font-variant-numeric:normal;font-variant-position:normal;font-variation-settings:normal;inline-size:0;isolation:auto;mix-blend-mode:normal;shape-margin:0;shape-padding:0;text-decoration-color:#000000;text-decoration-line:none;text-decoration-style:solid;text-indent:0;text-orientation:mixed;text-transform:none;white-space:normal"/>
   <path d="m421.66 146.65c-0.57259 6e-5 -1.0367 0.46422-1.0368 1.0368l-0.0365 3.1104c6e-5 0.57258 0.46422 1.0367 1.0368 1.0368h3.0739c0.57259-6e-5 1.0367-0.46422 1.0368-1.0368l0.0365-3.1104c-6e-5 -0.57258-0.46422-1.0367-1.0368-1.0368z" color="#000000" color-rendering="auto" dominant-baseline="auto" enable-background="new" image-rendering="auto" solid-color="#000000" stop-color="#000000" style="font-feature-settings:normal;font-variant-alternates:normal;font-variant-caps:normal;font-variant-east-asian:normal;font-variant-ligatures:normal;font-variant-numeric:normal;font-variant-position:normal;font-variation-settings:normal;inline-size:0;isolation:auto;mix-blend-mode:normal;shape-margin:0;shape-padding:0;text-decoration-color:#000000;text-decoration-line:none;text-decoration-style:solid;text-indent:0;text-orientation:mixed;text-transform:none;white-space:normal"/>
   <path d="m412.07 141.33c-0.57259 6e-5 -1.0367 0.46422-1.0368 1.0368l-0.0365 3.1104c6e-5 0.57258 0.46422 1.0367 1.0368 1.0368h3.0739c0.57259-6e-5 1.0367-0.46422 1.0368-1.0368l0.0365-3.1104c-6e-5 -0.57258-0.46422-1.0367-1.0368-1.0368z" color="#000000" color-rendering="auto" dominant-baseline="auto" enable-background="new" image-rendering="auto" solid-color="#000000" stop-color="#000000" style="font-feature-settings:normal;font-variant-alternates:normal;font-variant-caps:normal;font-variant-east-asian:normal;font-variant-ligatures:normal;font-variant-numeric:normal;font-variant-position:normal;font-variation-settings:normal;inline-size:0;isolation:auto;mix-blend-mode:normal;shape-margin:0;shape-padding:0;text-decoration-color:#000000;text-decoration-line:none;text-decoration-style:solid;text-indent:0;text-orientation:mixed;text-transform:none;white-space:normal"/>
  </g>
 </g>
</svg>
