<svg version="1.1" viewBox="0 0 16 16" xmlns="http://www.w3.org/2000/svg" xmlns:osb="http://www.openswatchbook.org/uri/2009/osb">
 <g transform="translate(20.438 1.4787)" fill="#808080">
  <path d="m-16.688-0.47852c-0.63332-0.00321-1.1532 0.019533-1.6055 0.089844-0.08609 0.012259-0.17258 0.024852-0.25 0.041016-0.06515 0.013602-0.12625 0.028264-0.18555 0.044922-0.04497 0.012634-0.08912 0.026489-0.13086 0.041016-0.36964 0.1182-0.68793 0.29876-0.92969 0.56836-0.61694 0.68798-0.64844 1.6693-0.64844 3.1328v6.1621c0 1.4631 0.03123 2.4431 0.64844 3.1289 0.3086 0.34288 0.74053 0.54432 1.2461 0.65234 0.50557 0.10803 1.1037 0.13867 1.8555 0.13867h4.25 4.252c0.75175 0 1.3499-0.03064 1.8555-0.13867 0.50557-0.10803 0.93749-0.30946 1.2461-0.65234 0.6172-0.68577 0.64648-1.6658 0.64648-3.1289v-6.1621c0-1.4635-0.029548-2.4448-0.64648-3.1328-0.24137-0.26917-0.56028-0.45014-0.92969-0.56836-0.010086-0.003512-0.020977-0.006367-0.03125-0.009766-0.15529-0.051382-0.33621-0.088655-0.53711-0.11719-0.45157-0.0701-0.97169-0.092991-1.6035-0.089844h-4.252-4.248zm0.07422 3.0137h4.1758 4.1777c1.5375-0.0076 2.3708 0.075438 2.8184 0.56055 0.00176 0.11188 0.00391 0.22193 0.00391 0.34375v6.1621c0 1.4283-0.11995 2.1582-0.39062 2.459-0.13534 0.15037-0.33092 0.26255-0.71094 0.34375-0.38002 0.0812-0.92455 0.11719-1.6465 0.11719h-4.252-4.25c-0.72193 0-1.2665-0.03598-1.6465-0.11719-0.38002-0.0812-0.5756-0.19338-0.71094-0.34375-0.27068-0.30075-0.39258-1.0307-0.39258-2.459v-6.1621c0-0.12113 0.0021-0.23049 0.0039-0.3418 0.44746-0.48749 1.28-0.57011 2.8203-0.5625z" color="#000000"/>
  <path d="m-18.201 6.5781a0.5 0.5 0 0 0-0.63281 0.3125 0.5 0.5 0 0 0 0.3125 0.63477c0.28056 0.095218 0.24123 0.11316 0.25391 0.17188 0.01267 0.058711-0.01206 0.24751-0.05273 0.50586s-0.08769 0.66094 0.1875 1.0078c0.27518 0.34687 0.717 0.47394 1.3379 0.51367 0.21473 0.013739 0.3296 0.080812 0.43945 0.18945 0.10985 0.10864 0.20354 0.27531 0.26758 0.45898 0.12807 0.36736 0.13086 0.75 0.13086 0.75a0.5 0.5 0 0 0 0.49805 0.50391 0.5 0.5 0 0 0 0.50195-0.49805s0.0083-0.52422-0.1875-1.0859c-0.09791-0.28086-0.24942-0.58429-0.50781-0.83984-0.2584-0.25555-0.63476-0.44819-1.0781-0.47656-0.4989-0.031922-0.62482-0.14583-0.61914-0.13867 0.0057 0.00716-0.01426-0.02628 0.01758-0.22852 0.03184-0.20224 0.12404-0.4975 0.04297-0.87305-0.08107-0.37555-0.42439-0.74268-0.91211-0.9082z" color="#000000" stroke-linecap="round" style="-inkscape-stroke:none"/>
  <rect transform="rotate(225)" x="1.639" y="-17.163" width="2.2959" height="9.6429" enable-background="new"/>
  <path d="m-13.458 10.815-1.2988-1.2988-0.81173 1.7858 0.32469 0.32469z" enable-background="new"/>
 </g>
</svg>
