<svg version="1.1" viewBox="0 0 16 16" xmlns="http://www.w3.org/2000/svg" xmlns:osb="http://www.openswatchbook.org/uri/2009/osb">
 <g transform="translate(20.41 .48163)" fill="#808080">
  <g fill-rule="evenodd">
   <path d="m-10.023 1.5176v3.4434a3.5 3.5 0 0 1 1 1.6797v-5.123z" enable-background="new" style="paint-order:stroke fill markers"/>
   <path d="m-15.799 1.5176v5.1504a3.5 3.5 0 0 1 1-1.6992v-3.4512z" enable-background="new" style="paint-order:stroke fill markers"/>
   <g stroke-linecap="round">
    <path d="m-12.41 3.5176c-2.2032 0-4 1.7968-4 4 0 1.7815 1.1746 3.2975 2.7891 3.8125-0.16643-0.13539-0.31247-0.29988-0.42773-0.48828 0.14249-0.22888 0.26805-0.4208 0.375-0.60156-1.0269-0.47516-1.7363-1.5123-1.7363-2.7227 0-1.6628 1.3372-3 3-3 1.6628 0 3 1.3372 3 3 0 1.211-0.71051 2.2478-1.7383 2.7227 0.10695 0.18076 0.23251 0.37268 0.375 0.60156-0.11554 0.18885-0.26275 0.3527-0.42969 0.48828 1.6162-0.51395 2.793-2.0298 2.793-3.8125 0-2.2032-1.7968-4-4-4z" color="#000000" style="-inkscape-stroke:none"/>
    <path d="m-12.412 8.3999c-0.3506 0-0.69555 0.077542-1.0137 0.22461l-0.28125 0.12891-0.0098 0.30859c-0.027 0.87914-0.23196 1.0746-0.75586 1.9161l-0.16211 0.26172 0.16016 0.26367c0.43916 0.7178 1.221 1.1582 2.0625 1.1582h2e-3c0.8415 0 1.6233-0.4404 2.0625-1.1582l0.16211-0.26367-0.16406-0.26172c-0.5239-0.84151-0.72883-1.037-0.75586-1.9161l-0.0098-0.30859-0.28125-0.12891c-0.31813-0.14713-0.66308-0.22461-1.0136-0.22461z" color="#000000" style="-inkscape-stroke:none"/>
    <path d="m-17.31 9.5176c-0.8225 0-1.5 0.6775-1.5 1.5s0.6775 1.5 1.5 1.5 1.5-0.6775 1.5-1.5-0.6775-1.5-1.5-1.5z" color="#000000" style="-inkscape-stroke:none"/>
    <path d="m-7.5102 9.5176c-0.8225 0-1.5 0.6775-1.5 1.5s0.6775 1.5 1.5 1.5 1.5-0.6775 1.5-1.5-0.6775-1.5-1.5-1.5z" color="#000000" style="-inkscape-stroke:none"/>
   </g>
   <circle cx="-10.774" cy="7.208" r=".75" enable-background="new" style="paint-order:stroke fill markers"/>
   <circle cx="-14.048" cy="7.208" r=".75" enable-background="new" style="paint-order:stroke fill markers"/>
  </g>
  <path d="m-16.662 0.51953c-0.74998-0.003736-1.3483 0.023777-1.8535 0.13086-0.5063 0.10731-0.93958 0.31031-1.248 0.6543-0.61694 0.68798-0.64648 1.6693-0.64648 3.1328v6.1621c0 1.4631 0.02928 2.4431 0.64648 3.1289 0.3086 0.34288 0.74053 0.54236 1.2461 0.65039 0.50557 0.10803 1.1037 0.13867 1.8555 0.13867h8.502c0.75175 0 1.3499-0.03064 1.8555-0.13867 0.50557-0.10803 0.93749-0.30751 1.2461-0.65039 0.6172-0.68577 0.64844-1.6658 0.64844-3.1289v-6.1621c0-1.4635-0.0315-2.4448-0.64844-3.1328-0.30847-0.34399-0.74174-0.54699-1.248-0.6543-0.50577-0.10719-1.1024-0.13467-1.8535-0.13086h-8.498zm-2e-3 1h8.5059c0.72147-0.00372 1.2652 0.028989 1.6445 0.10938 0.37928 0.080386 0.57546 0.19072 0.71094 0.3418 0.27095 0.30216 0.39258 1.0381 0.39258 2.4668v6.1621c0 1.4283-0.1219 2.1582-0.39258 2.459-0.13534 0.15037-0.33092 0.26255-0.71094 0.34375-0.38002 0.0812-0.92455 0.11523-1.6465 0.11523h-8.502c-0.72193 0-1.2665-0.03403-1.6465-0.11523-0.38002-0.0812-0.5756-0.19338-0.71094-0.34375-0.27068-0.30075-0.39062-1.0307-0.39062-2.459v-6.1621c0-1.4286 0.11967-2.1646 0.39062-2.4668 0.13548-0.15108 0.33166-0.26141 0.71094-0.3418 0.37928-0.080386 0.92306-0.1131 1.6445-0.10938z" color="#000000" style="-inkscape-stroke:none"/>
 </g>
</svg>
