<svg version="1.1" viewBox="0 0 16 16" xmlns="http://www.w3.org/2000/svg" xmlns:osb="http://www.openswatchbook.org/uri/2009/osb">
 <g transform="translate(17.737 -2.457)" fill="#808080">
  <path d="m-9.7383 2.457c-0.062532 2.862e-4 -0.12271 0.00465-0.18164 0.011719-0.047552 0.0057-0.10399 0.013939-0.16797 0.027344a0.50005 0.50005 0 0 0-2e-3 0c-0.05695 0.012202-0.11401 0.027708-0.16992 0.044922-0.05064 0.015573-0.10698 0.03409-0.16797 0.058594-0.05585 0.022442-0.11172 0.045581-0.16602 0.072266-0.05709 0.028024-0.11074 0.058398-0.16211 0.087891-0.10735 0.06146-0.21529 0.13115-0.32422 0.20898-0.10879 0.077755-0.21808 0.16335-0.33008 0.25586-0.10947 0.090389-0.22618 0.19042-0.34766 0.30078-0.11942 0.1085-0.24312 0.22415-0.37109 0.34766-0.1305 0.12595-0.26237 0.25846-0.40039 0.39648l-2.3945 2.3965c-0.12505 0.12504-0.24521 0.24545-0.35938 0.36328-0.1151 0.11879-0.22034 0.23338-0.31836 0.33984-0.09968 0.10826-0.19491 0.2128-0.2832 0.31641-0.08693 0.10196-0.16618 0.20087-0.24219 0.30078-0.07611 0.10004-0.14675 0.19844-0.20898 0.29492-0.06211 0.096291-0.11783 0.19376-0.16797 0.29297-0.04878 0.09649-0.09321 0.19516-0.12891 0.29883-0.03613 0.10472-0.06103 0.2087-0.07813 0.31055a0.50005 0.50005 0 0 0-2e-3 0.00391c-0.0076 0.048129-0.01341 0.10022-0.01758 0.1543-0.0036 0.04509-0.0075 0.099037-0.0059 0.16211v5.1289c-0.0037 0.76159 0.01192 1.3657 0.09766 1.875 0.08583 0.50986 0.2553 0.94922 0.58398 1.2734 0.32868 0.32422 0.76986 0.48893 1.2832 0.57422 0.51334 0.08529 1.1217 0.10156 1.8906 0.10156h6.291c0.76891 0 1.3784-0.01621 1.8906-0.10156 0.51222-0.08535 0.95202-0.24974 1.2793-0.57422 0.32728-0.32448 0.4938-0.76437 0.58008-1.2734s0.10352-1.1128 0.10352-1.875v-5.1426c5.573e-4 -0.054033-0.00224-0.10503-0.00586-0.15039-0.00368-0.046171-0.00877-0.10142-0.019531-0.16211-0.0171-0.099926-0.042729-0.20201-0.078125-0.30469-0.03553-0.10339-0.078094-0.20238-0.12682-0.29883-0.050124-0.099139-0.10781-0.19667-0.16992-0.29297-0.062246-0.096499-0.13092-0.19488-0.20703-0.29492-0.076072-0.099989-0.15733-0.19891-0.24414-0.30078-0.088222-0.10348-0.18351-0.20812-0.2832-0.31641-0.098002-0.10643-0.20325-0.22105-0.31836-0.33984-0.11417-0.11783-0.23433-0.23824-0.35938-0.36328l-2.3945-2.3965c-0.13802-0.13803-0.26989-0.27054-0.40039-0.39648-0.12797-0.12351-0.25167-0.23916-0.37109-0.34766-0.12151-0.11039-0.23828-0.21044-0.34766-0.30078-0.11186-0.092363-0.22108-0.178-0.33008-0.25586-0.10852-0.077562-0.21537-0.14772-0.32227-0.20898h-0.00195c-0.051539-0.029537-0.1056-0.060118-0.16211-0.087891-0.052825-0.025876-0.108-0.049715-0.16406-0.072266h-0.00195c-0.0603-0.024151-0.11781-0.045127-0.16797-0.060547-0.053683-0.016508-0.10844-0.030438-0.16797-0.042969h-0.00195c-0.060323-0.012837-0.11615-0.021625-0.16797-0.027344h-0.00586c-0.055882-0.00653-0.11615-0.011719-0.17969-0.011719a0.50005 0.50005 0 0 0-0.00195 0zm0.00195 1c5.101e-4 0 0.00143-2.3e-6 0.00195 0 0.017161 7.61e-5 0.039256 8.85e-4 0.064453 0.00391a0.50005 0.50005 0 0 0 0.00586 0.00195c0.029577 0.00319 0.051412 0.0053 0.072266 0.00977a0.50005 0.50005 0 0 0 0.00391 0.00195c0.023855 0.00499 0.0511 0.011973 0.082031 0.021484 0.034548 0.010621 0.064252 0.020966 0.089844 0.03125 0.030061 0.012063 0.062409 0.025703 0.097656 0.042969 0.031343 0.015451 0.067007 0.034578 0.10547 0.056641 0.074731 0.042783 0.15306 0.09339 0.23828 0.1543 0.085219 0.060876 0.17749 0.13401 0.27539 0.21484 0.10038 0.082916 0.20529 0.17214 0.3125 0.26953 0.10928 0.099283 0.22457 0.20738 0.34766 0.32617 0.12056 0.11635 0.24987 0.24595 0.38867 0.38477l2.3945 2.3965c0.12435 0.12434 0.24045 0.24091 0.34766 0.35156 0.10627 0.10968 0.20734 0.21866 0.30273 0.32227 0.093686 0.10176 0.17868 0.19659 0.25586 0.28711 0.078571 0.092206 0.14766 0.1772 0.20898 0.25781 0.061264 0.08052 0.11691 0.15932 0.16406 0.23242 0.047246 0.073246 0.085911 0.13931 0.11719 0.20117 0.032598 0.06453 0.056486 0.12242 0.074219 0.17383 0.01731 0.050213 0.030763 0.10099 0.039063 0.15039a0.50005 0.50005 0 0 0 0 0.00391c0.00264 0.01489 0.0055 0.037377 0.00781 0.066406 2e-3 0.025652 0.00225 0.046096 0.00195 0.0625a0.50005 0.50005 0 0 0 0 0.00781v5.1426c0 0.74497-0.020641 1.3102-0.087891 1.707-0.06725 0.39682-0.16989 0.60069-0.30078 0.73047-0.13089 0.12978-0.33851 0.23189-0.74023 0.29883-0.40172 0.06694-0.97268 0.08789-1.7246 0.08789h-6.291c-0.75192 0-1.3233-0.02088-1.7266-0.08789s-0.61425-0.16878-0.74609-0.29883c-0.13184-0.13005-0.23216-0.33249-0.29883-0.72852-0.06667-0.39602-0.08766-0.96258-0.08398-1.707a0.50005 0.50005 0 0 0 0-2e-3v-5.1425a0.50005 0.50005 0 0 0 0-0.013672c-2.99e-4 -0.011208-4.25e-4 -0.026841 2e-3 -0.056641a0.50005 0.50005 0 0 0 0-0.00195c0.0015-0.019464 0.0059-0.043409 0.0098-0.068359 0.0083-0.049436 0.01983-0.10032 0.03711-0.15039 0.01763-0.051195 0.04356-0.10932 0.07617-0.17383 0.03122-0.061771 0.06795-0.12786 0.11523-0.20117 0.04712-0.073057 0.10278-0.15187 0.16406-0.23242 0.06135-0.080645 0.13051-0.16577 0.20898-0.25781 0.07709-0.090457 0.1641-0.18533 0.25781-0.28711 0.09536-0.10358 0.1945-0.21257 0.30078-0.32227 0.10721-0.11065 0.2233-0.22722 0.34766-0.35156l2.3945-2.3965c0.1388-0.13881 0.26812-0.26841 0.38867-0.38477 0.12309-0.11879 0.23838-0.22689 0.34766-0.32617 0.10724-0.097423 0.21221-0.18672 0.3125-0.26953 0.09776-0.08075 0.18998-0.15185 0.27539-0.21289 0.08527-0.060927 0.16363-0.11351 0.23828-0.15625a0.50005 0.50005 0 0 0 2e-3 0c0.03907-0.022432 0.07456-0.0415 0.10547-0.056641 0.03442-0.016915 0.0669-0.030611 0.09766-0.042969 0.02563-0.010296 0.055287-0.020623 0.089844-0.03125 0.028551-0.00879 0.055512-0.015746 0.082031-0.021484 0.020024-0.0042 0.046183-0.00937 0.082031-0.013672 0.023754-0.00285 0.044452-0.00374 0.064453-0.00391z" color="#000000" stroke-linejoin="round" style="-inkscape-stroke:none"/>
  <path d="m-7.9989 9.6347a1.0371 1.0371 0 0 0-0.15473 6e-3l-2.721 0.42457c-0.30682 0.031-0.34004 0.17436-0.3374 0.35286v3.5928c-0.15586-0.10264-0.32304-0.17548-0.54533-0.17548-0.28681 0-0.45777 0.10944-0.56117 0.25436-0.10342 0.14455-0.13776 0.32645-0.13776 0.46722 0 0.16982 0.0585 0.35097 0.18418 0.48872 0.12604 0.13812 0.31927 0.23512 0.59703 0.23512 0.31399 0 0.53439-0.0876 0.6593-0.25889 0.0981-0.13474 0.15285-0.31513 0.17247-0.53704 3e-3 -0.0272 4e-3 -0.055 6e-3 -0.0834 1e-3 -0.0227 1e-3 -0.0385 1e-3 -0.0649h1e-3v-2.9071c8e-3 -0.23398 0.22039-0.26831 0.22039-0.26831l2.2093-0.34494c0.21171-0.0649 0.21209 0.19737 0.21209 0.19737v2.6198c-0.15586-0.10264-0.32304-0.17548-0.54533-0.17548-0.28682 0-0.45778 0.10944-0.56119 0.25436-0.1034 0.14455-0.13774 0.32645-0.13774 0.46721 0 0.16983 0.0585 0.35098 0.18416 0.48873 0.12605 0.13812 0.31928 0.23512 0.59704 0.23512 0.31399 0 0.53438-0.0876 0.65931-0.2589 0.0981-0.13473 0.15284-0.31511 0.17246-0.53703 3e-3 -0.0272 4e-3 -0.0551 6e-3 -0.0834 1e-3 -0.0227 1e-3 -0.0385 1e-3 -0.0649h1e-3v-3.9883c5e-3 -0.25889-0.0529-0.3272-0.18341-0.33626z" enable-background="new" fill-rule="evenodd" font-family="sans-serif" font-weight="400" overflow="visible" stroke="#808080" stroke-linecap="square" stroke-linejoin="round" stroke-miterlimit="1" stroke-width=".6" style="font-feature-settings:normal;font-variant-alternates:normal;font-variant-caps:normal;font-variant-ligatures:normal;font-variant-numeric:normal;font-variant-position:normal;isolation:auto;mix-blend-mode:normal;shape-padding:0;text-decoration-color:#000000;text-decoration-line:none;text-decoration-style:solid;text-indent:0;text-orientation:mixed;text-transform:none" white-space="normal"/>
  <path d="m-9.7367 5.457c-0.38557 0-0.69018 0.12426-0.91406 0.37305-0.22388 0.24876-0.33594 0.54112-0.33594 0.87695 0 0.33581 0.11206 0.62819 0.33594 0.87695 0.22388 0.24874 0.52849 0.37305 0.91406 0.37305 0.38557 0 0.69018-0.12428 0.91406-0.37305 0.22388-0.24876 0.33594-0.54113 0.33594-0.87695s-0.11206-0.62819-0.33594-0.87695c-0.22388-0.24875-0.52849-0.37305-0.91406-0.37305z"/>
 </g>
</svg>
