<svg version="1.1" viewBox="0 0 16 16" xmlns="http://www.w3.org/2000/svg" xmlns:osb="http://www.openswatchbook.org/uri/2009/osb">
 <g fill="#808080">
  <path d="m2.2559 1.2305c-0.277 0-0.5 0.223-0.5 0.5v0.85156c0.16262-0.027762 0.33001-0.042969 0.5-0.042969 0.16999 0 0.33738 0.015207 0.5 0.042969v-0.85156c0-0.277-0.223-0.5-0.5-0.5zm0 3.3086c-0.18371 1e-7 -0.35412 0.047079-0.5 0.12891v1.7422c0.14588 0.081828 0.31629 0.12891 0.5 0.12891s0.35412-0.047079 0.5-0.12891v-1.7422c-0.14588-0.081828-0.31629-0.12891-0.5-0.12891zm-0.5 3.957v5.7734c0 0.277 0.223 0.5 0.5 0.5s0.5-0.223 0.5-0.5v-5.7734c-0.16262 0.027762-0.33001 0.042969-0.5 0.042969s-0.33738-0.015207-0.5-0.042969z" fill-rule="evenodd" stroke-linecap="round" stroke-width="1.8402" style="paint-order:stroke fill markers"/>
  <path d="m4.2566 5.5386a2 2 0 0 1-2 2 2 2 0 0 1-2-2 2 2 0 0 1 2-2 2 2 0 0 1 2 2z" stroke-width=".36364"/>
  <path d="m8 1.2305c-0.277 0-0.5 0.223-0.5 0.5v5.3633c0.16258-0.02775 0.33005-0.042969 0.5-0.042969 0.16995 0 0.33742 0.015219 0.5 0.042969v-5.3633c0-0.277-0.223-0.5-0.5-0.5zm0 7.8203c-0.18371 1e-7 -0.35412 0.047079-0.5 0.12891v1.7422c0.14604 0.082071 0.31599 0.12891 0.5 0.12891s0.35396-0.046835 0.5-0.12891v-1.7422c-0.14588-0.081828-0.31629-0.12891-0.5-0.12891zm-0.5 3.957v1.2617c0 0.277 0.223 0.5 0.5 0.5s0.5-0.223 0.5-0.5v-1.2617c-0.16262 0.027763-0.33001 0.042969-0.5 0.042969s-0.33738-0.015206-0.5-0.042969z" fill-rule="evenodd" stroke-linecap="round" stroke-width="1.8402" style="paint-order:stroke fill markers"/>
  <path d="m10 10.051a2 2 0 0 1-2 2 2 2 0 0 1-2-2 2 2 0 0 1 2-2 2 2 0 0 1 2 2z" stroke-width=".36364"/>
  <path d="m13.744 1.2305c-0.277 0-0.5 0.223-0.5 0.5v2.082c0.16262-0.027762 0.33001-0.042969 0.5-0.042969 0.17065 0 0.33678 0.014994 0.5 0.042969v-2.082c0-0.277-0.223-0.5-0.5-0.5zm0 4.5391c-0.18401 1e-7 -0.35396 0.046835-0.5 0.12891v1.7422c0.14588 0.081827 0.31629 0.12891 0.5 0.12891 0.18456 0 0.35367-0.048329 0.5-0.13086v-1.7402c-0.14629-0.082461-0.31553-0.12891-0.5-0.12891zm-0.5 3.957v4.543c0 0.277 0.223 0.5 0.5 0.5 0.277 0 0.5-0.223 0.5-0.5v-4.543c-0.16318 0.027962-0.32939 0.042969-0.5 0.042969-0.16995 0-0.33742-0.015219-0.5-0.042969z" fill-rule="evenodd" stroke-linecap="round" stroke-width="1.8402" style="paint-order:stroke fill markers"/>
  <path d="m15.743 6.7693a2 2 0 0 1-2 2 2 2 0 0 1-2-2 2 2 0 0 1 2-2 2 2 0 0 1 2 2z" stroke-width=".36364"/>
 </g>
</svg>
