<svg version="1.1" viewBox="0 0 16 16" xml:space="preserve" xmlns="http://www.w3.org/2000/svg" xmlns:osb="http://www.openswatchbook.org/uri/2009/osb" xmlns:xlink="http://www.w3.org/1999/xlink"><g fill="#808080" stroke-linecap="square"><path d="m8 0c-4.3723 0-7.9355 3.5271-7.9941 7.8867l1.002 0.011719c0.023285-1.8108 1.8784-3.377 4.1797-3.377 0.17284 0 1.2688 0.028909 2.2285 0.5332 0.87283 0.45855 1.2881 0.97037 1.6074 1.5215h0.00195c0.28449 0.48863 0.35742 1.2319 0.35742 1.4746 0 0.13157-0.12795 0.56435-0.35742 0.86328 0.11295-0.14668-0.29492 0.19137-0.29492 0.63477 0 0.36351 0.22373 0.65334 0.49023 0.83789 0.55107 0.38094 1.2196 0.50204 1.7617 0.56055 0.54216 0.05851 0.9536 0.03711 0.95703 0.03711 0.74791 0 1.4294-0.2143 2.0215-0.55273 0.28245-0.16147 0.53097-0.35865 0.75195-0.56445l2e-3 -0.00195h2e-3c0.784-0.74512 1.2617-1.8 1.2773-2.957 0.015024-1.435-0.53142-2.4355-0.72266-2.8047-1.3343-2.6249-4.197-4.1035-7.2715-4.1035zm0 1c2.755 0 5.2404 1.3131 6.3809 3.5566v0.0039c0.20849 0.40274 0.62378 1.1471 0.61133 2.3359-0.01197 0.89214-0.37406 1.6808-0.96484 2.2422-0.17657 0.16399-0.36529 0.31109-0.5625 0.42383-0.46654 0.26667-0.96715 0.42188-1.5254 0.42188-0.0034 0-0.38812 0.01855-0.84961-0.03125-0.46085-0.049725-1.0041-0.18558-1.2988-0.38867h-0.00195c-0.081154-0.058121-0.058594-0.074739-0.058594-0.015625 0 0.073743-0.12562 0.25315 0.087891-0.021484v-0.00195l0.00195-0.00195c0.36172-0.47122 0.5625-0.98536 0.5625-1.4727 0-0.37615-0.04999-1.2157-0.49414-1.9785-0.38191-0.65855-0.96866-1.3574-2.0059-1.9023-1.2126-0.63716-2.4557-0.64844-2.6953-0.64844-1.1736 0-2.2357 0.39744-3.123 0.98242 1.2159-2.0593 3.3669-3.5039 5.9355-3.5039z" color="#000000" style="-inkscape-stroke:none"/><path d="m5.1875 3.5215c-2.6389 0.25989-4.9717 1.7609-5.1641 4.1074h-0.0078125c-3.2503e-4 0.00465 3.0544e-4 0.00903 0 0.013672-9.9275e-4 0.022777 6.13e-6 0.00684 0 0.013672-0.0051152 0.082879-0.0078125 0.16508-0.0078125 0.24414 0 1.4324 0.33561 2.5966 0.75391 3.4922 0.93876 1.9955 2.675 3.544 4.8027 4.2266v-2e-3c0.77169 0.25 1.5922 0.38286 2.4414 0.38286 0.86088 0 1.6919-0.15041 2.4727-0.40234 0.01541-5e-3 0.03346-0.0028 0.04883-0.0078 0.0031-1e-3 0.0067-9.32e-4 0.0098-2e-3l-0.30664-0.95312c-0.0025 7.82e-4 -0.0053 0.0012-0.0078 2e-3 -0.37225 0.11521-0.76523 0.18315-1.1739 0.18358-0.77353-0.006163-1.4782-0.2249-2.0918-0.60547-0.46457-0.28738-0.86997-0.6705-1.1895-1.1191-0.49754-0.69431-0.79492-1.5542-0.79492-2.4863 0-1.3779 0.64148-2.5862 1.6172-3.3535 0.2127-0.16516 0.52571-0.35708 0.70898-0.44336h0.00195l0.00195-0.00195c0.18995-0.09148 0.39623-0.18835 0.68165-0.1836h0.0039c0.51984 0.0052 0.89605 0.26754 1.1074 0.55273 0.16978 0.23235 0.26834 0.49917 0.27344 0.80469l1-0.00781s-0.01124 0.10326-0.01172 0.10547c4.45e-4 -0.00193 0.0014-0.00334 2e-3 -0.00586l0.01953-0.072266-2e-3 -0.076172c-0.01296-0.40458-0.083557-1.1584-0.48827-1.8535-0.3819-0.65883-0.97013-1.3591-2.0078-1.9043-1.2124-0.63704-2.4535-0.67206-2.6934-0.64844zm0 1c0.17149 0 1.2686 0.030749 2.2285 0.53516 0.3304 0.17358 0.39045 0.3864 0.60938 0.57422-0.00881-1.947e-4 -0.014585-0.00576-0.023437-0.00586h-0.00391c-0.53495-0.0075399-0.94329 0.19565-1.125 0.2832-0.28359 0.13351-0.6182 0.34099-0.90039 0.56055h-0.00195c-1.2104 0.95183-1.998 2.4517-1.998 4.1406 0 1.1445 0.36437 2.2086 0.98047 3.0684 0.28889 0.40568 0.68664 0.70798 1.0781 1.0137-0.05036-0.01502-0.10833-0.0092-0.1582-0.02539h-0.00195c-1.8588-0.59628-3.3819-1.9527-4.2031-3.6973v-2e-3c-0.36507-0.78202-0.66016-1.7902-0.66016-3.0664 0-0.057664 0.00267-0.1142 0.00586-0.16992 0.12857-1.7306 1.9445-3.209 4.1738-3.209z" color="#000000" style="-inkscape-stroke:none"/><path d="m7.0723 5.8672c-0.061824 0.00255-0.070415 0.00413-0.023437 0.00195l-0.10156 0.00391-0.089844 0.044922c-0.2781 0.13296-0.60702 0.33468-0.88477 0.55078h-0.00195c-1.2104 0.95182-1.998 2.4517-1.998 4.1406 0 1.1445 0.36437 2.2086 0.98047 3.0684 0.39544 0.55531 0.89622 1.0277 1.4766 1.3867 0.76121 0.4721 1.6525 0.74822 2.6113 0.75586h0.0039c0.24478 0 0.48074-0.02094 0.70898-0.05469l0.011719-2e-3 0.00977-2e-3c0.26521-0.0504 0.5187-0.11174 0.73242-0.17774 0.0322-0.0086 0.0769-0.02461 0.12109-0.04297 1.72-0.60269 3.1771-1.7684 4.1348-3.2871 0.18529-0.28714 0.1223-0.67976-0.08203-0.89453-0.20522-0.2157-0.58812-0.30051-0.88672-0.13672-0.17411 0.08945-0.35839 0.17067-0.55273 0.24609-5.82e-4 2.17e-4 -0.0014-2.16e-4 -2e-3 0-0.0014 5.44e-4 -0.0025 0.0014-0.0039 2e-3 -0.59073 0.21931-1.2355 0.34375-1.9219 0.34375-2.541 0-4.6836-1.7343-4.6836-3.8535 0-0.49464 0.28868-0.92982 0.70117-1.1562zm-1.3535 2.4609c0.23802 2.5783 2.7387 4.4863 5.5957 4.4863 0.68775 0 1.3224-0.15392 1.9336-0.3457-0.80128 0.93627-1.7763 1.7236-2.9648 2.1367l-0.03125 0.0098-0.01172 0.0059-0.0039 2e-3 -0.01367 0.0039c-0.15545 0.04843-0.38371 0.10372-0.61523 0.14844-0.00129 1.9e-4 -0.00262-1.9e-4 -0.00391 0-0.18433 0.02709-0.36843 0.04471-0.55469 0.04492-0.77354-0.0062-1.4782-0.2249-2.0918-0.60547-0.46457-0.2875-0.86998-0.67062-1.1895-1.1193-0.49754-0.69431-0.79492-1.5542-0.79492-2.4863 0-0.86715 0.31468-1.6161 0.74609-2.2812z" color="#000000" style="-inkscape-stroke:none"/></g></svg>
