<svg version="1.1" viewBox="0 0 16 16" xmlns="http://www.w3.org/2000/svg">
 <filter id="a" x="0" y="0" width="1" height="1">
  <feColorMatrix in="SourceGraphic" values="0 0 0 0 1 0 0 0 0 1 0 0 0 0 1 0 0 0 1 0"/>
 </filter>
 <mask id="b">
  <g filter="url(#a)">
   <rect width="16" height="16" fill-opacity=".3"/>
  </g>
 </mask>
 <clipPath id="c">
  <rect width="192" height="152"/>
 </clipPath>
 <g transform="translate(-168,-16)" clip-path="url(#c)" mask="url(#b)">
  <path d="m72 52c-7.7305 0-14 6.2695-14 14 0.03125 0.50391 0.08594 1.0039 0.17188 1.5 0.76172-7.0781 6.7109-12.453 13.828-12.5 7.0156 0.0039 12.945 5.1953 13.871 12.148 0.058594-0.38281 0.10156-0.76563 0.12891-1.1484 0-7.7305-6.2695-14-14-14zm34 0c-7.7305 0-14 6.2695-14 14 0.03125 0.50391 0.08594 1.0039 0.17188 1.5 0.76172-7.0781 6.7109-12.453 13.828-12.5 7.0156 0.0039 12.945 5.1953 13.871 12.148 0.0586-0.38281 0.10157-0.76563 0.12891-1.1484 0-7.7305-6.2695-14-14-14zm-34 36c-7.7305 0-14 6.2695-14 14 0.03125 0.50391 0.08594 1.0039 0.17188 1.5 0.76172-7.0781 6.7109-12.453 13.828-12.5 7.0156 0.0039 12.945 5.1953 13.871 12.148 0.058594-0.38281 0.10156-0.76563 0.12891-1.1484 0-7.7305-6.2695-14-14-14zm34 0c-7.7305 0-14 6.2695-14 14 0.03125 0.50391 0.08594 1.0039 0.17188 1.5 0.76172-7.0781 6.7109-12.453 13.828-12.5 7.0156 0.0039 12.945 5.1953 13.871 12.148 0.0586-0.38281 0.10157-0.76563 0.12891-1.1484 0-7.7305-6.2695-14-14-14z"/>
 </g>
 <g fill="#808080">
  <path d="m14.5 3c0 1.1055-0.89453 2-2 2s-2-0.89453-2-2 0.89453-2 2-2 2 0.89453 2 2z"/>
  <path d="m14.5 13c0 1.1055-0.89453 2-2 2s-2-0.89453-2-2 0.89453-2 2-2 2 0.89453 2 2z"/>
  <path d="m14.5 8c0 1.1055-0.89453 2-2 2s-2-0.89453-2-2 0.89453-2 2-2 2 0.89453 2 2z"/>
  <path d="m3.1094 4.0508v9.2383l0.00977 0.04687c0.1096 0.54801 0.38026 0.92087 0.5625 1.2246 0.18224 0.30373 0.29883 0.52872 0.29883 0.93945v0.5h2.043v-0.5c0-0.3805 0.15333-0.66265 0.36328-0.99609 0.20995-0.33344 0.51834-0.71358 0.50586-1.2754v-9.1777zm1 1h1.7832v8.1992c0.00289 0.13007-0.1228 0.35738-0.35156 0.7207-0.15394 0.24449-0.24565 0.65222-0.34766 1.0293h-0.36523c-0.08486-0.34525-0.1519-0.72452-0.28906-0.95312-0.20461-0.34101-0.36249-0.57552-0.42969-0.88672z" color="#000000" style="-inkscape-stroke:none"/>
  <path d="m1.5 4h7c0.27734 0 0.5 0.22266 0.5 0.5v1c0 0.27734-0.22266 0.5-0.5 0.5h-7c-0.27734 0-0.5-0.22266-0.5-0.5v-1c0-0.27734 0.22266-0.5 0.5-0.5z"/>
  <path d="m3 2h4v3h-4z"/>
  <path d="m3 2c0-0.71484 0.38281-1.375 1-1.7305 0.61719-0.35937 1.3828-0.35937 2 0 0.61719 0.35547 1 1.0156 1 1.7305"/>
 </g>
</svg>
