<svg version="1.1" viewBox="0 0 16 16" xmlns="http://www.w3.org/2000/svg" xmlns:osb="http://www.openswatchbook.org/uri/2009/osb">
 <path d="m8 16a8 8 0 0 1-8-8 8 8 0 0 1 8-8 8 8 0 0 1 8 8 8 8 0 0 1-8 8zm0-1a7 7 0 0 0 7-7 7 7 0 0 0-7-7 7 7 0 0 0-7 7 7 7 0 0 0 7 7z" fill="#808080"/>
 <path d="m10.925 10.1 0.3375-2.1h-1.9875v-1.4625c0-0.6 0.225-1.05 1.125-1.05h0.975v-1.9125c-0.525-0.075-1.125-0.15-1.65-0.15-1.725 0-2.925 1.05-2.925 2.925v1.65h-1.875v2.1h1.875v5.2875c0.4125 0.075 0.825 0.1125 1.2375 0.1125s0.825-0.0375 1.2375-0.1125v-5.2875z" enable-background="new" fill="#808080" stroke-width=".375"/>
</svg>
