<svg version="1.1" viewBox="0 0 16 16" xmlns="http://www.w3.org/2000/svg" xmlns:osb="http://www.openswatchbook.org/uri/2009/osb">
 <g transform="translate(17.301 .53615)" fill="#808080">
  <path d="m-5.3008 12.641c-0.13529 0.1053-0.25506 0.1762-0.3457 0.19141-0.20032 0.03362-0.41976 0.05386-0.6543 0.06836v1.5273h-6v-1.5273c-0.23496-0.01449-0.45574-0.03461-0.65625-0.06836-0.11876-0.01999-0.2331-0.04556-0.34375-0.07617v2.1719a0.50005 0.50005 0 0 0 0.5 0.5h7a0.50005 0.50005 0 0 0 0.5-0.5z" color="#000000" stroke-dashoffset="1" stroke-linecap="round" stroke-linejoin="round" style="-inkscape-stroke:none"/>
  <path d="m-7.0122 2.709c-1.0141 0-1.9099 0.74861-2.0339 1.7309-8e-3 0.0822-0.0107 0.14151-0.0112 0.21606l1e-3 4.0162c0 0.77043-0.58801 1.2948-1.3227 1.2948-0.73569 0-1.3284-0.57657-1.3284-1.296 0.0121-0.7898 0.6566-1.2907 1.4084-1.3125h4e-3l0.76325-7e-3v-1.0604l-0.76325 6e-3c-1.3684-0.0121-2.4546 1.0388-2.4942 2.3748 0 1.2992 1.0884 2.3583 2.4098 2.3583 1.2465 0 2.2838-0.95501 2.3971-2.15 0.0163-0.40677 8e-3 -0.94359 8e-3 -0.94359 2e-3 -0.22104-3e-3 -0.14166-1e-3 -0.58057l0.94677-7e-3c0.73257 5e-3 0.72434-1.0772-8e-3 -1.0623l-0.93853 7e-3c0-0.54481 9e-3 -1.0863 0-1.6319 5.4e-4 -0.47192 0.45639-0.88895 0.96203-0.88895 0.50577 0 1.0407 0.24761 1.0407 0.88895 0 0.0916-2e-3 0.14496-7e-3 0.17891-0.0565 0.29743 0.15072 0.58169 0.45596 0.6246 0.30523 0.0424 0.58553-0.17379 0.61577-0.47464 0.0175-0.11894 0.0168-0.22387 0.0168-0.32877 0-1.1309-1.0306-1.9507-2.1221-1.9507z" enable-background="new" stroke-width=".095957"/>
  <path d="m-8.3379-0.5c-3.8274 0-6.9648 3.1374-6.9648 6.9648 0 0.050695 0.0018 0.070351 2e-3 0.064453a0.50005 0.50005 0 0 0-2e-3 0.00195v2.7949c0 0.71915 0.01445 1.3048 0.10352 1.8359 0.08979 0.53549 0.27507 1.0673 0.68359 1.4766 0.4089 0.40959 0.94116 0.59542 1.4766 0.68555 0.5307 0.08933 1.1144 0.10352 1.832 0.10352h3.8086c0.7177 0 1.3046-0.01435 1.8359-0.10352 0.3518-0.05903 0.50986-0.22881 0.72461-0.41602 0.21475-0.18721 0.43641-0.41485 0.65039-0.64648 0.42797-0.46328 0.85873-0.97809 0.94922-1.0684 0.028411-0.02841 0.040673-0.04073 0.037109-0.03711a0.50005 0.50005 0 0 0 0.00195-2e-3c0.065994-0.06756 0.11837-0.13007 0.17383-0.20703 1.0258-1.2123 1.6523-2.7787 1.6523-4.4824 0-3.8274-3.1374-6.9648-6.9648-6.9648zm0 1c3.2816 0 5.9648 2.6833 5.9648 5.9648 0 1.4664-0.53657 2.809-1.4238 3.8516a0.50005 0.50005 0 0 0-0.033203 0.04687c0.0076-0.01137-0.026795 0.03125-0.085937 0.0918-0.024042 0.02453-0.029119 0.03294-0.027344 0.03125-0.21984 0.21933-0.57635 0.66036-0.97852 1.0957-0.20108 0.21767-0.40538 0.42678-0.57227 0.57227-0.16688 0.14548-0.34691 0.20443-0.23438 0.18555-0.42569 0.07143-0.96667 0.08789-1.6699 0.08789h-3.8086c-0.7033 0-1.2414-0.01642-1.666-0.08789-0.41985-0.07067-0.72403-0.19829-0.93359-0.4082-0.2099-0.21026-0.33564-0.51254-0.40625-0.93359-0.07134-0.42542-0.08984-0.96724-0.08984-1.6719v-2.7949a0.50005 0.50005 0 0 0 2e-3 0c0-0.05223-2e-3 -0.074236-2e-3 -0.066406-3e-6 -3.2815 2.6833-5.9648 5.9648-5.9648z" color="#000000" stroke-linejoin="round" style="-inkscape-stroke:none"/>
 </g>
</svg>
