<svg version="1.1" viewBox="0 0 16 16" xmlns="http://www.w3.org/2000/svg" xmlns:osb="http://www.openswatchbook.org/uri/2009/osb">
 <g transform="translate(18.899)" fill="#808080">
  <path d="m-6.4478 6.6466h-6.2067l0.3239-1.5154h3.7829l0.34704-1.6311h-5.4372l-1.7122 8.0746h1.6428l0.7518-3.5284h3.9402l-3.4238 3.3895 0.60156 1.0642c0.27757-0.18505 0.72874-0.20825 1.0411-0.20825 0.55537 0 1.0991 0.18518 1.6657 0.18518 0.51964 0 1.0516-0.0347 1.9193-0.45122l0.30318-1.4228c-0.59009 0.24284-1.4632 0.47429-2.2225 0.47429-0.31217 0-0.60142-0.0694-0.9022-0.11565l3.3189-3.2275z" enable-background="new" stroke-width=".032732"/>
  <path d="m-14.459-0.0019531 1 0.99863 1 0.003326v1h3v-1h1v1h1.4609l0.2832 0.00391 0.26758 0.00586 0.24219 0.00781 0.66992 0.037109 0.044922-0.90234c0.21745 0.035077 0.39308 0.079057 0.5332 0.13086l-0.47461 0.51953 0.33398 0.33398v0.00391l0.00586 0.017578 0.023437 0.078125 0.019531 0.083984 0.017578 0.10742 0.015625 0.13477 0.015625 0.1582 0.011719 0.17969 0.027344 0.57617 0.98438-0.042969c0.0025 0.13173 0.00781 0.24506 0.00781 0.39062v0.58594h-1v3h1v1h-1v3h1v0.76562c0 0.07884-0.00287 0.14406-0.00391 0.21875l-1.0078-0.02734v0.53906l-0.00977 0.19336-0.011719 0.18164-0.015625 0.15625-0.015625 0.13477-0.019531 0.10742-0.017578 0.08398-0.023437 0.07813-0.00586 0.01953v2e-3l-0.00391 0.0078-0.00195 0.0039-0.25977 0.31836-0.019531-0.26758-0.59961 0.04687-0.21875 0.01172-0.24219 0.0059-0.27344 0.0078c-0.33933 0.0058-0.69305 0.0039-1.0605 0.0039h-0.5l0.00195 1h-1.002v-1h-3v1h-1v-1h-1.5215l-0.28516-0.0039-0.26562-0.0078-0.24219-0.0059-0.60938-0.0332-0.04297 0.91016c-0.2359-0.03445-0.42481-0.07837-0.57617-0.13086l0.44336-0.54102-0.32617-0.32422-2e-3 -0.0039-2e-3 -0.0078-0.0059-0.01758-0.02148-0.07031-0.01758-0.08398-0.01953-0.10742-0.01563-0.13281-0.01367-0.16016-0.0098-0.13477 0.07031-0.55273-1.0781 0.04297c-0.0025-0.15358-0.0088-0.28609-0.0078-0.45898v-0.51958h1v-3h-1v-1h1v-3h-1v-0.83594c-2.3e-4 -0.055187 0.0019-0.099487 2e-3 -0.15234l0.99414 0.023437 0.01172-0.60156 0.0078-0.19727 0.01172-0.17578 0.01563-0.16211 0.01367-0.13086 0.01953-0.10742 0.01758-0.085937 0.02344-0.074219 0.0059-0.019531v-0.00195l0.0039-0.00781 0.0039-0.011719 4e-3 -0.0039 0.19141-0.26367 0.01563 0.23047 0.67383-0.052734 0.21875-0.00977 0.24219-0.00781 0.26562-0.00586 0.28516-0.0039157h1.3418v-1.0033zm0 0v1.002h-0.34965l-0.29492 0.00391-0.27539 0.00586-0.17969 0.00586-0.07226-1.0078-0.50195 0.041016c-0.98697 0.07724-1.7288 0.28834-2.1738 0.88477l-0.30273 0.40625 0.90234 0.6543-0.02539 0.13281-0.02734 0.15234-0.02148 0.17383-0.01563 0.18359-2e-3 0.033203-1.0117-0.023437-0.01172 0.5c-0.0051 0.21242-0.0069 0.43531-0.0059 0.67969v1.832h1v1h-1v3h1v1h-1v1.5176c-2e-3 0.3704 0.0024 0.70548 0.01758 1.0078l0.02539 0.49414 1.0117-0.04101 0.0098 0.08203 0.02734 0.1543 0.0293 0.13672 0.03906 0.12891 0.01367 0.04297 0.02148 0.05859 0.01953 0.04297 0.01172 0.02734 0.0293 0.0625 0.02539 0.03711 0.02148 0.04102 0.05469 0.0625-0.25781-0.25781-0.66406 0.81055 0.39267 0.3164c0.52897 0.42741 1.2363 0.54127 2.1992 0.58984l0.5 0.02539 0.04883-1.0059 0.14844 0.0039 0.29688 0.0059h0.52734v1h3v-1h1v1h3.0039l-0.0019551-1.002c0.19258-1.61e-4 0.38783-6.23e-4 0.57812-0.0039l0.2793-0.0059 0.10742-0.0039 0.070312 1.0078 0.5-0.03516c0.98373-0.07017 1.7175-0.25653 2.1836-0.81836l0.32617-0.39258-0.87891-0.70312 0.00977-0.03125 0.03125-0.14258 0.025391-0.1543 0.021484-0.16992 0.013672-0.15234 1.0117 0.02734 0.015625-0.49805c0.00703-0.22708 0.013672-0.47296 0.013672-0.74805v-1.7656h-1v-0.99996h1v-3h-1v-1h1v-1.5859c0-0.34569-0.00666-0.6535-0.019531-0.93555l-0.023437-0.5-0.99609 0.044922 0.019531 0.4082-0.015625-0.20312-0.015625-0.18555-0.023437-0.16992-0.025391-0.1543-0.03125-0.14258-0.035156-0.12109-0.013672-0.042969-0.023437-0.064453-0.023437-0.050781-0.017578-0.039063-0.021484-0.039063-0.019531-0.033203-0.035156-0.056641-0.033203-0.037109-0.00391-0.00586 0.27734 0.27539 0.69141-0.75781-0.37305-0.33594c-0.51627-0.46588-1.2337-0.59276-2.2031-0.64648l-0.50195-0.027344-0.048828 1.0039-0.21094-0.0039063-0.29492-0.0039062h-0.46875v-1h-3v1h-1v-1zm-2.0879 1.2129 0.02734 0.4082-0.39453-0.28711c0.09939-0.044963 0.22202-0.088334 0.36719-0.12109zm11.189 13.115 0.44336 0.35742c-0.10995 0.04724-0.24469 0.09114-0.4082 0.125z" color="#000000" stroke-dashoffset=".4" style="-inkscape-stroke:none"/>
 </g>
</svg>
