<svg version="1.1" viewBox="0 0 16 16" xmlns="http://www.w3.org/2000/svg" xmlns:osb="http://www.openswatchbook.org/uri/2009/osb">
 <path d="m4.8555 0.5c-0.7651 0-1.3373 0.017064-1.8105 0.095703-0.45087 0.074917-0.83154 0.25975-1.0117 0.4375-0.075048 0.074037-0.22002 0.2684-0.29102 0.4375-0.070996 0.1691-0.11528 0.3423-0.15234 0.5625-0.078908 0.46878-0.093468 1.0313-0.089844 1.7871v0.0019531 0.0019532 4.1758l0.0019531 0.76367 0.035156 0.125c0.15263 0.5705 0.41334 0.86171 0.51172 1.0391l0.023438 0.042969 0.027344 0.039063c0.4077 0.59452 1.005 1.3121 1.7773 2.2031 0.95157 1.0977 1.6982 1.9121 2.3594 2.4648 0.65311 0.54597 1.2043 0.82227 1.7695 0.82227 0.56519 0 1.1184-0.27629 1.7715-0.82227 0.66117-0.55271 1.4059-1.3671 2.3574-2.4648 0.74769-0.86253 1.3109-1.5506 1.7148-2.1328 0.40054-0.47536 0.51038-0.92999 0.54883-1.0098l0.099609-0.20312 0.001953-0.86719v-4.1758c0-0.75833-0.016273-1.3223-0.095703-1.791-0.037329-0.22023-0.081029-0.3933-0.15039-0.56055-0.069361-0.16725-0.20454-0.35759-0.28906-0.44141-0.18417-0.18259-0.56417-0.36096-1.0117-0.43555-0.47166-0.078588-1.0414-0.095703-1.8066-0.095703h-6.291zm0 1h6.291c0.080749 0 0.15034 0.0013681 0.22656 0.0019531 0.15645 0.0012008 0.30425 0.0039969 0.44141 0.0078125 0.13748 0.0038247 0.26702 0.0089696 0.38477 0.015625 0.11484 0.0064914 0.22261 0.014062 0.31836 0.023438-0.096492-0.0092429-0.20258-0.017099-0.31836-0.023438-0.1186-0.0064934-0.24682-0.011913-0.38477-0.015625-0.13795-0.003712-0.28501-0.0066122-0.44141-0.0078125l-8.2363 8.2363c-0.07497-0.10108-0.15107-0.20478-0.21289-0.29492-0.13903-0.25066-0.35664-0.56868-0.42188-0.8125l-0.0019531-0.63281v-4.1758-0.0019531c-0.0036-0.73532 0.019092-1.282 0.076172-1.6211 0.05708-0.3391 0.12478-0.42211 0.1582-0.45508 0.03342-0.03297 0.12633-0.10424 0.47461-0.16211 0.34828-0.05787 0.90305-0.082031 1.6465-0.082031zm8.5957 0.96484c0.00562 0.056306 0.009096 0.12242 0.013672 0.18555-0.004421-0.062622-0.008225-0.12964-0.013672-0.18555zm0.041016 0.74609c0.003223 0.12726 0.004847 0.26459 0.005859 0.4082 4.89e-4 0.069439 0.001953 0.13186 0.001953 0.20508v4.1738l-0.001953 0.63867c-0.1026 0.213-0.22536 0.58737-0.41406 0.80664-0.35639 0.52256-0.94024 1.2329-1.7051 2.1152-0.9402 1.0846-1.6769 1.8773-2.2441 2.3516-0.56728 0.47422-0.89903 0.58984-1.1289 0.58984-0.22988 0-0.56163-0.11562-1.1289-0.58984-0.47519-0.39724-1.0776-1.0308-1.8105-1.8594l8.4316-8.4316c-0.00102-0.14476-0.002692-0.27933-0.005859-0.4082zm-10.332 6.5566c0.067503 0.090487 0.1417 0.18661 0.21875 0.28516-0.077266-0.098687-0.15135-0.19488-0.21875-0.28516zm0.34766 0.44922c0.07521 0.094241 0.15331 0.1899 0.23633 0.29102-0.082891-0.10086-0.1612-0.19701-0.23633-0.29102z" color="#000000" fill="#808080" style="-inkscape-stroke:none;paint-order:stroke fill markers"/>
</svg>
