<svg version="1.1" viewBox="0 0 16 16" xmlns="http://www.w3.org/2000/svg" xmlns:osb="http://www.openswatchbook.org/uri/2009/osb">
 <path d="m8.0001 1.6739c-1.6825 0-3.2148 0.6543-4.3574 1.7207 0.24198 0.22796 0.48629 0.45317 0.74023 0.66797 0.95574-0.86352 2.2238-1.3887 3.6172-1.3887 0.17595 0 0.34992 0.00902 0.52148 0.025391-0.00911-0.098205-0.015422-0.19696-0.015625-0.29688 8.041e-4 -0.27637 0.054714-0.50322 0.14062-0.69531-0.21275-0.021479-0.42816-0.033203-0.64648-0.033204z" color="#000000" fill="#808080" stroke-linecap="round" stroke-linejoin="round" style="-inkscape-stroke:none"/>
 <path d="m9.6074 0-0.30664 0.09375c-0.38512 0.1174-0.81408 0.36563-1.1699 0.7793-0.35585 0.41366-0.62367 0.80606-0.625 1.5293v0.0019531c0.0034 1.6699 0.98207 3.1869 2.502 3.8789l-0.019531-0.0078125c0.14477 0.073583 0.35727 0.35681 0.50195 0.70508 0.14163 0.34091 0.22669 0.69248 0.28125 0.90234 0.09152 0.4176 0.116 0.84126 0.072266 1.2188v0.0019531c0.0036-0.032614 0.001894-0.027146-0.003906 0.023438-0.0062 0.053282-0.016474 0.11202-0.027344 0.17188-0.0063 0.035401-0.012944 0.072513-0.021484 0.10938v0.0019531c-0.01081 0.047999-0.02412 0.095584-0.03711 0.14062-0.0058 0.018463-0.011392 0.037905-0.013672 0.044922v0.0019531l-0.001953 0.0019532c-0.01959 0.061799-0.041563 0.12134-0.064453 0.17578-0.0057 0.01323-0.010395 0.024999-0.015625 0.037109-0.01205 0.02703-0.029361 0.06062-0.050781 0.10156l-0.001953 0.0039063-0.001953 0.0039062c-0.38591 0.77073-1.1747 1.3027-2.0977 1.3027-1.2363 4.7e-5 -2.1797-0.97024-2.2793-2.1797 0.12098-0.11035 0.23646-0.22898 0.37891-0.3125 0.3563-0.20485 0.76178-0.3125 1.1719-0.3125l0.11133 0.0058593c0.055649 0.00515 0.11274 0.0097657 0.17383 0.0097657 0.19905 1.35e-5 0.39728-0.031769 0.58789-0.09375 0.18995-0.06177 0.37006-0.15242 0.53125-0.26953 0.16142-0.11736 0.30245-0.26019 0.41992-0.42188 0.11713-0.16118 0.20973-0.33923 0.27148-0.5293l0.0019531-0.0097657 0.0039062-0.011719c0.039188-0.14101 0.060166-0.28316 0.066406-0.42383l0.015625-0.34961-0.32227-0.13281c-0.079526-0.033217-0.16395-0.070037-0.25-0.10742l-0.0097657-0.0039063-0.0019531-0.0019531c-0.51281-0.23946-1.0123-0.5006-1.502-0.7832h-0.0019531c-0.14499-0.084002-0.29089-0.17087-0.43555-0.25977v-0.0019532c-0.34261-0.20955-0.67933-0.42847-1.0078-0.6582-0.46744-0.32729-0.92039-0.67432-1.3574-1.041-0.43262-0.36304-0.84993-0.74511-1.25-1.1445l-0.0058594-0.0058593c-0.0019999-0.00195-0.0038593-0.0039094-0.0058593-0.0058594-0.0817-0.08762-0.16093-0.17544-0.24023-0.26367l-0.32227-0.35938-0.37109 0.30859c-1.8162 1.5158-2.8694 3.7595-2.877 6.125v0.0019531c0 4.417 3.5909 8.0078 8.0078 8.0078h0.0019531c3.5625-0.01299 6.596-2.3626 7.6133-5.6191l0.001953-0.001953c1.38e-4 -3.21e-4 0.003959-0.014261 0.005859-0.019531l0.009766-0.03125c-8.66e-4 0.0023 0.003053-0.007306 0.001953-0.003906l0.003906-0.011719 0.001954-0.009766c0.014869-0.04922 0.029868-0.09804 0.042968-0.14453l-0.001953 0.001953c0.02748-0.09607 0.054175-0.19208 0.078125-0.28906 0.15049-0.61119 0.22946-1.2408 0.23242-1.877v-0.0019531-0.0019531c-5.62e-4 -0.17-0.006398-0.33996-0.017578-0.50586l-0.03125-0.46484h-0.041016c-0.035566-0.29683-0.061724-0.59488-0.13086-0.88672l-0.21094-0.89453-0.44141 0.45898c-0.50985-1.4808-1.2422-2.8819-2.2812-4.0742-0.56741-0.60093-0.61075-0.45111-0.74219-1.418-0.46868 0.064362-0.70101 0.4786-0.89258 0.88672-0.58814-0.20099-1.0335-0.44918-1.3906-0.85156l-0.21289-0.24023zm-0.15039 0.94336c0.45984 0.44013 0.94679 0.87997 1.7715 1.0781l0.4082 0.097656 0.15039-0.34375c0.10386 0.1403 0.16088 0.3316 0.28906 0.48633l0.003906 0.0058593 0.003906 0.0039063c1.1183 1.2806 1.9257 2.7976 2.3711 4.4258l0.19531 0.71094 0.2793-0.21094c0.013268 0.11843 0.043471 0.23427 0.050781 0.35352l0.005859 0.082031c0.0069 0.12108 0.013282 0.24284 0.013672 0.36133-0.0029 0.55426-0.07339 1.1039-0.20508 1.6387-0.02106 0.085302-0.042276 0.16957-0.066406 0.25391h-0.001954v0.0019531c-0.010188 0.036147-0.019246 0.069706-0.029296 0.10352-0.01625 0.046026-0.018067 0.053372-0.003907 0.015624-5.76e-4 0.0019-0.001353 0.00386-0.001953 0.00586l-0.003906 0.009766-0.003906 0.015624c0.0015-0.004898-0.003402 0.006903-0.013672 0.039063l-0.001953 0.001953v0.001953c-0.62486 2.0028-2.1207 3.6118-4.0391 4.3965-6.52e-4 -7.5e-5 -0.001305 6.4e-5 -0.001953 0-0.001348 5.51e-4 -0.002557 0.001402-0.003906 0.001953-0.80818 0.32971-1.6902 0.5159-2.6152 0.51953-3.8766 0-7.0078-3.1312-7.0078-7.0078 0.0066-1.9103 0.86238-3.6768 2.2324-4.9883 0.38589 0.37956 0.78222 0.74936 1.1973 1.0977 0.45945 0.3855 0.9346 0.74984 1.4258 1.0938l0.0019531 0.0019531c0.34545 0.2416 0.69769 0.47183 1.0566 0.69141 0.15064 0.09257 0.30405 0.1837 0.45898 0.27344 0.48397 0.27941 0.98006 0.53469 1.4844 0.77344-0.021591 0.042524-0.036176 0.088042-0.064453 0.12695-0.055405 0.076256-0.1227 0.14554-0.19922 0.20117-0.076871 0.05585-0.16207 0.097723-0.25195 0.12695-0.089245 0.029019-0.18411 0.044928-0.2793 0.044922-0.028422 0-0.060617-0.0022594-0.095703-0.0058594l-0.0097657-0.0019531-0.16406-0.0078125h-0.015625c-0.58855 0-1.1669 0.15539-1.6758 0.44922h-0.0019531v0.0019532c-0.30598 0.17942-0.58298 0.40495-0.81836 0.67188l-0.125 0.14258v0.18945c-5.9e-5 1.8437 1.5059 3.3497 3.3496 3.3496 1.308-1.2e-5 2.443-0.75838 2.9922-1.8555 0.02288-0.04374 0.050625-0.09375 0.078125-0.15625v-0.001953-0.001954c0.0064-0.01492 0.013641-0.029228 0.019531-0.042968v-0.001954c0.03571-0.084939 0.067493-0.17272 0.095703-0.26172 0.0095-0.02937 0.016392-0.048964 0.019532-0.058594l0.001953-0.0078125 0.001953-0.0097656c0.01844-0.06395 0.035901-0.1274 0.050781-0.19336v-0.0019531c0.01169-0.050574 0.0217-0.10095 0.03125-0.1543 0.01312-0.072201 0.027339-0.15086 0.037109-0.23438-0.0035 0.030862-8.87e-4 0.016362 0.003907-0.025391v-0.0019531c0.05784-0.50118 0.023546-1.0275-0.089844-1.5449l-0.001953-0.0097657-0.001953-0.0097656c-0.04451-0.17012-0.14498-0.6072-0.33008-1.0527-0.011459-0.027582-0.026982-0.056044-0.039062-0.083984-0.18306-0.42318-0.43897-0.8775-0.93359-1.1289l-0.009765-0.0058594-0.009766-0.0039062c-1.1659-0.53085-1.9134-1.6915-1.916-2.9727 0.0014-0.48555 0.16429-0.82019 0.38281-1.0742 0.17742-0.20625 0.387-0.30588 0.56836-0.38477zm2.2578 12.717c-0.07085 0.068217-0.14342 0.1352-0.21875 0.19922 0.075662-0.064326 0.14762-0.13066 0.21875-0.19922z" enable-background="new" fill="#808080" fill-rule="evenodd"/>
</svg>
