<svg width="16" height="16" version="1.1" viewBox="0 0 4.2333 4.2333" xmlns="http://www.w3.org/2000/svg">
 <g fill="#808080" stroke-linecap="round" stroke-linejoin="round" stroke-width="1.1086">
  <path d="m2.1245 0.015625c-1.1632-1e-8 -2.1089 0.94568-2.1089 2.1089 0 1.1632 0.94568 2.1089 2.1089 2.1089 1.1632-1e-7 2.1089-0.94568 2.1089-2.1089-1e-7 -1.1632-0.94568-2.1089-2.1089-2.1089zm0 0.2923c1.0044 5e-8 1.8166 0.81215 1.8166 1.8166 0 1.0044-0.81215 1.8166-1.8166 1.8166-1.0044 0-1.8166-0.81215-1.8166-1.8166 1e-7 -1.0044 0.81215-1.8166 1.8166-1.8166zm-0.019486 1.0155c-0.43312 0.010576-0.78175 0.36785-0.78162 0.8011-1e-7 0.44065 0.36046 0.8011 0.8011 0.8011 0.44065-1e-7 0.8011-0.36046 0.8011-0.8011-1e-7 -0.44005-0.35911-0.80013-0.79894-0.8011-0.00652-7.94e-5 -0.012971-7.94e-5 -0.019486 0a0.1469 0.1469 0 0 0-0.00216 0zm0.0065 0.29446c0.00344-2.79e-5 0.00738-4.19e-5 0.010831 0a0.1469 0.1469 0 0 0 0.00216 0c0.28188 1e-7 0.50664 0.22476 0.50664 0.50664 0 0.28188-0.22476 0.50664-0.50664 0.50664-0.28188 0-0.50664-0.22476-0.50664-0.50664-8.25e-5 -0.27699 0.21675-0.49988 0.49365-0.50664z" color="#000000" style="-inkscape-stroke:none"/>
  <path d="m3.6301 3.3546c-0.038336 0.0020175-0.074172 0.019098-0.10025 0.047547-0.30595 0.34206-0.74294 0.53895-1.2019 0.53906-0.090081-5.5e-6 -0.19193 0.013272-0.28075-0.0017405-0.089604-0.014933-0.15874 0.032349-0.15863 0.12319v0.025778c0.011019 0.061417 0.059841 0.10924 0.12145 0.11916 0.00686 0.00959 0.014534 0.018105 0.023487 0.025778h2.0549c0.079704-9.877e-4 0.14394-0.06523 0.14493-0.14493v-0.58661c1.887e-4 -0.080548-0.064391-0.14622-0.14493-0.14723h-0.45027c-0.00257 5e-7 -0.00547-1.344e-4 -0.00801 0zm0.071608 0.29388h0.24003v0.29216h-5.729e-4v5.729e-4h-0.59463c2.29e-4 -1.63e-4 3.441e-4 -4.1e-4 5.729e-4 -5.729e-4 0.00506-0.00333 0.00987-0.00687 0.014895-0.01031 0.00504-0.00355 0.00999-0.0069 0.014895-0.010309 2.148e-4 -1.527e-4 3.582e-4 -4.199e-4 5.729e-4 -5.728e-4 0.00335-0.00233 0.00702-0.0046 0.01031-0.00687 0.00353-0.00257 0.00738-0.00539 0.010886-0.00801 0.010021-0.00752 0.019909-0.015528 0.029789-0.023487l0.00114-5.728e-4c0.13261-0.085796 0.21361-0.16907 0.27211-0.23144 9.14e-5 -9.74e-5 -9.14e-5 -4.755e-4 0-5.729e-4z" color="#000000" style="-inkscape-stroke:none"/>
 </g>
</svg>
