<?xml version="1.0" encoding="UTF-8" standalone="no"?>
<svg
   version="1.1"
   viewBox="0 0 36 36"
   id="svg2"
   sodipodi:docname="flatsweep-app-symbolic.svg"
   inkscape:version="1.3.2 (1:1.3.2+202311252150+091e20ef0f)"
   xmlns:inkscape="http://www.inkscape.org/namespaces/inkscape"
   xmlns:sodipodi="http://sodipodi.sourceforge.net/DTD/sodipodi-0.dtd"
   xmlns="http://www.w3.org/2000/svg"
   xmlns:svg="http://www.w3.org/2000/svg">
  <defs
     id="defs2" />
  <sodipodi:namedview
     id="namedview2"
     pagecolor="#505050"
     bordercolor="#eeeeee"
     borderopacity="1"
     inkscape:showpageshadow="0"
     inkscape:pageopacity="0"
     inkscape:pagecheckerboard="0"
     inkscape:deskcolor="#505050"
     inkscape:zoom="13.75"
     inkscape:cx="17.963636"
     inkscape:cy="18"
     inkscape:window-width="1312"
     inkscape:window-height="699"
     inkscape:window-x="0"
     inkscape:window-y="0"
     inkscape:window-maximized="1"
     inkscape:current-layer="svg2" />
  <path
     d="m26.732 17.885c-0.01677 0.0016-0.035105 0.005898-0.052734 0.011718-0.01763 0.0058-0.034795 0.013078-0.052735 0.023438l-1.7168 0.99023c-0.01786 0.01031-0.035154 0.02265-0.052734 0.03711-0.01759 0.01446-0.034031 0.031118-0.050781 0.048828s-0.033469 0.03657-0.048829 0.05664c-0.015359 0.02007-0.029558 0.04096-0.042968 0.0625-0.0134 0.02154-0.02622 0.044287-0.03711 0.066407-0.01089 0.02211-0.021477 0.044606-0.029296 0.066406-0.0078 0.02179-0.013389 0.043873-0.017579 0.064453-0.0042 0.02058-0.005859 0.040124-0.005859 0.058594v0.29492l2.2871-1.3223v-0.29297c0-0.01829-0.001659-0.037084-0.005859-0.052734s-0.009798-0.028266-0.017578-0.041016c-0.0078-0.01274-0.018427-0.025586-0.029297-0.035156-0.01086-0.0096-0.023719-0.017318-0.037109-0.023437-0.01338-0.0061-0.027619-0.009299-0.042969-0.011719-0.01535-0.0024-0.030115-0.003453-0.046875-0.001953zm1.0371 1.1426-4.002 2.3125v5.0098l4.002-2.3125v-5.0098zm-1.082 1.5625c0.012007-3.63e-4 0.023751 6.53e-4 0.035156 0.001953 0.02281 0.0027 0.045073 0.008798 0.064453 0.017578 0.01938 0.0088 0.037355 0.020526 0.052735 0.035156 0.01539 0.01463 0.028242 0.032525 0.039062 0.052735s0.019701 0.042819 0.025391 0.068359c0.0057 0.02554 0.007812 0.053374 0.007812 0.083984v2.3574c0 0.03061-0.002112 0.06164-0.007812 0.09375s-0.014571 0.064947-0.025391 0.097657c-0.01082 0.032709-0.023682 0.065266-0.039062 0.097656s-0.033355 0.064543-0.052735 0.095703-0.041643 0.060824-0.064453 0.089844c-0.02281 0.02903-0.046585 0.058014-0.072265 0.083984-0.02567 0.02598-0.052109 0.050246-0.080079 0.072266-0.027969 0.02202-0.05819 0.041443-0.08789 0.058593s-0.057968 0.030736-0.085938 0.041016-0.054398 0.017824-0.080078 0.021484c-0.02567 0.0037-0.049455 0.0027-0.072265 0s-0.045074-0.006795-0.064453-0.015625c-0.01938-0.0088-0.037355-0.020526-0.052735-0.035156-0.01539-0.01463-0.028242-0.032524-0.039062-0.052734s-0.019701-0.04282-0.025391-0.06836c-0.0057-0.02554-0.007812-0.055327-0.007812-0.085937v-2.3574c0-0.03061 0.002112-0.06164 0.007812-0.09375s0.014571-0.064946 0.025391-0.097656 0.023682-0.065267 0.039062-0.097656c0.01538-0.03239 0.033355-0.064544 0.052735-0.095704 0.019379-0.03116 0.041643-0.060823 0.064453-0.089843 0.02281-0.02903 0.046585-0.056062 0.072265-0.082032 0.02567-0.02598 0.052108-0.050245 0.080078-0.072265s0.056238-0.043397 0.085938-0.060547 0.059921-0.030736 0.08789-0.041016c0.02797-0.01028 0.054399-0.015861 0.080079-0.019531 0.012835-0.00185 0.025102-0.003544 0.037109-0.003906zm-1.4297 0.82617c0.012007 1.25e-4 0.023747 6.03e-4 0.035157 0.001953 0.02281 0.0027 0.045073 0.006795 0.064453 0.015625 0.01938 0.0088 0.037354 0.020526 0.052734 0.035156s0.028243 0.032524 0.039063 0.052734 0.0197 0.04282 0.02539 0.06836c0.0057 0.02554 0.007813 0.053374 0.007813 0.083984v2.3594c0 0.03061-0.002113 0.06164-0.007813 0.09375s-0.01457 0.064946-0.02539 0.097656-0.023683 0.065267-0.039063 0.097657c-0.01539 0.03239-0.033354 0.064543-0.052734 0.095703s-0.041643 0.060824-0.064453 0.089843c-0.02281 0.02903-0.046586 0.056052-0.072266 0.082032-0.02567 0.02598-0.052108 0.050245-0.080078 0.072265s-0.056238 0.043397-0.085937 0.060547c-0.0297 0.01715-0.059921 0.030736-0.087891 0.041016s-0.054398 0.015861-0.080078 0.019531c-0.02567 0.0037-0.049456 0.004553-0.072266 0.001953-0.02281-0.0027-0.045073-0.008798-0.064453-0.017578-0.01938-0.0088-0.037354-0.020526-0.052734-0.035156s-0.028243-0.032525-0.039063-0.052734c-0.01082-0.02021-0.019701-0.04282-0.025391-0.06836-0.005699-0.02554-0.007812-0.053374-0.007812-0.083984v-2.3574c0-0.03061 0.002113-0.06164 0.007812-0.09375 0.0057-0.03211 0.014571-0.064946 0.025391-0.097656s0.023683-0.065267 0.039063-0.097657c0.01539-0.03239 0.033354-0.064543 0.052734-0.095703s0.041643-0.062767 0.064453-0.091797 0.046586-0.056051 0.072266-0.082031c0.02567-0.02598 0.052108-0.050246 0.080078-0.072266 0.02797-0.022019 0.058191-0.041443 0.087891-0.058593 0.029699-0.01715 0.057967-0.030736 0.085937-0.041016s0.054398-0.017824 0.080078-0.021484c0.012835-0.00185 0.025103-0.002078 0.037109-0.001953z"
     stroke-linecap="square"
     stroke-linejoin="round"
     stroke-width="2.5404"
     id="path1"
     style="fill:#808080;fill-opacity:1" />
  <path
     d="m18 1.125c-0.05576 0-0.16293 0.02994-0.31641 0.087891-0.15348 0.05795-0.35402 0.14348-0.5918 0.25195-0.47556 0.21694-1.1057 0.52791-1.8379 0.90234-0.73222 0.37443-1.5657 0.81268-2.4473 1.2852-0.88152 0.47247-1.8109 0.97917-2.7344 1.4902h-5.5605c-0.15619 0-0.31087 0.0080905-0.46289 0.023438-0.15202 0.015351-0.30212 0.038402-0.44922 0.068359-0.1471 0.029957-0.2902 0.06751-0.43164 0.11133-0.14144 0.043818-0.28099 0.093458-0.41602 0.15039-0.13503 0.056933-0.26666 0.12015-0.39453 0.18945-0.12788 0.069303-0.25112 0.14563-0.37109 0.22656s-0.23632 0.166-0.34766 0.25781c-0.11133 0.091808-0.21837 0.18907-0.32031 0.29102-0.10194 0.10194-0.19921 0.20898-0.29102 0.32031-0.091808 0.11133-0.17688 0.22768-0.25781 0.34766-0.080928 0.11998-0.15726 0.24322-0.22656 0.37109s-0.13252 0.2595-0.18945 0.39453c-0.056933 0.13503-0.10657 0.27458-0.15039 0.41602-0.043818 0.14144-0.081371 0.28454-0.11133 0.43164-0.029957 0.1471-0.053008 0.2972-0.068359 0.44922-0.015351 0.15202-0.023438 0.3067-0.023438 0.46289v16.691c0 0.15619 0.0080864 0.31087 0.023438 0.46289 0.015351 0.15202 0.038402 0.30212 0.068359 0.44922 0.029957 0.1471 0.06751 0.2902 0.11133 0.43164s0.093457 0.28099 0.15039 0.41602c0.056933 0.13503 0.12015 0.26666 0.18945 0.39453 0.069303 0.12788 0.14563 0.25112 0.22656 0.37109 0.080928 0.11998 0.166 0.23632 0.25781 0.34766 0.091808 0.11133 0.18907 0.21837 0.29102 0.32031 0.10194 0.10194 0.20898 0.19921 0.32031 0.29102 0.11133 0.09181 0.22768 0.17688 0.34766 0.25781 0.11998 0.08093 0.24322 0.15726 0.37109 0.22656 0.12788 0.0693 0.2595 0.13252 0.39453 0.18945 0.13503 0.05693 0.27458 0.10657 0.41602 0.15039 0.14144 0.04382 0.28454 0.08137 0.43164 0.11133 0.1471 0.02996 0.2972 0.053009 0.44922 0.068359 0.15202 0.01535 0.3067 0.023438 0.46289 0.023438h5.5605c0.92345 0.51107 1.8529 1.0178 2.7344 1.4902 0.88152 0.47247 1.715 0.91073 2.4473 1.2852 0.73223 0.37443 1.3623 0.6854 1.8379 0.90234 0.23778 0.10847 0.43832 0.194 0.5918 0.25195 0.15348 0.05795 0.26065 0.087891 0.31641 0.087891 0.05576 0 0.16293-0.029941 0.31641-0.087891 0.15348-0.05795 0.35402-0.14348 0.5918-0.25195 0.47556-0.21694 1.1057-0.52791 1.8379-0.90234 0.73222-0.37443 1.5657-0.81268 2.4473-1.2852 0.88152-0.47247 1.8109-0.97917 2.7344-1.4902h5.5605c0.15619 0 0.31087-0.008098 0.46289-0.023438 0.15202-0.01535 0.30212-0.038399 0.44922-0.068359 0.1471-0.02996 0.2902-0.06751 0.43164-0.11133 0.14144-0.04382 0.28099-0.09346 0.41602-0.15039 0.13503-0.05693 0.26666-0.12015 0.39453-0.18945 0.12788-0.0693 0.25112-0.14563 0.37109-0.22656 0.11998-0.08093 0.23632-0.166 0.34766-0.25781 0.11133-0.09181 0.21837-0.18907 0.32031-0.29102 0.10194-0.10194 0.19921-0.20898 0.29102-0.32031 0.09181-0.11133 0.17688-0.22768 0.25781-0.34766 0.08093-0.11998 0.15726-0.24322 0.22656-0.37109 0.0693-0.12788 0.13252-0.2595 0.18945-0.39453 0.05693-0.13503 0.10657-0.27458 0.15039-0.41602 0.04382-0.14144 0.08137-0.28454 0.11133-0.43164 0.02996-0.1471 0.05301-0.2972 0.068359-0.44922 0.015351-0.15202 0.023438-0.3067 0.023438-0.46289v-16.691c0-0.15619-0.008086-0.31087-0.023438-0.46289-0.01535-0.15202-0.038402-0.30212-0.068359-0.44922s-0.06751-0.2902-0.11133-0.43164c-0.043818-0.14144-0.093457-0.28099-0.15039-0.41602-0.056933-0.13503-0.12015-0.26666-0.18945-0.39453-0.069303-0.12788-0.14563-0.25112-0.22656-0.37109-0.080929-0.11998-0.166-0.23632-0.25781-0.34766-0.091808-0.11133-0.18907-0.21837-0.29102-0.32031s-0.20898-0.19921-0.32031-0.29102c-0.11133-0.091808-0.22768-0.17688-0.34766-0.25781-0.11998-0.080928-0.24322-0.15726-0.37109-0.22656-0.12788-0.069304-0.2595-0.13252-0.39453-0.18945-0.13503-0.056933-0.27458-0.10657-0.41602-0.15039-0.14144-0.043818-0.28454-0.081371-0.43164-0.11133-0.1471-0.029957-0.2972-0.053008-0.44922-0.068359-0.15202-0.015351-0.3067-0.023438-0.46289-0.023438h-5.5605c-0.92345-0.51107-1.8529-1.0178-2.7344-1.4902-0.88152-0.47247-1.715-0.91073-2.4473-1.2852-0.73223-0.37443-1.3623-0.68541-1.8379-0.90234-0.23778-0.10847-0.43832-0.194-0.5918-0.25195-0.15348-0.05795-0.26065-0.087891-0.31641-0.087891zm0 4.0176 11.135 6.4297-11.135 6.4277v12.857l-11.135-6.4297v-12.855l11.135 6.4277v-12.857zm9.4082 11.492c0.033508-0.003231 0.064988-8.07e-4 0.095703 0.003906 0.030716 0.004713 0.061085 0.013241 0.087891 0.02539 0.026806 0.01215 0.050486 0.027795 0.072265 0.046876 0.02178 0.01908 0.041004 0.040901 0.056641 0.066406s0.028733 0.054514 0.037109 0.085937c0.008377 0.031423 0.011719 0.064728 0.011719 0.10156v0.88476l2.002-1.1562c0.019801-0.011432 0.039947-0.02049 0.058594-0.027343 0.018647-0.006854 0.035619-0.011227 0.052734-0.013672 0.017116-0.002446 0.033622-0.001791 0.048829 0s0.030048 0.003909 0.042968 0.009765c0.012921 0.005857 0.0249 0.013687 0.035157 0.023438 0.010256 0.00975 0.018175 0.021682 0.02539 0.035156 0.007216 0.013474 0.013782 0.029849 0.017578 0.046875 0.003797 0.017026 0.003907 0.036234 0.003907 0.056641v0.58789c0 0.020407-1.1e-4 0.041091-0.003907 0.0625-0.003796 0.02141-0.010362 0.044601-0.017578 0.066407-0.007215 0.021805-0.015134 0.042859-0.02539 0.064453-0.010257 0.021594-0.022236 0.043677-0.035157 0.064453-0.01292 0.020776-0.027761 0.041196-0.042968 0.060547-0.015207 0.01935-0.031713 0.037369-0.048829 0.054687-0.017115 0.017318-0.034087 0.03415-0.052734 0.048828-0.018647 0.014679-0.038793 0.027631-0.058594 0.039063l-0.85742 0.49414v5.5996c0 0.036835-0.005294 0.076091-0.013671 0.11719s-0.01952 0.083393-0.035157 0.12695c-0.015637 0.04356-0.03486 0.088582-0.05664 0.13281s-0.047413 0.087756-0.074219 0.13086-0.055222 0.08482-0.085937 0.125c-0.030716 0.04018-0.062196 0.079774-0.095704 0.11524-0.033507 0.035461-0.068332 0.066757-0.10352 0.095703s-0.071681 0.055536-0.10742 0.076172l-5.1465 2.9707c-0.035741 0.020635-0.072238 0.037148-0.10742 0.048828s-0.070008 0.018254-0.10352 0.021484c-0.033508 0.003231-0.064988 0.00276-0.095703-0.001953-0.030716-0.004713-0.059131-0.01324-0.085938-0.02539-0.026806-0.01215-0.052438-0.027795-0.074218-0.046875-0.02178-0.019081-0.041004-0.040902-0.056641-0.066407s-0.026779-0.054514-0.035156-0.085937-0.013672-0.066681-0.013672-0.10352v-5.5977l-0.85742 0.49414c-0.019801 0.011432-0.039947 0.02049-0.058594 0.027343-0.018647 0.006854-0.035618 0.011227-0.052734 0.013672-0.017116 0.002446-0.033621 0.003744-0.048828 0.001953-0.015207-0.00179-0.030048-0.005862-0.042969-0.011718-0.012921-0.005857-0.0249-0.013687-0.035156-0.023438-0.010257-0.00975-0.018176-0.021682-0.025391-0.035156s-0.011828-0.027896-0.015625-0.044922c-0.003796-0.017026-0.005859-0.036234-0.005859-0.056641v-0.58984c0-0.020407 0.002063-0.041091 0.005859-0.0625 0.003797-0.02141 0.00841-0.042648 0.015625-0.064453 0.007215-0.021806 0.015134-0.044813 0.025391-0.066407 0.010256-0.021594 0.022235-0.041724 0.035156-0.0625 0.012921-0.020775 0.027762-0.041196 0.042969-0.060547 0.015207-0.01935 0.031712-0.037369 0.048828-0.054687s0.034087-0.03415 0.052734-0.048828c0.018647-0.014679 0.038793-0.027631 0.058594-0.039063l2.002-1.1562v-0.88281c0-0.036835 0.003342-0.078045 0.011719-0.11914s0.021472-0.083392 0.037109-0.12695 0.034861-0.086629 0.056641-0.13086 0.045459-0.08971 0.072265-0.13281c0.026807-0.043103 0.057176-0.08482 0.087891-0.125 0.030716-0.04018 0.062195-0.07782 0.095703-0.11328s0.068333-0.06871 0.10352-0.097656c0.035183-0.028947 0.07168-0.053584 0.10742-0.074219l2.8574-1.6504c0.035741-0.020635 0.072238-0.037148 0.10742-0.048828 0.035183-0.01168 0.070007-0.020207 0.10352-0.023437z"
     stroke-linecap="square"
     stroke-linejoin="round"
     stroke-width="2.5404"
     id="path2"
     style="fill:#808080;fill-opacity:1" />
</svg>
