<svg version="1.1" viewBox="0 0 16 16" xmlns="http://www.w3.org/2000/svg" xmlns:osb="http://www.openswatchbook.org/uri/2009/osb">
 <g transform="translate(17.009 -2.373)" fill="#808080">
  <path d="m-15.815 4.7588c-0.0376 0.39243-0.0477 0.86432-0.0449 1.4336v0.16992h1.998v-1.6035zm-0.0449 2.4043v1.6035h1.998v-1.6035zm0 2.4062v0.80078 0.80273h1.998v-1.6035zm0 2.4062v1.6016h1.998v-1.6016zm0 2.4043v0.16602c-3e-3 0.57225 7e-3 1.0458 0.0449 1.4394h1.9531v-1.6055z" color="#000000"/>
  <path d="m-4.8594 4.7598v1.6035h1.998v-0.16992c0.0028-0.56927-0.00732-1.0412-0.044922-1.4336zm0 2.4043v1.6035h0.22852a1.7828 1.7828 0 0 1 0.77148-0.17773 1.7828 1.7828 0 0 1 0.77734 0.17773h0.2207v-1.6035zm0 4.8125v1.6016h1.998v-1.6016h-0.22656a1.7828 1.7828 0 0 1-0.77148 0.17774 1.7828 1.7828 0 0 1-0.77148-0.17774zm0 2.4043v1.6055h1.9531c0.0379-0.39364 0.047922-0.8672 0.044922-1.4395v-0.16602z" color="#000000"/>
  <path d="m-12.441 2.373c-1.4631 0-2.4431 0.029282-3.1289 0.64648-0.34288 0.3086-0.54236 0.74053-0.65039 1.2461s-0.13867 1.1037-0.13867 1.8555v8.502c0 0.75175 0.03064 1.3499 0.13867 1.8555 0.10803 0.50557 0.30751 0.93749 0.65039 1.2461 0.68577 0.6172 1.6658 0.64844 3.1289 0.64844h6.1621c1.4635 0 2.4448-0.0315 3.1328-0.64844 0.34399-0.30847 0.54699-0.74174 0.6543-1.248 0.10731-0.5063 0.13474-1.1052 0.13086-1.8574v-3.623a1.7031 1.7031 0 0 1-1 0.88867v2.7403c0.00372 0.72147-0.028989 1.2652-0.10938 1.6445-0.080386 0.37928-0.19267 0.57546-0.34375 0.71094-0.30216 0.27095-1.0362 0.39258-2.4648 0.39258h-6.1621c-1.4283 0-2.1582-0.1219-2.459-0.39258-0.15037-0.13534-0.26255-0.33092-0.34375-0.71094-0.0812-0.38002-0.11523-0.92455-0.11523-1.6465v-8.502c0-0.72193 0.03403-1.2665 0.11523-1.6465 0.0812-0.38002 0.19338-0.5756 0.34375-0.71094 0.30075-0.27068 1.0307-0.39062 2.459-0.39062h6.1621c1.4286 0 2.1627 0.11967 2.4648 0.39062 0.15108 0.13548 0.26336 0.33166 0.34375 0.71094 0.080386 0.37928 0.1131 0.92306 0.10938 1.6445v2.5371a1.7031 1.7031 0 0 1 1 0.88672v-3.4219c0.0037357-0.74998-0.023777-1.3483-0.13086-1.8535-0.10731-0.5063-0.31031-0.93958-0.6543-1.248-0.68798-0.61694-1.6693-0.64648-3.1328-0.64648z" color="#000000" style="-inkscape-stroke:none"/>
  <path d="m-7.4414 4.627c-0.1448 0.00525-0.28877 0.025448-0.42969 0.0625a0.71482 0.71482 0 0 0-0.00195 0c-0.27619 0.07372-0.53687 0.21091-0.76367 0.39453a0.71482 0.71482 0 0 0-0.011719 0.00781c-0.22959 0.19284-0.4123 0.43405-0.55664 0.70117l-0.00195 0.00195c-0.14425 0.26166-0.23844 0.54854-0.2793 0.84571a0.71482 0.71482 0 0 0-0.00195 0.00781c-0.036562 0.28875-0.014158 0.58131 0.060547 0.86328a0.71482 0.71482 0 0 0 0.00391 0.015625c0.080357 0.27858 0.21655 0.53798 0.39648 0.76562 0.18459 0.2416 0.41327 0.44435 0.67578 0.59766a0.71482 0.71482 0 0 0 0.00391 0.00195c0.050123 0.028991 0.024816 0.012685 0.056641 0.03125l-1.1211 2.084c0.42574-0.29553 0.85139-0.59006 1.2832-0.87695l0.55664-1.0332a1.2369 1.1047 45 0 0 0.085937-0.19922 0.43919 0.39226 45 0 0 0-0.17578 0.3884 0.3469 45 0 0-0.085937-0.16211c-0.11909-0.14077-0.27477-0.20427-0.41798-0.2871a1.4528 1.2975 45 0 1-0.47461-0.41992 1.4102 1.2595 45 0 1-0.27148-0.52344 1.6163 1.4436 45 0 1-0.042969-0.5918 2.0256 1.8092 45 0 1 0.20117-0.60547c0.10872-0.20167 0.23885-0.36666 0.39062-0.49414 0.15536-0.12578 0.32082-0.21051 0.49805-0.25781a1.4191 1.2675 45 0 1 0.27539-0.041016 1.4191 1.2675 45 0 1 0.28516 0.019531c0.19474 0.033416 0.38939 0.10939 0.58398 0.22852 0.19465 0.12012 0.3542 0.26278 0.47852 0.42578 0.12843 0.16522 0.21757 0.34148 0.26953 0.5293 0.051435 0.18729 0.063951 0.38359 0.037109 0.58789-0.026842 0.2043-0.094406 0.40575-0.20312 0.60742l-0.80664 1.498-0.10938 0.60938 0.60938-0.10742 0.15039-0.082031 0.033203-0.18164 0.75195-1.3965c0.1449-0.26878 0.24408-0.55771 0.2832-0.85547 0.038136-0.29026 0.020967-0.58655-0.056641-0.86914a0.71482 0.71482 0 0 0 0-0.00195c-0.077018-0.27839-0.21196-0.54022-0.39062-0.77149l-0.0019531-0.0019531c-0.18272-0.23895-0.41213-0.43857-0.66992-0.59766a0.71482 0.71482 0 0 0-0.00195-0.00195c-0.25998-0.15915-0.54063-0.27167-0.83399-0.32227h-0.00195c-0.14317-0.024859-0.2888-0.034549-0.43359-0.029297zm0.99414 0.86523 0.021484 0.013672c-0.00397-0.00263-0.00967 6.363e-4 -0.013672-0.00195-0.00394-0.00248-0.00386-0.00929-0.00781-0.011719zm-0.7832 0.49023a0.6797 0.60707 45 0 0-0.20117 0.042969c-0.19484 0.079702-0.3615 0.2471-0.5 0.50391-0.13667 0.25392-0.188 0.49023-0.15234 0.70703a0.66326 0.5924 45 0 0 0.22852 0.41992c0.041499 0.037725 0.088467 0.073123 0.14062 0.10547 0.20805 0.12786 0.4101 0.15144 0.60547 0.072266 0.19665-0.074118 0.3628-0.2388 0.5-0.49219 0.13897-0.25728 0.18981-0.49637 0.15234-0.71875-0.033884-0.22069-0.1547-0.3931-0.36328-0.52148a0.6797 0.60707 45 0 0-0.41016-0.11914zm1.4785 0.52148 0.0019531 0.011719c-2.815e-4 -0.00183-0.00362-0.00207-0.00391-0.00391-4.46e-4 -0.00274 0.00241-0.00507 0.00195-0.00781zm-1.4336 0.21289c0.00997 0.00214 0.019081-3.02e-5 0.021484 0.015625a0.71482 0.71482 0 0 0 0.00195 0.00977c0.0061 0.036222 0.00896 0.10216-0.076172 0.25977-0.074567 0.13772-0.10413 0.14433-0.10938 0.14648-0.012137-0.00823-0.024176-0.016652-0.027344-0.019531l-0.00195 0.00195a0.71482 0.71482 0 0 0-0.00195-0.011719c-0.00467-0.028408-0.00796-0.093681 0.076172-0.25 0.072303-0.13406 0.10206-0.14352 0.11719-0.15234zm-0.17383 0.44531c5.54e-5 -2.53e-5 -0.00205 0.00394-0.00195 0.00391a0.71482 0.71482 0 0 0-0.015625 0.00586c0.00482-0.00195 0.0013-0.010869 0.017578-0.00977zm-1.4316 0.17773c3.572e-4 0.00242 0.00354 0.00344 0.00391 0.00586 3.362e-4 0.0021-0.0023 0.00376-0.00195 0.00586zm0.93359 3.0938a0.39213 0.35024 45 0 0-0.25586 0.09375 0.39213 0.35024 45 0 0-0.078125 0.14258 0.39213 0.35024 45 0 0-0.00781 0.05469 0.39213 0.35024 45 0 0 0.00781 0.11719 0.39213 0.35024 45 0 0 0.015625 0.06055 0.39213 0.35024 45 0 0 0.091797 0.15039 0.39213 0.35024 45 0 0 0.125 0.08594 0.39213 0.35024 45 0 0 0.14062 0.03516 0.39213 0.35024 45 0 0 0.00977 2e-3 0.39213 0.35024 45 0 0 0.12891-0.01953 0.39213 0.35024 45 0 0 0.00586 0 0.39213 0.35024 45 0 0 0.00391-2e-3 0.39213 0.35024 45 0 0 0.11133-0.07227 0.39213 0.35024 45 0 0 0.072266-0.11133 0.39213 0.35024 45 0 0 0.00195-0.0098 0.39213 0.35024 45 0 0 0.019531-0.12891 0.39213 0.35024 45 0 0 0-0.0059 0.39213 0.35024 45 0 0-0.00195-0.0039 0.39213 0.35024 45 0 0-0.035156-0.14062 0.39213 0.35024 45 0 0-0.085937-0.125 0.39213 0.35024 45 0 0-0.26953-0.12305zm1.5664 0.19531-0.875 0.4707-0.027344 0.01563-2.0625 1.1094-1.1445 0.61719-1.1406 2.1191a0.71482 0.71482 0 0 0 0.1543 0.86328l-0.02734-0.01758c0.0564 0.0564 0.10893 0.09928 0.16797 0.14844a0.71482 0.71482 0 0 0 0 2e-3c0.08095 0.06725 0.16806 0.12674 0.25781 0.18164 0.12538 0.0806 0.26431 0.13959 0.41406 0.16992 0.1671 0.03366 0.34782 0.02242 0.51953-0.03906 0.15371-0.05452 0.29725-0.14702 0.4082-0.27148 0.09968-0.11162 0.13774-0.18502 0.1543-0.21094l0.00195-0.0039c0.77017-1.1575 1.559-2.3063 2.3496-3.459a0.71482 0.71482 0 0 0 0.076172-0.46875l0.23633-0.12695a0.71482 0.71482 0 0 0 0.25-0.22461l0.089844-0.12695a0.71482 0.71482 0 0 0 0.11328-0.28131zm-1.4375 1.291c-0.79106 1.1534-1.5844 2.306-2.3594 3.4707-0.03212 0.04902-0.05848 0.09632-0.0918 0.13281a0.33387 0.2982 45 0 1-0.11328 0.07422 0.2786 0.24883 45 0 1-0.14062 0.0098 0.47205 0.42162 45 0 1-0.17383-0.07227 1.3295 1.1875 45 0 1-0.18164-0.12891c-0.05072-0.04223-0.09062-0.07695-0.11914-0.10547l-0.0039-2e-3 1.2656-2.3457z" color="#000000" stroke-linejoin="round" stroke-width="1.4295" style="-inkscape-stroke:none"/>
  <path d="m-4.0371 8.002c-0.073217 0.00271-0.14589 0.00974-0.21875 0.019531-0.29796 0.038869-0.58602 0.13705-0.85352 0.28125l-1.3984 0.75195-1.6211 0.28906a0.71482 0.71482 0 0 0-0.26758 0.10742c-1.5104 0.99682-2.9379 2.0594-4.4102 3.0078a0.71482 0.71482 0 0 0-0.0039 2e-3c-0.0318 0.02073-0.10726 0.05866-0.22266 0.16406a0.71482 0.71482 0 0 0-0.0098 0.0078c-0.11031 0.10426-0.19553 0.23228-0.25 0.37109a0.71482 0.71482 0 0 0-0.0059 0.01367c-0.06432 0.17458-0.07342 0.35915-0.03906 0.5293a0.71482 0.71482 0 0 0 2e-3 0.0059c0.03184 0.15121 0.09273 0.29015 0.17578 0.41602 0.05362 0.08656 0.1107 0.16968 0.17578 0.24805 0.0415 0.05044 0.08427 0.09877 0.12891 0.14648l-0.09961-0.13672a0.71482 0.71482 0 0 0 0.23047 0.1582h-0.10938a0.71482 0.71482 0 0 0 0.13867 0.02148 0.71482 0.71482 0 0 0 0.56055 0.08203 0.71482 0.71482 0 0 0 0.14258 0.02149l0.73633-0.39453a0.71482 0.71482 0 0 0 2e-3 -2e-3l5.2969-2.8535c0.019828 0.03367 0.00293 0.0074 0.035156 0.0625 0.15307 0.26164 0.35679 0.48969 0.59766 0.67383 0.22767 0.17999 0.48698 0.31614 0.76562 0.39648a0.71482 0.71482 0 0 0 0.013672 0.0039c0.28215 0.07504 0.5762 0.09694 0.86523 0.06055 0.29178-0.0371 0.57666-0.13275 0.84375-0.27539l0.00195-2e-3c0.26735-0.13964 0.50832-0.32838 0.70508-0.55664a0.71482 0.71482 0 0 0 0.015625-0.01758c0.18068-0.22487 0.31698-0.48579 0.39062-0.76562 0.074272-0.28247 0.083303-0.57828 0.033203-0.86523-0.050355-0.29329-0.16228-0.57422-0.32229-0.83396-0.15955-0.26019-0.35968-0.49083-0.59961-0.67383-0.22965-0.17669-0.49175-0.31333-0.77344-0.39062h-0.00195c-0.2105-0.057593-0.43074-0.082341-0.65039-0.074219zm0.027344 0.71484c0.14975-0.00561 0.29508 0.010253 0.43555 0.048828 0.18829 0.051491 0.3636 0.14157 0.5293 0.26953 0.163 0.12432 0.30418 0.28534 0.42383 0.48047 0.1196 0.19413 0.19563 0.38781 0.22852 0.58203a1.4191 1.2675 45 0 1-0.021484 0.55859c-0.046779 0.17776-0.13256 0.34411-0.25781 0.5a2.0794 1.8572 45 0 1-0.49414 0.39062c-0.20167 0.10871-0.40263 0.17563-0.60352 0.20117a1.6163 1.4436 45 0 1-0.5918-0.04297 1.4094 1.2588 45 0 1-0.52344-0.27148 1.4528 1.2975 45 0 1-0.41992-0.47266c-0.083834-0.14327-0.14686-0.29942-0.28711-0.41797a0.38392 0.3429 45 0 0-0.16211-0.08789 0.43919 0.39226 45 0 0-0.17578 0 1.2399 1.1074 45 0 0-0.19922 0.08594l-5.4648 2.9434-0.73633 0.39453-0.0039-0.0039a2.1227 1.8959 45 0 1-0.09961-0.11328 1.3459 1.2021 45 0 1-0.13086-0.18359 0.47056 0.42028 45 0 1-0.07227-0.17383 0.28009 0.25017 45 0 1 0.0098-0.13867 0.38466 0.34356 45 0 1 0.07422-0.11328c0.03649-0.03333 0.08426-0.06015 0.13281-0.0918 1.4993-0.96589 2.9281-2.0317 4.416-3.0137l1.7344-0.30859 1.498-0.80664c0.20167-0.10872 0.40455-0.17681 0.60938-0.20312 0.050943-0.00684 0.10243-0.00985 0.15234-0.011719zm0.46289 0.00195 0.00977 0.00195c-0.00209-3.519e-4 -0.00377 0.0023-0.00586 0.00195-0.00183-2.903e-4 -0.00207-0.00362-0.00391-0.00391zm1.0098 0.67578 0.013672 0.021484c-0.00244-0.00397-0.00923-0.00386-0.011719-0.00781-0.00259-4e-3 6.761e-4 -0.0097-0.00195-0.013672zm-1.2871 0.019531c-0.1732 0.00485-0.35587 0.059835-0.54883 0.16406-0.25392 0.13667-0.41807 0.30335-0.49219 0.5-0.079174 0.19537-0.05559 0.39742 0.072266 0.60547 0.032346 0.05216 0.067745 0.09913 0.10547 0.14062a0.66326 0.5924 45 0 0 0.41992 0.22852c0.21727 0.03519 0.45311-0.01568 0.70703-0.15234 0.2568-0.1385 0.4252-0.30511 0.50391-0.5a0.6797 0.60707 45 0 0-0.076172-0.61133c-0.12838-0.20858-0.3018-0.32945-0.52148-0.36328-0.055596-0.00937-0.11219-0.013335-0.16992-0.011719zm0.017578 0.71484c0.013921-2.04e-4 0.024148 4.28e-4 0.033203 2e-3a0.71482 0.71482 0 0 0 0.00977 2e-3c0.015987 0.0025 0.00902 0.0065 0.015625 0.02344-0.00777 0.01276-0.017784 0.04266-0.15234 0.11523-0.15632 0.08414-0.22359 0.08108-0.25391 0.07617a0.71482 0.71482 0 0 0-0.00781-2e-3l0.00195-2e-3c-0.00289-0.0032-0.011301-0.0152-0.019531-0.02734 0.00243-0.0061 0.00817-0.03598 0.14453-0.10938 0.1182-0.06385 0.18675-0.07751 0.22852-0.07813zm-0.38672 0.19727c4.21e-4 0.01605-0.00764 0.0143-0.00977 0.01953a0.71482 0.71482 0 0 0 0.00586-0.01563c-3.31e-5 8.8e-5 0.00392-0.0039 0.00391-0.0039zm-3.6641 0.10742a0.39213 0.35024 45 0 0-0.25586 0.09375 0.39213 0.35024 45 0 0 0.029297 0.52539 0.39213 0.35024 45 0 0 0.52539 0.0293 0.39213 0.35024 45 0 0-0.029297-0.52539 0.39213 0.35024 45 0 0-0.26953-0.12305z" color="#000000" stroke-linejoin="round" stroke-width="1.4295" style="-inkscape-stroke:none"/>
 </g>
</svg>
