<svg version="1.1" viewBox="0 0 16 16" xmlns="http://www.w3.org/2000/svg" xmlns:osb="http://www.openswatchbook.org/uri/2009/osb">
 <path d="m8.0499 0.0011209c-0.06071-0.0021451-0.12222-4.7023e-4 -0.18359 0.0039062-0.98203 0.070024-1.7665 0.82508-3.0371 2.0957l-2.7266 2.7246c-1.2706 1.2706-2.0256 2.0575-2.0977 3.041-0.03605 0.49174 0.14336 0.96268 0.44531 1.4082s0.7283 0.89862 1.2852 1.4492l3.543 3.543c0.54954 0.55569 1.0024 0.98168 1.4473 1.2832 0.44552 0.30195 0.91646 0.48136 1.4082 0.44531 0.98349-0.0721 1.7704-0.82703 3.041-2.0977l2.7246-2.7266c1.2706-1.2706 2.0257-2.0551 2.0957-3.0371 0.035009-0.49102-0.14449-0.96077-0.44531-1.4062-0.30082-0.44548-0.72593-0.8978-1.2793-1.4512l-1.9668-1.9668-1.5781-1.5801c-0.55337-0.55337-1.0076-0.97848-1.4531-1.2793-0.3898-0.26322-0.79771-0.4342-1.2227-0.44922zm-0.11133 1.002c0.21793-0.015539 0.43689 0.048767 0.77539 0.27734 0.3385 0.22858 0.76528 0.61879 1.3047 1.1582l3.5449 3.5449c0.53941 0.53941 0.92767 0.96619 1.1562 1.3047 0.22858 0.3385 0.29288 0.55551 0.27734 0.77344-0.03108 0.43585-0.55501 1.1527-1.8047 2.4023l-2.7246 2.7266c-1.2497 1.2497-1.9707 1.7765-2.4082 1.8086-0.02059 0.0015-0.04183-2e-3 -0.0625-2e-3v-2.5664c0-1.7969-0.02112-2.885-0.66602-3.6289-0.32244-0.37196-0.78283-0.5774-1.3105-0.67969-0.52772-0.10224-1.1491-0.12105-1.9316-0.12105h-3.0859c5.6e-5 -0.020018-0.0034-0.040598-2e-3 -0.060547 0.03207-0.43749 0.55892-1.1585 1.8086-2.4082l2.7266-2.7246c1.2497-1.2497 1.9665-1.7736 2.4023-1.8047z" color="#000000" fill="#808080" style="-inkscape-stroke:none"/>
</svg>
