<svg version="1.1" viewBox="0 0 16 16" xml:space="preserve" xmlns="http://www.w3.org/2000/svg" xmlns:osb="http://www.openswatchbook.org/uri/2009/osb"><g transform="translate(15.5 -.6826)" fill="#808080"><path d="m-13.994 0.86523c-0.83618 0-1.5059 0.70949-1.5059 1.5469v10.975c0 0.99786 0.62848 1.7829 1.3379 2.2988 0.70941 0.51594 1.5035 0.81445 2.1797 0.81445h1.5059v-14.088c0-0.83738-0.66968-1.5469-1.5059-1.5469zm0 1h2.0117c0.27857 0 0.50586 0.22607 0.50586 0.54688v13.088h-0.50586c-0.32989 0-1.0436-0.22435-1.5918-0.62305-0.54821-0.3987-0.92578-0.92015-0.92578-1.4902v-10.975c0-0.32081 0.22729-0.54688 0.50586-0.54688z" color="#000000" style="-inkscape-stroke:none"/><path d="m-8.8379 0.86523c-0.8357-1e-8 -1.541 0.67114-1.541 1.5059v2.0137c0 0.83472 0.70532 1.5059 1.541 1.5059h6.2383c0.99487 0 1.7758-0.63042 2.2891-1.3398 0.51323-0.70943 0.81055-1.5044 0.81055-2.1797v-1.5059h-3.0996zm0 1h8.3379v0.50586c0 0.3308-0.22255 1.0456-0.61914 1.5938-0.39659 0.54819-0.91564 0.92578-1.4805 0.92578h-6.2383c-0.31639 0-0.54102-0.22582-0.54102-0.50586v-2.0137c0-0.28004 0.22462-0.50586 0.54102-0.50586z" color="#000000" style="-inkscape-stroke:none"/><path d="m-9.3848 5.9883c-0.50804-0.010422-0.99493 0.37274-0.99414 0.91797v5.3848c0.0015 0.72874 0.82067 1.1199 1.4355 0.80664l2.6387-1.3477 2.6367-1.3457h0.00195c0.30741-0.15716 0.50781-0.47959 0.50781-0.80664 0-0.32705-0.2004-0.64948-0.50781-0.80664h-0.00195l-5.2734-2.6914h-0.00195c-0.13773-0.070168-0.28696-0.10796-0.43946-0.11133zm0.00586 1.0098 2.6191 1.3379 2.4746 1.2617-2.4746 1.2617-2.6191 1.3379v-2.5996z" color="#000000" style="-inkscape-stroke:none"/></g></svg>
