<svg version="1.1" viewBox="0 0 16 16" xmlns="http://www.w3.org/2000/svg">
 <path d="m3.6908 2.3256c-0.65864-0.018047-1.2628 0.25025-1.6934 0.73438-0.26478 0.13467-0.49543 0.33563-0.67578 0.57422-0.33427 0.4422-0.52148 1.0205-0.52148 1.6484 0 0.46295 0.10167 0.89913 0.28906 1.2734-0.43633 0.54166-0.74158 1.1363-1.0293 1.6621a0.50005 0.50005 0 0 0-0.0039062 0.011719 0.50005 0.50005 0 0 0-0.027344 0.10156 0.50005 0.50005 0 0 0-0.027344 0.11719 0.50005 0.50005 0 0 0 0.017578 0.091797 0.50005 0.50005 0 0 0 0.029297 0.13086 0.50005 0.50005 0 0 0 0.0019531 0.00586c1.6013 3.289 4.7863 4.9702 7.9453 4.998a0.50005 0.50005 0 0 0 0.013672-0.0059l-0.00586 0.0059c3.1497-0.02778 6.3257-1.701 7.9316-4.9707a0.50005 0.50005 0 0 0 0.01367-0.029297 0.50005 0.50005 0 0 0 2e-3 -0.00781 0.50005 0.50005 0 0 0 0.04102-0.12695 0.50005 0.50005 0 0 0 0.0039-0.14062 0.50005 0.50005 0 0 0-2e-3 -0.00391 0.50005 0.50005 0 0 0-0.03516-0.13281 0.50005 0.50005 0 0 0-2e-3 -0.00391 0.50005 0.50005 0 0 0-0.01758-0.041016c-0.28766-0.52582-0.59291-1.1204-1.0292-1.6621 0.1874-0.37431 0.28906-0.81049 0.28906-1.2734 0-0.62798-0.18722-1.2062-0.52148-1.6484-0.18035-0.23858-0.411-0.43955-0.67578-0.57422-0.43056-0.48413-1.0347-0.75242-1.6934-0.73438-0.85579 0.02345-1.7904 0.42519-2.8672 1.1211-0.48099 0.099717-0.96066 0.15369-1.4414 0.16211-0.48074-0.0084167-0.96042-0.062393-1.4414-0.16211-1.0767-0.6959-2.0114-1.0976-2.8672-1.1211zm0.19922 1.0176c0.54847 0.081595 1.3024 0.40171 2.2051 0.99414a0.50005 0.50005 0 0 0 0.16797 0.070312c0.57772 0.12624 1.1548 0.19167 1.7285 0.20117a0.50005 0.50005 0 0 0 0.015625 0c0.57373-0.0095 1.1508-0.074929 1.7285-0.20117a0.50005 0.50005 0 0 0 0.16797-0.070312c0.90264-0.59243 1.6566-0.91255 2.2051-0.99414-0.09735 0.088038-0.18624 0.186-0.26562 0.29102-0.33427 0.4422-0.52344 1.0205-0.52344 1.6484 0 0.62798 0.18917 1.2062 0.52344 1.6484 0.33427 0.4422 0.83978 0.75586 1.416 0.75586 0.37379 0 0.71845-0.13227 1.0059-0.3457 0.14165 0.22553 0.26968 0.47886 0.40234 0.7207-1.9391 0.4377-3.8816 0.74983-5.832 0.82227-0.27854 0.00816-0.55708 0.01341-0.83594 0.013672-0.28276-2.661e-4 -0.56522-0.005286-0.84766-0.013672-1.9466-0.07324-3.8851-0.38544-5.8203-0.82227 0.13277-0.24205 0.26199-0.49512 0.4043-0.7207 0.28716 0.21289 0.63066 0.3457 1.0039 0.3457 0.57624 0 1.0817-0.31366 1.416-0.75586 0.33427-0.4422 0.52344-1.0205 0.52344-1.6484 0-0.62798-0.18917-1.2062-0.52344-1.6484-0.079384-0.10502-0.16827-0.20298-0.26562-0.29102zm-2.2695 5.8809c2.1161 0.44265 4.2432 0.67386 6.3789 0.67578 2.1356-0.00193 4.263-0.23123 6.3789-0.67383-1.533 2.2373-3.9245 3.4253-6.375 3.4492-0.00258-2.3e-5 -0.00523 2.5e-5 -0.00781 0-2.4512-0.02393-4.8421-1.2126-6.375-3.4512z" color="#000000" fill="#808080" stroke-dashoffset="2.4" stroke-linecap="round" stroke-linejoin="round" stroke-miterlimit="2.4" style="-inkscape-stroke:none"/>
</svg>
