<svg version="1.1" viewBox="0 0 16 16" xmlns="http://www.w3.org/2000/svg" xmlns:osb="http://www.openswatchbook.org/uri/2009/osb">
 <g fill="#808080">
  <path d="m5 8a3 3 0 0 1 3-3 3 3 0 0 1 3 3 3 3 0 0 1-3 3 3 3 0 0 1-3-3zm1.5 0a1.5 1.5 0 0 0 1.5 1.5 1.5 1.5 0 0 0 1.5-1.5 1.5 1.5 0 0 0-1.5-1.5 1.5 1.5 0 0 0-1.5 1.5z"/>
  <path d="m0 8a8 8 0 0 1 8-8 8 8 0 0 1 8 8 8 8 0 0 1-8 8 8 8 0 0 1-8-8zm1 0a7 7 0 0 0 7 7 7 7 0 0 0 7-7 7 7 0 0 0-7-7 7 7 0 0 0-7 7z"/>
  <path d="m10.501 10.825c5.3e-4 -0.0115 0.0182-0.0141 0.0273-0.0212l2.9991-9.85c0.49987-0.98635 1.4967-0.64044 1.814-0.15797 0.36832 0.59552-4e-3 1.2629-0.13864 1.8667l-3.7646 8.3589c-0.0932 0.33346-0.71144 0.43128-0.85136 0.077-0.0545-0.0887-0.0804-0.18023-0.0859-0.27356z"/>
  <circle cx="14.5" cy="1.5" r="1.5"/>
  <circle cx="10.867" cy="11.322" r="1"/>
 </g>
</svg>
