<svg version="1.1" viewBox="0 0 16 16" xmlns="http://www.w3.org/2000/svg" xmlns:osb="http://www.openswatchbook.org/uri/2009/osb">
 <g transform="translate(18.597 -.29295)" fill="#808080">
  <path d="m-17.098 4.1172v0.82812h13v-0.82812z" color="#000000" style="-inkscape-stroke:none"/>
  <path d="m-17.098 11.643v0.82617h13v-0.82617z" color="#000000" style="-inkscape-stroke:none"/>
  <path d="m-15.096 5.7937v1h7v-1zm0 2v1h7v-1zm0 2v1h7v-1z" enable-background="new" style="paint-order:stroke fill markers"/>
  <path d="m-13.678 0.29297c-1.4631 0-2.4431 0.031235-3.1289 0.64844-0.34288 0.3086-0.54236 0.74053-0.65039 1.2461-0.10803 0.50557-0.13867 1.1037-0.13867 1.8555v8.502c0 0.75175 0.03064 1.3499 0.13867 1.8555 0.10803 0.50557 0.30751 0.93749 0.65039 1.2461 0.68577 0.6172 1.6658 0.64648 3.1289 0.64648h6.1621c1.4635 0 2.4448-0.02955 3.1328-0.64648 0.34399-0.30847 0.54699-0.74174 0.6543-1.248 0.10731-0.5063 0.13474-1.1052 0.13086-1.8574v-2.8359c-0.15674 0.056208-0.325 0.087891-0.5 0.087891-0.175 0-0.34326-0.031683-0.5-0.087891v2.8418c0.00372 0.72147-0.028989 1.2652-0.10938 1.6445-0.080386 0.37928-0.19267 0.57546-0.34375 0.71094-0.30216 0.27095-1.0362 0.39062-2.4648 0.39062h-6.1621c-1.4283 0-2.1582-0.11995-2.459-0.39062-0.15037-0.13534-0.26255-0.33092-0.34375-0.71094-0.0812-0.38002-0.11523-0.92455-0.11523-1.6465v-8.502c0-0.72193 0.03403-1.2665 0.11523-1.6465 0.0812-0.38002 0.19338-0.5756 0.34375-0.71094 0.30075-0.27068 1.0307-0.39258 2.459-0.39258h6.1621c1.4286 0 2.1627 0.12163 2.4648 0.39258 0.15108 0.13548 0.26336 0.33166 0.34375 0.71094 0.080386 0.37928 0.1131 0.92306 0.10938 1.6445v2.8398c0.15674-0.056208 0.325-0.087891 0.5-0.087891 0.175 0 0.34326 0.031683 0.5 0.087891v-2.8379c0.0038074-0.75109-0.023665-1.3497-0.13086-1.8555-0.10731-0.5063-0.31031-0.93763-0.6543-1.2461-0.68798-0.61694-1.6693-0.64844-3.1328-0.64844z" color="#000000" style="-inkscape-stroke:none"/>
 </g>
 <path d="m14.499 6.5001c-0.8225 0-1.5 0.6775-1.5 1.5 0 0.8225 0.6775 1.5 1.5 1.5s1.5-0.6775 1.5-1.5c0-0.8225-0.6775-1.5-1.5-1.5zm0 1c0.28206 0 0.5 0.21794 0.5 0.5 0 0.28206-0.21794 0.5-0.5 0.5-0.28206 0-0.5-0.21794-0.5-0.5 0-0.28206 0.21794-0.5 0.5-0.5z" color="#000000" fill="#808080" style="-inkscape-stroke:none"/>
</svg>
