<svg version="1.1" viewBox="0 0 16 16" xmlns="http://www.w3.org/2000/svg" xmlns:osb="http://www.openswatchbook.org/uri/2009/osb">
 <g fill="#808080">
  <path d="m13.01 1.8561c-0.25853-0.041871-0.47625 0.11075-0.57617 0.23242-0.099924 0.12167-0.1497 0.24336-0.19336 0.38086-0.062005 0.19525-0.2592 0.83956-1.0273 1.5098-0.76814 0.67021-2.1083 1.3485-4.5234 1.4121-2.0794 0.054268-2.9473-1.8594-2.9473-1.8594a0.50005 0.50005 0 0 0-0.95312 0.20703l-0.02344 3.4492a0.50005 0.50005 0 0 0 0.08008 0.27539s-0.02409-0.047186-0.02344-0.042969c6.49e-4 0.00422 0.01143 0.017432-0.02539 0.085937-0.07365 0.13701-0.43878 0.52729-1.666 0.9043a0.50005 0.50005 0 0 0-0.3457 0.5625c0.08846 0.50903 0.40554 0.95085 0.83984 1.3965 0.4343 0.44564 1.003 0.88445 1.6621 1.2812 1.3183 0.79359 2.997 1.4213 4.668 1.4512 1.6709 0.02986 3.3644-0.59468 4.4531-2.2617 1.0887-1.667 1.5853-4.2849 1.1699-8.2422a0.50005 0.50005 0 0 0-0.0019-0.00781c-0.016183-0.1327-0.042925-0.25589-0.10943-0.38477-0.0665-0.12888-0.1985-0.30774-0.45703-0.34961zm-0.43164 1.8262c0.19452 3.1655-0.20026 5.3778-1.0059 6.6113-0.89908 1.3767-2.1732 1.8341-3.5996 1.8086-1.4264-0.02549-2.9766-0.59028-4.1699-1.3086-0.59664-0.35916-1.1038-0.75656-1.4609-1.123-0.22439-0.23025-0.26655-0.37274-0.35938-0.54492 0.89783-0.3523 1.4697-0.72668 1.6953-1.1465 0.13805-0.25682 0.16208-0.52064 0.13281-0.71094-0.01031-0.067017-0.02491-0.069175-0.04492-0.12305l0.01367-1.9355c0.63247 0.61422 1.5938 1.2167 2.9355 1.1816 2.5959-0.068323 4.2008-0.82656 5.1562-1.6602 0.51131-0.44612 0.50573-0.67514 0.70703-1.0488z" color="#000000" fill-rule="evenodd" stroke-linejoin="round" stroke-miterlimit="10" style="-inkscape-stroke:none"/>
  <path d="m7.613 5.8092a1.6982 1.8267 0 0 0-1.4668 0.91016 1.5078 1.5602 0 0 0-1.3438-0.85156 1.5078 1.5602 0 0 0-1.5078 1.5605 1.5078 1.5602 0 0 0 1.5078 1.5605 1.5078 1.5602 0 0 0 1.2383-0.66992 1.6982 1.8267 0 0 0 1.5723 1.1426 1.6982 1.8267 0 0 0 1.6992-1.8262 1.6982 1.8267 0 0 0-1.6992-1.8262zm-2.5391 1.0801a0.625 0.65854 0 0 1 0.625 0.6582 0.625 0.65854 0 0 1-0.625 0.6582 0.625 0.65854 0 0 1-0.625-0.6582 0.625 0.65854 0 0 1 0.625-0.6582zm2.9297 0.14648a0.75 0.70886 0 0 1 0.75 0.70898 0.75 0.70886 0 0 1-0.75 0.70898 0.75 0.70886 0 0 1-0.75-0.70898 0.75 0.70886 0 0 1 0.75-0.70898z"/>
  <ellipse transform="rotate(-24.043)" cx="-1.7396" cy="8.694" rx="1.7148" ry="2.124"/>
  <path d="m9.3005 9.1901s0.29456 0.24432 0.4668 0.4668c-0.65231 0.50374-1.7664 0.90846-3.9551 0.4707 1.7085 0.60326 3.0193 0.72022 3.7363 0.24805 0.013167 0.08705 0.067139 0.18326 0.16797 0.26562 0 0 2.2131 1.5352 3.9355 2.043 0.03249 0.30828 0.23166 0.6199 0.60742 0.76367 0.8167 0.31249 1.5762 0.70312 1.5762 0.70312-0.38957-1.3224-0.52879-2.3727-1.5469-2.2793-0.0796 0.0073-0.15169 0.0265-0.2168 0.05273-1.0842-0.75002-2.8026-1.3449-3.6133-1.6016 0.04132-0.19751 0.04242-0.36064-0.12305-0.57421-0.26913-0.34739-1.0352-0.55859-1.0352-0.55859zm0.57617 0.87305c0.00759 0.02971 0.02537 0.05899 0.048828 0.08984-0.036587-0.0117-0.071814-0.01766-0.10352-0.02148 0.018755-0.02239 0.037438-0.04451 0.054687-0.06836z" color="#000000" fill-rule="evenodd"/>
 </g>
</svg>
