<svg version="1.1" viewBox="0 0 16 16" xml:space="preserve" xmlns="http://www.w3.org/2000/svg" xmlns:osb="http://www.openswatchbook.org/uri/2009/osb"><path d="m7.7382 0.0022373c-0.47861 0.010758-0.9447 0.060846-1.3577 0.15298-2.0915 0.46629-3.8605 1.6597-5.0465 3.4249a0.97919 0.97919 0 0 0-0.00191 0.00383c-2.0994 3.1456-1.6798 7.3667 0.99439 10.055 0.83089 0.83776 1.9312 1.5596 2.9717 1.8989 0.16111 0.05261 0.28631 0.11868 0.5909 0.12239 0.30221 0.0036 0.62622-0.16498 0.73049-0.23521 0.10162-0.06941 0.49371-0.52189 0.54883-0.81655 0.055358-0.29593 0.038245-0.46573 0.038245-0.82037v-0.72285a0.97919 0.97919 0 0 0-0.21035-0.48763c0.012601-0.02928 0.096489-0.07009 0.11091-0.09562 0.082283-0.14559 0.13472-0.28264 0.17402-0.43983 0.00313 0.0061 0.096723-0.19006 0.072667-0.1549h-0.00191l0.14725-0.21417a0.97919 0.97919 0 0 0-0.61767-1.5145l-0.48955-0.095618c-0.89599-0.18477-1.2175-0.40349-1.4839-0.80507a0.97919 0.97919 0 0 0-0.00191-0.00191c-0.3012-0.4518-0.35564-0.64617-0.36142-1.5031-3.81e-5 -0.81394-0.011686-0.78291 0.27728-1.1588l0.00383-0.00383c0.10402-0.1333 0.21461-0.25596 0.30596-0.53352 0.092014-0.27958 0.032266-0.66977-0.026772-0.82611 0.040439 0.10246 0.018426 0.064222 0.013386-0.00383-0.00284-0.037677-7.696e-4 -0.1006-0.00191-0.15298 0.077064 0.037182 0.13744 0.055861 0.218 0.10135l0.43983 0.25242a0.97919 0.97919 0 0 0 0.71328 0.10518l0.38819-0.09179c0.06604-0.01524 0.65002-0.069556 1.1627-0.068842 0.51265 7.131e-4 1.1015 0.064127 1.113 0.06693l0.36716 0.093702a0.97919 0.97919 0 0 0 0.74961-0.10899l0.35186-0.21226 0.0038-0.00191c0.08565-0.050987 0.18661-0.089076 0.28493-0.13577 0.0021 0.045731 0.0028 0.1829 0.0076 0.16637a0.97919 0.97919 0 0 0-0.0076 0.022947c-0.03598 0.13494-0.09585 0.39099-0.02677 0.68651 0.06907 0.29552 0.20252 0.45749 0.29067 0.57369 0.37211 0.49159 0.4894 1.6367 0.07458 2.528-0.22352 0.46329-0.70949 0.84357-1.5547 1.002a0.97919 0.97919 0 0 0-0.00191 0l-0.5144 0.09944a0.97919 0.97919 0 0 0-0.6693 1.4419l0.18932 0.33656a0.97919 0.97919 0 0 0 0.00191 0.0058l0.070755 0.12239 0.015297 1.111a0.97919 0.97919 0 0 0 0 0.0038l0.02486 1.3654a0.97919 0.97919 0 0 0 0.4513 0.80699l0.14533 0.0937c5.356e-4 3.5e-4 0.00324 0.0016 0.00383 2e-3 0.099461 0.06442 0.41765 0.23146 0.73049 0.22374 0.31146-0.0077 0.43238-0.07852 0.58707-0.13386 0.67845-0.23019 1.4634-0.66096 2.0519-1.1072l2e-3 -2e-3c3.0955-2.32 4.1034-6.5109 2.3864-9.9726-1.0162-2.0536-2.9023-3.6037-5.1077-4.1936a0.97919 0.97919 0 0 0-0.0058-0.001912c-0.6849-0.17999-1.518-0.27035-2.3157-0.25242zm0 1.0001c0.73031-0.009615 1.5433 0.061216 2.0672 0.19888 1.9211 0.51394 3.5991 1.8904 4.4862 3.6831 1.5112 3.0469 0.62907 6.7128-2.0997 8.7564-0.45887 0.34874-1.2966 0.80051-1.7861 0.9657-0.29368 0.104-0.32396 0.10515-0.46469 0.01338l-0.15298-0.09753-0.024859-1.3654-0.019122-1.3635-0.19505-0.3423-0.18932-0.33656 0.51249-0.09944c1.0768-0.2019 1.8791-0.75204 2.2584-1.5413 0.56288-1.1992 0.48905-2.6605-0.17784-3.5416-0.1346-0.17743-0.14647-0.23333-0.097527-0.41688 0.09177-0.31203 0.07341-0.96615-0.0306-1.3271-0.09789-0.31204-0.09795-0.31935-0.33656-0.31935-0.2998 0-0.9 0.22149-1.3711 0.50293l-0.35377 0.21418-0.37863-0.097526c-0.5017-0.12237-2.1721-0.12848-2.7288 0l-0.39202 0.091792-0.44748-0.25816c-0.52006-0.29368-1.0327-0.47042-1.308-0.43983-0.16519 0.018355-0.20921 0.053961-0.28876 0.26198-0.097899 0.28144-0.12237 1.212-0.030597 1.4323 0.048946 0.12848 0.031716 0.19662-0.1396 0.41688-0.38545 0.5017-0.48381 0.86794-0.48381 1.7612 0.00612 0.94834 0.13431 1.4569 0.52588 2.0442 0.42216 0.63631 1.0653 1.0097 2.1054 1.2239l0.49528 0.09753-0.14725 0.21418c-0.079537 0.11625-0.17745 0.3297-0.21418 0.47042-0.036712 0.14684-0.10937 0.27613-0.16446 0.29449-0.41604 0.12238-0.69268 0.14532-0.99248 0.08414-0.33651-0.07342-0.56193-0.26133-1.1493-0.97718-0.3365-0.40386-0.86899-0.59354-1.1321-0.39776-0.11011 0.07954-0.10362 0.08493 0.055457 0.22565 0.47723 0.42216 0.64716 0.6296 0.87965 1.0824 0.14072 0.2692 0.34346 0.5626 0.44748 0.64826 0.29368 0.25085 0.783 0.36142 1.4132 0.33083l0.53926-0.0306v0.72284c0 0.70361-0.00614 0.72821-0.15298 0.82611-0.1346 0.09173-0.17254 0.09025-0.47234-0.0076-0.80762-0.26314-1.878-0.94828-2.5816-1.658-2.3494-2.3617-2.7155-6.062-0.87392-8.8214 1.0524-1.5663 2.5819-2.6015 4.448-3.0176 0.29827-0.066537 0.70536-0.10132 1.1435-0.10709z" color="#000000" fill="#808080" stroke-linecap="round" stroke-linejoin="round" stroke-width=".97909" style="-inkscape-stroke:none;paint-order:stroke fill markers"/></svg>
