<svg version="1.1" viewBox="0 0 16 16" xmlns="http://www.w3.org/2000/svg" xmlns:osb="http://www.openswatchbook.org/uri/2009/osb">
 <path d="m3.3304 0 0.00391 0.025391a0.50005 0.50005 0 0 0-0.17774 0.0058594h-0.00195a0.50005 0.50005 0 0 0-0.28125 0.49609l-0.042972-0.029297-0.001953 0.87109-2.6426 2.1309a0.50005 0.50005 0 0 0-0.13281 0.61328l0.57031 1.1406a0.50005 0.50005 0 0 0 0.60742 0.25l1.2656-0.43164c0.27667 0.19209 0.53871 0.4277 0.88281 0.42773a0.50005 0.50005 0 0 0 0.00195 0c0.15944-1.965e-4 0.26636-0.12269 0.41211-0.16602-0.07705 0.10662-0.07278 0.28099-0.24805 0.32227-0.18277 0.043058-0.27643 0.033145-0.47656 0.041016-0.20013 0.00787-0.47627 0.045729-0.81445 0.18359-1.0375 0.42301-1.7674 1.3755-1.7676 2.5293a0.50005 0.50005 0 0 0 0.14258 0.34961l0.71094 0.72656c-0.50738 0.2823-0.91406 0.70376-0.91406 1.3262a0.50005 0.50005 0 0 0 0.5 0.5h6.959a0.50005 0.50005 0 0 0 0.5-0.5c0-0.60014-0.34109-1.0138-0.77344-1.3008l0.73828-0.71875a0.50005 0.50005 0 0 0 0.15039-0.35742v-3.4355c0-2.0424-1.5962-3.5995-3.5762-3.7891-0.17162-0.65384-0.73997-1.0522-1.3789-1.1406a0.50005 0.50005 0 0 0-0.14844-0.048828c-0.02404-0.001059-0.042237-0.021439-0.066407-0.021484z" color="#000000" fill="#808080" stroke-linejoin="round" style="-inkscape-stroke:none"/>
 <path d="m12.67 4.6875c-0.08125 1.51e-4 -0.14317 0.062801-0.22266 0.074219a0.50005 0.50005 0 0 0-0.05078 0.017578c-0.61264 0.10806-1.1544 0.48694-1.3203 1.1191-1.98 0.1896-3.5762 1.7466-3.5762 3.7891v3.4355a0.50005 0.50005 0 0 0 0.15234 0.35742l0.73633 0.71875c-0.43235 0.28703-0.77344 0.70065-0.77344 1.3008a0.50005 0.50005 0 0 0 0.5 0.5h6.959a0.50005 0.50005 0 0 0 0.5-0.5c0-0.62241-0.40668-1.0439-0.91406-1.3262l0.71094-0.72656a0.50005 0.50005 0 0 0 0.14453-0.34961c-1.45e-4 -1.1538-0.73205-2.1063-1.7695-2.5293-0.33819-0.13786-0.61432-0.17572-0.81445-0.18359-0.20013-0.0079-0.29379 2e-3 -0.47656-0.04102-0.17527-0.04127-0.171-0.21565-0.24805-0.32227 0.14575 0.04332 0.25267 0.16582 0.41211 0.16602a0.50005 0.50005 0 0 0 2e-3 0c0.34368-3.5e-5 0.60634-0.23608 0.88281-0.42773l1.2656 0.43164a0.50005 0.50005 0 0 0 0.60932-0.25l0.56836-1.1406a0.50005 0.50005 0 0 0-0.13281-0.61328l-2.6426-2.1309v-0.87109l-0.04492 0.029297a0.50005 0.50005 0 0 0-0.24023-0.47852 0.50005 0.50005 0 0 0-0.23047 0.013672zm-0.49609 1.3652v0.24414a0.50005 0.50005 0 0 0 0.18555 0.38867l2.5137 2.0273-0.19531 0.39062-0.98047-0.33203a0.50005 0.50005 0 0 0-0.55273 0.16211c-0.12732 0.16048-0.31859 0.25389-0.52344 0.25391-0.35616-4.39e-4 -0.62042-0.257-0.64648-0.62305v0.035156a0.50005 0.50005 0 0 0-1 0v1.1172c0.0011 0.74944 0.50994 1.4249 1.252 1.5996 0.30013 0.07071 0.52362 0.06276 0.66602 0.06836 0.14239 0.0056 0.23257 0.01266 0.47461 0.11133 0.66843 0.27254 1.0387 0.78512 1.0996 1.4473l-1.0332 1.0527a0.50005 0.50005 0 0 0 0.35742 0.84961c0.10096-2.8e-5 0.09622 0.12237 0.18555 0.1543h-4.8711c0.073309-0.02167 0.065635-0.1543 0.15039-0.1543a0.50005 0.50005 0 0 0 0.34961-0.85938l-1.1055-1.0742v-3.2246c0-1.6347 1.2992-2.8603 2.9492-2.8613 0.01095 5.077e-4 0.02306 0.00134 0.0332 0.00195a0.50005 0.50005 0 0 0 0.5293-0.51367c-0.0017-0.051909 0.0041-0.10365 0.01563-0.1543 0.01308-0.056076 0.11122-0.055973 0.14648-0.10742z" color="#000000" fill="#808080" stroke-linejoin="round" style="-inkscape-stroke:none"/>
</svg>
