<svg version="1.1" viewBox="0 0 16 16" xmlns="http://www.w3.org/2000/svg" xmlns:osb="http://www.openswatchbook.org/uri/2009/osb">
 <path d="m9.5 9.46e-5c-1.0618 0-1.9162 0.82178-1.9863 1.8652l-0.90038 0.90039-1.3457 1.3457c-0.2465-0.06501-0.50007-0.1115-0.76757-0.1115-1.662 0-3 1.338-3 3 0 0.88872 0.38989 1.6762 0.99999 2.2246v3.7754h4v-3.7754c0.6101-0.5484 0.99999-1.3359 0.99999-2.2246 0-0.26759-0.04622-0.52108-0.11134-0.76757l0.79101-0.79098 0.55468-0.55472 0.90038-0.90036c0.12911-0.0076 0.2538-0.0302 0.375-0.06236l0.77343 0.77344 0.0098 0.01136 0.14453 0.14438-0.29102 0.29102c-0.09377 0.09373-0.14646 0.2211-0.14649 0.35339v2c3.1e-5 0.27628 0.22386 0.49999 0.5 0.50003l2 4e-3c0.67616 0.01136 0.67616-1.0095 0-0.99998l-1.5-2e-3v-1.293l1.707-1.709h1.293v1.5c-0.0095 0.67616 1.0096 0.67616 0.99999 0v-2c-2.7e-5 -0.27628-0.22386-0.49996-0.5-0.49999h-2c-0.13258 3.7e-5 -0.25976 0.05254-0.35353 0.14665l-0.29492 0.2948-0.14453-0.14438-0.0098-0.01136-0.77148-0.77147c0.04365-0.16441 0.07423-0.33297 0.07423-0.51175 0-1.108-0.89199-2-2-2zm0 0.99998c0.554 0 0.99999 0.44602 0.99999 1 0 0.554-0.446 0.99998-0.99999 0.99998-0.554 0-1-0.44598-1-0.99998 0-0.55401 0.446-1 1-1zm-5 4c1.108 0 2 0.892 2 2 0 0.36699-0.10428 0.70499-0.27538 1-0.16974 0.29253-0.41274 0.5359-0.70117 0.71093-0.01474 0.0076-0.02986 0.01508-0.04494 0.02644-0.11807 0.06766-0.24514 0.11981-0.37697 0.16214-0.039 0.01135-0.07718 0.02644-0.1172 0.03402-0.15549 0.03932-0.31604 0.06614-0.48438 0.06614-0.16834 0-0.32889-0.02644-0.48437-0.06652-0.04002-0.01136-0.07816-0.02271-0.1172-0.03401-0.13183-0.04235-0.2589-0.09487-0.37697-0.16214-0.01512-0.0076-0.03024-0.01512-0.0449-0.02644-0.28841-0.17499-0.53142-0.41821-0.70117-0.71089-0.1711-0.2948-0.27538-0.63306-0.27538-0.99998 0-1.108 0.89199-2 2-2zm0 0.99998c-0.554 0-0.99999 0.44598-0.99999 0.99998 0 0.554 0.446 1 0.99999 1 0.554 0 0.99999-0.44602 0.99999-1 0-0.554-0.446-0.99998-0.99999-0.99998zm-3 8s-0.99999 0-0.99999 0.99998v0.99998h8v-0.99998s0-0.99998-0.99999-0.99998z" fill="#808080" fill-rule="evenodd" stroke-width=".33596"/>
</svg>
