<svg version="1.1" viewBox="0 0 16 16" xmlns="http://www.w3.org/2000/svg" xmlns:osb="http://www.openswatchbook.org/uri/2009/osb">
 <g transform="translate(18.003 -.47264)" fill="#808080" stroke-linejoin="round">
  <path d="m-12.857 10.316a0.50005 0.50005 0 0 0-0.4375 0.25781l-2.3438 4.2188a0.50005 0.50005 0 0 0 0.4375 0.74219h10.168a0.50005 0.50005 0 0 0 0.42969-0.24414l2.4902-4.2188a0.50005 0.50005 0 0 0-0.43164-0.75586zm0.29492 1h9.1426l-1.8984 3.2188h-9.0312z" color="#000000" style="-inkscape-stroke:none"/>
  <path d="m-12.773 1.6504-5.1562 8.4375a0.50005 0.50005 0 0 0-0.01953 0.48438l2.3438 4.6875a0.50005 0.50005 0 0 0 0.88477 0.01563l5.0254-9.2109-0.87695-0.47852-4.5664 8.3711-1.793-3.584 5.0117-8.2012z" color="#000000" style="-inkscape-stroke:none"/>
  <path d="m-12.346 1.4102a0.50005 0.50005 0 0 0-0.43555 0.74805l5.0391 8.9062a0.50005 0.50005 0 0 0 0.43555 0.25195h4.8047a0.50005 0.50005 0 0 0 0.43164-0.75l-5.1562-8.9062a0.50005 0.50005 0 0 0-0.43164-0.25zm0.85742 1h3.541l4.5762 7.9062h-3.6445z" color="#000000" style="-inkscape-stroke:none"/>
 </g>
</svg>
