<svg version="1.1" viewBox="0 0 16 16" xmlns="http://www.w3.org/2000/svg" xmlns:osb="http://www.openswatchbook.org/uri/2009/osb">
 <g transform="rotate(90 444 -68)">
  <path d="m520.14 360c-0.16411-3e-3 -0.32827-4.4e-4 -0.49219 8e-3h-6e-3c-3.5901 0.18427-6.457 3.0579-6.6328 6.6484-0.011 0.23296-0.0103 0.46633 2e-3 0.69922l0.99798-0.0508c-0.16937-3.3094 2.3762-6.1295 5.6856-6.2988h4e-3c3.3086-0.16712 6.1266 2.3789 6.2949 5.6875l0.99801-0.0508c-0.18686-3.6691-3.1784-6.5694-6.8516-6.6426zm-0.13867 3.998c-1.6568 0-3 1.3432-3 3h1.5c0-0.82843 0.67157-1.5 1.5-1.5s1.5 0.67157 1.5 1.5h1.5c0-1.6568-1.3432-3-3-3z" fill="#808080"/>
 </g>
 <g transform="translate(-2)" color="#000000" fill="#808080" font-family="sans-serif" font-weight="400" white-space="normal">
  <path d="m5 4c-0.658 0-1.178 0.06-1.617 0.225-0.42194 0.15141-0.77588 0.44861-0.998 0.838-0.416 0.752-0.37 1.673-0.385 2.931v4.012c0.015 1.258-0.03 2.179 0.385 2.932 0.207 0.376 0.56 0.673 0.998 0.838 0.438 0.164 0.96 0.224 1.617 0.224h2c0.658 0 1.179-0.06 1.617-0.225 0.439-0.164 0.789-0.461 0.996-0.837 0.416-0.753 0.372-1.674 0.387-2.932v-4.012c-0.014-1.258 0.03-2.179-0.385-2.932-0.22212-0.38939-0.57606-0.68659-0.998-0.838-0.437-0.164-0.96-0.224-1.617-0.224zm0 1h2c0.592 0 1.006 0.063 1.266 0.16 0.26 0.098 0.371 0.204 0.472 0.387 0.202 0.366 0.247 1.195 0.262 2.453v3.994c-0.015 1.264-0.06 2.092-0.262 2.46-0.1 0.183-0.212 0.288-0.472 0.386-0.26 0.097-0.674 0.16-1.266 0.16h-2c-0.592 0-1.006-0.063-1.266-0.16-0.26-0.098-0.371-0.203-0.472-0.387-0.202-0.366-0.247-1.193-0.262-2.453v-4c0.015-1.258 0.06-2.087 0.262-2.453 0.1-0.183 0.213-0.29 0.472-0.387 0.26-0.097 0.674-0.16 1.266-0.16z" overflow="visible" style="font-feature-settings:normal;font-variant-alternates:normal;font-variant-caps:normal;font-variant-ligatures:normal;font-variant-numeric:normal;font-variant-position:normal;isolation:auto;mix-blend-mode:normal;shape-padding:0;text-decoration-color:#000000;text-decoration-line:none;text-decoration-style:solid;text-indent:0;text-orientation:mixed;text-transform:none"/>
  <path d="m3.1 0v3h1v-2h4.1v2h1v-3zm1.7 2v1h1v-1zm1.7 0v1h1v-1z" fill-rule="evenodd" overflow="visible" style="font-feature-settings:normal;font-variant-alternates:normal;font-variant-caps:normal;font-variant-ligatures:normal;font-variant-numeric:normal;font-variant-position:normal;isolation:auto;mix-blend-mode:normal;shape-padding:0;text-decoration-color:#000000;text-decoration-line:none;text-decoration-style:solid;text-indent:0;text-orientation:mixed;text-transform:none"/>
 </g>
</svg>
