<svg version="1.1" viewBox="0 0 16 16" xmlns="http://www.w3.org/2000/svg" xmlns:osb="http://www.openswatchbook.org/uri/2009/osb">
 <path d="m7.9107-1.436e-4c-0.58522 0-1.175 0.218-1.6056 0.66606l-5.5101 5.7309c-0.56926 0.57818-0.87812 1.0971-0.77544 1.6544 0.10268 0.55734 0.57632 0.84556 1.0196 1.0313 0.44328 0.18576 0.94437 0.30401 1.4063 0.43167 0.22892 0.063258 0.35622 0.13467 0.54496 0.20314-0.21404 0.11468-0.44439 0.22995-0.65239 0.41995-0.10705 0.09779-0.22832 0.22389-0.27736 0.4473-0.04891 0.22278 0.05668 0.49677 0.19923 0.64262 0.22886 0.23776 0.49393 0.35249 0.80279 0.48245 0.31117 0.13094 0.66136 0.25201 1.0059 0.37112 0.34457 0.11911 0.68299 0.23744 0.94928 0.34768 0.19386 0.08025 0.27018 0.13439 0.34573 0.18165-0.03839 0.04858-0.05325 0.07342-0.1211 0.14649-0.05236 0.0564-0.10916 0.15594-0.16798 0.22462-0.29565 0.31775-0.29577 0.63272-0.29885 0.75591 0.02188 0.17913 0.11591 0.34937 0.23439 0.47269 0.41328 0.43696 0.929 0.41834 1.1934 0.48441 0.13285 0.03319 0.20614 0.06693 0.25197 0.10938 0.04583 0.04245 0.09793 0.10756 0.13477 0.31447 0.06901 0.38872 0.39424 0.69225 0.71684 0.79888 0.32343 0.10691 0.65722 0.09803 0.99811 0.04492 0.68179-0.1062 1.3991-0.40629 1.924-0.84771 2e-3 -0.0013 0.0039-0.0026 0.0059-0.0039 0.10965-0.09468 0.2205-0.2112 0.2715-0.40432 0.051-0.19312-0.02088-0.42865-0.11329-0.55082-0.1184-0.15654-0.2039-0.17112-0.29885-0.21681 0.24997-0.19233 0.49644-0.38263 0.73247-0.45902h0.0019c0.27158-0.08947 0.62915-0.13115 1.0137-0.26369 0.28527-0.09832 0.57769-0.29086 0.80178-0.59017l0.13243-0.17934c0.03034-0.05556 0.06153-0.10819 0.08543-0.17 0.07648-0.1978 0.05917-0.43476-0.01367-0.6016-0.07331-0.16793-0.17834-0.28224-0.28322-0.37893-0.20977-0.19339-0.44423-0.32809-0.65043-0.4512-0.01354-0.0081-0.01405-0.0095-0.02735-0.01758 0.26517-0.12725 0.49916-0.25157 0.88678-0.39065 0.58214-0.20888 1.2321-0.42768 1.8029-0.70708 0.57074-0.2794 1.1065-0.60943 1.336-1.2013 0.11476-0.29591 0.11682-0.65037 0-0.97663-0.11613-0.32427-0.3339-0.62913-0.64265-0.94342l-0.0039-0.00586-5.7094-5.9359c-0.00447-0.004645-0.00903-0.009204-0.01367-0.013673-0.45315-0.43637-1.0477-0.65239-1.6329-0.65239zm2.4533 4.1175 0.752 0.61918 0.31838-0.38088c0.03874-0.046481 0.07999-0.10651 0.11134-0.1797l3.0041 3.1252c2e-3 0.00132 0.0039 0.00262 0.0059 0.00391 0.24433 0.24788 0.36774 0.4491 0.41604 0.58402 0.04831 0.13492 0.0388 0.19553 0.0078 0.27541-0.06196 0.15977-0.35847 0.42943-0.84185 0.66606s-1.1078 0.45116-1.7013 0.66411c-0.59347 0.21294-1.15 0.4082-1.5763 0.71294-0.14762 0.1055-0.31529 0.33469-0.30276 0.58402 0.01254 0.24934 0.1387 0.3909 0.23634 0.48831 0.19529 0.19483 0.40343 0.30204 0.60746 0.42386 0.18289 0.1092 0.33846 0.21319 0.43558 0.29299-0.07339 0.11987-0.13622 0.21-0.32033 0.27346-0.23702 0.08168-0.59808 0.12729-0.99616 0.25783-0.42344 0.13704-0.9332 0.38521-1.4239 0.88873-0.00131 0.0013-0.00261 0.0026-0.0039 0.0039-0.10394 0.1091-0.20132 0.24823-0.22853 0.44144-0.02721 0.19321 0.05033 0.39724 0.14064 0.51175 0.07615 0.09657 0.12975 0.09596 0.19923 0.14259-0.33406 0.19152-0.69871 0.40221-1.0509 0.45706-0.2403 0.03743-0.44477 0.02077-0.53129-0.0078-0.0385-0.01272-0.04642-0.0097-0.04883-0.0078 0.0021-0.0013 0.0034-0.0056 2e-3 -0.01367 1.3e-6 -6.67e-4 1.3e-6 -0.0013 0-2e-3 -0.06475-0.36363-0.21867-0.6666-0.43948-0.87115-0.22082-0.20455-0.4766-0.29498-0.68755-0.34768-0.34202-0.08544-0.47654-0.11919-0.57621-0.16212 0.03724-0.04617 0.04545-0.06246 0.10352-0.12501 0.12016-0.12942 0.27268-0.27226 0.38674-0.51566 0.05703-0.1217 0.10317-0.28132 0.08204-0.46097-0.02113-0.17965-0.11371-0.35469-0.23244-0.47855-0.00129-0.0013-0.00259-0.0026-0.0039-0.0039-0.2311-0.23503-0.4966-0.34431-0.8067-0.47269-0.3101-0.12838-0.6602-0.24838-1.004-0.36721s-0.68212-0.23803-0.94733-0.34963c-0.08769-0.0369-0.08779-0.04774-0.15626-0.08399 0.07343-0.04381 0.10307-0.07071 0.18946-0.1172 0.21423-0.11528 0.43811-0.21995 0.64653-0.40042 0.10421-0.09024 0.24391-0.21008 0.27541-0.47464 0.0315-0.26456-0.15687-0.52006-0.31252-0.62309-0.00196-0.00132-0.00392-0.00262-0.0059-0.00391-0.40817-0.2633-0.89225-0.40032-1.3732-0.53322-0.48093-0.1329-0.95906-0.2551-1.2872-0.3926-0.32814-0.13751-0.4178-0.25619-0.42386-0.28908-0.0061-0.032896 0.03004-0.28823 0.50589-0.77154 0.00131-0.0013 0.00261-0.0026 0.0039-0.00391l2.3029-2.3947 0.01563 0.031252c0.12805 0.2433 0.43053 0.37307 0.66411 0.37307l2.1779 0.015626 0.27932-0.61528 0.28518 1.1563 1.7325-1.1094 1.2169 0.66411z" color="#000000" fill="#808080" stroke-linejoin="round"/>
 <path d="m-11.206 0.50141c-0.46197 0-0.91741 0.17075-1.2455 0.51217l-5.5139 5.7357c-2.0901 2.1228 1.4172 1.9523 2.6636 2.7565 0.57477 0.38045-1.6936 0.87249-1.1999 1.3743 0.48102 0.50488 2.7532 0.95952 3.2342 1.4487 0.48102 0.50182-0.96351 1.0361-0.47942 1.5379 0.46875 0.50182 1.5079 0.02393 1.7111 1.1649 0.14693 0.84477 1.9701 0.42027 2.8261-0.29972 0.5342-0.46125-0.93404-0.46099-0.45302-0.96587 0.43125-0.4425 0.84327-0.63909 1.2183-0.76046 0.67159-0.22125 1.4388-0.1719 1.7231-0.90757 0.24068-0.6109-1.7952-1.0887-1.2457-1.4815 1.3118-0.93784 5.9843-1.4045 3.7599-3.6613l-5.7136-5.9417c-0.35454-0.34142-0.82317-0.51217-1.2851-0.51217zm8.78e-4 0.68364c0.29223 0 0.58818 0.10871 0.80761 0.31859l5.7009 5.9285 0.00291 0.00291c0.23189 0.23527 0.33844 0.41744 0.37414 0.51714 0.035699 0.099705 0.026365 0.10751 0.010803 0.14763-0.031125 0.080254-0.28512 0.33726-0.7524 0.56601-0.46728 0.22875-1.0871 0.44253-1.6826 0.6562-0.59551 0.21368-1.1581 0.40707-1.6205 0.73765-0.17665 0.12629-0.39582 0.42034-0.37963 0.74228 0.016191 0.322 0.17762 0.49664 0.29098 0.60974 0.22673 0.22619 0.43921 0.32922 0.64283 0.45079 0.12244 0.0731 0.18638 0.1229 0.27383 0.18296-0.035937 0.01583-0.060024 0.03038-0.12363 0.0523-0.21084 0.07266-0.57387 0.11842-0.99708 0.25772-3.511e-4 8.8e-5 -5.267e-4 4.8e-5 -8.779e-4 1.76e-4 -0.44066 0.14305-0.98268 0.40796-1.494 0.93261l-0.0027 0.0029-0.0027 0.0027c-0.12006 0.12601-0.24413 0.2977-0.2788 0.54389-0.03468 0.24619 0.06785 0.50829 0.18004 0.65054 0.0165 0.02092 0.03123 0.03217 0.04732 0.05058-0.26003 0.119-0.54429 0.21602-0.78446 0.25343-0.19442 0.03029-0.34 0.0177-0.40586 0.0048-0.08163-0.34245-0.23175-0.65054-0.45833-0.86042-0.253-0.23436-0.54252-0.335-0.76783-0.39129-0.21797-0.05446-0.19963-0.04643-0.30041-0.07064 0.10821-0.11334 0.23073-0.24544 0.33813-0.47462 0.06694-0.14283 0.12389-0.33972 0.09774-0.56207-0.02615-0.22234-0.14298-0.43664-0.28326-0.58299l-0.0029-0.0031-0.0031-0.0031c-0.27187-0.2765-0.54862-0.38252-0.86676-0.51423-0.31814-0.13171-0.67097-0.25246-1.0146-0.37123-0.28026-0.09688-0.5315-0.18977-0.76234-0.28035 0.17712-0.09223 0.36059-0.18759 0.55504-0.35596 0.11972-0.10366 0.29813-0.24991 0.33899-0.5931 0.04086-0.3432-0.20841-0.6756-0.39489-0.79903l-0.0033-0.00223-0.0034-0.00205c-0.44365-0.28626-0.94015-0.42221-1.4245-0.55607-0.48439-0.13386-0.95798-0.25529-1.2649-0.38391-0.21069-0.088294-0.28018-0.15277-0.3023-0.16667 0.01107-0.00492 0.04789-0.19205 0.44478-0.59516l0.0029-0.00291 5.5168-5.7388c0.18795-0.19557 0.45898-0.30212 0.7524-0.30212z" color="#000000" color-rendering="auto" dominant-baseline="auto" enable-background="new" image-rendering="auto" opacity="0" shape-rendering="auto" solid-color="#000000" stroke-width="1.368" style="font-feature-settings:normal;font-variant-alternates:normal;font-variant-caps:normal;font-variant-ligatures:normal;font-variant-numeric:normal;font-variant-position:normal;isolation:auto;mix-blend-mode:normal;shape-padding:0;text-decoration-color:#000000;text-decoration-line:none;text-decoration-style:solid;text-indent:0;text-orientation:mixed;text-transform:none;white-space:normal"/>
</svg>
