<svg version="1.1" viewBox="0 0 16 16" xmlns="http://www.w3.org/2000/svg" xmlns:osb="http://www.openswatchbook.org/uri/2009/osb">
 <g transform="translate(17.928 1.6212e-5)" fill="#808080">
  <path d="m-9.9277 3.5c-2.4794 0-4.5 2.0206-4.5 4.5 0 2.4794 2.0206 4.5 4.5 4.5s4.5-2.0206 4.5-4.5c0-2.4794-2.0206-4.5-4.5-4.5zm0 1c1.9389 0 3.5 1.5611 3.5 3.5s-1.5611 3.5-3.5 3.5c-1.9389 0-3.5-1.5611-3.5-3.5s1.5611-3.5 3.5-3.5z" color="#000000" stroke-dashoffset="1.9" stroke-linecap="square" stroke-miterlimit="1.5" style="-inkscape-stroke:none"/>
  <circle cx="-4.8283" cy="3" r="1" enable-background="new"/>
  <path d="m-13.484 0c-1.6832 0-2.761 0.025701-3.5293 0.625-0.38416 0.29965-0.6253 0.74023-0.75195 1.2539-0.12665 0.51368-0.16211 1.117-0.16211 1.8711v8.5c0 0.75405 0.03546 1.3574 0.16211 1.8711 0.12665 0.51368 0.36779 0.95426 0.75195 1.2539 0.76832 0.5993 1.8461 0.625 3.5293 0.625h7.1113c1.6836 0 2.7664-0.02605 3.5371-0.625 0.38533-0.29947 0.62808-0.73937 0.75391-1.2539 0.1257-0.514 0.1587-1.1176 0.1543-1.8711v-8.5c0.0043987-0.75347-0.028596-1.3571-0.1543-1.8711-0.12583-0.51453-0.36857-0.95443-0.75391-1.2539-0.77066-0.59894-1.8535-0.625-3.5371-0.625zm0 1h7.1113c1.6534 0 2.552 0.12512 2.9238 0.41406 0.18589 0.14447 0.30379 0.33207 0.39453 0.70312 0.090742 0.37105 0.13122 0.9098 0.12695 1.6289v8.5079c0.00428 0.71911-0.036213 1.2579-0.12695 1.6289-0.09074 0.37105-0.20864 0.55865-0.39453 0.70312-0.37179 0.2889-1.2704 0.41402-2.9238 0.41402h-7.1113c-1.653 0-2.546-0.12548-2.916-0.41406-0.18498-0.14429-0.30284-0.33122-0.39453-0.70312-0.0917-0.37191-0.13281-0.91317-0.13281-1.6328v-8.5c0-0.71964 0.04112-1.2609 0.13281-1.6328 0.0917-0.37191 0.20955-0.55883 0.39453-0.70312 0.36997-0.28858 1.263-0.41406 2.916-0.41406z" color="#000000" style="-inkscape-stroke:none"/>
 </g>
</svg>
