<svg width="16" height="16" version="1.1" xmlns="http://www.w3.org/2000/svg">
 <path d="m5.9922 0.5 1.1543 1.7305 0.58008 0.86914 0.019531 12.4h1.1309v-12.404l0.57617-0.86523 1.1543-1.7305h-2.3066zm-0.57617 2.8848v0.86523h1.1523v-0.86523zm5.0625 1.5566c-0.21246 0.011458-0.43999 0.19925-0.43945 0.40625l-0.007812 6.1113c0 0.27602 0.40628 0.51554 0.63867 0.35156l4.3789-3.0645c0.23391-0.16195 0.23338-0.54241 0-0.70508l-4.3711-3.0449c-0.05833-0.040633-0.12641-0.058472-0.19726-0.054688zm-6.2168 0.17383v0.86523h2.3066v-0.86523zm-2.3086 1.7305v0.86523h4.6152v-0.86523zm-1.1523 1.7305v0.86523h5.7676v-0.86523zm1.1523 1.7305v0.86523h4.6152v-0.86523zm2.3086 1.7305v0.86719h2.3066v-0.86719z" fill="#808080"/>
</svg>
