<svg version="1.1" viewBox="0 0 16 16" xmlns="http://www.w3.org/2000/svg" xmlns:osb="http://www.openswatchbook.org/uri/2009/osb">
 <g fill="#808080">
  <g>
   <path d="m4.0723 1.5002c-3.0143-0.0149-3.3223 0.31186-3.3223 3.3535v6.291c0 3.0417 0.30791 3.3555 3.3223 3.3555h4.0742a9 9 0 0 0 6.1035-8.5 9 9 0 0 0-1.207-4.4961c-0.19283-4e-3 -0.39624-5e-3 -0.61719-4e-3h-4.1758z" enable-background="new" opacity=".3"/>
   <path d="m4.0723 1.5002c-3.0143-0.0149-3.3223 0.31186-3.3223 3.3535v6.291c0 0.0778 2e-3 0.1464 2e-3 0.2207a7.5 7.5 0 0 0 2.998 0.63476 7.5 7.5 0 0 0 7.5-7.5 7.5 7.5 0 0 0-0.62891-3h-2.3711z" enable-background="new" opacity=".3"/>
   <path d="m4.0723 1.5002c-3.0143-0.0149-3.3223 0.31186-3.3223 3.3535v3.9434a6 6 0 0 0 1.5 0.20312 6 6 0 0 0 6-6 6 6 0 0 0-0.19141-1.5z" enable-background="new" opacity=".3"/>
  </g>
  <path d="m6.2938 11.222q-0.13018-0.31614-0.31614-0.67878-0.17667-0.36264-0.39983-0.72527-0.21386-0.36264-0.46492-0.69738t-0.51141-0.5951l-0.66018 2.6965h-1.4412l1.5435-6.4438h1.4505l-0.5672 2.3246q0.72527-0.62299 1.3669-1.1902 0.64159-0.5765 1.1995-1.1344h1.7202q-0.84615 0.79036-1.683 1.5714-0.82756 0.77177-1.7481 1.5063 0.5858 0.64159 1.1251 1.4691 0.53931 0.82756 0.96703 1.8969zm3.0685 0q-0.24176-0.92984-0.43702-2.1665-0.19527-1.246-0.26965-2.7244h1.432q0.0093 0.36264 0.02789 0.79966 0.0186 0.42773 0.04649 0.86475 0.02789 0.43702 0.06509 0.85545 0.03719 0.40913 0.08369 0.74387 0.20456-0.27895 0.45562-0.68808 0.26035-0.40913 0.50211-0.85545t0.44632-0.89264q0.20456-0.45562 0.31614-0.82756h1.4691q-0.24176 0.66018-0.60439 1.3576-0.35334 0.69738-0.76247 1.3483-0.40913 0.65089-0.83686 1.2181-0.41843 0.5672-0.78106 0.96703z" stroke-linecap="square" stroke-linejoin="round" stroke-width=".096859" aria-label="Kv"/>
  <path d="m4.0723 1.5002c-3.0143-0.0149-3.3223 0.31186-3.3223 3.3535v1.1465a4.5 4.5 0 0 0 4.5-4.5z" color="#000000" opacity=".3"/>
  <path d="m3.75 1.0002c-0.75109-0.00381-1.3497 0.023665-1.8555 0.13086-0.5063 0.10731-0.93958 0.31031-1.248 0.6543-0.61694 0.68798-0.64648 1.6693-0.64648 3.1328v6.1621c0 1.4631 0.03123 2.4431 0.64844 3.1289 0.3086 0.34288 0.74053 0.54432 1.2461 0.65234 0.50557 0.10803 1.1037 0.13867 1.8555 0.13867h8.5c0.75175 0 1.3499-0.03064 1.8555-0.13867 0.50557-0.10803 0.93749-0.30946 1.2461-0.65234 0.6172-0.68577 0.64844-1.6658 0.64844-3.1289v-6.1621c0-1.4635-0.0315-2.4448-0.64844-3.1328-0.30847-0.34399-0.73979-0.54699-1.2461-0.6543-0.50577-0.10719-1.1044-0.13467-1.8555-0.13086h-8.498zm-0.0039 1h8.5059c0.72147-0.00372 1.2672 0.028989 1.6465 0.10938s0.57351 0.19267 0.70898 0.34375c0.27096 0.30216 0.39258 1.0362 0.39258 2.4648v6.1621c0 1.4283-0.11995 2.1582-0.39062 2.459-0.13534 0.15037-0.33287 0.26255-0.71289 0.34375-0.38002 0.0812-0.92455 0.11719-1.6465 0.11719h-8.5c-0.72193 0-1.2684-0.03599-1.6484-0.11719-0.38002-0.0812-0.5756-0.19338-0.71094-0.34375-0.27068-0.30075-0.39062-1.0307-0.39062-2.459v-6.1621c0-1.4286 0.11967-2.1627 0.39062-2.4648 0.13548-0.15108 0.33166-0.26336 0.71094-0.34375 0.37928-0.080386 0.92306-0.1131 1.6445-0.10938z" color="#000000" style="-inkscape-stroke:none"/>
 </g>
</svg>
