<svg version="1.1" viewBox="0 0 16 16" xmlns="http://www.w3.org/2000/svg" xmlns:osb="http://www.openswatchbook.org/uri/2009/osb">
 <path d="m0.61914 0.15039v1h0.5 1.8691 0.5v-1h-0.5-1.8691-0.5zm3.2051 0v1h0.5 1.8711 0.5v-1h-0.5-1.8711-0.5zm3.207 0v1h0.5 1.8711 0.5v-1h-0.5-1.8711-0.5zm-3.207 1.6035v0.5 0.57031 1 0.56836 0.5h1v-0.5-0.56836h0.87109v0.56836 0.5h1v-0.5-0.56836-1-0.57031-0.5h-1v0.5 0.57031h-0.87109v-0.57031-0.5h-1zm0 3.7422v0.5 0.56836 1 0.56836 0.5h1v-0.5-0.56836h0.87109v0.56836 0.5h1v-0.5-0.56836-1-0.56836-0.5h-1v0.5 0.56836h-0.87109v-0.56836-0.5h-1zm0 3.7402v0.5 0.57031 1 0.56836 0.5h1v-0.5-0.56836h0.87109v0.56836 0.5h1v-0.5-0.56836-1-0.57031-0.5h-1v0.5 0.57031h-0.87109v-0.57031-0.5h-1zm9.2207 0v1h0.5 0.16797v0.87109h-0.16797-0.5v1h0.5 0.16797 1 0.16797 0.5v-1h-0.5-0.16797v-0.87109h0.16797 0.5v-1h-0.5-0.16797-1-0.16797-0.5zm-9.2207 3.7422v0.5 1.8711a0.50005 0.50005 0 0 0 0.85352 0.35352l0.58203-0.58203 0.58203 0.58203a0.50005 0.50005 0 0 0 0.85352-0.35352v-1.8711-0.5h-1v0.5h-0.87109v-0.5h-1zm3.4746 0v0.5 1.3711 0.5 0.5h0.5 0.5 0.56836 0.5v-1h-0.5-0.56836v-1.3711-0.5h-1zm5.7461 0v1h0.5 0.16797v0.87109h-0.16797-0.5v1h0.5 0.16797 1 0.16797 0.5v-1h-0.5-0.16797v-0.87109h0.16797 0.5v-1h-0.5-0.16797-1-0.16797-0.5zm-12.426 1.8711v1h0.5 1.8691 0.5v-1h-0.5-1.8691-0.5zm9.0859 0v1h0.5 1.8691 0.5v-1h-0.5-1.8691-0.5z" color="#000000" fill="#808080" stroke-linecap="square" stroke-linejoin="round" style="-inkscape-stroke:none"/>
</svg>
