<svg version="1.1" viewBox="0 0 16 16" xml:space="preserve" xmlns="http://www.w3.org/2000/svg" xmlns:osb="http://www.openswatchbook.org/uri/2009/osb"><path d="m8 0a8 8 0 0 0-8 8 8 8 0 0 0 8 8 8 8 0 0 0 8-8 8 8 0 0 0-8-8zm0 1a7 7 0 0 1 7 7 7 7 0 0 1-7 7 7 7 0 0 1-7-7 7 7 0 0 1 7-7z" fill="#808080"/><path d="m2.6507 12.515c0.17579 0.23766 0.14257 0.27375 0.34931 0.48504 0.2385 0.239 0.78412 0.58519 1.0571 0.7839 0.27324 0.19844 0.56853 0.36097 0.86948 0.51418 0.30036 0.1529 0.61225 0.28198 0.93281 0.38606 0.32086 0.10444 0.64943 0.18349 0.98268 0.23644 0.33358 0.05288 0.6708 0.07944 1.0085 0.07943 0.51328 0.0097 0.67373 8.9e-5 1.0067-0.0527 0.14269 0 0.36901-0.03794 0.55045-0.09032-0.01659-0.0079-0.01814-0.02605-0.0092-0.05541 0.05679-0.18732 0.09703-0.50816 0.11083-0.76763 0.02187-0.41108 0.28061-1.0626 0.54121-1.3595 0.22923-0.26114 0.27441-0.47075 0.27892-1.3189 0.0037-0.70209 0.01138-0.78425 0.10159-1.0991 0.15356-0.53589 0.31294-0.91459 0.49873-1.1859 0.09442-0.13787 0.24627-0.38207 0.33618-0.54491 0.08991-0.16284 0.21854-0.3843 0.28816-0.4895 0.18186-0.27482 0.57092-0.6523 0.76287-0.74256 0.21452-0.10086 0.45192-0.37219 0.53013-0.60771 0.08039-0.2421 0.05332-0.62638-0.05172-0.76657-0.0619-0.08261-0.1-0.09605-0.2586-0.09605-0.14525 0-0.2067-0.02091-0.27892-0.08866-0.09934-0.09319-0.17178-0.07892-0.17178 0.0314 0 0.08652-0.13326 0.25267-0.17178 0.21427-0.01605-0.01599 1.76e-4 -0.10723 0.03694-0.20319 0.13475-0.35168 0.17853-0.57813 0.15702-0.80536-0.03547-0.37463-0.26814-0.9471-0.39529-0.9716-0.03057-0.0059-0.19706 0.10798-0.36943 0.25306-0.89888 0.75657-1.5821 1.2751-2.0577 1.5627-0.22697 0.13722-0.22862 0.13761-0.61141 0.1293-0.45322-0.0098-0.51488 0.01446-1.2708 0.47287-0.26183 0.15877-0.55885 0.31897-0.65759 0.3565-0.09923 0.03772-0.41172 0.09208-0.70192 0.12191-0.59601 0.06127-0.75599 0.09835-0.97899 0.2272-0.22058 0.12742-0.27597 0.22347-0.22905 0.39344 0.04594 0.16643 0.29014 0.49273 0.5837 0.78134l0.22162 0.21797-0.17178 0.2623c-0.09396 0.1451-0.23524 0.4141-0.31402 0.59663-0.15655 0.36277-0.19959 0.43036-0.51166 0.81459-0.27035 0.33285-0.56984 0.81109-0.84969 1.3595-0.23932 0.46898-0.35496 0.59089-0.79428 0.8423-0.14431 0.08259-0.27064 0.19248-0.34931 0.12314zm6.395-6.1799-0.34357 0.43962-0.54676 0.07573 0.33988-0.43778z" fill="#808080" stroke-width=".037004"/><path d="m-15.574 10.701a6.8092 6.8092 0 0 0 0.039063 0.09375 6.8092 6.8092 0 0 0 0.039062 0.0625c-0.026686-0.05156-0.052694-0.10388-0.078125-0.15625z" fill="#fff" stroke-width=".039127"/></svg>
