<svg version="1.1" viewBox="0 0 16 16" xml:space="preserve" xmlns="http://www.w3.org/2000/svg" xmlns:osb="http://www.openswatchbook.org/uri/2009/osb"><g fill="#808080" shape-rendering="auto"><path d="m3.9941 0c-1.2582 0.0145-2.1789-0.030604-2.9316 0.38477-0.37637 0.20766-0.67323 0.55939-0.83789 0.99805-0.16467 0.43867-0.22461 0.95958-0.22461 1.6172v10c0 0.65761 0.0599 1.1785 0.22461 1.6172 0.16467 0.43866 0.46152 0.7904 0.83789 0.99805 0.75275 0.41532 1.6735 0.3702 2.9316 0.38477h0.00391 6.2891c-0.52764-0.27541-0.99145-0.6587-1.3613-1.125-1.7822 0.001237-3.5656-0.024931-5.3457-0.011719-0.78646-0.11198-1.9999 0.29029-2.4043-0.69141-0.1705-2.4656-0.088844-7.9496-0.089844-10.436 0.12175-0.84105-0.29598-2.0645 0.6875-2.5117 1.6892-0.21162 3.4084-0.077503 5.123-0.13281 1.749-4e-3 3.4973-0.00102 5.2461 0.021484 0.86117 0.14671 2.161-0.34154 2.6738 0.66797 0.15323 1.7519 0.14707 4.5617 0.13086 7.1895 0.43335 0.3583 0.79119 0.79912 1.0527 1.2969v-7.2676c0-0.65761-0.0599-1.1785-0.22461-1.6172-0.16466-0.43866-0.46152-0.79039-0.83789-0.99805-0.75275-0.41534-1.6734-0.37025-2.9316-0.38477h-0.0039-8.0039z" color="#000000" color-rendering="auto" dominant-baseline="auto" image-rendering="auto" solid-color="#000000" style="font-feature-settings:normal;font-variant-alternates:normal;font-variant-caps:normal;font-variant-ligatures:normal;font-variant-numeric:normal;font-variant-position:normal;isolation:auto;mix-blend-mode:normal;shape-padding:0;text-decoration-color:#000000;text-decoration-line:none;text-decoration-style:solid;text-indent:0;text-orientation:mixed;text-transform:none;white-space:normal"/><path d="m8 3c-0.32982 0-0.6434 0.055-0.93196 0.16602-0.28687 0.10564-0.54263 0.26009-0.75422 0.46093v2e-3l-0.00234 2e-3c-0.20615 0.20179-0.36432 0.44348-0.47622 0.71875-0.11398 0.2754-0.16857 0.57752-0.16857 0.9003 0 0.32721 0.054367 0.63217 0.16862 0.9082 0.11223 0.2711 0.27057 0.50964 0.47623 0.71094l0.00234 2e-3c0.2111 0.20039 0.46409 0.35832 0.74967 0.46875l0.00234 2e-3h0.00234c0.28794 0.10566 0.60266 0.1582 0.93196 0.1582 0.32923 0 0.64149-0.0525 0.92969-0.1582v-2e-3c0.2853-0.11033 0.53444-0.26764 0.74053-0.46875 0.21178-0.20133 0.37503-0.4407 0.48763-0.71289 0.11468-0.27603 0.16862-0.58101 0.16862-0.9082h7e-3c0-0.32242-0.05484-0.62322-0.16862-0.89844-0.11212-0.27645-0.27541-0.52072-0.48763-0.72265-0.20659-0.20175-0.45849-0.35724-0.74511-0.46289-0.28941-0.11037-0.60224-0.16607-0.93229-0.16607zm0 1c0.64432 0 1.1667 0.55964 1.1667 1.25s-0.52234 1.25-1.1667 1.25c-0.64432 0-1.1667-0.55964-1.1667-1.25s0.52234-1.25 1.1667-1.25z" color="#000000" color-rendering="auto" dominant-baseline="auto" image-rendering="auto" solid-color="#000000" style="font-feature-settings:normal;font-variant-alternates:normal;font-variant-caps:normal;font-variant-ligatures:normal;font-variant-numeric:normal;font-variant-position:normal;isolation:auto;mix-blend-mode:normal;shape-padding:0;text-decoration-color:#000000;text-decoration-line:none;text-decoration-style:solid;text-indent:0;text-orientation:mixed;text-transform:none;white-space:normal"/><path d="m8 8v0.0019531c-3.4975 8e-3 -3.5 1.998-3.5 1.998-1.867e-4 0.99805 0.00117 0.4466 0 0.99805 0.58333 1e-3 2.0416 0.001953 3.5 0.001953 0.056156 0 0.078661 9e-6 0.13477 0a4 4 0 0 1 0.41211-1h-0.54688-2.2109c7.699e-4 -2e-3 0.0026763-0.0038594 0.0039063-0.0058594 0 0-0.123-0.9863 2.207-0.99023v-0.0019531c0.52329 8.984e-4 0.92147 0.05122 1.2266 0.12891a4 4 0 0 1 1.0195-0.71875c-0.51171-0.23928-1.2305-0.40979-2.2461-0.41211z" color="#000000" color-rendering="auto" dominant-baseline="auto" image-rendering="auto" solid-color="#000000" style="font-feature-settings:normal;font-variant-alternates:normal;font-variant-caps:normal;font-variant-ligatures:normal;font-variant-numeric:normal;font-variant-position:normal;isolation:auto;mix-blend-mode:normal;shape-padding:0;text-decoration-color:#000000;text-decoration-line:none;text-decoration-style:solid;text-indent:0;text-orientation:mixed;text-transform:none;white-space:normal"/></g><g transform="matrix(.4375 0 0 .4375 8.9936 9.0515)" stroke="#808080"><g transform="translate(-632,-320)" fill="#808080" stroke="none"><path d="m640.18 321c-2.483-0.0657-4.9225 1.1941-6.248 3.4922-1.9281 3.3427-0.77551 7.629 2.5703 9.5625 3.3458 1.9335 7.6344 0.79191 9.5625-2.5508 1.9281-3.3427 0.77551-7.6329-2.5703-9.5664-1.0456-0.60423-2.1858-0.90763-3.3144-0.9375zm-0.18164 0.99609a6 6 0 0 1 6 6 6 6 0 0 1-6 6 6 6 0 0 1-6-6 6 6 0 0 1 6-6z" color="#000000" style="-inkscape-stroke:none"/><path d="m640.19 320.67c-2.6014-0.0688-5.1592 1.2544-6.5469 3.6602-2.0184 3.4993-0.80853 7.9939 2.6934 10.018 3.5019 2.0237 7.999 0.82571 10.018-2.6738 2.0185-3.4994 0.8087-7.9977-2.6934-10.021-1.0946-0.63257-2.2883-0.95113-3.4707-0.98242zm-0.0195 0.66797c1.0749 0.0284 2.1617 0.31669 3.1582 0.89258 3.1896 1.8432 4.285 5.9254 2.4473 9.1113-1.8376 3.1858-5.9177 4.2711-9.1074 2.4277-3.1898-1.8433-4.285-5.9214-2.4473-9.1074 1.2635-2.1904 3.5846-3.3868 5.9492-3.3242zm-0.17191 0.32813c-3.4938 0-6.334 2.8401-6.334 6.334s2.8401 6.334 6.334 6.334 6.334-2.8401 6.334-6.334-2.8401-6.334-6.334-6.334zm0 0.66796c3.1336 0 5.666 2.5325 5.666 5.666s-2.5325 5.666-5.666 5.666-5.666-2.5325-5.666-5.666 2.5325-5.666 5.666-5.666z" color="#000000" style="-inkscape-stroke:none"/><path d="m638.69 320.12v1.5451c0.86819-0.1783 1.7641-0.1766 2.6322 5e-3v-1.5501zm-2.7536 0.98912-2.0054 1.7049 0.98801 1.1776c0.54939-0.69591 1.236-1.2714 2.0174-1.6908zm8.1287 0.0127-0.99285 1.1835c0.0573 0.0293 0.11416 0.0595 0.17056 0.0905 0.71061 0.41285 1.3366 0.95679 1.8446 1.6029l1.0051-1.1977zm-11.61 4.2168-0.44056 2.5954 1.5154 0.26739c-0.0273-0.8866 0.12755-1.769 0.45509-2.5927zm15.086 3e-3 -1.5228 0.26851c0.32999 0.82318 0.48779 1.705 0.46365 2.5909l1.5329-0.27zm-13.682 4.6946-1.3515 0.78058h-3.4e-4l1.331 2.271 1.3381-0.77238c-0.59006-0.66203-1.0384-1.4377-1.3172-2.2792zm12.301 3e-3c-0.13616 0.42225-0.31536 0.82932-0.53478 1.2148-0.22083 0.38188-0.48014 0.74014-0.77388 1.0692l1.3388 0.77313 1.3016-2.2881zm-9.5569 3.4716-0.53479 1.4688 2.4795 0.88448 0.52585-1.4453c-0.81119-0.11877-1.5928-0.39022-2.3034-0.79995-0.0563-0.0351-0.11203-0.0711-0.16721-0.10799zm6.8133 0.0153c-0.75448 0.46543-1.5968 0.77091-2.4747 0.89752l0.53031 1.4565 2.4676-0.91651z" color="#000000" style="-inkscape-stroke:none"/><path d="m638.52 319.96v1.916l0.20117-0.041c0.84585-0.17371 1.7186-0.17108 2.5644 6e-3l0.19922 0.041v-1.9219zm0.33398 0.33398h2.2988v1.2207c-0.76115-0.13513-1.5376-0.1381-2.2988-6e-3zm-2.9004 0.58594-0.12891 0.10937-2.1308 1.8125 1.2266 1.4609 0.12695-0.16015c0.53523-0.67798 1.2036-1.2398 1.9648-1.6484l0.17969-0.0957zm8.0879 0.0156-0.10742 0.12696-1.127 1.3438 0.18554 0.0937c0.0558 0.0285 0.11102 0.0577 0.16602 0.0879 0.6914 0.40209 1.3005 0.93176 1.7949 1.5606l0.12695 0.1621 1.2441-1.4844zm-8.1289 0.45704 0.7871 0.9375c-0.66999 0.38648-1.2643 0.88439-1.7617 1.4766l-0.77539-0.92578zm8.1699 0.01 1.7715 1.4668-0.79101 0.9414c-0.49557-0.5921-1.0682-1.1189-1.7363-1.5078zm-11.768 3.7891-0.0273 0.16602-0.46875 2.7598 1.8808 0.33007-6e-3 -0.20312c-0.0266-0.86382 0.12425-1.7249 0.44335-2.5274l0.0742-0.18945zm15.357 4e-3 -0.16406 0.0293-1.7246 0.30468 0.0762 0.18946c0.32152 0.80206 0.47469 1.6623 0.45117 2.5254l-4e-3 0.20312 1.8984-0.33398zm-15.084 0.38281 1.2031 0.21289c-0.26369 0.7269-0.39677 1.492-0.39648 2.2656l-1.1914-0.21094zm14.814 4e-3 0.41602 2.2617-1.209 0.21289c-2e-3 -0.77361-0.14021-1.5368-0.40625-2.2637zm-1.3418 4.2559-0.0644 0.19726c-0.13265 0.41138-0.30577 0.80804-0.51953 1.1836-0.21497 0.37152-0.46809 0.72083-0.75391 1.041l-0.13672 0.15235 1.6621 0.95898 1.4648-2.5781zm-12.25 0.0781-0.0391 0.0234-1.3125 0.75781h-0.24805l1.5625 2.6641 1.6582-0.95704-0.13477-0.15234c-0.57493-0.64506-1.0115-1.4008-1.2832-2.2207l-0.0391-0.11524zm-0.0117 0.39258c0.2656 0.72638 0.65128 1.3994 1.1484 1.9922l-1.0527 0.60742-1.1621-1.9844zm12.434 0.0137 1.0273 0.59375-1.1367 2-1.0352-0.59765c0.24781-0.2951 0.48468-0.59976 0.67773-0.9336v-2e-3c0.19154-0.33651 0.3368-0.69603 0.4668-1.0606zm-9.7188 2.9785-0.0723 0.19922-0.59179 1.627 2.793 0.99609 0.65235-1.793-0.20117-0.0293c-0.79036-0.11572-1.5518-0.38007-2.2441-0.7793-0.0532-0.0333-0.10598-0.0666-0.15821-0.10156zm6.9844 0.0234-0.17383 0.10742c-0.73504 0.45344-1.5548 0.75165-2.4102 0.875l-0.20313 0.0293 0.65821 1.8066 2.7793-1.0332zm-0.1875 0.45898 0.41211 1.1289-2.1562 0.80078-0.41797-1.1465c0.76196-0.13358 1.4919-0.3976 2.1621-0.7832zm-6.627 0.0273c0.66988 0.38601 1.412 0.61895 2.1719 0.75391l-0.4121 1.1348-2.166-0.77344z" color="#000000" style="-inkscape-stroke:none"/><path d="m639.65 323.01c-1.6024 0.11249-3.1219 0.99052-3.9824 2.4824-1.3769 2.3871-0.55308 5.4534 1.8359 6.834 2.389 1.3806 5.4532 0.56088 6.8301-1.8262 1.3769-2.3871 0.55308-5.4514-1.8359-6.832-0.89588-0.51773-1.8862-0.72569-2.8476-0.65821zm0.35156 0.98633a4 4 0 0 1 4 4 4 4 0 0 1-4 4 4 4 0 0 1-4-4 4 4 0 0 1 4-4z" color="#000000" style="-inkscape-stroke:none"/><path d="m639.62 322.68c-1.7085 0.11995-3.3309 1.0585-4.248 2.6484-1.4674 2.5439-0.58641 5.8181 1.959 7.2891 2.5454 1.471 5.8178 0.59463 7.2852-1.9492 1.4673-2.5439 0.58631-5.8162-1.959-7.2871-0.95454-0.55163-2.012-0.77312-3.0371-0.70117zm0.0469 0.66406c0.89774-0.063 1.821 0.13141 2.6582 0.61524 2.2328 1.2903 2.9993 4.1467 1.7129 6.377-1.2864 2.2302-4.1424 2.9933-6.375 1.7031-2.2326-1.2902-2.9993-4.1487-1.7129-6.3789 0.80398-1.3938 2.2206-2.2114 3.7168-2.3164zm0.3281 0.32032c-2.3893 0-4.334 1.9447-4.334 4.334s1.9447 4.334 4.334 4.334 4.334-1.9447 4.334-4.334-1.9447-4.334-4.334-4.334zm0 0.66796c2.029 0 3.666 1.637 3.666 3.666s-1.637 3.666-3.666 3.666-3.666-1.637-3.666-3.666 1.637-3.666 3.666-3.666z" color="#000000" style="-inkscape-stroke:none"/></g></g></svg>
