<svg version="1.1" viewBox="0 0 16 16" xmlns="http://www.w3.org/2000/svg" xmlns:osb="http://www.openswatchbook.org/uri/2009/osb">
 <g fill="#808080">
  <path d="m9.2031 4.1016-4.4258 2.4102 0.47852 0.87891 4.1602-2.2656c-0.13613-0.27195-0.21481-0.57546-0.21484-0.89648a1.0001 1.0001 0 0 1 0-0.011719z" color="#000000" style="-inkscape-stroke:none"/>
  <path d="m10.773 3.2461-0.56445 0.30664-0.0078 0.67578c4e-6 0.035786 0.0023 0.070614 0.0059 0.10547 0.0027 0.025779 0.0072 0.050982 0.01172 0.076172 0.0018 0.0104 0.0037 0.02096 0.0059 0.03125 0.0015 0.00723 0.0022 0.014311 0.0039 0.021484 0.01517 0.064534 0.0362 0.12625 0.0625 0.18555l0.96085-0.52344zm-1.5703 0.85547-2.9707 1.6172 0.47852 0.87891 2.7051-1.4727c-0.00221-0.00441-0.00368-0.00924-0.00586-0.013672-0.014668-0.029844-0.029745-0.059232-0.042968-0.089844-0.008355-0.019342-0.015674-0.038961-0.023438-0.058594-0.0093362-0.023436-0.01886-0.046491-0.027344-0.070312-0.022004-0.062388-0.040786-0.12654-0.056641-0.19141-8.003e-4 -0.00323-0.00117-0.00653-0.00195-0.00977-0.00791-0.033075-0.017194-0.065967-0.023437-0.099609-0.00169-0.00897-0.00234-0.018336-0.00391-0.027344-0.00515-0.030071-0.00989-0.059369-0.013672-0.089844-4.971e-4 -0.00391-0.00148-0.00781-0.00195-0.011719-0.00448-0.037992-0.00746-0.07668-0.00977-0.11523-0.00236-0.039525-0.0039-0.079092-0.00391-0.11914a1.0001 1.0001 0 0 1 0-0.011719z" color="#000000" enable-background="new" style="-inkscape-stroke:none"/>
  <path d="m5.2832 8.5625-0.47852 0.87891 4.4316 2.4141 0.00195-0.08399c3.5e-5 -0.33395 0.083921-0.64961 0.23047-0.92969z" color="#000000" style="-inkscape-stroke:none"/>
  <path d="m7.5527 9.7988-0.47852 0.87891 2.1621 1.1777 0.00195-0.08399c4.5e-6 -0.04201 0.00131-0.08357 0.00391-0.125 0.00255-0.04065 0.00675-0.08108 0.011719-0.12109 0.0051-0.04109 0.011957-0.08075 0.019531-0.12109 0.00629-0.03349 0.013544-0.06668 0.021484-0.09961 0.00367-0.01512 0.0077-0.02993 0.011719-0.04492 0.014973-0.05634 0.033091-0.11161 0.052734-0.16602 0.00882-0.0243 0.017627-0.04838 0.027344-0.07227 0.00715-0.01766 0.013853-0.03532 0.021484-0.05273 0.018793-0.04273 0.03897-0.08572 0.060547-0.12695zm2.791 1.5195c-0.01387 0.02847-0.02576 0.05806-0.03711 0.08789-0.0042 0.01108-0.0079 0.02195-0.01172 0.0332-0.0027 8e-3 -0.0073 0.01536-0.0098 0.02344-0.0016 0.0052-0.0024 0.01044-0.0039 0.01563-3.99e-4 0.0014-0.0016 0.0025-2e-3 0.0039-0.0069 0.02341-0.01234 0.04821-0.01758 0.07227-0.0011 0.0052-0.0029 0.01038-0.0039 0.01562-0.0051 0.02616-0.0086 0.05325-0.01172 0.08008-2.99e-4 0.0025 2.8e-4 0.0053 0 0.0078-6.44e-4 0.0059-0.0014 0.01168-2e-3 0.01758-0.0029 0.03172-0.0059 0.06322-0.0059 0.0957l-0.0078 0.625 1.3848 0.75391 0.47852-0.87891z" color="#000000" enable-background="new" style="-inkscape-stroke:none"/>
  <g shape-rendering="auto">
   <path d="m11.275 0.0809c-0.57259 6e-5 -1.0367 0.46422-1.0368 1.0368l-0.0365 3.1104c6e-5 0.57258 0.46422 1.0367 1.0368 1.0368h3.0739c0.57259-6e-5 1.0367-0.46422 1.0368-1.0368l0.0365-3.1104c-6e-5 -0.57258-0.46422-1.0367-1.0368-1.0368z" color="#000000" color-rendering="auto" dominant-baseline="auto" enable-background="new" image-rendering="auto" solid-color="#000000" stop-color="#000000" style="font-feature-settings:normal;font-variant-alternates:normal;font-variant-caps:normal;font-variant-east-asian:normal;font-variant-ligatures:normal;font-variant-numeric:normal;font-variant-position:normal;font-variation-settings:normal;inline-size:0;isolation:auto;mix-blend-mode:normal;shape-margin:0;shape-padding:0;text-decoration-color:#000000;text-decoration-line:none;text-decoration-style:solid;text-indent:0;text-orientation:mixed;text-transform:none;white-space:normal"/>
   <path d="m11.275 10.735c-0.57259 6e-5 -1.0367 0.46422-1.0368 1.0368l-0.0365 3.1104c6e-5 0.57258 0.46422 1.0367 1.0368 1.0368h3.0739c0.57259-6e-5 1.0367-0.46422 1.0368-1.0368l0.0365-3.1104c-6e-5 -0.57258-0.46422-1.0367-1.0368-1.0368z" color="#000000" color-rendering="auto" dominant-baseline="auto" enable-background="new" image-rendering="auto" solid-color="#000000" stop-color="#000000" style="font-feature-settings:normal;font-variant-alternates:normal;font-variant-caps:normal;font-variant-east-asian:normal;font-variant-ligatures:normal;font-variant-numeric:normal;font-variant-position:normal;font-variation-settings:normal;inline-size:0;isolation:auto;mix-blend-mode:normal;shape-margin:0;shape-padding:0;text-decoration-color:#000000;text-decoration-line:none;text-decoration-style:solid;text-indent:0;text-orientation:mixed;text-transform:none;white-space:normal"/>
   <path d="m1.6876 5.408c-0.57259 6e-5 -1.0367 0.46422-1.0368 1.0368l-0.0365 3.1104c6e-5 0.57258 0.46422 1.0367 1.0368 1.0368h3.0739c0.57259-6e-5 1.0367-0.46422 1.0368-1.0368l0.0365-3.1104c-6e-5 -0.57258-0.46422-1.0367-1.0368-1.0368z" color="#000000" color-rendering="auto" dominant-baseline="auto" enable-background="new" image-rendering="auto" solid-color="#000000" stop-color="#000000" style="font-feature-settings:normal;font-variant-alternates:normal;font-variant-caps:normal;font-variant-east-asian:normal;font-variant-ligatures:normal;font-variant-numeric:normal;font-variant-position:normal;font-variation-settings:normal;inline-size:0;isolation:auto;mix-blend-mode:normal;shape-margin:0;shape-padding:0;text-decoration-color:#000000;text-decoration-line:none;text-decoration-style:solid;text-indent:0;text-orientation:mixed;text-transform:none;white-space:normal"/>
  </g>
 </g>
</svg>
