<svg version="1.1" viewBox="0 0 16 16" xmlns="http://www.w3.org/2000/svg">
 <g fill="#808080">
  <path d="m16 5.494c-0.015-1.258 0.03-2.179-0.385-2.931a1.88 1.88 0 0 0-0.998-0.838c-0.439-0.165-0.96-0.225-1.617-0.225h-10c-0.658 0-1.179 0.06-1.617 0.225-0.439 0.164-0.79 0.461-0.998 0.838-0.416 0.752-0.37 1.673-0.385 2.931v5.012c0.014 1.258-0.03 2.179 0.385 2.932a1.88 1.88 0 0 0 0.998 0.838c0.438 0.164 0.96 0.224 1.617 0.224h10c0.658 0 1.178-0.06 1.617-0.225a1.88 1.88 0 0 0 0.998-0.837c0.415-0.753 0.37-1.674 0.385-2.932v-5.008zm-1 6e-3v5c-0.015 1.259-0.06 2.087-0.262 2.453-0.101 0.184-0.213 0.29-0.472 0.387-0.26 0.097-0.674 0.16-1.266 0.16h-10c-0.592 0-1.006-0.063-1.266-0.16-0.26-0.098-0.371-0.203-0.472-0.387-0.202-0.366-0.247-1.194-0.262-2.453v-5c0.015-1.258 0.06-2.09 0.262-2.455 0.1-0.183 0.212-0.287 0.472-0.385 0.26-0.097 0.674-0.16 1.266-0.16h10c0.592 0 1.006 0.063 1.266 0.16 0.26 0.098 0.371 0.202 0.472 0.385 0.202 0.365 0.247 1.195 0.262 2.455z" color="#000000" font-family="sans-serif" font-weight="400" overflow="visible" style="font-feature-settings:normal;font-variant-alternates:normal;font-variant-caps:normal;font-variant-ligatures:normal;font-variant-numeric:normal;font-variant-position:normal;isolation:auto;mix-blend-mode:normal;shape-padding:0;text-decoration-color:#000000;text-decoration-line:none;text-decoration-style:solid;text-indent:0;text-orientation:mixed;text-transform:none" white-space="normal"/>
  <path d="m6.5 3.5156a4.487 4.487 0 0 0-2.7402 0.91602 4.506 4.506 0 0 0-1.1602 5.8203 4.508 4.508 0 0 0 3.9004 2.2383 4.508 4.508 0 0 0 3.9004-2.2383 4.506 4.506 0 0 0-1.1602-5.8203 4.487 4.487 0 0 0-2.7402-0.91602zm0 0.99023a3.494 3.494 0 0 1 3.0332 5.2461 3.494 3.494 0 0 1-3.0332 1.7402 3.494 3.494 0 0 1-3.0332-1.7402 3.494 3.494 0 0 1 3.0332-5.2461z" style="font-feature-settings:normal;font-variant-alternates:normal;font-variant-caps:normal;font-variant-ligatures:normal;font-variant-numeric:normal;font-variant-position:normal;isolation:auto;mix-blend-mode:normal;shape-padding:0;text-decoration-color:#000000;text-decoration-line:none;text-decoration-style:solid;text-indent:0;text-orientation:mixed;text-transform:none"/>
  <path d="m7.9997 8.0016a1.5 1.5 0 0 0-1.5-1.5 1.5 1.5 0 0 0-1.5 1.5 1.5 1.5 0 0 0 1.5 1.5 1.5 1.5 0 0 0 1.5-1.5zm-1 0a0.5 0.5 0 0 1-0.5 0.5 0.5 0.5 0 0 1-0.5-0.5 0.5 0.5 0 0 1 0.5-0.5 0.5 0.5 0 0 1 0.5 0.5z"/>
  <path d="m12 3.2871c-0.079099 0-0.14258 0.063486-0.14258 0.14258v0.11719a1.5712 1.6426 0 0 0-1 1.5254 1.5712 1.6426 0 0 0 1 1.5254v0.11719c0 0.079111 0.063488 0.14258 0.14258 0.14258h0.14258v3.0684l-0.44531 0.82617a0.99983 0.99983 0 0 0-0.26953-0.039062 0.99983 0.99983 0 0 0-1 1 0.99983 0.99983 0 0 0 1 1 0.99983 0.99983 0 0 0 1-1 0.99983 0.99983 0 0 0-0.24609-0.6543l0.49805-0.92383a0.28567 0.28567 0 0 0 0.019531-0.048828 0.28567 0.28567 0 0 0 0-0.001954 0.28567 0.28567 0 0 0 0.013672-0.10156v-3.125h0.14258c0.079108 0 0.14453-0.063486 0.14453-0.14258v-0.11719a1.5712 1.6426 0 0 0 1-1.5254 1.5712 1.6426 0 0 0-1-1.5293v-0.11328c0-0.079111-0.065441-0.14258-0.14453-0.14258h-0.85547z" enable-background="new" stroke-linecap="round" stroke-linejoin="round" stroke-width=".53984"/>
  <path d="m6.7931 3.5133-0.2934 8.9866" stroke-dashoffset="2.4" stroke-linecap="round" stroke-miterlimit="2.4" stroke-width="2"/>
 </g>
</svg>
