<svg version="1.1" viewBox="0 0 16 16" xmlns="http://www.w3.org/2000/svg" xmlns:osb="http://www.openswatchbook.org/uri/2009/osb" xmlns:xlink="http://www.w3.org/1999/xlink">
 <defs>
  <linearGradient id="b" x1="320" x2="336" y1="247" y2="241" gradientTransform="matrix(0 1.0666 -1.0769 0 270.77 -341.86)" gradientUnits="userSpaceOnUse" xlink:href="#a"/>
  <linearGradient id="a">
   <stop stop-color="#808080" offset="0"/>
   <stop stop-color="#2d2d2d" offset="1"/>
  </linearGradient>
  <linearGradient id="e" x1="320" x2="336" y1="247" y2="241" gradientTransform="matrix(-1.0666 0 0 -1.0769 357.86 270.77)" gradientUnits="userSpaceOnUse" xlink:href="#a"/>
  <linearGradient id="d" x1="320" x2="336" y1="247" y2="241" gradientTransform="matrix(0 -1.0666 1.0769 0 -254.77 357.86)" gradientUnits="userSpaceOnUse" xlink:href="#a"/>
  <linearGradient id="c" x1="320" x2="336" y1="247" y2="241" gradientTransform="matrix(1.0666 0 0 1.0769 -341.86 -254.77)" gradientUnits="userSpaceOnUse" xlink:href="#a"/>
 </defs>
 <path d="m4.1289 0c-3.7434 0-4.1473 0.32781-4.1289 3.543h1.0723c0.051197-2.2287 0.57954-2.4766 3.5742-2.4766h3.3555v-1.0664h-3.873z" color="#000000" fill="url(#b)"/>
 <g fill="#808080">
  <path d="m0.11203 4.7443c-0.037803 0-0.075175 0.00107-0.11201 0.00533v2.122c0.036726 0.0032001 0.074206 0.0053335 0.11201 0.0053335h4.0018c0.59664 0 1.077-0.47574 1.077-1.0667 0-0.59093-0.48032-1.0667-1.077-1.0667z" enable-background="new" stroke-width=".18303"/>
  <path d="m8.4947 4.7268c-0.42218 0.16567-0.67894 0.50953-0.78293 0.84053-0.047604 0.15158-0.071836 0.30107-0.084114 0.44307-1.5566-0.72126-2.3172 0.58294-2.3204 1.6061 0.012062 0.73272 0.348 3.4702 2.6923 2.4498 2.2904 1.0505 2.7008-1.6745 2.6922-2.4498 0.022294-1.0578-0.67823-2.312-2.2875-1.6111 0.0096931-0.077656 0.022402-0.14945 0.042111-0.21168 0.055143-0.17591 0.117-0.2743 0.33184-0.35861z" color="#000000" color-rendering="auto" image-rendering="auto" shape-rendering="auto" solid-color="#000000" style="isolation:auto;mix-blend-mode:normal"/>
  <g stroke-width=".18303">
   <path d="m11.287 0.11095c0-0.037441-0.0011-0.074456-0.0054-0.11094h-2.1425c-0.003231 0.036375-0.005385 0.073496-0.005385 0.11094v3.9635c0 0.59093 0.48033 1.0667 1.077 1.0667 0.59664 0 1.077-0.47573 1.077-1.0667z" enable-background="new"/>
   <path d="m15.888 11.256c0.0378 0 0.07517-0.0011 0.11201-0.0053v-2.1221c-0.03673-0.0032-0.07421-0.00533-0.11201-0.00533h-4.0018c-0.59664 0-1.077 0.47574-1.077 1.0667 0 0.59093 0.48032 1.0667 1.077 1.0667z" enable-background="new"/>
   <path d="m4.7123 15.889c0 0.03744 0.00108 0.07446 0.00539 0.11094h2.1425c0.00323-0.03637 0.00539-0.0735 0.00539-0.11094v-3.9635c0-0.59093-0.48033-1.0667-1.077-1.0667-0.59664 0-1.077 0.47573-1.077 1.0667z" enable-background="new"/>
  </g>
 </g>
 <g>
  <path d="m16 4.1295c0-3.7434-0.32781-4.1473-3.543-4.1289v1.0723c2.2287 0.051197 2.4766 0.57954 2.4766 3.5742v3.3555h1.0664z" color="#000000" fill="url(#e)"/>
  <path d="m11.871 16c3.7434 0 4.1473-0.32781 4.1289-3.543h-1.0723c-0.0512 2.2287-0.57954 2.4766-3.5742 2.4766h-3.3555v1.0664z" color="#000000" fill="url(#d)"/>
  <path d="m0 11.871c0 3.7434 0.32781 4.1473 3.543 4.1289v-1.0723c-2.2287-0.0512-2.4766-0.57954-2.4766-3.5742v-3.3555h-1.0664z" color="#000000" fill="url(#c)"/>
 </g>
</svg>
