<svg version="1.1" viewBox="0 0 16 16" xml:space="preserve" xmlns="http://www.w3.org/2000/svg" xmlns:osb="http://www.openswatchbook.org/uri/2009/osb" xmlns:xlink="http://www.w3.org/1999/xlink"><defs><style>.cls-1{fill:url(#a);}.cls-2{fill:none;}.cls-3{fill:url(#f);}.cls-4{fill:url(#e);}.cls-5{clip-path:url(#h);}.cls-6{fill:url(#d);}.cls-7{clip-path:url(#g);}.cls-8{fill:url(#c);}.cls-9{fill:url(#b);}</style><radialGradient id="a" cx="512.06" cy="512.12" r="444.12" gradientUnits="userSpaceOnUse"><stop stop-opacity=".5" offset=".99"/><stop stop-opacity="0" offset="1"/></radialGradient><radialGradient id="f" cx="514.5" cy="516.5" r="496.5" gradientTransform="matrix(.016113 0 0 .016113 -.29001 -.32224)" gradientUnits="userSpaceOnUse"><stop offset=".91341"/><stop stop-opacity="0" offset="1"/></radialGradient><radialGradient id="e" cx="512.06" cy="512.12" r="486.27" gradientTransform="matrix(.016113 0 0 .016113 -.29001 -.32224)" gradientUnits="userSpaceOnUse"><stop stop-color="#fff" offset=".99"/><stop stop-color="#fdfdfd" offset=".99505"/><stop stop-color="#f6f6f6" offset=".99687"/><stop stop-color="#ebebeb" offset=".99817"/><stop stop-color="#dadada" offset=".99921"/><stop stop-color="#c7c7c7" offset="1"/></radialGradient><clipPath id="h" transform="translate(-18 -20)"><path class="cls-1" d="m67.938 512.12c0 245.29 198.84 444.12 444.12 444.12s444.13-198.83 444.13-444.12c0-245.28-198.84-444.12-444.13-444.12s-444.12 198.84-444.12 444.12"/></clipPath><radialGradient id="d" cx="494.06" cy="492.12" r="444.12" xlink:href="#a"/><clipPath id="g" transform="translate(-18 -20)"><path class="cls-2" d="m71.603 512.12c0 243.26 197.2 440.46 440.46 440.46s440.46-197.19 440.46-440.46c0-243.26-197.2-440.46-440.46-440.46s-440.46 197.2-440.46 440.46"/></clipPath><radialGradient id="c" cx="5.2952" cy="1029.3" r="4.6533" gradientTransform="matrix(94.654 0 0 -94.654 -7.1542 97921)" gradientUnits="userSpaceOnUse"><stop offset="0"/><stop stop-color="#322f32" offset="1"/></radialGradient><radialGradient id="b" cx="578.89" cy="473.32" r="353.94" gradientTransform="matrix(.016113 0 0 .017677 -.29001 -1.0625)" gradientUnits="userSpaceOnUse"><stop stop-color="#c2c0c2" offset="0"/><stop stop-color="#ebebeb" offset="1"/></radialGradient></defs><path d="m8 16a8 8 0 0 1-8-8 8 8 0 0 1 8-8 8 8 0 0 1 8 8 8 8 0 0 1-8 8zm0-1a7 7 0 0 0 7-7 7 7 0 0 0-7-7 7 7 0 0 0-7 7 7 7 0 0 0 7 7z" fill="#808080"/><path class="cls-9" d="m10.746 5.6476a3.2103 3.2103 0 0 1-4.4671 1.1352 3.2668 3.2668 0 0 1-0.72368-0.60863 3.2052 3.2052 0 0 1-0.804-2.274c0.00457-0.093287 0.012384-0.18631 0.024601-0.27891 0.01204-0.091262 0.028131-0.18212 0.047977-0.27188q0.030559-0.13822 0.073267-0.27331 0.041442-0.13148 0.094478-0.25899c0.03665-0.08838 0.077511-0.17489 0.12159-0.25977 0.046425-0.089387 0.097854-0.17635 0.15277-0.26077q0.075971-0.1168 0.16184-0.22658c0.062104-0.079772 0.1281-0.15673 0.19772-0.23003q0.10541-0.11098 0.22025-0.21208c0.077961-0.068685 0.15972-0.13293 0.24394-0.19371q0.065131-0.047001 0.13271-0.090423a3.9379 3.9379 0 0 0-1.7576 5.2123q0.013221 0.027456 0.026868 0.054706 0.0062 0.012376 0.012483 0.024709a0.074125 0.074125 0 0 0 0.00757 0.014778c0.00521 0.00578 0.00652 0.00481 0.014499 0.00467 0.041539-7.541e-4 0.083111-5.591e-4 0.12465 3.384e-4q0.11512 0.00249 0.22986 0.013127a3.2157 3.2157 0 0 1 2.8707 2.6806 3.244 3.244 0 0 1 0.010334 0.96945 3.2024 3.2024 0 0 1-0.74379 1.6412 3.2579 3.2579 0 0 1-0.80204 0.67326 3.2203 3.2203 0 0 1-2.0004 0.4269 3.272 3.272 0 0 1-0.37386-0.064934c-0.07983-0.01875-0.15887-0.04078-0.23703-0.0656a3.909 3.909 0 0 0 1.1045 0.3057 3.9804 3.9804 0 0 0 1.0701-0.01286 3.9239 3.9239 0 0 0 1.7509-0.72326 3.9644 3.9644 0 0 0 0.96247-1.0163q0.016776-0.02557 0.033154-0.0514c0.00424-0.0067 0.013708-0.01722 0.012478-0.02431a0.13687 0.13687 0 0 0-0.016928-0.03134q-0.032271-0.06054-0.061931-0.12243-0.059585-0.12433-0.10831-0.25349a3.1906 3.1906 0 0 1-0.15051-0.53763 3.2366 3.2366 0 0 1 6.607e-4 -1.192 3.1884 3.1884 0 0 1 0.34413-0.95477 3.2077 3.2077 0 0 1 2.789-1.6606q0.11822-8.201e-4 0.23627 0.00684 0.11385 0.00757 0.227 0.022846 0.11202 0.01532 0.2228 0.038572 0.10844 0.022893 0.21519 0.053014 0.10456 0.029662 0.20694 0.066356 0.10378 0.037262 0.20477 0.081594 0.10295 0.044957 0.2024 0.097417 0.09935 0.05225 0.19496 0.11129c0.05984 0.037019 0.11866 0.075811 0.17584 0.11684q0.08846 0.063472 0.17283 0.13226c0.05805 0.047223 0.11408 0.096979 0.16857 0.14827q0.08702 0.081911 0.1677 0.1702 0.08053 0.087772 0.1542 0.1816c0.05478 0.06958 0.10696 0.14134 0.15566 0.21532 0.05002 0.075992 0.09731 0.15397 0.14096 0.23388a3.226 3.226 0 0 1 0.16223 0.34427 3.3349 3.3349 0 0 1 0.12846 0.39269 3.9273 3.9273 0 0 0-0.83267-1.9487 3.9583 3.9583 0 0 0-1.2086-1.0068 3.9131 3.9131 0 0 0-1.546-0.45606q-0.06875-0.0055-0.13767-0.00861z" fill="#808080" shape-rendering="geometricPrecision"/></svg>
