<svg width="16" height="16" version="1.1" viewBox="0 0 4.23 4.23" xmlns="http://www.w3.org/2000/svg">
 <g transform="translate(0 -292.77)" fill="#808080">
  <g transform="matrix(.016536 0 0 .016536 -.7284 292.15)" enable-background="new" fill="#808080">
   <g transform="matrix(1.875 0 0 1.875 -116.25 -127.24)" enable-background="new" fill="#808080">
    <path transform="matrix(8.5333 0 0 8.5333 180.95 114.71)" d="m-0.58008-2.6621v0.33203c-0.58062-0.18082-1.133-0.28559-1.6445-0.30664-1.3459-0.055375-2.4312 0.40254-3.1445 1.1562-1.1413 1.2059-1.3046 3.1394-0.17773 4.7578 0.037454 0.05379 0.084723 0.10514 0.125 0.1582l-2.2266-1.2285c0.012433-0.060548 0.037109-0.1176 0.037109-0.18164 0-0.51499-0.42251-0.9375-0.9375-0.9375s-0.9375 0.42251-0.9375 0.9375 0.42251 0.9375 0.9375 0.9375c0.2822 0 0.52881-0.1326 0.70117-0.33203l3.5176 1.9414v1.2031h1.8711c1.5642 1.334 1.8378 3.0763 1.2012 4.3496-0.68582 1.3716-2.4329 2.2317-4.9473 1.3848v-1.0469h-1.875v1.875h1.875v-0.33008c2.6109 0.80981 4.5854-0.1142 5.3652-1.6738 0.61794-1.2359 0.45633-2.8249-0.60352-4.168l2.3125 1.2773c-0.016218 0.068703-0.042969 0.13361-0.042969 0.20703 0 0.51499 0.42251 0.9375 0.9375 0.9375s0.9375-0.42251 0.9375-0.9375-0.42251-0.9375-0.9375-0.9375c-0.27163 0-0.51185 0.12194-0.68359 0.30859l-3.5352-1.9512v-1.1699h-1.875v0.011719c-0.33447-0.28558-0.61308-0.5879-0.83203-0.90234-1.0162-1.4594-0.8532-3.1261 0.13281-4.168 0.87029-0.91956 2.4055-1.3733 4.4492-0.68555v1.0566h1.875v-1.875zm-7.9687 4.2188c0.26166 0 0.46875 0.20709 0.46875 0.46875 0 0.26166-0.20709 0.46875-0.46875 0.46875-0.26166 0-0.46875-0.20709-0.46875-0.46875 0-0.26166 0.20709-0.46875 0.46875-0.46875zm10.312 5.625c0.26166 0 0.46875 0.20709 0.46875 0.46875 0 0.26166-0.20709 0.46875-0.46875 0.46875-0.26166 0-0.46875-0.20709-0.46875-0.46875 0-0.26166 0.20709-0.46875 0.46875-0.46875z" fill="#808080" fill-rule="evenodd"/>
   </g>
  </g>
 </g>
</svg>
