<?xml version="1.0" encoding="UTF-8" standalone="no"?>
<svg
   version="1.1"
   viewBox="0 0 16 16"
   id="svg12"
   sodipodi:docname="onlyoffice-app-symbolic.svg"
   inkscape:version="1.2.2 (b0a8486541, 2022-12-01)"
   xmlns:inkscape="http://www.inkscape.org/namespaces/inkscape"
   xmlns:sodipodi="http://sodipodi.sourceforge.net/DTD/sodipodi-0.dtd"
   xmlns="http://www.w3.org/2000/svg"
   xmlns:svg="http://www.w3.org/2000/svg">
  <defs
     id="defs16" />
  <sodipodi:namedview
     id="namedview14"
     pagecolor="#505050"
     bordercolor="#eeeeee"
     borderopacity="1"
     inkscape:showpageshadow="0"
     inkscape:pageopacity="0"
     inkscape:pagecheckerboard="0"
     inkscape:deskcolor="#505050"
     showgrid="false"
     inkscape:zoom="22.185475"
     inkscape:cx="7.4372984"
     inkscape:cy="9.7360997"
     inkscape:window-width="1312"
     inkscape:window-height="699"
     inkscape:window-x="0"
     inkscape:window-y="0"
     inkscape:window-maximized="1"
     inkscape:current-layer="svg12" />
  <path
     d="M 13.128026,8.8440631 12.903348,8.9554265 11.7409,9.5376311 9.1542238,10.831019 C 8.5433306,11.139472 8.2395595,11.249144 7.9995775,11.249114 7.7599556,11.249082 7.4524334,11.138511 6.84103,10.83297 h -0.002 L 2.8671382,8.8460737 1.2182437,9.670541 C 0.89865786,9.8303289 0.65116363,9.9580772 0.44848285,10.10036 0.34714246,10.1715 0.25488479,10.246754 0.16909906,10.354346 c -0.08577573,0.107592 -0.16785034,0.269751 -0.16802039,0.455217 -1.670531e-4,0.185455 0.08032409,0.347484 0.1660698,0.455216 0.0857357,0.107722 0.18009402,0.180934 0.28133438,0.252026 0.20247072,0.142192 0.44695404,0.270361 0.76584965,0.429819 l 5.1792533,2.590577 h 0.002 c 0.6379314,0.318955 1.0893267,0.521576 1.6059817,0.521636 0.5166249,6.8e-5 0.9673201,-0.204061 1.603981,-0.525548 L 12.192224,13.241902 14.7789,11.948514 c 0.321346,-0.159108 0.56817,-0.285585 0.771711,-0.427868 0.101771,-0.07114 0.195259,-0.146104 0.281335,-0.253986 0.08608,-0.107883 0.16812,-0.269601 0.16802,-0.455217 -1.03e-4,-0.185615 -0.08224,-0.347534 -0.16802,-0.455216 C 15.746164,10.248544 15.653923,10.173452 15.552563,10.10224 15.350192,9.9601079 15.102778,9.8314793 14.784702,9.6724216 h -0.0019 z M 2.8669482,9.9634989 6.3914052,11.727728 h 0.002 c 0.6379313,0.318926 1.0893267,0.521576 1.6059816,0.521636 0.5160448,6.8e-5 0.9664799,-0.20274 1.6020805,-0.523597 l 2.5886757,-1.293388 0.937782,-0.4688901 1.207362,0.6037011 h 0.0019 c 0.211154,0.105582 0.317035,0.172302 0.439582,0.244213 -0.122907,0.0716 -0.231439,0.137261 -0.443493,0.242263 L 11.7466,12.347054 9.1560237,13.640442 C 8.5451811,13.948914 8.2414,14.058567 8.0014281,14.058537 7.7618162,14.058505 7.454284,13.947964 6.8428806,13.642392 h -0.002 L 1.6616267,11.051815 C 1.4508435,10.946424 1.3443715,10.881274 1.2220448,10.809553 1.3447316,10.737571 1.4517337,10.671261 1.6635873,10.565339 Z"
     color="#000000"
     fill="#808080"
     style="stroke-width:1.0003;-inkscape-stroke:none;stroke:none"
     id="path2" />
  <path
     d="M 2.8670482,6.0365211 2.6423708,6.1478845 1.2181437,6.8609884 C 0.89950812,7.0203162 0.65268409,7.1489248 0.4503334,7.2908073 0.2475926,7.4329599 0.00225902,7.6271282 9.78637e-4,7.9980494 3.374447e-4,8.183515 0.08136275,8.3453036 0.16704844,8.4532659 0.25272414,8.5612283 0.34717246,8.6360908 0.44838282,8.7072521 0.65080353,8.8495748 0.89722743,8.9775832 1.2161931,9.137071 l 5.1812539,2.590577 c 0.6379313,0.318956 1.0893267,0.521566 1.6059817,0.521636 0.5160547,7.6e-5 0.9664798,-0.20274 1.6020804,-0.523597 l 2.5886769,-1.293388 2.586675,-1.295288 c 0.321307,-0.1590877 0.568331,-0.2857657 0.771712,-0.4278583 0.10169,-0.071048 0.195248,-0.1460338 0.281334,-0.2539862 0.08608,-0.1079524 0.16665,-0.2693708 0.16607,-0.4552165 -5.8e-4,-0.1858458 -0.08211,-0.3479344 -0.16802,-0.4552165 C 15.746049,7.4374513 15.653913,7.3636892 15.552573,7.2927079 15.349902,7.1507353 15.101637,7.0223068 14.782812,6.862889 L 13.128016,6.0364711 11.744801,6.7280885 9.1542238,8.0214764 C 8.5432405,8.329969 8.2388893,8.4396118 7.9995775,8.4395718 7.7602757,8.4395354 7.454354,8.330079 6.84103,8.023427 Z m 0.002,1.1175352 3.5264576,1.7642291 C 7.0333477,9.237191 7.4832326,9.4398518 7.9994875,9.4399218 8.5152221,9.4400005 8.9660574,9.237131 9.6015679,8.9163248 l 2.5886761,-1.2933879 0.937782,-0.4688906 1.209362,0.603701 C 14.547701,7.8629289 14.654253,7.9282285 14.77693,8.00001 14.654193,8.071414 14.546761,8.1376113 14.335388,8.2422727 L 9.1580349,10.830949 C 8.5471417,11.139402 8.2433606,11.249074 8.0033886,11.249044 7.7634167,11.249008 7.4561245,11.139512 6.8428406,10.8329 L 1.6615867,8.2423227 C 1.4515437,8.1373012 1.346052,8.0716215 1.2239554,8.00006 1.3468023,7.9280324 1.4536143,7.8617785 1.6654978,7.7558468 h 0.002 z"
     color="#000000"
     fill="#808080"
     style="stroke-width:1.0003;-inkscape-stroke:none;stroke:none"
     id="path4" />
  <path
     d="m 14.559955,4.5000603 c 1.251175,0.6255876 1.257277,0.7571571 -0.0025,1.3809142 L 11.969538,7.1749626 9.381662,8.4689506 C 8.1340878,9.0988696 7.8709089,9.0958086 6.6198337,8.470261 L 1.4389799,5.8797841 C 0.18780467,5.2541965 0.18780467,5.125708 1.4415807,4.49887 L 4.0294568,3.2048819 6.6173329,1.9108938 c 1.253676,-0.626858 1.5107531,-0.626858 2.7618283,-0.00131 z"
     color="#000000"
     fill="none"
     opacity="0.9"
     stroke="#000000"
     id="path6"
     style="stroke-width:1.0003" />
  <path
     d="M 7.9995875,0.94125301 C 7.4839028,0.94147716 7.0327175,1.1433536 6.3936059,1.4628895 L 3.8049295,2.7581779 1.2182537,4.0515658 C 0.89869787,4.2113337 0.65117364,4.3391921 0.44849285,4.4813847 0.34715246,4.5524781 0.2549248,4.6259281 0.16910906,4.7334103 0.08330333,4.8408925 0.00140877,5.0031212 0.00108867,5.1886268 7.68574e-4,5.3741325 0.08142276,5.536071 0.16715848,5.6438434 0.25289419,5.7516157 0.34727249,5.8267382 0.44849285,5.8978295 0.65093357,6.0400122 0.89738748,6.1681906 1.2163031,6.3276484 l 5.1792533,2.590577 c 0.6378413,0.3189056 1.0894268,0.5213463 1.6059817,0.5216364 0.5159447,2.98e-4 0.9684004,-0.2027208 1.603981,-0.523597 l 2.5886769,-1.2933879 2.584775,-1.2933879 0.0019,-0.00195 c 0.319956,-0.1584575 0.568841,-0.2859758 0.771712,-0.4278583 0.10174,-0.071157 0.195288,-0.1459638 0.281334,-0.2539862 0.08605,-0.1080224 0.1665,-0.2695608 0.16607,-0.4552165 C 15.999163,4.819166 15.755384,4.6254979 15.552643,4.4832353 15.349902,4.3409626 15.101798,4.2128742 14.782882,4.0534164 L 9.6036286,1.4628394 C 8.9657973,1.1439438 8.5153022,0.94097292 7.9996475,0.94120299 Z m 0,1.00029999 c 0.2390317,-1.039e-4 0.5432629,0.1094928 1.1565469,0.4161448 l 5.1792536,2.590577 c 0.209813,0.1049014 0.317085,0.1705411 0.439582,0.2422626 -0.122697,0.071411 -0.228489,0.1377413 -0.439582,0.2422627 L 11.746711,6.7280885 9.1580349,8.0214764 h -0.002 C 8.5451711,8.3299089 8.2411299,8.4397119 8.001388,8.4395718 7.7616461,8.4394318 7.4561745,8.330079 6.8428406,8.023427 L 1.6635873,5.4328501 C 1.4532842,5.3276985 1.3462421,5.2622089 1.2240054,5.1905874 1.3467022,5.1186739 1.4541645,5.0520559 1.6655479,4.9463742 L 4.2522236,3.6529863 6.8409,2.3576978 C 7.4555343,2.0503856 7.7604158,1.941663 7.9994475,1.941553 Z"
     color="#000000"
     fill="#808080"
     style="stroke-width:1.0003;-inkscape-stroke:none;stroke:none"
     id="path860" />
</svg>
