<svg version="1.1" viewBox="0 0 16 16" xmlns="http://www.w3.org/2000/svg" xmlns:osb="http://www.openswatchbook.org/uri/2009/osb">
 <g transform="translate(16 1.6688e-5)" fill="#808080" stroke-linejoin="round">
  <path d="m-8 0c-4.4122 0-8 3.5878-8 8 0 4.2846 3.3811 7.7917 7.6191 7.9902 0.1254 0.005919 0.25217 0.009766 0.38086 0.009766 1.9967 0 3.8147-0.75111 5.2168-1.9629 0.018354-0.0119 0.040364-0.01721 0.058594-0.0293l-0.00391-0.0059c0.017758-0.0156 0.04293-0.02135 0.060547-0.03711a0.50005 0.50005 0 0 0-0.60938-0.79102c-0.80315 0.53264-1.7338 0.83594-2.7305 0.83594-1.6207 0-3.0725-0.79954-4.0645-2.0879a0.50005 0.50005 0 0 0-0.01563-0.01758c-0.74105-0.87474-1.2489-2.2178-1.2832-3.7383v-0.33198c0.03424-1.5204 0.5424-2.8619 1.2832-3.7363a0.50005 0.50005 0 0 0 0.01563-0.019531c0.99214-1.2884 2.4439-2.0879 4.0645-2.0879 0.99692 0 1.9273 0.30299 2.7305 0.83594a0.50005 0.50005 0 0 0 0.60938-0.78906c-0.018282-0.016355-0.044066-0.022873-0.0625-0.039062l0.00586-0.00586c-0.02237-0.014844-0.049709-0.020605-0.072266-0.035156-1.3935-1.2-3.1941-1.9497-5.1738-1.957a0.50005 0.50005 0 0 0-0.00195 0h-0.027347zm0 1c-0.00322 0 0.00625-4.563e-5 0.025391 0 0.38482 0.00143 0.72249 0.1461 1.0898 0.20703-1.5685 0.25219-2.9961 0.99482-3.9688 2.252-0.91425 1.0826-1.4788 2.6295-1.5176 4.3535a0.50005 0.50005 0 0 0 0 0.011719v0.35156a0.50005 0.50005 0 0 0 0 0.011719c0.03881 1.7224 0.60284 3.2689 1.5156 4.3516 0.9722 1.2578 2.4 2.0012 3.9688 2.2539-0.37501 0.062091-0.72016 0.20703-1.1133 0.20703-0.11088 0-0.22207-0.0025-0.33398-0.0078-3.7142-0.17401-6.666-3.2325-6.666-6.9922 0-3.8718 3.1282-7 7-7z" color="#000000" style="-inkscape-stroke:none"/>
  <path d="m-6.0078 0.99023c-1.8807 0-3.545 0.93396-4.7031 2.3477-0.04144 0.045409-0.09869 0.066078-0.13867 0.11328l2e-3 0.00195c-0.0049 0.00632-0.0127 0.00929-0.01758 0.015625l0.39648 0.30469 0.38086 0.32422c0.6151-0.72615 1.3651-1.127 2.168-1.127 0.90276 0 1.7433 0.5075 2.3887 1.4102 0.64532 0.90266 1.0644 2.189 1.0644 3.6191 0 1.4302-0.41907 2.7165-1.0645 3.6191-0.64538 0.90266-1.486 1.4102-2.3887 1.4102-0.80298 0-1.5511-0.39891-2.166-1.125a0.50009 0.50009 0 0 0-0.7793 0.62695c0.0052 0.0067 0.01432 0.0089 0.01953 0.01563l-0.0039 0.0039c0.05612 0.06627 0.13635 0.0955 0.19531 0.1582 1.1565 1.3806 2.7913 2.3008 4.6465 2.3008 1.2003 0 2.3282-0.36852 3.2832-1.002a0.50005 0.50005 0 0 0 0.056641-0.04297c1.6368-1.4643 2.668-3.5979 2.668-5.9648 0-2.3667-1.0315-4.4987-2.668-5.9629a0.50005 0.50005 0 0 0-0.056641-0.044922c-0.95533-0.63384-2.0828-1.002-3.2832-1.002zm0 1c0.98473 0 1.9007 0.3052 2.6973 0.82617 1.4154 1.2812 2.3105 3.1216 2.3105 5.1836 0 2.0622-0.89673 3.9042-2.3125 5.1855-0.79597 0.52001-1.7113 0.82422-2.6953 0.82422-0.3504 0-0.64876-0.17057-0.98047-0.24219 0.88074-0.26325 1.6889-0.75429 2.2695-1.5664 0.78535-1.0984 1.252-2.5778 1.252-4.2012 0-1.6234-0.46662-3.1008-1.252-4.1992-0.58057-0.81204-1.3889-1.3031-2.2695-1.5664 0.33177-0.07166 0.63002-0.24414 0.98047-0.24414z" color="#000000" style="-inkscape-stroke:none"/>
 </g>
</svg>
