<svg version="1.1" viewBox="0 0 16 16" xmlns="http://www.w3.org/2000/svg" xmlns:osb="http://www.openswatchbook.org/uri/2009/osb">
 <path d="m8 0-0.4043 0.55273c-3.8795 5.3087-7.3027 12.979-7.3027 12.979l-0.31445 0.70508h0.77148 5.998c0.27994 0.41316 0.56155 0.81943 0.84766 1.2109l0.4043 0.55273 0.4043-0.55273c0.2861-0.39151 0.56771-0.79778 0.84766-1.2109h6.7695l-0.31445-0.70508s-3.4233-7.6698-7.3027-12.979l-0.4043-0.55273zm0 1.8145c3.2948 4.7096 5.9909 10.418 6.4492 11.422h-5.1973l-1.252-11.422zm0 0-1.252 11.422h-5.1973c0.45834-1.0041 3.1544-6.7123 6.4492-11.422z" color="#000000" fill="#808080" style="-inkscape-stroke:none"/>
 <path d="m8 9v-1h4.5v1zm0-2v-1h3.5v1zm0-2v-1h2.5v1zm0 6v-1h3v1z" color="#000000" fill="#808080"/>
</svg>
