<svg version="1.1" viewBox="0 0 16 16" xmlns="http://www.w3.org/2000/svg" xmlns:osb="http://www.openswatchbook.org/uri/2009/osb">
 <g fill="#808080">
  <path d="m4.9998 14.972c-1.58e-4 0.56073 0.46661 1.0273 1.0273 1.0273h3.9434c0.56073 0 1.0291-0.46661 1.0293-1.0273l2.66e-4 -0.94441c1.57e-4 -0.56073-0.46856-1.0273-1.0293-1.0273h-3.9434c-0.56073 0-1.0272 0.46661-1.0273 1.0273zm1 0 2.66e-4 -0.94441c7e-6 -0.02403 0.0033-0.02734 0.02734-0.02734h3.9434c0.024032 0 0.029304 0.0033 0.029297 0.02734l-2.66e-4 0.94441c-6.8e-6 0.02403-0.00527 0.02734-0.029297 0.02734h-3.9434c-0.02403 0-0.02735-0.0033-0.02734-0.02734z" color="#000000" stroke-linejoin="round" style="-inkscape-stroke:none"/>
  <path d="m3.8242 7.1953e-4c-0.76159-0.003727-1.3657 0.011917-1.875 0.097656-0.50986 0.085828-0.94922 0.2553-1.2734 0.58398-0.32422 0.32868-0.48892 0.76987-0.57422 1.2832-0.08529 0.51334-0.10156 1.1217-0.10156 1.8906v6.291c0 0.76891 0.01621 1.3784 0.10156 1.8906 0.08535 0.51222 0.24974 0.95202 0.57422 1.2793 0.32448 0.32728 0.76437 0.4938 1.2734 0.58008 0.50907 0.08627 1.1128 0.10352 1.875 0.10352h8.3516c0.76221 0 1.364-0.01724 1.873-0.10352 0.50907-0.08628 0.94896-0.2528 1.2734-0.58008 0.32448-0.32728 0.48886-0.76708 0.57422-1.2793 0.08536-0.51222 0.10352-1.1217 0.10352-1.8906v-6.291c0-0.7689-0.01822-1.3773-0.10352-1.8906-0.085294-0.51334-0.24805-0.95452-0.57227-1.2832-0.32422-0.32868-0.76553-0.49816-1.2754-0.58398-0.5088-0.08565-1.1126-0.10134-1.873-0.097656h-8.3496zm-0.0039 1h8.3576c0.74445-0.00368 1.3091 0.017319 1.7051 0.083984s0.59847 0.16699 0.72852 0.29883c0.13005 0.13184 0.23182 0.3428 0.29883 0.74609s0.08984 0.97464 0.08984 1.7266v6.291c0 0.75192-0.0229 1.3229-0.08984 1.7246s-0.1671 0.60934-0.29688 0.74023c-0.12978 0.1309-0.33365 0.23353-0.73047 0.30078-0.39682 0.06725-0.96207 0.08789-1.707 0.08789h-8.3516c-0.74497 0-1.3122-0.02064-1.709-0.08789s-0.59874-0.16989-0.72852-0.30078c-0.12978-0.1309-0.23189-0.33851-0.29883-0.74023-0.06694-0.40172-0.08789-0.97268-0.08789-1.7246v-6.291c0-0.75192 0.02088-1.3233 0.08789-1.7266s0.16878-0.61425 0.29883-0.74609c0.13005-0.13184 0.33249-0.23216 0.72852-0.29883 0.39602-0.066666 0.96063-0.087664 1.7051-0.083984zm0.17969 1.1152c-0.82235 0-1.5 0.67765-1.5 1.5v2c0 0.71064 0.54472 1.2283 1.2129 1.3789-0.66855 0.15031-1.2129 0.66995-1.2129 1.3809v2c0 0.82235 0.67765 1.5 1.5 1.5 0.82235 0 1.5-0.67765 1.5-1.5v-2c0-0.71074-0.54459-1.2304-1.2129-1.3809 0.66793-0.15078 1.2129-0.66844 1.2129-1.3789v-2c0-0.82235-0.67765-1.5-1.5-1.5zm4 0c-0.82235 0-1.5 0.67765-1.5 1.5v2.3652l0.70116-0.31055c0.25092-0.11076 0.52263-0.16834 0.79688-0.16992 0.27534 6.76e-5 0.54846 0.057766 0.80078 0.16797l0.70117 0.30469v-2.3574c0-0.82235-0.67765-1.5-1.5-1.5zm4 0c-0.82235 0-1.5 0.67765-1.5 1.5v2c0 0.71064 0.54472 1.2283 1.2129 1.3789-0.66855 0.15031-1.2129 0.66995-1.2129 1.3809v2c0 0.82235 0.67765 1.5 1.5 1.5 0.82235 0 1.5-0.67765 1.5-1.5v-2c0-0.71074-0.54459-1.2304-1.2129-1.3809 0.66793-0.15078 1.2129-0.66844 1.2129-1.3789v-2c0-0.82235-0.67765-1.5-1.5-1.5zm-8 1c0.28565 0 0.5 0.21435 0.5 0.5v2c0 0.28565-0.21435 0.5-0.5 0.5-0.28565 0-0.5-0.21435-0.5-0.5v-2c0-0.28565 0.21435-0.5 0.5-0.5zm4 0c0.28565 0 0.5 0.21435 0.5 0.5v0.98828c-0.16874-0.029286-0.32786-0.10347-0.5-0.10352h-0.00195c-0.17133 6.566e-4 -0.33018 0.075855-0.49805 0.10547v-0.99023c0-0.28565 0.21435-0.5 0.5-0.5zm4 0c0.28565 0 0.5 0.21435 0.5 0.5v2c0 0.28565-0.21435 0.5-0.5 0.5-0.28565 0-0.5-0.21435-0.5-0.5v-2c0-0.28565 0.21435-0.5 0.5-0.5zm-8 4.7598c0.28565 0 0.5 0.21435 0.5 0.5v2c0 0.28565-0.21435 0.5-0.5 0.5-0.28565 0-0.5-0.21435-0.5-0.5v-2c0-0.28565 0.21435-0.5 0.5-0.5zm8 0c0.28565 0 0.5 0.21435 0.5 0.5v2c0 0.28565-0.21435 0.5-0.5 0.5-0.28565 0-0.5-0.21435-0.5-0.5v-2c0-0.28565 0.21435-0.5 0.5-0.5zm-5.5 0.14648v2.3535c0 0.82235 0.67765 1.5 1.5 1.5s1.5-0.67765 1.5-1.5v-2.3535l-0.70312 0.30859c-0.25092 0.11076-0.52068 0.16834-0.79493 0.16992-0.27556-0.0010537-0.54869-0.058644-0.80078-0.16992zm1 1.373c0.16792 0.029633 0.32666 0.10481 0.49805 0.10547h0.0039c0.17165-6.58e-4 0.32987-0.075745 0.49805-0.10547v0.98047c0 0.28565-0.21435 0.5-0.5 0.5-0.28565 0-0.5-0.21435-0.5-0.5z" color="#000000" style="-inkscape-stroke:none"/>
  <path d="m8 4.5007c-1.3748 0-2.5 1.1252-2.5 2.5s1.1252 2.5 2.5 2.5c1.3748 0 2.5-1.1252 2.5-2.5s-1.1252-2.5-2.5-2.5zm0 1c0.83435 0 1.5 0.66565 1.5 1.5s-0.66565 1.5-1.5 1.5-1.5-0.66565-1.5-1.5 0.66565-1.5 1.5-1.5z" color="#000000" stroke-linejoin="round" style="-inkscape-stroke:none"/>
  <circle cx="8" cy="7.0007" r=".5" enable-background="new" stroke-linejoin="round" stroke-width=".036956"/>
 </g>
</svg>
