<?xml version="1.0" encoding="UTF-8" standalone="no"?>
<svg
   version="1.1"
   viewBox="0 0 16 16"
   xml:space="preserve"
   id="svg16"
   sodipodi:docname="pcsx2-app-symbolic.svg"
   inkscape:version="1.2.2 (b0a8486541, 2022-12-01)"
   xmlns:inkscape="http://www.inkscape.org/namespaces/inkscape"
   xmlns:sodipodi="http://sodipodi.sourceforge.net/DTD/sodipodi-0.dtd"
   xmlns="http://www.w3.org/2000/svg"
   xmlns:svg="http://www.w3.org/2000/svg"><defs
     id="defs20" /><sodipodi:namedview
     id="namedview18"
     pagecolor="#505050"
     bordercolor="#eeeeee"
     borderopacity="1"
     inkscape:showpageshadow="0"
     inkscape:pageopacity="0"
     inkscape:pagecheckerboard="0"
     inkscape:deskcolor="#505050"
     showgrid="false"
     inkscape:zoom="31.375"
     inkscape:cx="7.8884462"
     inkscape:cy="8"
     inkscape:window-width="1312"
     inkscape:window-height="699"
     inkscape:window-x="0"
     inkscape:window-y="0"
     inkscape:window-maximized="1"
     inkscape:current-layer="svg16" /><path
     d="M 4.6127,5.361 A 0.47412,0.47412 0 0 0 4.28442,5.49973 l -2.0831,2.0832 a 0.47412,0.47412 0 1 0 0.67044,0.67044 l 1.7479,-1.748 0.7183,0.7183 -1.7479,1.748 a 0.47412,0.47412 0 0 0 0,0.67044 l 1.3887,1.3887 A 0.47412,0.47412 0 1 0 5.6492,10.36037 l -1.0535,-1.0535 1.7479,-1.748 a 0.47412,0.47412 0 0 0 0,-0.67044 L 4.9549,5.49973 A 0.47412,0.47412 0 0 0 4.61274,5.361 Z"
     id="path2"
     style="fill:#808080;stroke-width:0.063474" /><path
     d="M 7.9666,2.0002 A 0.47412,0.47412 0 0 0 7.64068,2.14351 l -2.0831,2.0832 a 0.47412,0.47412 0 0 0 0,0.67044 l 1.3887,1.3887 a 0.47412,0.47412 0 0 0 0.67044,0 l 1.7479,-1.7479 0.71842,0.7183 -0.93785,0.93773 a 0.47412,0.47412 0 1 0 0.67044,0.67044 l 1.273,-1.273 a 0.47412,0.47412 0 0 0 0,-0.67044 l -1.3887,-1.3887 a 0.47412,0.47412 0 0 0 -0.67044,0 l -1.7479,1.7479 -0.7183,-0.7183 1.7479,-1.748 A 0.47412,0.47412 0 0 0 7.96667,2.00012 Z"
     id="path4"
     style="fill:#808080;stroke-width:0.063474" /><path
     d="M 8.5525,6.9762 A 0.47412,0.47412 0 0 0 8.22434,7.11505 l -2.0832,2.0831 a 0.47412,0.47412 0 1 0 0.67044,0.67044 l 1.748,-1.7479 0.7183,0.7183 -1.7479,1.7479 a 0.47412,0.47412 0 0 0 -0.00124,0.6692 l 1.3838,1.3937 a 0.47412,0.47412 0 0 0 0.67168,0.0012 l 2.0831,-2.0831 A 0.47412,0.47412 0 1 0 10.99688,9.89745 l -1.7468,1.7468 -0.71569,-0.7209 1.7491,-1.7491 a 0.47412,0.47412 0 0 0 0,-0.67044 L 8.89479,7.11511 A 0.47412,0.47412 0 0 0 8.5525,6.97626 Z"
     id="path6"
     style="fill:#808080;stroke-width:0.063474" /><path
     d="m 5.8927,11.274 c -0.25646,0.25646 -0.23599,0.68985 0.046111,0.97195 l 1.528,1.528 c 0.2821,0.28211 0.71549,0.30257 0.97195,0.04611 l 0.47919,-0.47919 -2.5623,-2.5298 z"
     id="path8"
     style="fill:#808080;stroke-width:0.063474" /><path
     d="m 10.059,7.108 2.4303,2.4303 c 0.04023,0.040247 0.07184,0.085273 0.09946,0.132 l 1.1736,-1.1736 C 14.01882,8.24024 13.99835,7.80685 13.71625,7.52475 l -1.528,-1.528 C 11.90615,5.71464 11.47276,5.69418 11.2163,5.950637 Z"
     id="path10"
     style="fill:#808080;stroke-width:0.063474" /><path
     style="color:#000000;fill:#808080;-inkscape-stroke:none"
     d="m -4.0957031,5.0078125 c -1.2157456,0 -2.2109375,0.9951919 -2.2109375,2.2109375 v 8.191406 c 0,1.215746 0.9951919,2.208985 2.2109375,2.208985 h 8.1914062 c 1.2157456,0 2.2109375,-0.993239 2.2109375,-2.208985 V 7.21875 c 0,-1.2157456 -0.9951919,-2.2109375 -2.2109375,-2.2109375 z m 0,1 h 8.1914062 c 0.6790434,0 1.2109375,0.5318941 1.2109375,1.2109375 v 8.191406 c 0,0.679044 -0.5318941,1.208985 -1.2109375,1.208985 h -8.1914062 c -0.6790434,0 -1.2109375,-0.529941 -1.2109375,-1.208985 V 7.21875 c 0,-0.6790434 0.5318941,-1.2109375 1.2109375,-1.2109375 z"
     id="rect14"
     transform="rotate(-45)" /></svg>
