<svg version="1.1" viewBox="0 0 16 16" xml:space="preserve" xmlns="http://www.w3.org/2000/svg"><g fill="#808080" stroke-width=".063474"><path d="m4.6127 5.361a0.47412 0.47412 0 0 0-0.32828 0.13873l-2.0831 2.0832a0.47412 0.47412 0 1 0 0.67044 0.67044l1.7479-1.748 0.7183 0.7183-1.7479 1.748a0.47412 0.47412 0 0 0 0 0.67044l1.3887 1.3887a0.47412 0.47412 0 1 0 0.67044-0.67044l-1.0535-1.0535 1.7479-1.748a0.47412 0.47412 0 0 0 0-0.67044l-1.3887-1.3887a0.47412 0.47412 0 0 0-0.34216-0.13873z"/><path d="m7.9666 2.0002a0.47412 0.47412 0 0 0-0.32592 0.14331l-2.0831 2.0832a0.47412 0.47412 0 0 0 0 0.67044l1.3887 1.3887a0.47412 0.47412 0 0 0 0.67044 0l1.7479-1.7479 0.71842 0.7183-0.93785 0.93773a0.47412 0.47412 0 1 0 0.67044 0.67044l1.273-1.273a0.47412 0.47412 0 0 0 0-0.67044l-1.3887-1.3887a0.47412 0.47412 0 0 0-0.67044 0l-1.7479 1.7479-0.7183-0.7183 1.7479-1.748a0.47412 0.47412 0 0 0-0.34452-0.81376z"/><path d="m8.5525 6.9762a0.47412 0.47412 0 0 0-0.32816 0.13885l-2.0832 2.0831a0.47412 0.47412 0 1 0 0.67044 0.67044l1.748-1.7479 0.7183 0.7183-1.7479 1.7479a0.47412 0.47412 0 0 0-0.00124 0.6692l1.3838 1.3937a0.47412 0.47412 0 0 0 0.67168 0.0012l2.0831-2.0831a0.47412 0.47412 0 1 0-0.67044-0.67044l-1.7468 1.7468-0.71569-0.7209 1.7491-1.7491a0.47412 0.47412 0 0 0 0-0.67044l-1.3887-1.3887a0.47412 0.47412 0 0 0-0.34229-0.13885z"/><path d="m5.8927 11.274c-0.25646 0.25646-0.23599 0.68985 0.046111 0.97195l1.528 1.528c0.2821 0.28211 0.71549 0.30257 0.97195 0.04611l0.47919-0.47919-2.5623-2.5298z"/><path d="m10.059 7.108 2.4303 2.4303c0.04023 0.040247 0.07184 0.085273 0.09946 0.132l1.1736-1.1736c0.25646-0.25646 0.23599-0.68985-0.046112-0.97195l-1.528-1.528c-0.2821-0.28211-0.71549-0.30257-0.97195-0.046113z"/></g><rect transform="rotate(-45)" x="-5.8058" y="5.5079" width="11.612" height="11.612" ry="1.7101" fill="none" stroke="#808080"/></svg>
