<svg version="1.1" viewBox="0 0 16 16" xmlns="http://www.w3.org/2000/svg" xmlns:osb="http://www.openswatchbook.org/uri/2009/osb">
 <path d="m4.9941 0c-1.2582 0.0145-2.1789-0.0306-2.9316 0.38477-0.37637 0.20766-0.67323 0.55938-0.83789 0.99804-0.16467 0.43867-0.22461 0.95958-0.22461 1.6172v10c0 0.65761 0.0599 1.1786 0.22461 1.6172 0.16468 0.43861 0.46153 0.78852 0.83789 0.99609 0.75272 0.41514 1.6735 0.37165 2.9316 0.38672h2e-3 5.0059 4e-3c1.2582-0.0145 2.1789 0.0306 2.9316-0.38477 0.37637-0.20766 0.67323-0.55938 0.83789-0.99804 0.16453-0.43867 0.22447-0.95958 0.22447-1.6172v-10c0-0.65761-0.0599-1.1786-0.22461-1.6172-0.16468-0.43861-0.46153-0.78852-0.83789-0.99609-0.75272-0.41513-1.6736-0.37165-2.9316-0.38672h-2e-3 -5.0059zm6e-3 1h5c1.2586 0.0152 2.0891 0.0599 2.4551 0.26172 0.18342 0.10116 0.28722 0.21286 0.38476 0.47266 0.09741 0.25979 0.16002 0.67323 0.16002 1.2656v10c0 0.59239-0.0626 1.0057-0.16016 1.2656-0.0976 0.25991-0.20135 0.37147-0.38476 0.47266-0.36596 0.20192-1.1966 0.24701-2.4551 0.26172h-4.9941-0.00586c-1.2586-0.0152-2.0891-0.0599-2.4551-0.26172-0.18342-0.10116-0.28722-0.21286-0.38476-0.47266-0.09755-0.25979-0.16016-0.67323-0.16016-1.2656v-10c0-0.59239 0.0626-1.0057 0.16016-1.2656 0.0976-0.25991 0.20331-0.37147 0.38672-0.47266 0.36595-0.20191 1.1946-0.24702 2.4531-0.26172z" color="#000000" color-rendering="auto" dominant-baseline="auto" fill="#808080" image-rendering="auto" shape-rendering="auto" solid-color="#000000" style="font-feature-settings:normal;font-variant-alternates:normal;font-variant-caps:normal;font-variant-ligatures:normal;font-variant-numeric:normal;font-variant-position:normal;isolation:auto;mix-blend-mode:normal;shape-padding:0;text-decoration-color:#000000;text-decoration-line:none;text-decoration-style:solid;text-indent:0;text-orientation:mixed;text-transform:none;white-space:normal"/>
 <g transform="matrix(.89567 0 0 .79997 .78196 1.6107)" enable-background="new" fill="#808080" font-size="33.109" font-weight="500" letter-spacing="0" stroke-width=".97822" word-spacing="0">
  <path d="m6.156 0.487-4e-3 2e-3c-0.054 0-0.125 5e-3 -0.213 0.014a1.78 1.78 0 0 0-0.295 0.056 0.632 0.632 0 0 0-0.233 0.108 0.373 0.373 0 0 0-0.123 0.158 0.447 0.447 0 0 0-0.036 0.2c3e-3 0.074 0.022 0.151 0.038 0.237 0.369 2.056 0.71 4.119 1.053 6.18l0.838-3.128zm1.344 5.015-0.913 3.406 0.038 0.23 1.35 2.165 0.654 2.443c0.088 0.329 0.216 0.616 0.384 0.861s0.365 0.44 0.591 0.584c0.227 0.144 0.479 0.236 0.757 0.275 0.272 0.041 0.557 0.021 0.855-0.058 0.297-0.08 0.553-0.206 0.769-0.377a1.9 1.9 0 0 0 0.51-0.615c0.123-0.238 0.2-0.505 0.228-0.803 0.023-0.296-0.01-0.609-0.098-0.938a2.712 2.712 0 0 0-0.383-0.853 2.164 2.164 0 0 0-0.599-0.582 1.888 1.888 0 0 0-0.754-0.267 1.945 1.945 0 0 0-0.847 0.056c-0.214 0.064-0.42 0.163-0.666 0.14a0.52 0.52 0 0 1-0.236-0.08 0.588 0.588 0 0 1-0.167-0.187 1.656 1.656 0 0 1-0.107-0.301zm0 2.485a0.525 0.525 0 0 1 0.525 0.524 0.525 0.525 0 0 1-0.525 0.525 0.525 0.525 0 0 1-0.525-0.525 0.525 0.525 0 0 1 0.525-0.524zm2.998 3.84a0.888 0.888 0 0 1 0.615 0.204c0.239 0.192 0.414 0.495 0.525 0.909 0.112 0.419 0.113 0.774 4e-3 1.065a0.91 0.91 0 0 1-0.65 0.567c-0.319 0.085-0.598 0.03-0.839-0.168-0.246-0.196-0.425-0.503-0.537-0.923-0.11-0.414-0.108-0.764 8e-3 -1.051 0.11-0.291 0.324-0.48 0.642-0.565 0.08-0.021 0.157-0.034 0.232-0.038z"/>
  <path d="m8.844 0.487v2e-3h-1e-3l-0.323 1.199h1e-3l-2.387 8.912a1.66 1.66 0 0 1-0.107 0.301 0.588 0.588 0 0 1-0.167 0.187 0.514 0.514 0 0 1-0.236 0.08c-0.245 0.023-0.452-0.077-0.667-0.14a1.945 1.945 0 0 0-0.846-0.056 1.887 1.887 0 0 0-0.754 0.267 2.164 2.164 0 0 0-0.6 0.582c-0.166 0.24-0.294 0.524-0.382 0.853a2.784 2.784 0 0 0-0.098 0.938c0.029 0.298 0.105 0.565 0.229 0.803a1.9 1.9 0 0 0 0.51 0.615c0.215 0.171 0.471 0.297 0.768 0.376 0.298 0.08 0.583 0.1 0.855 0.059 0.278-0.04 0.53-0.131 0.757-0.276 0.226-0.144 0.423-0.338 0.59-0.583 0.169-0.245 0.297-0.532 0.385-0.861l0.655-2.443 1.349-2.166c0.479-2.618 0.825-5.262 1.33-7.875 0.016-0.085 0.034-0.163 0.037-0.237a0.515 0.515 0 0 0-0.035-0.2 0.375 0.375 0 0 0-0.123-0.158 0.63 0.63 0 0 0-0.234-0.106 1.802 1.802 0 0 0-0.296-0.056 2.842 2.842 0 0 0-0.204-0.015zm-1.344 7.5a0.525 0.525 0 0 1 0.525 0.524 0.525 0.525 0 0 1-0.525 0.525 0.525 0.525 0 0 1-0.525-0.525 0.525 0.525 0 0 1 0.525-0.524zm-2.998 3.84c0.075 4e-3 0.152 0.017 0.232 0.038 0.318 0.085 0.532 0.274 0.642 0.565 0.116 0.287 0.119 0.637 8e-3 1.051-0.112 0.42-0.291 0.727-0.537 0.923-0.24 0.197-0.52 0.253-0.839 0.168a0.91 0.91 0 0 1-0.65-0.567c-0.11-0.29-0.108-0.646 4e-3 -1.065 0.111-0.414 0.286-0.717 0.525-0.91a0.888 0.888 0 0 1 0.615-0.203z"/>
 </g>
</svg>
