<svg version="1.1" viewBox="0 0 16 16" xmlns="http://www.w3.org/2000/svg" xmlns:osb="http://www.openswatchbook.org/uri/2009/osb">
 <g fill="#808080">
  <path d="m12.234 0.027344c-3.1341 0.20235-6.1313 1.5296-8.4043 3.7988a0.50005 0.50005 0 0 0 0 0.00391c-3.0225 3.0291-4.3779 7.3442-3.627 11.559a0.50005 0.50005 0 0 0 0.4043 0.4043c4.2132 0.7579 8.5319-0.59351 11.563-3.6191a0.50005 0.50005 0 0 0 0-2e-3c3.0232-3.0291 4.378-7.3456 3.627-11.56a0.50005 0.50005 0 0 0-0.4043-0.4043c-1.0533-0.18948-2.1135-0.24714-3.1582-0.17969zm0.06445 0.99805c0.83828-0.054062 1.6887 0.020116 2.5352 0.14453 0.54817 3.7707-0.67035 7.5882-3.3711 10.295-2.7085 2.7041-6.5271 3.9199-10.297 3.3652-0.54813-3.7708 0.67028-7.5882 3.3711-10.295 2.1-2.0965 4.8672-3.3231 7.7617-3.5098z" color="#000000" stroke-linecap="round" stroke-linejoin="round" style="-inkscape-stroke:none"/>
  <path d="m8 4a4 4 0 0 0-4 4 4 4 0 0 0 4 4 4 4 0 0 0 4-4 4 4 0 0 0-4-4zm0 1a3 3 0 0 1 3 3 3 3 0 0 1-3 3 3 3 0 0 1-3-3 3 3 0 0 1 3-3z" enable-background="new" style="paint-order:normal"/>
  <path d="m3.5 11a1.5 1.5 0 0 0-1.5 1.5 1.5 1.5 0 0 0 1.5 1.5 1.5 1.5 0 0 0 1.5-1.5 1.5 1.5 0 0 0-1.5-1.5zm0 1a0.5 0.5 0 0 1 0.5 0.5 0.5 0.5 0 0 1-0.5 0.5 0.5 0.5 0 0 1-0.5-0.5 0.5 0.5 0 0 1 0.5-0.5z" enable-background="new" style="paint-order:normal"/>
  <path d="m12.5 2a1.5 1.5 0 0 0-1.5 1.5 1.5 1.5 0 0 0 1.5 1.5 1.5 1.5 0 0 0 1.5-1.5 1.5 1.5 0 0 0-1.5-1.5zm0 1a0.5 0.5 0 0 1 0.5 0.5 0.5 0.5 0 0 1-0.5 0.5 0.5 0.5 0 0 1-0.5-0.5 0.5 0.5 0 0 1 0.5-0.5z" enable-background="new" style="paint-order:normal"/>
 </g>
</svg>
