<svg version="1.1" viewBox="0 0 16 16" xmlns="http://www.w3.org/2000/svg" xmlns:osb="http://www.openswatchbook.org/uri/2009/osb">
 <g transform="translate(18 -4)" fill="#808080">
  <path d="m-9.4395 4.5234c0.066488 0.00491 0.13323 0.00899 0.19922 0.015625a7.5 7.5 0 0 0-0.19922-0.015625zm-5.4453 1.7891a7.5 7.5 0 0 0-0.05273 0.044922c0.01737-0.015223 0.03522-0.029858 0.05273-0.044922zm-0.75391 0.74609a7.5 7.5 0 0 0-0.05469 0.0625c0.01809-0.021105 0.03636-0.0416 0.05469-0.0625zm5.8066 0.21289c-3.232 0-4.9531 2.1763-4.9531 4.543 0 1.1044 0.58484 2.4667 1.5195 2.9062 0.13513 0.06762 0.21425 0.03562 0.24805-0.09961 0.02253-0.10143 0.14682-0.60904 0.20312-0.8457 0.0113-0.07888-3.41e-4 -0.13594-0.05664-0.21484-0.31531-0.37188-0.56445-1.0705-0.56445-1.7129 0-1.6566 1.2622-3.2559 3.3906-3.2559 1.8356 0 3.1309 1.2608 3.1309 3.0527 0 2.0285-1.0247 3.4375-2.3535 3.4375-0.74324 0-1.2954-0.60776-1.1152-1.3516 0.21397-0.89031 0.61914-1.8596 0.61914-2.502 0-0.57476-0.30342-1.0605-0.94531-1.0605-0.74324 0-1.3516 0.77809-1.3516 1.8262 0 0.6649 0.22461 1.1152 0.22461 1.1152s-0.74379 3.1444-0.87891 3.7305c-0.14431 0.64401-0.08967 1.5258-0.02344 2.123a7.5 7.5 0 0 0 0.52148 0.19336c0.3041-0.50743 0.76519-1.3151 0.93359-1.9668 0.09009-0.34936 0.46094-1.7812 0.46094-1.7812 0.24775 0.46207 0.96816 0.85742 1.7227 0.85742 2.2522 0 3.8848-2.0853 3.8848-4.666 1e-7 -2.4681-2.0159-4.3281-4.6172-4.3281zm-6.4609 0.65234a7.5 7.5 0 0 0-0.0293 0.044922c0.0096-0.015056 0.01958-0.02994 0.0293-0.044922zm12.615 8.1074c-0.00961 0.01506-0.019578 0.02994-0.029297 0.04492a7.5 7.5 0 0 0 0.029297-0.04492zm-0.62891 0.84766c-0.018094 0.0211-0.036364 0.0416-0.054687 0.0625a7.5 7.5 0 0 0 0.054687-0.0625zm-0.75586 0.76367c-0.017374 0.01522-0.035219 0.02986-0.052734 0.04492a7.5 7.5 0 0 0 0.052734-0.04492zm-7.0977 1.5352a7.5 7.5 0 0 0 0.14453 0.03906c-0.04809-0.01338-0.09685-0.02483-0.14453-0.03906zm1.0645 0.24024a7.5 7.5 0 0 0 0.06641 0.0078c-0.02208-0.0031-0.0444-0.0045-0.06641-0.0078z" enable-background="new"/>
  <path d="m-10 4c-4.4124 0-8 3.5876-8 8 0 4.4124 3.5876 8 8 8 4.4124 0 8-3.5876 8-8 0-4.4124-3.5876-8-8-8zm0 1c3.8719 0 7 3.1281 7 7s-3.1281 7-7 7-7-3.1281-7-7 3.1281-7 7-7z" color="#000000" stroke-dashoffset="6.6" stroke-linejoin="round" style="-inkscape-stroke:none"/>
 </g>
</svg>
