<svg version="1.1" viewBox="0 0 16 16" xmlns="http://www.w3.org/2000/svg" xmlns:osb="http://www.openswatchbook.org/uri/2009/osb">
 <g transform="translate(16.581 .10551)" fill="#808080">
  <path d="m-7.672-0.057219-0.48721 0.11077-4.7672 1.0844 0.90713 3.9755 3.2115 1.9891 2.043-3.1842zm-0.75259 1.1968 0.59146 2.5921-1.2849 2.0025-2.0194-1.2507-0.59153-2.5923z" color="#000000" style="-inkscape-stroke:none"/>
  <path d="m-12.605 6.0165-3.9756 0.9072 0.11077 0.48721 1.0844 4.7672 3.9755-0.90713 1.9891-3.2115zm-0.18675 1.0683 2.0025 1.2849-1.2507 2.0194-2.5923 0.59153-0.75159-3.3043z" color="#000000" style="-inkscape-stroke:none"/>
  <path d="m-8.4274 8.6864-2.043 3.1841 0.9072 3.9757 0.48721-0.11084 4.7672-1.0844-0.90713-3.9755zm0.31015 1.3684 2.0194 1.2507 0.59153 2.5924-3.3042 0.75159-0.59153-2.5922z" color="#000000" style="-inkscape-stroke:none"/>
  <path d="m-1.7761 3.5973-3.9755 0.90713-1.9891 3.2115 3.1842 2.043 3.9756-0.9072-0.11077-0.48721zm-0.75317 1.1975 0.75159 3.3043-2.5921 0.59146-2.0025-1.2849 1.2507-2.0194z" color="#000000" style="-inkscape-stroke:none"/>
 </g>
</svg>
