<?xml version="1.0" encoding="UTF-8" standalone="no"?>
<svg
   height="16.000032"
   id="svg7384"
   version="1.1"
   width="16.000046"
   sodipodi:docname="protonup-qt-app-symbolic.svg"
   inkscape:version="1.3.2 (1:1.3.2+202311252150+091e20ef0f)"
   xml:space="preserve"
   xmlns:inkscape="http://www.inkscape.org/namespaces/inkscape"
   xmlns:sodipodi="http://sodipodi.sourceforge.net/DTD/sodipodi-0.dtd"
   xmlns="http://www.w3.org/2000/svg"
   xmlns:svg="http://www.w3.org/2000/svg"
   xmlns:rdf="http://www.w3.org/1999/02/22-rdf-syntax-ns#"
   xmlns:cc="http://creativecommons.org/ns#"
   xmlns:dc="http://purl.org/dc/elements/1.1/"
   xmlns:osb="http://www.openswatchbook.org/uri/2009/osb"><sodipodi:namedview
     id="namedview1"
     pagecolor="#505050"
     bordercolor="#eeeeee"
     borderopacity="1"
     inkscape:showpageshadow="0"
     inkscape:pageopacity="0"
     inkscape:pagecheckerboard="0"
     inkscape:deskcolor="#505050"
     inkscape:zoom="21.876071"
     inkscape:cx="4.2969324"
     inkscape:cy="8.0224642"
     inkscape:window-width="1312"
     inkscape:window-height="699"
     inkscape:window-x="0"
     inkscape:window-y="0"
     inkscape:window-maximized="1"
     inkscape:current-layer="svg7384" /><metadata
     id="metadata20854"><rdf:RDF><cc:Work
         rdf:about=""><dc:title /><dc:format>image/svg+xml</dc:format><dc:type
           rdf:resource="http://purl.org/dc/dcmitype/StillImage" /></cc:Work></rdf:RDF></metadata><defs
     id="defs7386"><linearGradient
       id="linearGradient5606"
       osb:paint="solid"><stop
         id="stop5608"
         offset="0"
         style="stop-color:#000000;stop-opacity:1;" /></linearGradient><linearGradient
       id="linearGradient4526"
       osb:paint="solid"><stop
         id="stop4528"
         offset="0"
         style="stop-color:#ffffff;stop-opacity:1;" /></linearGradient><linearGradient
       id="linearGradient3600-4"
       osb:paint="gradient"><stop
         id="stop3602-7"
         offset="0"
         style="stop-color:#f4f4f4;stop-opacity:1" /><stop
         id="stop3604-6"
         offset="1"
         style="stop-color:#dbdbdb;stop-opacity:1" /></linearGradient></defs><g
     id="layer9"
     label="status"
     style="display:inline"
     transform="translate(-753.00024,187)" /><g
     id="layer2"
     style="display:inline"
     transform="translate(-512.00004,-180)" /><g
     id="layer4"
     style="display:inline"
     transform="translate(-512.00004,-180)" /><g
     id="g1812"
     style="display:inline"
     transform="translate(-512.00004,-180)" /><g
     id="g6217"
     style="display:inline"
     transform="translate(-512.00004,-180)" /><g
     id="layer3"
     style="display:inline"
     transform="translate(-512.00004,-180)" /><path
     id="path2406"
     style="display:inline;fill:#808080;fill-opacity:1;stroke:none;stroke-width:4;stroke-linecap:round;stroke-linejoin:round;stroke-miterlimit:4;stroke-dasharray:none;stroke-dashoffset:0;stroke-opacity:1"
     d="m 8,16.00003 a 8,8 0 0 0 8,-8 8,8 0 0 0 -8,-8 A 8,8 0 0 0 6.5058594,0.158233 4.5,4.5 0 0 1 7.2773438,1.056671 7,7 0 0 1 8,1.00003 a 7,7 0 0 1 7,7 7,7 0 0 1 -7,7 7,7 0 0 1 -7,-7 A 7,7 0 0 1 1.056641,7.2773738 4.5,4.5 0 0 1 0.158203,6.5117488 8,8 0 0 0 0,8.00003 a 8,8 0 0 0 8,8 z" /><g
     id="layer1"
     style="display:inline"
     transform="translate(-512.00004,-180)" /><path
     d="M 3.5,6.9999991 C 5.433,6.9999991 7,5.432999 7,3.5 7,1.567 5.433,0 3.5,0 1.567,0 0,1.567 0,3.5 0,5.432999 1.567,6.9999991 3.5,6.9999991 Z M 4,5.999999 H 3 V 5.332029 C 3,4.98352 3.0159,4.66474 3.0469,4.375 3.0779,4.08527 3.1159,3.79393 3.16213,3.5 H 2 L 3.5,1 5,3.5 H 3.82812 c 0.052,0.29393 0.094,0.58527 0.125,0.875 0.031,0.29393 0.0469,0.61271 0.0469,0.957029 z"
     style="color:#000000;font-style:normal;font-variant:normal;font-weight:normal;font-stretch:normal;font-size:medium;line-height:normal;font-family:sans-serif;font-variant-ligatures:normal;font-variant-position:normal;font-variant-caps:normal;font-variant-numeric:normal;font-variant-alternates:normal;font-feature-settings:normal;text-indent:0;text-align:start;text-decoration:none;text-decoration-line:none;text-decoration-style:solid;text-decoration-color:#000000;letter-spacing:normal;word-spacing:normal;text-transform:none;writing-mode:lr-tb;direction:ltr;text-orientation:mixed;dominant-baseline:auto;baseline-shift:baseline;text-anchor:start;white-space:normal;shape-padding:0;clip-rule:nonzero;display:inline;overflow:visible;visibility:visible;isolation:auto;mix-blend-mode:normal;color-interpolation:sRGB;color-interpolation-filters:linearRGB;solid-color:#000000;solid-opacity:1;vector-effect:none;fill:#808080;fill-opacity:1;fill-rule:nonzero;stroke:none;stroke-width:1;stroke-linecap:butt;stroke-linejoin:miter;stroke-miterlimit:4;stroke-dasharray:none;stroke-dashoffset:0;stroke-opacity:1;marker:none;color-rendering:auto;image-rendering:auto;shape-rendering:auto;text-rendering:auto;enable-background:accumulate"
     id="path1-7" /><path
     id="path16"
     style="color:#000000;fill:#808080;stroke-linecap:square;stroke-linejoin:round;stroke-miterlimit:6;stroke-dashoffset:1.9;-inkscape-stroke:none;fill-opacity:1"
     d="M 7.2490273 7.7372852 C 7.0695857 7.6303227 6.8646382 7.5607463 6.6564568 7.5214598 C 6.2400941 7.4428871 5.7739684 7.4631653 5.259696 7.5540017 C 5.1173507 7.5791444 4.9703661 7.6097694 4.821043 7.6458023 C 4.8147234 7.6244153 4.8066584 7.6053621 4.800241 7.5841762 C 3.810993 8.8259325 2.2444427 9.4345529 0.71395734 9.2438584 C 0.69813368 9.369249 0.68220959 9.4951767 0.67010965 9.6244923 C 0.38400633 9.8273811 0.1176701 10.035201 -0.1301657 10.244985 C -0.22487267 10.146104 -0.31427408 10.048022 -0.39437835 9.9526146 C -0.67765937 9.6152153 -0.86295815 9.3016509 -0.94353053 9.0717428 C -1.0241028 8.8418348 -1.0015421 8.7347217 -0.96891109 8.6782032 C -1.2640448 8.5078077 -1.5320473 8.3083371 -1.7725066 8.0856965 C -1.7940948 8.1159107 -1.8159632 8.1453405 -1.8349365 8.1782032 C -2.0533433 8.5564949 -2.0275185 9.0019888 -1.887383 9.4018558 C -1.7472477 9.8017228 -1.4959125 10.195352 -1.1601097 10.595306 C -1.0673612 10.705774 -0.96637798 10.817196 -0.86070825 10.92829 C -0.96640403 11.03941 -1.0678793 11.14981 -1.1606481 11.260302 C -1.4964511 11.660256 -1.7475097 12.053223 -1.8876451 12.453091 C -2.0277803 12.852959 -2.0526326 13.298681 -1.834226 13.676973 C -1.6158189 14.055264 -1.2173897 14.258065 -0.80102693 14.336638 C -0.38466421 14.415211 0.080746485 14.392265 0.59501896 14.301428 C 0.73698809 14.276352 0.88470517 14.245569 1.033672 14.209628 C 1.0770293 14.356607 1.1225375 14.498949 1.1718054 14.634436 C 1.3502749 15.125226 1.5657764 15.539044 1.8420037 15.860337 C 2.1182309 16.181632 2.4911236 16.428664 2.9279372 16.428664 C 3.3647506 16.428664 3.7393087 16.182589 4.0155359 15.861294 C 4.2917631 15.539999 4.5048625 15.125115 4.6833319 14.634325 C 4.7326358 14.498739 4.7775074 14.355659 4.820892 14.208564 C 4.9705627 14.244717 5.118045 14.277148 5.2606568 14.302338 C 5.7749291 14.393174 6.2414893 14.414021 6.657852 14.33545 C 7.0742147 14.256877 7.4729362 14.056495 7.691343 13.678203 C 7.9097496 13.299912 7.883925 12.854417 7.7437895 12.454551 C 7.603654 12.054683 7.3523188 11.661055 7.0165162 11.2611 C 6.9233953 11.150189 6.8215678 11.038682 6.7154233 10.927139 C 6.8210134 10.8161 6.9226335 10.705573 7.0153631 10.595128 C 7.351166 10.195174 7.6039162 9.8031827 7.7440515 9.4033155 C 7.8841868 9.0034484 7.9100161 8.5560345 7.691609 8.1777424 C 7.5824057 7.9885967 7.4284689 7.8442476 7.2490273 7.7372852 z M 6.7256086 8.5852792 C 6.7799818 8.6162647 6.8096638 8.6487981 6.8259791 8.6770573 C 6.8586091 8.7335741 6.8803333 8.8402172 6.7997609 9.0701249 C 6.7191889 9.3000335 6.5330646 9.6150021 6.2497834 9.9524013 C 6.1698095 10.047654 6.0808315 10.145921 5.9863595 10.244602 C 5.7385641 10.034917 5.471334 9.8270377 5.1853105 9.6242474 C 5.152717 9.2760679 5.1061173 8.9414695 5.0485331 8.6228717 C 5.1817779 8.5902994 5.311167 8.5627211 5.4340874 8.5410095 C 5.8679242 8.4643805 6.2322176 8.4566047 6.4716097 8.5017806 C 6.5913061 8.5243691 6.6712353 8.5542939 6.7256086 8.5852792 z M 3.5873829 9.7864705 C 3.8086066 9.9141941 4.0188729 10.046406 4.2234918 10.180791 C 4.2375009 10.424538 4.2460916 10.671948 4.2460916 10.926804 C 4.2460916 11.182082 4.2362215 11.431028 4.222167 11.675274 C 4.0183189 11.8091 3.8073415 11.941271 3.5869119 12.068536 C 3.3656497 12.196282 3.1456072 12.312657 2.9268784 12.422685 C 2.7087553 12.312917 2.4896606 12.197321 2.2690235 12.069936 C 2.0477999 11.942212 1.8375336 11.810002 1.6329147 11.675615 C 1.618771 11.431594 1.6096 11.181965 1.6096 10.926935 C 1.6096 10.671776 1.6183905 10.424178 1.632548 10.180156 C 1.837105 10.045672 2.0475605 9.9129231 2.2687797 9.7852021 C 2.4894913 9.6577742 2.7096835 9.5423852 2.9278366 9.4327446 C 3.1465281 9.5427564 3.3661592 9.6587469 3.5873829 9.7864705 z M 5.9848807 11.610445 C 6.0800749 11.709782 6.1703221 11.807957 6.2507848 11.903792 C 6.5340658 12.241191 6.7193647 12.554755 6.799937 12.784664 C 6.8805093 13.014571 6.8579486 13.121685 6.8253175 13.178203 C 6.7926866 13.234722 6.7112043 13.307816 6.471812 13.352993 C 6.2324197 13.398169 5.8682153 13.394478 5.4343786 13.317849 C 5.3117012 13.29618 5.1820591 13.267797 5.0490722 13.235219 C 5.1067742 12.915898 5.1519732 12.579908 5.1846054 12.230938 C 5.4702415 12.028355 5.7374613 11.819897 5.9848807 11.610445 z M -0.12995302 11.611804 C 0.11784237 11.82149 0.38507254 12.029369 0.67109592 12.232159 C 0.70369275 12.580595 0.74761306 12.915373 0.80520535 13.23425 C 0.67292803 13.266612 0.54340891 13.295528 0.42134248 13.317088 C -0.012494276 13.393718 -0.37652546 13.397135 -0.61591817 13.351958 C -0.85531039 13.306782 -0.93596468 13.234177 -0.96859612 13.177658 C -1.0012261 13.121141 -1.0246413 13.013521 -0.94406933 12.783614 C -0.8634968 12.553706 -0.67665805 12.241405 -0.39337698 11.904005 C -0.31335674 11.808698 -0.22451237 11.710636 -0.12995302 11.611804 z M 3.8652657 13.918445 C 3.8270406 14.049667 3.7864279 14.175791 3.7439241 14.292677 C 3.5933683 14.706706 3.4146354 15.023686 3.2558156 15.208418 C 3.0969955 15.39315 2.9937802 15.427658 2.9285182 15.427658 C 2.8632564 15.427658 2.7583594 15.393133 2.5995394 15.208403 C 2.4407195 15.023671 2.263354 14.707678 2.1127984 14.293651 C 2.0701408 14.176343 2.0303065 14.048874 1.9918925 13.917129 C 2.296815 13.807574 2.6094773 13.680867 2.927498 13.534893 C 3.2461312 13.681202 3.5597748 13.80869 3.8652657 13.918445 z "
     transform="rotate(-30)" /></svg>
