<svg version="1.1" viewBox="0 0 16 16" xmlns="http://www.w3.org/2000/svg" xmlns:osb="http://www.openswatchbook.org/uri/2009/osb">
 <path d="m8 16a8 8 0 0 1-8-8 8 8 0 0 1 8-8 8 8 0 0 1 8 8 8 8 0 0 1-8 8zm0-1a7 7 0 0 0 7-7 7 7 0 0 0-7-7 7 7 0 0 0-7 7 7 7 0 0 0 7 7z" fill="#808080"/>
 <path d="m4.9115 8.2659q0 0.55359 0.21852 0.88137 0.22581 0.32778 0.70656 0.32778 0.21852 0 0.40791-0.065557 0.19667-0.072841 0.31322-0.15297v-2.1779q-0.094693-0.021852-0.24037-0.03642-0.1384-0.021852-0.3642-0.021852-0.48803 0-0.76483 0.33507-0.2768 0.32778-0.2768 0.91051zm-0.90323-0.014568q0-0.45161 0.13111-0.81582 0.1384-0.37149 0.38606-0.62643 0.25494-0.26223 0.61186-0.40062 0.35692-0.14568 0.80853-0.14568 0.45161 0 0.84495 0.065557t0.64828 0.1384v5.0333h-0.88137v-1.4787q-0.15297 0.080125-0.37877 0.14568-0.21852 0.065556-0.48803 0.065556-0.40791 0-0.72112-0.1384-0.31322-0.14568-0.52445-0.40791-0.21124-0.26223-0.32778-0.62643-0.10926-0.3642-0.10926-0.80853zm7.0801-0.014568q0-0.56087-0.22581-0.88866-0.21852-0.32778-0.69927-0.32778-0.21852 0-0.41519 0.065557-0.18939 0.065557-0.30593 0.14568v2.1925q0.094693 0.021852 0.24037 0.043704 0.15297 0.014568 0.3642 0.014568 0.48803 0 0.76483-0.32778 0.2768-0.33507 0.2768-0.91779zm0.90323 0.014568q0 0.4589-0.1384 0.83039-0.13111 0.3642-0.38606 0.62643-0.24766 0.26223-0.60458 0.40062-0.35692 0.1384-0.80853 0.1384-0.43704 0-0.83767-0.06556-0.39334-0.065553-0.65557-0.14568v-5.3902l0.88137-0.14568v1.974q0.15297-0.080125 0.37149-0.14568 0.22581-0.065557 0.49532-0.065557 0.40062 0 0.71384 0.14568 0.3205 0.1384 0.53174 0.40062 0.21124 0.26223 0.3205 0.63372 0.11654 0.3642 0.11654 0.80853z" fill="#808080" stroke-dashoffset="1.9" stroke-linejoin="round" stroke-miterlimit="3.1" stroke-opacity=".7" stroke-width=".15175" style="paint-order:stroke fill markers" aria-label="qb"/>
</svg>
