<svg version="1.1" viewBox="0 0 16 16" xmlns="http://www.w3.org/2000/svg" xmlns:osb="http://www.openswatchbook.org/uri/2009/osb">
 <g fill="#808080">
  <path d="m7.7402 2c0.12379 0.34691 0.20569 0.7125 0.24023 1.0918 1.3874-4.551e-4 2.7746 0.0036335 4.1621 0.021484 0.86117 0.14671 2.161-0.34154 2.6738 0.66797 0.25574 2.924 0.069407 5.882 0.12891 8.8184-0.087099 0.38019-0.18482 1.1436-0.73047 1.1289-3.5364 0.23538-7.0915 0.10846-10.635 0.13476-0.78646-0.11198-1.9999 0.29029-2.4043-0.69141-0.13507-1.9532-0.11264-3.9186-0.097656-5.8867-0.40894-0.26326-0.77334-0.58956-1.0781-0.9668v5.6816c0 0.65761 0.0599 1.1785 0.22461 1.6172 0.16467 0.43866 0.46152 0.7904 0.83789 0.99805 0.75275 0.41532 1.6735 0.3702 2.9316 0.38477h0.0039063 8.0039 0.003906c1.2582-0.0145 2.1789 0.030604 2.9316-0.38477 0.37637-0.20766 0.67322-0.55939 0.83789-0.99805 0.16413-0.43867 0.22461-0.95958 0.22461-1.6172v-7c0-0.65761-0.0599-1.1785-0.22461-1.6172-0.16466-0.43866-0.46152-0.79039-0.83789-0.99805-0.75275-0.41534-1.6734-0.37025-2.9316-0.38477h-0.003906-4.2617z" color="#000000" color-rendering="auto" dominant-baseline="auto" image-rendering="auto" shape-rendering="auto" solid-color="#000000" style="font-feature-settings:normal;font-variant-alternates:normal;font-variant-caps:normal;font-variant-ligatures:normal;font-variant-numeric:normal;font-variant-position:normal;isolation:auto;mix-blend-mode:normal;shape-padding:0;text-decoration-color:#000000;text-decoration-line:none;text-decoration-style:solid;text-indent:0;text-orientation:mixed;text-transform:none;white-space:normal"/>
  <rect x="2" y="14" width="12" height="2" rx=".49458" ry=".49458"/>
  <path d="m10.5 4.5v1h1v-1h-1zm0 1h-1v1h-1-1-0.6543c-0.36545 0.40698-0.80334 0.74668-1.293 1h0.94727v1h-1v-0.97266c-0.60355 0.30227-1.2828 0.47266-2 0.47266v0.5h-1v1 2h1v-2h1v1 1h1v-1h2 1 2v1h1v-1-1h1v2h1v-2-1h-1v-1h-1v-1h-1v-1zm0 6h-2v1h2v-1zm-5 0v1h2v-1h-2zm4-4h1v1h-1v-1z" enable-background="new"/>
  <path d="m3.5 0c-1.933 0-3.5 1.567-3.5 3.5s1.567 3.5 3.5 3.5 3.5-1.567 3.5-3.5-1.567-3.5-3.5-3.5zm-0.5 1h1v0.66797c0 0.34851-0.0159 0.66729-0.0469 0.95703-0.031 0.28973-0.069 0.58107-0.11523 0.875h1.1621l-1.5 2.5-1.5-2.5h1.1719c-0.052-0.29393-0.094-0.58527-0.125-0.875-0.031-0.29393-0.0469-0.61271-0.0469-0.95703z" color="#000000" color-rendering="auto" dominant-baseline="auto" image-rendering="auto" shape-rendering="auto" solid-color="#000000" style="font-feature-settings:normal;font-variant-alternates:normal;font-variant-caps:normal;font-variant-ligatures:normal;font-variant-numeric:normal;font-variant-position:normal;isolation:auto;mix-blend-mode:normal;shape-padding:0;text-decoration-color:#000000;text-decoration-line:none;text-decoration-style:solid;text-indent:0;text-orientation:mixed;text-transform:none;white-space:normal"/>
 </g>
</svg>
