<svg version="1.1" viewBox="0 0 16 16" xml:space="preserve" xmlns="http://www.w3.org/2000/svg" xmlns:osb="http://www.openswatchbook.org/uri/2009/osb" xmlns:xlink="http://www.w3.org/1999/xlink"><defs><clipPath><rect width="192" height="152"/></clipPath><clipPath><rect width="192" height="152"/></clipPath><clipPath><rect width="192" height="152"/></clipPath><clipPath><rect width="192" height="152"/></clipPath><clipPath><rect width="192" height="152"/></clipPath><clipPath><rect width="192" height="152"/></clipPath><clipPath><rect width="192" height="152"/></clipPath><clipPath><rect width="192" height="152"/></clipPath></defs><g fill="#808080"><path d="m4.9942 0c-1.2582 0.0145-2.1789-0.0306-2.9316 0.38477-0.1894 0.10449-0.35759 0.24583-0.5 0.41601h-0.0625v0.0879c-0.11056 0.14835-0.20685 0.31154-0.27539 0.49414-0.16467 0.43866-0.22461 0.95957-0.22461 1.6172v9c0 0.65761 0.0599 1.1786 0.22461 1.6172 0.16468 0.43861 0.46153 0.78852 0.83789 0.99609 0.75272 0.41513 1.6735 0.37165 2.9316 0.38672h2e-3 5.0058 4e-3c1.2582-0.0145 2.1789 0.0306 2.9316-0.38477 0.37637-0.20766 0.67322-0.55938 0.83789-0.99804 0.16439-0.43867 0.22447-0.95958 0.22447-1.6172v-9c0-0.65761-0.0599-1.1786-0.22461-1.6172-0.0685-0.18245-0.16493-0.34429-0.27539-0.49219v-0.0898h-0.0625c-0.1422-0.16917-0.31105-0.30985-0.5-0.41406-0.75272-0.41513-1.6736-0.37165-2.9316-0.38672h-2e-3 -5.0058zm-2.9941 3h11v9c0 0.59239-0.0626 1.0057-0.16016 1.2656-0.0976 0.25991-0.20135 0.37147-0.38476 0.47266-0.36596 0.20192-1.1966 0.24701-2.4551 0.26172h-4.9941-6e-3c-1.2586-0.0152-2.0891-0.0599-2.4551-0.26172-0.18342-0.10116-0.28722-0.21286-0.38476-0.47266-0.0976-0.25979-0.16016-0.67323-0.16016-1.2656z" color="#000000" color-rendering="auto" dominant-baseline="auto" image-rendering="auto" shape-rendering="auto" solid-color="#000000" style="font-feature-settings:normal;font-variant-alternates:normal;font-variant-caps:normal;font-variant-ligatures:normal;font-variant-numeric:normal;font-variant-position:normal;isolation:auto;mix-blend-mode:normal;shape-padding:0;text-decoration-color:#000000;text-decoration-line:none;text-decoration-style:solid;text-indent:0;text-orientation:mixed;text-transform:none;white-space:normal"/><rect x="3" y="3" width="1" height="11"/><path d="m11.426 5.7426c-0.025537-0.13829 0.2394-0.95071-0.60798-1.4095-0.16824-0.091082-0.3793-0.17402-0.62659-0.23442-0.5365-0.13103-1.2442-0.15443-2 0.071377-0.63314 0.18917-1.2365 0.53536-1.7511 1.014-0.45898 0.42695-0.83074 0.94394-1.0882 1.5152-0.022432 0.04976-0.043931 0.10004-0.064485 0.1508-0.14391 0.35441-0.24216 0.75533-0.26128 1.1788-0.01839 0.4075 0.03597 0.85907 0.21742 1.3044 0.17729 0.38315 0.47457 0.78486 0.9049 1.0883 0.25968 0.18349 0.5781 0.33447 0.93643 0.40923 0.13915 0.02904 0.29074 0.04736 0.45149 0.04786 0.29611 0.0029 0.57619-0.05545 0.83449-0.15062 0.23346-0.08602 0.44648-0.20102 0.63674-0.32404 0.17331-0.11222 0.33063-0.23202 0.46804-0.33724 0.13634-0.1044 0.24756-0.19006 0.35985-0.26551 0.10338-0.06967 0.19785-0.12195 0.28306-0.15718 0.0817-0.033771 0.14509-0.047789 0.19235-0.051495 0.04365-0.00866 0.07986-0.00568 0.09343-0.00884 0.01389-0.00866 0.01696-0.0013 0.01659-0.032132 0.0023-0.027962 0.02015-0.00999 0.02729 0.0081 0.0091 0.027661 0.0063 0.075079-0.01254 0.13489-0.02766 0.061447-0.07119 0.12702-0.134 0.20019-0.06872 0.080061-0.15249 0.15998-0.24436 0.24286-0.02476 0.0223-0.05004 0.04478-0.07558 0.06739-0.07824 0.06929-0.16398 0.1424-0.2527 0.22195-0.12063 0.10817-0.24779 0.22937-0.36599 0.36994-0.12604 0.14948-0.23822 0.31985-0.31954 0.50684-0.086996 0.20005-0.13807 0.41807-0.13301 0.64442 0.00742 0.18139 0.052661 0.34617 0.1181 0.48519 0.076039 0.16155 0.1799 0.29014 0.29196 0.38316 0.10829 0.0899 0.2207 0.14285 0.31976 0.16756 0.03458 0.0087 0.06888 0.01343 0.10227 0.01509 0.2311 0.01141 0.37977-0.12086 0.43924-0.15982-0.05844-0.07055-0.10539-0.21347-0.14546-0.3621-0.0054-0.02001-0.0108-0.03983-0.01612-0.0579-0.01576-0.05317-0.02995-0.10402-0.0381-0.15438-0.0082-0.05073-0.01319-0.10432-0.0108-0.15638 0.0021-0.0458 0.0097-0.08896 0.02432-0.12636 0.01293-0.04681 0.03825-0.10416 0.08136-0.1679 0.04175-0.06173 0.09909-0.12769 0.17201-0.19124 0.07321-0.06449 0.15932-0.12754 0.26608-0.1983 0.08107-0.05373 0.15979-0.10274 0.25697-0.16437 0.03036-0.01926 0.06229-0.0398 0.09498-0.06133 0.11817-0.07794 0.26507-0.18144 0.40791-0.30872 0.13144-0.11712 0.27501-0.26787 0.39759-0.45899 0.11764-0.17103 0.22816-0.394 0.2777-0.6602 0.046-0.24787 0.03914-0.53939-0.07023-0.82812-0.12889-0.33476-0.36999-0.60127-0.65043-0.77557-0.27995-0.17417-0.58943-0.25455-0.87756-0.27114-0.29399-0.012092-0.5648 0.040244-0.79933 0.11622-0.23904 0.077438-0.45345 0.18369-0.63422 0.28785-0.17867 0.10284-0.35133 0.21857-0.48173 0.30432-0.14948 0.098302-0.26335 0.1708-0.37512 0.23-0.11256 0.05933-0.20746 0.095371-0.28452 0.11265-0.083666 0.018762-0.13287 0.012592-0.15929 0.00223-0.012589-0.00681-0.026269-0.015428-0.039915-0.02593-0.03699-0.028473-0.069064-0.071268-0.082305-0.11745-0.026584-0.079939-0.029171-0.17663-0.015053-0.26283-0.0072-0.085716 1.879e-4 -0.19438 0.02394-0.31733 0.02556-0.13229 0.069064-0.27656 0.12987-0.43015 0.00877-0.021985 0.017944-0.043912 0.027473-0.065772 0.11035-0.25291 0.2826-0.48986 0.49996-0.69036 0.24389-0.22497 0.51895-0.38133 0.7901-0.48004 0.32778-0.11932 0.65073-0.15546 0.93722-0.17853 0.13016-0.010485 0.24976-0.01823 0.35708-0.031248 0.56483-0.06852 0.94706-0.54923 1.1795-0.60751z"/></g></svg>
