<svg version="1.1" viewBox="0 0 16 16" xml:space="preserve" xmlns="http://www.w3.org/2000/svg" xmlns:osb="http://www.openswatchbook.org/uri/2009/osb"><path d="m0 0.75781v14.484h4.2969v-7.918l2.2754 5.3262h0.47266c-0.02809-0.21314-0.044922-0.42997-0.044922-0.65039 0-0.25691 0.020639-0.50904 0.058594-0.75586v-0.001953l-2.8027-6.5586-0.95898 0.19727v9.3613h-2.2969v-12.484h3.5938l2.9414 6.9121h0.74805c0.097851-0.10901 0.19975-0.21432 0.30664-0.31445l2.8242-6.5977h3.5859v6.252c0.37874 0.28593 0.7152 0.62232 1 1.002v-8.2539h-5.2461l-2.7578 6.4434-2.7402-6.4434h-5.2559zm11.754 3.9258-1.0664 2.4941c0.41897-0.11504 0.85859-0.17773 1.3125-0.17773 0.24203 0 0.47974 0.018974 0.71289 0.052734v-2.1719l-0.95898-0.19727zm4.2461 10.305c-0.065613 0.087459-0.13403 0.17097-0.20508 0.25391h0.20508v-0.25391z" color="#000000" fill="#808080" stroke-linecap="square" stroke-miterlimit="1.5" style="-inkscape-stroke:none"/><path d="m12 8c-2.2044 0-4 1.7956-4 4 0 2.2044 1.7956 4 4 4 2.2044 0 4-1.7956 4-4 0-2.2044-1.7956-4-4-4zm-0.5 1.5h1v2h2v1h-2v2h-1v-2h-2v-1h2v-2z" color="#000000" fill="#808080" stroke-linecap="square" stroke-miterlimit="1.5" style="-inkscape-stroke:none"/></svg>
