<?xml version="1.0" encoding="UTF-8" standalone="no"?>
<svg
   version="1.1"
   viewBox="0 0 16 16"
   id="svg2"
   sodipodi:docname="seven-zip-app-symbolic.svg"
   inkscape:version="1.3.2 (1:1.3.2+202311252150+091e20ef0f)"
   xmlns:inkscape="http://www.inkscape.org/namespaces/inkscape"
   xmlns:sodipodi="http://sodipodi.sourceforge.net/DTD/sodipodi-0.dtd"
   xmlns="http://www.w3.org/2000/svg"
   xmlns:svg="http://www.w3.org/2000/svg">
  <defs
     id="defs2" />
  <sodipodi:namedview
     id="namedview2"
     pagecolor="#505050"
     bordercolor="#eeeeee"
     borderopacity="1"
     inkscape:showpageshadow="0"
     inkscape:pageopacity="0"
     inkscape:pagecheckerboard="0"
     inkscape:deskcolor="#505050"
     inkscape:zoom="31.5"
     inkscape:cx="8"
     inkscape:cy="8"
     inkscape:window-width="1312"
     inkscape:window-height="704"
     inkscape:window-x="0"
     inkscape:window-y="0"
     inkscape:window-maximized="1"
     inkscape:current-layer="svg2" />
  <g
     id="g2">
    <path
       d="M 2,2 C 1.562,2 1.21387,2.039438 0.9219,2.14844 c -0.292,0.11 -0.52606,0.30955 -0.66406,0.56055 -0.277,0.502 -0.24781,1.1141 -0.25781,1.9531 v 6.6758 c 0.01,0.839 -0.019187,1.4511 0.25781,1.9531 0.138,0.251 0.37206,0.45055 0.66406,0.56055 0.292,0.11 0.64013,0.14844 1.0781,0.14844 h 5.5 1 5.5 c 0.439,0 0.78612,-0.03944 1.0781,-0.14844 0.293,-0.11 0.52802,-0.30955 0.66602,-0.56055 0.277,-0.502 0.24586,-1.1141 0.25586,-1.9531 v -6.6758 c -0.01,-0.839 0.02114,-1.4511 -0.25586,-1.9531 C 15.5958,2.44904 15.35965,2.24994 15.0781,2.14844 14.7861,2.03844 14.43798,2 14,2 H 8.5 7.5 Z M 2,3 H 7.5 V 13 H 2 C 1.62,13 1.39344,12.96102 1.27344,12.91602 1.215253,12.89817 1.16566,12.85983 1.13282,12.8086 1.03682,12.6346 1.01001,12.1919 1.00001,11.3379 V 4.6641 C 1.01001,3.8081 1.036823,3.3654 1.13282,3.1914 1.165419,3.140346 1.215627,3.102028 1.27344,3.083976 1.39444,3.038976 1.621,2.999992 2,2.999992 Z M 8.5,3 H 14 c 0.38,0 0.60556,0.038984 0.72656,0.083984 0.083,0.031 0.12758,0.080422 0.14258,0.10742 0.095,0.172 0.11986,0.61466 0.13086,1.4727 v 6.6738 c -0.01,0.855 -0.03686,1.2997 -0.13086,1.4707 -0.03398,0.05123 -0.08401,0.08875 -0.14258,0.10742 -0.121,0.045 -0.34656,0.08398 -0.72656,0.08398 H 8.5 v -10 z"
       id="path1"
       style="fill:#808080" />
    <path
       style="fill:#808080;stroke-width:0.26417;stroke-miterlimit:3"
       d="M 3.1127567,10.749999 Q 3.1603073,10.171467 3.3108842,9.5453839 3.4614611,8.919301 3.6754388,8.3169934 3.8973416,7.7146858 4.166795,7.1837041 4.4362484,6.6447973 4.7136269,6.2564674 H 2.3281718 V 5.2499798 H 6.1718453 V 6.1058905 Q 5.9182421,6.383269 5.6091632,6.8746252 5.3080094,7.3659814 5.0306309,7.9920643 4.7611775,8.6102221 4.5551249,9.3234811 4.3569974,10.03674 4.3094468,10.749999 Z"
       id="text1"
       aria-label="7" />
    <path
       style="fill:#808080;stroke-width:0.26417;stroke-miterlimit:3"
       d="m 13.434091,7.3739065 q -0.142652,0.158502 -0.38833,0.4279554 -0.237753,0.2694534 -0.515131,0.5943825 -0.277379,0.3249291 -0.562683,0.6815586 -0.277378,0.3566295 -0.507206,0.6894837 h 2.012975 V 10.749999 H 10.026298 V 10.05259 Q 10.192725,9.7672867 10.422553,9.4423576 10.660306,9.1095034 10.913909,8.7766492 11.175437,8.443795 11.429041,8.1347161 11.682644,7.8177121 11.896622,7.5641089 H 10.121399 V 6.5813965 h 3.312692 z"
       id="text2"
       aria-label="z" />
  </g>
</svg>
