<svg version="1.1" viewBox="0 0 16 16" xmlns="http://www.w3.org/2000/svg" xmlns:osb="http://www.openswatchbook.org/uri/2009/osb">
 <g transform="translate(18.004 -2.0078)" fill="#808080" stroke-linecap="square">
  <path d="m-9.5332 2.002-0.11328 0.99219 0.49805 0.056641 0.041016 0.00586 0.17383 0.023437 0.17383 0.029297 0.17188 0.033203 0.16992 0.037109 0.16797 0.041016 0.00781 0.00195 0.48438 0.13086 0.25977-0.96484-0.48242-0.13086-0.013672-0.00391a0.50005 0.50005 0 0 0-0.01367-0.0038998l-0.17969-0.042969a0.50005 0.50005 0 0 0-0.011719-0.00391l-0.18359-0.039063a0.50005 0.50005 0 0 0-0.011719-0.00195l-0.18359-0.035155a0.50005 0.50005 0 0 0-0.011719-0.00391l-0.18555-0.029293a0.50005 0.50005 0 0 0-0.013672-0.00195l-0.18555-0.027344a0.50005 0.50005 0 0 0-0.013672 0l-0.046875-0.00586zm-1.1367 0.013672-0.49609 0.068359-0.04492 0.00781a0.50005 0.50005 0 0 0-0.01367 0.00195l-0.18555 0.029297a0.50005 0.50005 0 0 0-0.01172 0.00391l-0.18359 0.035156a0.50005 0.50005 0 0 0-0.01172 0.00195l-0.18359 0.039063a0.50005 0.50005 0 0 0-0.01172 0.00391l-0.17969 0.04297a0.50005 0.50005 0 0 0-0.01367 0.00391l-0.17774 0.048828a0.50005 0.50005 0 0 0-0.01172 0.00195l-0.01953 0.00586-0.48047 0.14258 0.28516 0.95898 0.48047-0.14258 0.01367-0.00391 0.16602-0.044922 0.16797-0.041016 0.16992-0.037109 0.17188-0.033203 0.17383-0.029297 0.03906-0.00586 0.49609-0.068359zm4.2285 0.79492-0.50781 0.85938 0.42969 0.25586 0.14844 0.087891 0.14453 0.087891 0.14062 0.09375 0.13867 0.095703 0.13477 0.099609 0.074219 0.056641 0.39648 0.30469 0.60938-0.79492-0.39844-0.30469-0.078125-0.058594a0.50005 0.50005 0 0 0-0.00977-0.00781l-0.14453-0.10547a0.50005 0.50005 0 0 0-0.00977-0.00781l-0.14843-0.10352a0.50005 0.50005 0 0 0-0.00977-0.00586l-0.15039-0.099609a0.50005 0.50005 0 0 0-0.011719-0.00586l-0.15234-0.095703a0.50005 0.50005 0 0 0-0.00977-0.00586l-0.1543-0.091797zm-7.2988 0.091797-0.42383 0.26562-0.14258 0.089844a0.50005 0.50005 0 0 0-0.0098 0.00586l-0.15234 0.099609a0.50005 0.50005 0 0 0-0.0098 0.00586l-0.14844 0.10352a0.50005 0.50005 0 0 0-0.0098 0.00781l-0.14453 0.10547a0.50005 0.50005 0 0 0-0.0098 0.00781l-0.14453 0.10938a0.50005 0.50005 0 0 0-0.0078 0.00781l-0.08594 0.068359-0.38867 0.3125 0.62695 0.7793 0.38867-0.31445 0.08008-0.064453 0.13477-0.10156 0.13477-0.099609 0.13867-0.095703 0.14062-0.09375 0.13867-0.085937 0.42578-0.26367zm9.8047 1.8594-0.79297 0.60938 0.30469 0.39648 0.13281 0.17969 0.095703 0.13867 0.09375 0.14062 0.087891 0.14453 0.085938 0.14453 0.013672 0.025391 0.24414 0.43555 0.87305-0.48633-0.24414-0.4375-0.015625-0.029297a0.50005 0.50005 0 0 0-0.0058598-0.011719l-0.09375-0.1543a0.50005 0.50005 0 0 0-0.00586-0.011719l-0.095703-0.15234a0.50005 0.50005 0 0 0-0.00586-0.00977l-0.099608-0.15234a0.50005 0.50005 0 0 0-0.00586-0.00977l-0.10352-0.14843a0.50005 0.50005 0 0 0-0.00781-0.00977l-0.10547-0.14453a0.50005 0.50005 0 0 0-0.00781-0.00977l-0.037109-0.048828zm-12.26 0.15625-0.29492 0.4043-0.0293 0.041016a0.50005 0.50005 0 0 0-0.0078 0.00977l-0.10352 0.14844a0.50005 0.50005 0 0 0-0.0059 0.00977l-0.09961 0.15234a0.50005 0.50005 0 0 0-0.0059 0.00977l-0.0957 0.15234a0.50005 0.50005 0 0 0-0.0059 0.011719l-0.09375 0.1543a0.50005 0.50005 0 0 0-0.0059 0.011719l-0.08789 0.1582a0.50005 0.50005 0 0 0-0.0059 0.00977l-0.01953 0.039063-0.23438 0.44141 0.88477 0.4668 0.23242-0.44141 0.01758-0.033203 0.08398-0.14844 0.08594-0.14453 0.08789-0.14453 0.09375-0.14062 0.0957-0.13867 0.02734-0.037109 0.29492-0.40234zm13.832 2.625-0.97266 0.23633 0.11914 0.48633 0.037109 0.15234 0.037109 0.16992 0.033203 0.17188 0.029297 0.17383 0.023437 0.17383 0.00977 0.078125 0.056641 0.49805 0.99414-0.11523-0.058594-0.49609-0.00781-0.083984a0.50005 0.50005 0 0 0-0.00195-0.013672l-0.027344-0.18555a0.50005 0.50005 0 0 0-0.00195-0.013672l-0.029297-0.18555a0.50005 0.50005 0 0 0-0.00391-0.011719l-0.035156-0.18359a0.50005 0.50005 0 0 0-0.00195-0.011719l-0.039074-0.18359a0.50005 0.50005 0 0 0-0.0039063-0.011719l-0.039063-0.16016zm-15.332 0.19336-0.10742 0.48828-0.0332 0.1582a0.50005 0.50005 0 0 0-2e-3 0.011719l-0.03516 0.18359a0.50005 0.50005 0 0 0-0.0039 0.011719l-0.0293 0.18555a0.50005 0.50005 0 0 0-2e-3 0.013672l-0.02734 0.18555a0.50005 0.50005 0 0 0 0 0.013672l-0.02344 0.1875a0.50005 0.50005 0 0 0 0 0.013672l-0.0078 0.083984-0.04492 0.49805 0.99609 0.089844 0.04492-0.49805 0.0078-0.080078 0.01953-0.17578 0.02344-0.17383 0.0293-0.17383 0.0332-0.17188 0.0332-0.15039 0.10547-0.48828zm14.686 2.8223-0.068359 0.49609-0.00195 0.01172-0.029297 0.17383-0.033203 0.17188-0.037109 0.16992-0.041016 0.16797-0.044922 0.16602-0.011719 0.04101-0.14258 0.47852 0.95898 0.28516 0.14258-0.47852 0.013672-0.04687a0.50005 0.50005 0 0 0 0.00195-0.01172l0.048828-0.17774a0.50005 0.50005 0 0 0 0.0039062-0.013672l0.042969-0.17969a0.50005 0.50005 0 0 0 0.00391-0.01172l0.039063-0.18359a0.50005 0.50005 0 0 0 0.00195-0.01172l0.035156-0.18359a0.50005 0.50005 0 0 0 0.00391-0.01172l0.029297-0.18555a0.50005 0.50005 0 0 0 0.00195-0.01367l0.00391-0.01953 0.068359-0.49414zm-13.969 0.16797-0.98242 0.18359 0.0918 0.49219 0.0293 0.1543a0.50005 0.50005 0 0 0 2e-3 0.01758l0.05273 0.23828a0.50005 0.50005 0 0 0 0.0039 0.01563l0.06055 0.23828a0.50005 0.50005 0 0 0 0.0059 0.01563l0.06836 0.23438a0.50005 0.50005 0 0 0 0.0039 0.01563l0.0332 0.10156 0.1543 0.47656 0.95117-0.31055-0.1543-0.47461-0.03125-0.09375-0.06445-0.2207-0.05664-0.2207-0.04883-0.22461-0.02734-0.14648zm13.213 2.5059-0.26562 0.42383-0.070312 0.11719-0.09375 0.14062-0.095703 0.13867-0.099609 0.13477-0.10156 0.13477-0.082031 0.09961-0.31445 0.39062 0.7793 0.62695 0.31445-0.38867 0.083984-0.10742a0.50005 0.50005 0 0 0 0.00781-0.0078l0.10938-0.14453a0.50005 0.50005 0 0 0 0.00781-0.0098l0.10547-0.14453a0.50005 0.50005 0 0 0 0.00781-0.0098l0.10352-0.14844a0.50005 0.50005 0 0 0 0.00586-0.0098l0.099609-0.15234a0.50005 0.50005 0 0 0 0.00586-0.0098l0.076172-0.11914 0.26367-0.42578zm-13.18 0.25977-0.12891 0.48242-0.25781 0.9668-0.12891 0.48242 0.96484 0.25781 0.12891-0.48242 0.25976-0.9668 0.12891-0.48242zm11.416 1.9102-0.4043 0.29492-0.013672 0.01172-0.13867 0.0957-0.14062 0.09375-0.14453 0.08789-0.14453 0.08594-0.14844 0.08398-0.056641 0.0293-0.44336 0.23438 0.4668 0.88281 0.44336-0.23242 0.0625-0.0332a0.50005 0.50005 0 0 0 0.00977-0.0059l0.1582-0.08789a0.50005 0.50005 0 0 0 0.011719-0.0059l0.15625-0.09375a0.50005 0.50005 0 0 0 0.00977-0.0059l0.15234-0.0957a0.50005 0.50005 0 0 0 0.011719-0.0059l0.15039-0.09961a0.50005 0.50005 0 0 0 0.00977-0.0059l0.14844-0.10352a0.50005 0.50005 0 0 0 0.00977-0.0078l0.019531-0.01367 0.4043-0.29492zm-8.252 0.58398-0.48242 0.12891-0.9668 0.25977-0.48242 0.12891 0.25977 0.9668 0.48242-0.13086 0.96484-0.25781 0.48438-0.12891zm-3.9395 0.40234-0.12891 0.48438-0.13281 0.49805a0.50005 0.50005 0 0 0 0.61133 0.61133l0.46875-0.125 0.48242-0.12891-0.25781-0.9668-0.11524 0.03125 0.03906-0.14453zm5.0957 0.10742-0.31055 0.95117 0.47461 0.1543 0.12891 0.04102a0.50005 0.50005 0 0 0 0.01563 0.0059l0.23633 0.06836a0.50005 0.50005 0 0 0 0.01563 0.0039l0.23633 0.06055a0.50005 0.50005 0 0 0 0.01563 0.0039l0.24023 0.05273a0.50005 0.50005 0 0 0 0.01563 0.0039l0.12891 0.02344 0.49023 0.0918 0.18359-0.98438-0.49219-0.0918-0.11914-0.02148-0.22266-0.04883-0.22266-0.05664-0.21875-0.06445-0.12109-0.03906zm4.6484 0.22852-0.48828 0.10547-0.12305 0.02734-0.17188 0.0332-0.17383 0.0293-0.17383 0.02344-0.17578 0.01953-0.10742 0.0098-0.49805 0.04492 0.089844 0.99609 0.49805-0.04492 0.11133-0.0098a0.50005 0.50005 0 0 0 0.013672 0l0.1875-0.02344a0.50005 0.50005 0 0 0 0.013672 0l0.18555-0.02734a0.50005 0.50005 0 0 0 0.013672-2e-3l0.18555-0.0293a0.50005 0.50005 0 0 0 0.011719-0.0039l0.18359-0.03516a0.50005 0.50005 0 0 0 0.011719-2e-3l0.13086-0.02734 0.48828-0.10742z" color="#000000" stroke-dasharray="1, 2" stroke-dashoffset="1.9" stroke-linejoin="round" style="-inkscape-stroke:none"/>
  <path d="m-4.5039 10.008a5.5 5.5 0 0 1-5.5 5.5 5.5 5.5 0 0 1-5.5-5.5 5.5 5.5 0 0 1 5.5-5.5 5.5 5.5 0 0 1 5.5 5.5z" color="#000000" enable-background="new" stroke-dasharray="1.1, 2.75" stroke-miterlimit="6" stroke-width="1.1" style="-inkscape-stroke:none"/>
 </g>
</svg>
