<svg version="1.1" viewBox="0 0 16 16" xmlns="http://www.w3.org/2000/svg" xmlns:osb="http://www.openswatchbook.org/uri/2009/osb">
 <g transform="translate(19.365 -1.584)" fill="#808080">
  <g stroke-linecap="round">
   <path d="m-15.115 1.584c-2.3413 0-4.25 1.9087-4.25 4.25 0 0.83731 0.24529 1.6182 0.66602 2.2773a7.5 7.5 0 0 1 0.43945-1.4492c-0.06887-0.26416-0.10547-0.54176-0.10547-0.82812 0-1.8008 1.4492-3.25 3.25-3.25 0.28636 0 0.56396 0.036596 0.82812 0.10547a7.5 7.5 0 0 1 1.4492-0.43945c-0.65914-0.42072-1.44-0.66602-2.2773-0.66602z" color="#000000" stroke-linejoin="round" style="-inkscape-stroke:none"/>
   <path d="m-4.0293 11.059a7.5 7.5 0 0 1-0.44141 1.4473c0.068873 0.26416 0.10547 0.54176 0.10547 0.82812 0 1.8008-1.4492 3.25-3.25 3.25-0.28636 0-0.56396-0.0366-0.82812-0.10547a7.5 7.5 0 0 1-1.4473 0.44141c0.65866 0.41983 1.439 0.66406 2.2754 0.66406 2.3413 0 4.25-1.9087 4.25-4.25 0-0.83634-0.24423-1.6167-0.66406-2.2754z" color="#000000" stroke-linejoin="round" style="-inkscape-stroke:none"/>
   <path d="m-11.558 12.03q0.65746 0 0.95718-0.22238 0.29972-0.22238 0.29972-0.62845 0-0.24171-0.10635-0.41575-0.09669-0.17403-0.29006-0.30939-0.1837-0.14503-0.45442-0.26105-0.27072-0.12569-0.61878-0.24171-0.34807-0.12569-0.6768-0.27072-0.31906-0.1547-0.57044-0.37707-0.24171-0.22238-0.39641-0.53177-0.14503-0.30939-0.14503-0.74448 0-0.90884 0.62845-1.4213 0.62845-0.5221 1.7113-0.5221 0.62845 0 1.1119 0.14503 0.49309 0.13536 0.77348 0.29972l-0.37707 0.98619q-0.32873-0.1837-0.72514-0.28039-0.38674-0.096685-0.80249-0.096685-0.49309 0-0.77348 0.20304-0.27072 0.20304-0.27072 0.57044 0 0.22238 0.08702 0.38674 0.09669 0.1547 0.26105 0.28039 0.17403 0.12569 0.39641 0.23204 0.23204 0.10635 0.50276 0.20304 0.47376 0.17403 0.84116 0.35773 0.37707 0.17403 0.62845 0.42541 0.26105 0.24171 0.39641 0.58011 0.13536 0.32873 0.13536 0.80249 0 0.90884-0.64779 1.4116-0.63812 0.49309-1.8757 0.49309-0.41575 0-0.76381-0.05801-0.3384-0.04834-0.60912-0.12569-0.26105-0.07735-0.45442-0.1547-0.19337-0.08702-0.30939-0.1547l0.35774-0.99586q0.26105 0.14503 0.7058 0.29006 0.44475 0.14503 1.0732 0.14503z" stroke-dashoffset=".4" stroke-miterlimit="10" stroke-width=".20917" aria-label="S"/>
  </g>
  <path d="m-11.365 1.584c-4.4124 0-8 3.5876-8 8s3.5876 8 8 8c4.4124 0 8-3.5876 8-8s-3.5876-8-8-8zm0 1c3.8719 0 7 3.1281 7 7 0 3.8719-3.1281 7-7 7-3.8719 0-7-3.1281-7-7 0-3.8719 3.1281-7 7-7z" color="#000000" stroke-dashoffset="6.6" stroke-linejoin="round" style="-inkscape-stroke:none"/>
 </g>
</svg>
