<svg version="1.1" viewBox="0 0 16 16" xmlns="http://www.w3.org/2000/svg">
 <g>
  <path d="m8.003 11.001c-1.1046 0-2 0.89544-2 2 0 1.1046 0.89544 2 2 2 1.1046 0 2-0.89544 2-2 0-1.1046-0.89544-2-2-2z" enable-background="new" fill="#808080"/>
  <path d="m8.0039 2c-2.7626-0.00536-5.4134 1.0918-7.3652 3.0469l0.73438 0.73828c2.7456-2.7501 6.7755-3.4373 10.162-2.0605l0.52344-0.90625c-1.271-0.53654-2.6481-0.82075-4.0547-0.81836zm6.8828 2.5996-0.53125 0.91992c0.093566 0.086462 0.18652 0.17465 0.27734 0.26562l0.73438-0.73828c-0.15544-0.15571-0.31646-0.30257-0.48047-0.44727zm-6.8828 0.38281c-1.92 0-3.8417 0.73035-5.3047 2.1934l0.73633 0.73633c1.7808-1.7852 4.3464-2.308 6.5879-1.5703l0.5293-0.91602c-0.81023-0.29232-1.6709-0.44497-2.5488-0.44336zm0 2.998c-1.215-0.0026781-2.3813 0.47857-3.2402 1.3379l0.73438 0.73828c0.80728-0.81104 1.9101-1.143 2.9629-1.0059l0.55273-0.95703c-0.32946-0.07404-0.66668-0.11408-1.0098-0.11328z" enable-background="new" fill="#808080"/>
  <rect transform="rotate(30)" x="12.851" y="-3.7898" width="1.3391" height="11.382" rx="0" ry="0" enable-background="new" fill="#f22c42" style="paint-order:stroke fill markers"/>
  <path d="m10.43 2.281-4.1114 7.1191a2.7235 1.7364 0 0 1 1.6843-0.38185 2.7235 1.7364 0 0 1 1.4646 0.28508l3.5018-6.0626c-0.7945-0.42644-1.6489-0.75049-2.5396-0.95986z" enable-background="new" fill="#808080" opacity=".5" style="paint-order:stroke fill markers"/>
  <rect transform="rotate(30)" x="12.851" y="-3.7898" width="1.3391" height="11.382" rx="0" ry="0" enable-background="new" fill="#808080" style="paint-order:stroke fill markers"/>
 </g>
</svg>
