<svg version="1.1" viewBox="0 0 16 16" xml:space="preserve" xmlns="http://www.w3.org/2000/svg" xmlns:osb="http://www.openswatchbook.org/uri/2009/osb"><path d="m8 16a8 8 0 0 1-8-8 8 8 0 0 1 8-8 8 8 0 0 1 8 8 8 8 0 0 1-8 8zm0-1a7 7 0 0 0 7-7 7 7 0 0 0-7-7 7 7 0 0 0-7 7 7 7 0 0 0 7 7z" fill="#808080"/><path d="m6.9746 4.7201c-0.39759 3.669e-4 -0.79522 0.00625-0.95312 0.017578-1.0326 0.074074-2.2889 0.31263-2.5508 0.48438-0.53349 0.34975-0.32182 1.1664 0.31055 1.1973 0.12362 0.00604 0.17635-3e-3 0.40039-0.064453 1.3447-0.3689 3.2997-0.44132 4.8438-0.17969 0.31745 0.053767 0.67846 0.12297 0.78906 0.15039 0.05377 0.013286 0.13862 0.03328 0.1875 0.044922 0.37442 0.089449 0.96882 0.28113 1.2441 0.40039 0.02933 0.012664 0.08882 0.035493 0.13281 0.052734 0.06972 0.027283 0.57013 0.27756 0.82812 0.41406 0.30332 0.1605 0.74827-0.013682 0.87891-0.34375 0.14468-0.36548-4.77e-4 -0.66879-0.43555-0.90625-0.94168-0.51394-2.2015-0.92862-3.3359-1.0957-0.071408-0.010532-0.17767-0.025826-0.23633-0.035156-0.22782-0.03626-0.78917-0.094699-1.1562-0.12109-0.15357-0.011019-0.54967-0.015992-0.94727-0.015625zm-0.01953 2.4004c-1.0493-7e-3 -2.1789 0.14357-2.9297 0.39844-0.48751 0.16548-0.52002 0.81197-0.05078 1.0195 0.13571 0.06003 0.21297 0.060214 0.4375 0 0.83206-0.22302 1.551-0.31978 2.375-0.32031 1.2584-7.998e-4 2.4313 0.21634 3.5352 0.65625 0.27817 0.11082 0.78158 0.3606 0.93359 0.46289 0.49755 0.33482 1.0914-0.1406 0.83984-0.67188-0.11731-0.24764-0.99449-0.70292-1.9766-1.0273-0.86641-0.28621-1.7778-0.45671-2.7207-0.50586-0.14528-0.0075652-0.29346-0.010719-0.44336-0.011719zm-0.0293 2.2832c-0.77236 0.00998-1.7452 0.11534-2.4961 0.2832-0.37255 0.083273-0.48877 0.1925-0.48828 0.45898 5.78e-4 0.34269 0.23248 0.48805 0.64062 0.40234 0.09763-0.02049 0.23235-0.04859 0.30078-0.0625 0.1282-0.02599 0.47821-0.08209 0.72852-0.11719 0.07821-0.01093 0.16829-0.02274 0.19922-0.02734 0.38086-0.05643 1.3005-0.07506 1.7734-0.03516 1.1257 0.095 1.9911 0.35413 2.8984 0.86719 0.11722 0.06626 0.23869 0.12476 0.27148 0.13086 0.43676 0.08194 0.70036-0.4529 0.37305-0.75781-0.05372-0.05003-0.46791-0.28153-0.7168-0.40039-0.73452-0.35073-1.6355-0.60471-2.4258-0.68359-0.10265-0.010263-0.26854-0.025336-0.36914-0.035156-0.19758-0.019308-0.432-0.026764-0.68945-0.023438z" fill="#808080"/></svg>
