<svg version="1.1" viewBox="0 0 16 16" xmlns="http://www.w3.org/2000/svg" xmlns:osb="http://www.openswatchbook.org/uri/2009/osb">
 <g transform="translate(21.895 .3223)" fill="#808080">
  <path d="m-12.561 3.5554c-1.3969 0-2.5333 1.1375-2.5333 2.5358 0 0.011233 5e-5 0.022433 6.66e-4 0.032967l-1.6321 2.3693c-0.26437-0.012-0.52966 0.0343-0.78121 0.13785-0.11089 0.0452-0.21483 0.10072-0.31233 0.1648l-3.5507-1.4608a7.5 7.5 0 0 0-0.02447 0.34293 7.5 7.5 0 0 0 0.28721 2.0365l2.5004 1.0311c0.12721 0.56812 0.51714 1.0665 1.0925 1.3062 0.94134 0.39305 2.0267-0.05495 2.4183-0.99609 0.1019-0.24601 0.14943-0.504 0.14256-0.76146l2.3351-1.6678c0.0189 6.67e-4 0.03839 0.0013 0.05728 0.0013 1.3974 0 2.5333-1.1385 2.5333-2.5367 0-1.3983-1.1358-2.5358-2.5333-2.5358zm0 0.84634c0.93087 0 1.6882 0.75828 1.6882 1.6894 0 0.93187-0.75737 1.6899-1.6882 1.6899-0.93029 0-1.6877-0.75806-1.6877-1.6899 0-0.93113 0.75742-1.6894 1.6877-1.6894zm3e-3 0.41722c-0.69958 0-1.2675 0.56855-1.2675 1.2696 0 0.70108 0.5679 1.2692 1.2675 1.2692 0.70015 0 1.268-0.56811 1.268-1.2692 0-0.70102-0.56785-1.2696-1.268-1.2696zm-4.2296 4.0966c0.17828 0.0013 0.35906 0.03668 0.53375 0.10934 0.35225 0.14646 0.62551 0.42224 0.77035 0.77467 0.14484 0.35243 0.14433 0.74146-0.0023 1.0927-0.30308 0.72717-1.1393 1.0721-1.8661 0.76944-0.33531-0.1396-0.58847-0.39531-0.73452-0.70025l0.82476 0.34162c0.53602 0.22312 1.1509-0.03093 1.3737-0.56645 0.2235-0.53608-0.03007-1.1517-0.5658-1.3749l-0.85249-0.353c0.16448-0.06236 0.3403-0.09468 0.51858-0.09325z" enable-background="new" stroke-width=".066964"/>
  <path d="m-13.895-0.32227c-4.4124 0-8 3.5876-8 8s3.5876 8 8 8c4.4124 0 8-3.5876 8-8 0-4.4124-3.5876-8-8-8zm0 1c3.8719 1e-8 7 3.1281 7 7 0 3.8719-3.1281 7-7 7s-7-3.1281-7-7c0-3.8719 3.1281-7 7-7z" color="#000000" stroke-dashoffset="6.6" stroke-linejoin="round" style="-inkscape-stroke:none"/>
 </g>
</svg>
