<svg version="1.1" viewBox="0 0 16 16" xmlns="http://www.w3.org/2000/svg" xmlns:osb="http://www.openswatchbook.org/uri/2009/osb">
 <g transform="translate(21.312 -.49998)" fill="#808080">
  <g>
   <path d="m-5.884 10.59-5.4102 5.4102h1.5781c3.476 0 3.832-0.3079 3.832-3.3223z" color="#000000"/>
   <path d="m-7.4614 10.09c-1.7528 0-2.8164 0.0191-3.5469 0.65234-0.36524 0.3166-0.56606 0.76709-0.66602 1.2832-0.1 0.51611-0.11914 1.1233-0.11914 1.8867v1.5875h1l4.4809-4.4098v-1zm0 1h1.1488l-4.4809 4.4098v-1.5875c0-0.74375 0.0242-1.3059 0.0996-1.6953s0.18159-0.58157 0.33985-0.71875c0.31651-0.27435 1.1693-0.4082 2.8926-0.4082z" color="#000000" enable-background="new" stroke-linecap="square" stroke-linejoin="bevel" style="-inkscape-stroke:none"/>
   <path d="m-13.313 2.6006c-1.3507 0-2.457 1.1044-2.457 2.4551 0 1.3507 1.1063 2.457 2.457 2.457s2.457-1.1063 2.457-2.457c0-1.3507-1.1063-2.4551-2.457-2.4551zm0 1c0.81026 0 1.457 0.64482 1.457 1.4551 0 0.81025-0.64677 1.457-1.457 1.457s-1.457-0.64678-1.457-1.457c0-0.81026 0.64677-1.4551 1.457-1.4551z" color="#000000" stroke-linecap="round" stroke-linejoin="round" style="-inkscape-stroke:none"/>
   <path d="m-12.536 5.0564a0.77587 0.77587 0 0 1-0.77587 0.77587 0.77587 0.77587 0 0 1-0.77588-0.77587 0.77587 0.77587 0 0 1 0.77588-0.77587 0.77587 0.77587 0 0 1 0.77587 0.77587z" color="#000000" stroke-linecap="round" stroke-linejoin="round" stroke-width=".65213" style="-inkscape-stroke:none"/>
  </g>
  <g transform="matrix(.13 0 0 .13 -22.212 2.9297)" enable-background="new" stroke-linecap="round" stroke-linejoin="round" stroke-width="6.7772">
   <path d="m37.27 69.416c-1.6036 0.11872-3.2536 0.59543-5.0703 1.3691-3.6325 1.547-7.378 4.1341-11.074 6.6348a3.3886 3.3886 0 0 0-0.9082 4.7051 3.3886 3.3886 0 0 0 4.7051 0.9082c3.0656-2.074 5.9622-3.9131 8.3848-5.168-3.39e-4 0.98001 0.18789 2.068 0.91602 2.8262 1.0419 1.0849 2.0906 1.2186 2.8496 1.2871 1.5179 0.13706 2.6881-0.17019 4.041-0.5918 2.6979-0.84072 5.4512-2.2414 7.3672-2.8535 0.28493-0.09019 0.39974-0.07611 0.65625-0.13867 0.4325 0.89143 1.192 1.7881 2.0156 2.1562a3.3889 3.3889 0 0 0 0.0039 2e-3c1.9918 0.88691 3.0258 0.54716 4.5547 0.43555 1.5288-0.11161 3.2722-0.3417 5.125-0.5957 3.7013-0.50741 7.9277-1.1306 12.148-1.7559a3.3886 3.3886 0 0 0 2.8555-3.8477 3.3886 3.3886 0 0 0-3.8477-2.8555c-4.2167 0.6247-8.4279 1.2437-12.078 1.7441-1.7684 0.24242-3.3519 0.44214-4.5547 0.53516-0.10925-0.35271-0.17148-0.69713-0.43359-1.0723-0.81338-1.1641-1.8375-1.506-2.5742-1.6816-0.73673-0.17561-1.3592-0.18752-1.9883-0.1582-1.2581 0.05864-2.5458 0.33126-3.9395 0.77344a3.3889 3.3889 0 0 0-0.0059 2e-3c-1.4615 0.46692-2.5334 0.9405-3.8496 1.4941 8.75e-4 -0.14872 0.05729-0.20896 0.04492-0.37695-0.1215-1.6563-1.662-3.0966-2.7051-3.4766s-1.8369-0.36014-2.6387-0.30078z" color="#000000" style="-inkscape-stroke:none"/>
   <path d="m40.197 34.668c-2.5666 0.05813-5.0606 1.0254-7.3145 2.5215-3.0023 1.991-5.3699 5.3308-5.5195 9.3926-0.05812 1.5778 0.20029 3.0841 0.60547 4.5254-2.2972 1.7542-4.5213 3.475-6.9648 5.2891a3.3886 3.3886 0 0 0-0.70117 4.7402 3.3886 3.3886 0 0 0 4.7402 0.70117c2.1925-1.6277 4.1892-3.1568 6.2852-4.7305 1.2824 1.3058 3.2223 2.3105 5.2129 2.3105 2.0121 0 3.7913-0.7514 5.623-1.832a3.3889 3.3889 0 0 0 2e-3 -2e-3c1.9718-1.1657 3.6854-2.4825 5.6465-3.9531-0.04376 0.29877-0.14578 0.52023-0.13672 0.88672 0.04034 1.6318 1.274 3.241 2.4023 3.8633s2.1429 0.74806 3.1406 0.78711c1.9955 0.0781 4.0378-0.34524 6.0625-1.1309 3.9674-1.5394 6.9134-4.1021 8.8184-5.1172 0.0013 0.38805-0.10814 0.60997 0.0059 1.1504a3.3889 3.3889 0 0 0 0.0039 0.01172c0.2532 1.1785 1.2808 2.3887 2.2305 2.8711 0.94965 0.48241 1.7329 0.54925 2.4609 0.57422 1.4549 0.0499 2.8662-0.18798 4.6855-0.53906 3.6473-0.69902 8.7721-1.9709 12.691-2.5762 3.9212-0.60157 6.8379-0.60156 10.014-0.60156a3.3886 3.3886 0 0 0 3.3887-3.3887 3.3886 3.3886 0 0 0-3.3887-3.3887c-3.1758 0-6.6107 1.4e-5 -11.041 0.67969a3.3889 3.3889 0 0 0-0.0039 0c-4.4318 0.68404-9.6562 1.9902-12.938 2.6191a3.3889 3.3889 0 0 0-0.0039 0c-0.29578 0.05709-0.30786 0.03167-0.57227 0.07617 0.06296-0.6798-0.01572-1.492-0.54688-2.5586l-2e-3 -2e-3c-0.60719-1.222-1.7371-1.9343-2.6504-2.2344-0.91392-0.30031-1.7226-0.32653-2.5117-0.26953-1.5783 0.11401-3.1325 0.61474-4.7461 1.4375-3.2256 1.6426-5.8762 3.9805-8.3477 4.9395-0.09028 0.03503-0.15214 0.01653-0.24414 0.04883 0.67842-0.84034 1.363-1.7366 1.9219-3.0312a3.3889 3.3889 0 0 0 0-0.0039c0.41207-0.95666 0.81395-2.4434-0.07422-4.0273-0.88817-1.584-2.6191-2.0704-3.6738-2.1016-2.1094-0.06242-3.5965 0.68018-5.4727 1.7539a3.3889 3.3889 0 0 0-2e-3 2e-3c-3.7539 2.1511-8.0182 5.8841-10.566 7.3906-0.67757 0.39938-0.79043 0.34852-1.1602 0.47266 2.601-2.1069 5.1169-4.1803 6.7168-5.9473a3.3889 3.3889 0 0 0 2e-3 0c1.9503-2.1563 3.2699-4.0936 2.9941-6.7227-0.1379-1.3145-0.89538-2.5982-1.7891-3.3457-0.89369-0.74747-1.8321-1.0862-2.6992-1.2832-0.86585-0.19671-1.7285-0.27719-2.584-0.25781zm-1.0547 7.1562c-0.92215 1.0055-2.9319 2.6216-4.7383 4.125 0.29794-1.2178 0.95598-2.2726 2.2246-3.1133a3.3889 3.3889 0 0 0 0.0039-2e-3c0.73023-0.48474 1.6632-0.79489 2.5098-1.0098z" color="#000000" style="-inkscape-stroke:none"/>
  </g>
  <path d="m-16.867 0.5c-1.6832 0-2.7629 0.025701-3.5312 0.625-0.38416 0.29965-0.6253 0.74023-0.75195 1.2539-0.12665 0.51368-0.16211 1.117-0.16211 1.8711v8.5c0 0.75405 0.03546 1.3574 0.16211 1.8711 0.12665 0.51368 0.36779 0.95426 0.75195 1.2539 0.76832 0.5993 1.848 0.625 3.5312 0.625h7.1094c1.6836 0 2.7664-0.02605 3.5371-0.625 0.38533-0.29947 0.62808-0.73937 0.75391-1.2539 0.1257-0.514 0.1587-1.1176 0.1543-1.8711v-8.5c0.0043987-0.75347-0.028596-1.3571-0.1543-1.8711-0.12583-0.51453-0.36857-0.95443-0.75391-1.2539-0.77066-0.59894-1.8535-0.625-3.5371-0.625zm0 1h7.1094c1.6534 0 2.552 0.12512 2.9238 0.41406 0.18589 0.14447 0.30574 0.33207 0.39648 0.70312 0.090742 0.37105 0.12927 0.9098 0.125 1.6289v8.5079c0.00428 0.71911-0.03426 1.2579-0.125 1.6289-0.09074 0.37105-0.21059 0.55865-0.39648 0.70312-0.37179 0.2889-1.2704 0.41402-2.9238 0.41402h-7.1094c-1.653 0-2.546-0.12548-2.916-0.41406-0.18498-0.14429-0.30479-0.33122-0.39648-0.70312-0.091696-0.37191-0.13281-0.91317-0.13281-1.6328v-8.5c0-0.71964 0.04112-1.2609 0.13281-1.6328 0.0917-0.37191 0.2115-0.55883 0.39648-0.70312 0.36997-0.28858 1.263-0.41406 2.916-0.41406z" color="#000000" style="-inkscape-stroke:none"/>
 </g>
</svg>
