<svg version="1.1" viewBox="0 0 16 16" xml:space="preserve" xmlns="http://www.w3.org/2000/svg" xmlns:osb="http://www.openswatchbook.org/uri/2009/osb"><g fill="#808080"><g stroke-width=".61467"><path d="m12.67 9.2397c-0.24878 0.00985-0.48865 0.07228-0.70832 0.17648 0.75502 0.33435 1.2834 1.0902 1.2834 1.9677 0 0.58587-0.23472 1.1183-0.61587 1.5067-0.01585 0.7411-0.26772 1.9533-0.26772 1.9533s-0.68547 0.16344-1.6904 0.31214c0.21956 0.22332 0.49992 0.39405 0.82837 0.48142l1.1429 0.30133c0.95889 0.25509 1.9484-0.30905 2.2066-1.2606l0.78155-2.8885c0.25755-0.95274-0.31183-1.9304-1.2726-2.1886h-6e-3l-1.1441-0.30133c-0.17979-0.047828-0.36056-0.067049-0.53784-0.060029z"/><path d="m12.494 6.7558c-0.51062 0.022353-0.97066 0.39988-1.1105 0.95923l-0.07443 0.29653 1.0145-0.0084v0.0024c0.30798 0.012294 0.30854 0.62668 0.30854 0.62668h-1.4695c-0.0029 0-0.0055-2.9e-5 -0.0084 0l-0.15007 0.60267c0.02993-0.00123 0.05982-0.0024 0.09004-0.0024 1.1863 0 2.1514 0.96504 2.1514 2.1514 0 0.06274-0.0031 0.12469-0.0084 0.18608 0.33614-0.14824 0.60714-0.45585 0.70832-0.86198l0.52102-2.0961c0.17211-0.69458-0.2089-1.4075-0.84878-1.5919h-0.0036l-0.76234-0.2209c-0.11986-0.034806-0.23992-0.048378-0.35776-0.043219z"/><path d="m4.7996 6.1411c-0.093649 0.00327-0.18791 0.017115-0.28213 0.043219l-0.79956 0.2209c-0.67491 0.1844-1.0709 0.89733-0.8908 1.5919l0.40098 1.5415c0.32318-0.19426 0.70072-0.30614 1.1045-0.30614 0.24774 0 0.48488 0.043359 0.70591 0.12005 0.13138-0.12405 0.3291 0.037666 0.44978-0.059599-0.065155-0.089128-0.40577-0.66192-0.69589-0.66192h-1.383c0-0.48682 0.1267-0.61467 0.58586-0.61467h1.2606l0.37937 0.83077 0.70591-0.6639-0.28093-1.0829c-0.14483-0.55935-0.63051-0.93687-1.1669-0.95923-0.030949-0.00129-0.062426-0.00109-0.093642 3e-7z"/><path d="m10.087 4.0089e-4c-1.654 0.026517-3.2772 1.2966-3.9342 3.227-0.098348 0.29074-0.17295 0.58805-0.2209 0.87879v0.0096c-0.46346 0.5237-0.84796 1.1489-1.0877 1.868-0.22927 0.6813-0.31841 1.3715-0.28453 2.0325h0.61707c0.019577-0.4461 0.10175-0.90425 0.25812-1.359 0.14138 0.27599 0.34415 0.54464 0.59186 0.79235 0.66999 0.66384 0.51154-0.63273 0.27612-1.4502-0.066385-0.22927-0.11784-0.46121-0.16087-0.6831 0.51632-0.68843 1.1919-1.1876 1.9173-1.4322-0.32639-0.39954-0.42863-1.0094-0.2221-1.6099 0.23972-0.68905 0.82233-1.0183 1.413-1.0325l-0.00123 0.013206c0.13646-0.00449 0.26877 0.012083 0.40338 0.060027 0.55996 0.19055 0.88013 0.66409 0.84878 1.3218 0.31348-0.1801 0.74447-0.2246 1.1741-0.092441 0.72408 0.22128 1.0504 0.86168 0.87279 1.4382-0.15982 0.52616-0.66995 0.8128-1.3338 0.6831 0.46162 0.49788 0.66327 1.3575 0.79235 2.0889 0 0-0.28709 0.38093-0.56185 0.62188-0.4986 0.44145-1.0658 0.99564-1.2618 1.365l-0.0031 0.30929 0.60694-1.0356 1.5367-0.012005v0.0024c0.03268 0.0013 0.06032 0.010598 0.08644 0.024011 0.0047 0.00239 0.0099 0.00328 0.01441 0.00601 3.13e-4 1.888e-4 8.91e-4 -1.903e-4 0.0012 0 0.04386 0.027003 0.07847 0.069744 0.10565 0.12005 1.64e-4 3.026e-4 -1.64e-4 8.974e-4 0 0.0012 0.0089 0.016589 0.01781 0.033654 0.02521 0.051623 0.0038 0.00913 5e-3 0.019431 0.0084 0.028813 0.02173 0.05976 0.03716 0.12244 0.04682 0.18128 9.65e-4 0.00589 0.0027 0.012229 0.0036 0.018008 5.6e-5 3.685e-4 -5.5e-5 8.298e-4 0 0.0012 0.0053 0.035743 0.0096 0.069878 0.01201 0.098444 0.0049 0.05779 0.0048 0.096043 0.0048 0.096043h-0.63628c-0.02236 0.085315-0.04625 0.17084-0.07563 0.25571-0.05306 0.15305-0.11425 0.30075-0.18008 0.4442 0.3001 0.094705 0.57203 0.25297 0.79956 0.4598 0.19048-0.32388 0.35227-0.67409 0.47901-1.0481 0.32393-0.95889 0.37944-1.9361 0.19689-2.8213 0.03627-0.090971 0.0719-0.18023 0.10325-0.27612 0.79295-2.3603-0.16377-4.8189-2.1393-5.4889-0.2471-0.08421-0.50312-0.12975-0.75514-0.15127l-6e-3 0.0060054c-0.11028-0.0094506-0.22111-0.013773-0.33137-0.012005zm-0.43339 2.4443c-0.28951-6.146e-4 -0.58183 0.21156-0.6771 0.50783-0.081752 0.21882-0.03763 0.44027 0.10805 0.58226 0.14875 0.14162 0.38086 0.17847 0.59907 0.093642 0.21759-0.082366 0.39043-0.2722 0.4514-0.49102v-0.0012c0.10388-0.32762-0.06926-0.63215-0.39258-0.68311-0.030119-0.00473-0.058781-0.00713-0.08884-0.0072zm1.5559 0.61467c-0.17641 6.147e-4 -0.35058 0.21337-0.40578 0.50903-0.04917 0.21882-0.02553 0.44027 0.06483 0.58226 0.08667 0.14162 0.22563 0.17601 0.35656 0.093642 0.13092-0.085439 0.23469-0.27152 0.27132-0.49342 0.06331-0.32455-0.04113-0.63221-0.2329-0.6831-0.01813-0.00455-0.03697-0.0073-0.05523-0.0072zm-6.5813 5.5717c0.038208 0.2214 0.090032 0.43843 0.15607 0.64829 0.087539 0.018637 0.17242 0.043162 0.25571 0.072032 0.074916-0.070707 0.14999-0.13917 0.2221-0.20169 0.00203-0.00172 4e-3 -0.00307 0.00602-0.00479-0.024015-0.11099-0.027952-0.19444-0.043208-0.30895-0.028834-0.022842-0.075596-0.074915-0.10806-0.09563-0.025128-0.016034-0.052376-0.029729-0.079235-0.043219-0.0079-0.00392-0.014777-0.00957-0.022811-0.013206-0.00154-6.946e-4 -0.00326-5.151e-4 -0.00479-0.0012-0.019325-0.00872-0.038866-0.014824-0.058824-0.02161-0.016873-0.00565-0.033192-0.012771-0.050422-0.016808-0.016522-0.00387-0.033653-0.00743-0.050422-0.0096-0.00117-1.539e-4 -0.0024 1.45e-4 -0.00363 0-0.017942-0.00219-0.035891-0.0036-0.054024-0.0036zm6.5345 0.0012c-0.05302 0-0.10156 0.00444-0.14646 0.013206-0.04489 0.00877-0.08622 0.02179-0.12366 0.037217-0.22474 0.092518-0.39378 0.55127-0.43528 0.61811 0.03622 0.02905 0.14385-0.20689 0.17956-0.17752 0.0029-4.032e-4 0.0052-6.761e-4 0.0084-0.00123 0.44361-0.074246 0.78277-0.27449 1.1021-0.48982z"/><path d="m8.3282 4.3149s-0.10572 1.3646 0.71917 1.7703c0.82366 0.40323 1.7395-1.1556 1.7395-1.1556-0.61467-0.61467-1.2293-0.61467-2.4587-0.61467z"/><path d="m3.1513 9.2397c-0.13221 0.0046715-0.26546 0.024157-0.39858 0.060029l-1.1249 0.30133c-0.95028 0.25816-1.5138 1.2358-1.2594 2.1886l0.76834 2.8885c0.25816 0.95151 1.2286 1.5156 2.1814 1.2606l1.1249-0.30134c0.27911-0.075824 0.52352-0.21508 0.72512-0.39618-0.94244-0.11152-1.5163-0.24371-1.5163-0.24371s-0.10111-0.76188-0.17288-1.6387c-0.76291-0.33098-1.2978-1.0916-1.2978-1.9749 0-0.97779 0.65636-1.8042 1.5511-2.0649-0.14454-0.044539-0.29509-0.073048-0.449-0.079235-0.043679-0.00178-0.087989-0.00154-0.13206 0z"/><path d="m8.328 6.1591c-1.3579 0-2.4587 1.1008-2.4587 2.4587 4.052e-4 0.0028 8.152e-4 0.0056 0.00123 0.0084l0.47061-0.44299s0.088797-0.016135 0.2161-0.036016c0.22422-0.81117 0.94701-1.3718 1.7708-1.3734 1.0185-1e-7 1.8441 0.84498 1.844 1.8872-0.0012 0.021636-0.0028 0.043249-0.0048 0.064829l0.01248 0.32489 0.55418-0.94197c-0.24055-1.1367-1.244-1.9499-2.4059-1.9497zm0 1.2293c-0.46185 0.00242-0.88337 0.2635-1.0913 0.6759 0.28156-0.025888 0.60811-0.046821 0.95563-0.046821 0.66217 0 1.0582 0.083959 1.281 0.15487-0.18364-0.47244-0.63843-0.78374-1.1453-0.78395zm2.5256 1.3498c-0.14885 0.099625-0.36242 0.50762-0.39648 0.5625 0.06413 0.051442 0.1987-0.16158 0.2612-0.10909 0.03588-0.1477 0.12724-0.30163 0.13529-0.45341z"/></g><path d="m8.1914 7.7676c-1.0293 0-1.8984 0.16992-1.8984 0.16992l-0.070313 0.013672-0.50586 0.47461-0.19727 0.16406 0.21875 0.47852 0.71289-0.64648c0.054653-0.010352 0.79952-0.1543 1.7402-0.1543 0.55645 0 0.91357 0.060715 1.125 0.11719 0.20314 0.054259 0.23897 0.085316 0.24219 0.087891l0.62109 0.57812 0.2832-0.49609-0.21289-0.099609-0.37891-0.37891-0.019531-0.011719s-0.14396-0.092574-0.4043-0.16211c-0.26033-0.069535-0.66287-0.13477-1.2559-0.13477zm2.6621 0.9707-0.39648 0.5625c1.1113 0.90862 1.9238 1.9246 1.9238 3.5156 0 0.61182-0.20194 1.6104-0.24023 1.8047-0.14903 0.03556-2.144 0.52148-4.4258 0.52148-2.2728 0-3.6963-0.34032-3.8301-0.37109-0.026875-0.2071-0.22461-1.698-0.22461-2.8418 0-0.32316 0.26156-0.86808 0.64648-1.3848 0.35754-0.47992 0.80554-0.93579 1.1816-1.252l-0.26367-0.45703-0.18555 0.1543c0.016131 0.012236 0.018103 0.018023 0.033203 0.03125-0.3877 0.33844-0.81169 0.74638-1.168 1.2246-0.41415 0.55592-0.74414 1.1339-0.74414 1.6836 0 1.2862 0.24414 3.1016 0.24414 3.1016l0.023438 0.16992 0.16602 0.039062s1.6904 0.40234 4.1211 0.40234c2.4413 0 4.707-0.55664 4.707-0.55664l0.15234-0.03711 0.033203-0.1543s0.27344-1.2853 0.27344-2.0781c0-1.5873-0.78394-2.6859-1.7871-3.5859 0.05906-0.059079-0.08105-0.34766 0.068359-0.34766l-0.30859-0.14453zm-0.001954 0.28125c0.004411-0.004902 0.053863 0.040036 0.10547 0.089844-0.035003-0.030235-0.070032-0.060033-0.10547-0.089844z" color="#000000" style="-inkscape-stroke:none"/><rect x="4.6401" y="10.676" width="6.7614" height="3.688" ry="1.5367" stroke-width=".61467"/></g></svg>
