<svg version="1.1" viewBox="0 0 16 16" xml:space="preserve" xmlns="http://www.w3.org/2000/svg" xmlns:osb="http://www.openswatchbook.org/uri/2009/osb"><path d="m11.623 0.52148c-0.068174 0.0032-0.14284 0.008825-0.22266 0.015625l-7.209 1.125c-0.81332 0.0828-0.90176 0.46247-0.89453 0.93555v9.5195c-0.41338-0.27155-0.85577-0.46484-1.4453-0.46484-0.75911 0-1.2123 0.29098-1.4863 0.67383-0.27403 0.38285-0.36523 0.86524-0.36523 1.2383 0 0.44983 0.1551 0.92907 0.48828 1.2949s0.84551 0.62304 1.582 0.62305c0.83169 0 1.4154-0.23199 1.7461-0.68555 0.26039-0.35711 0.40565-0.83534 0.45703-1.4238 7e-3 -0.0714 0.011125-0.14515 0.015625-0.2207 4e-3 -0.0599 0.0029063-0.1018 0.0039063-0.17188h0.0039062v-7.7031c0.0221-0.61938 0.58398-0.71094 0.58398-0.71094l5.8535-0.91406c0.56193-0.17179 0.5625 0.52344 0.5625 0.52344v3.6133l1-1v-5.377c0.0119-0.68564-0.14049-0.8662-0.48633-0.89063-0.05764-4e-3 -0.11933-0.0032-0.1875 0z" color="#000000" color-rendering="auto" dominant-baseline="auto" fill="#808080" fill-rule="evenodd" image-rendering="auto" shape-rendering="auto" solid-color="#000000" style="font-feature-settings:normal;font-variant-alternates:normal;font-variant-caps:normal;font-variant-ligatures:normal;font-variant-numeric:normal;font-variant-position:normal;isolation:auto;mix-blend-mode:normal;shape-padding:0;text-decoration-color:#000000;text-decoration-line:none;text-decoration-style:solid;text-indent:0;text-orientation:mixed;text-transform:none;white-space:normal"/><path d="m13.5 7-5.5 5.5-1 3.5 3.5-1 5.5-5.5zm-5 6 1.5 1.5-2 0.5z" fill="#808080"/></svg>
