<svg version="1.1" viewBox="0 0 16 16" xmlns="http://www.w3.org/2000/svg" xmlns:osb="http://www.openswatchbook.org/uri/2009/osb">
 <g fill="#808080" stroke-linejoin="round">
  <path d="m10.963 6.2871c-0.33848 0-0.63473 0.20776-0.76953 0.5h1.5273c0.30309 0.0074958 0.5529 0.21867 0.62109 0.5h2.4961c0.095839 0 0.16211 0.066258 0.16211 0.16211v3.5293c0 1.0751-0.86043 1.9355-1.9355 1.9355h-0.011719a0.50005 0.50005 0 0 0-0.001953 0c-0.30891 4.1e-5 -0.59929-0.072469-0.85742-0.19922-0.097787 0.32282-0.23722 0.62784-0.41016 0.91016 0.38444 0.18533 0.81607 0.28912 1.2695 0.28906h0.011719c1.6156 1e-6 2.9355-1.32 2.9355-2.9355v-3.5293c0-0.63626-0.52584-1.1621-1.1621-1.1621h-3.8652-0.009765z" color="#000000" style="-inkscape-stroke:none"/>
  <path d="m9.1738 6.2871v1h2.5371c0.089978 0.00379 0.15245 0.06718 0.15039 0.1582a0.50005 0.50005 0 0 0 0 0.011719v4.0254a0.50005 0.50005 0 0 0 0 0.011719c0.04412 1.8965-1.4433 3.4588-3.3379 3.5117-1.4203-0.039724-2.6126-0.92691-3.1016-2.168h-1.0527c0.53507 1.7913 2.1769 3.1218 4.1426 3.1699a0.50005 0.50005 0 0 0 0.023437 0c2.4404-0.059648 4.3829-2.0966 4.3262-4.5371v-4.002c0.014311-0.63126-0.49541-1.166-1.127-1.1816a0.50005 0.50005 0 0 0-0.013672 0h-2.5469z" color="#000000" style="-inkscape-stroke:none"/>
  <path d="m8.6953 0c-0.34642 2.5402e-4 -0.68639 0.069777-1 0.20898-0.3091 0.13285-0.58696 0.33015-0.81641 0.58203-0.0022298 0.002453-0.0055926 0.0033964-0.0078124 0.0058594a0.50005 0.50005 0 0 0-0.0039063 0.0058594 0.50005 0.50005 0 0 0-0.0019531 0.0039062c-0.043882 0.050098-0.05999 0.12034-0.099609 0.17383a0.50005 0.50005 0 0 0-0.0019531 0.0058594c-0.16107 0.21855-0.31427 0.4459-0.40625 0.70898-0.12019 0.33885-0.17383 0.699-0.17383 1.0723 0 0.13399 0.0074321 0.26614 0.021484 0.39648h1.0078c-0.019046-0.12418-0.029297-0.25595-0.029297-0.39648 0-0.27719 0.038516-0.52199 0.11523-0.73828a0.50005 0.50005 0 0 0 0.0019531-0.0039063c0.078161-0.22419 0.18502-0.40859 0.31641-0.55859 0.13426-0.14771 0.29052-0.26156 0.47266-0.33984a0.50005 0.50005 0 0 0 0.0078124-0.0019531c0.1817-0.081413 0.37854-0.12474 0.59766-0.125h0.0019531c0.21974 2.593e-4 0.41643 0.041648 0.59766 0.12305a0.50005 0.50005 0 0 0 0.0078125 0.0039062c0.18104 0.07783 0.33506 0.19008 0.46484 0.33789a0.50005 0.50005 0 0 0 0.0039063 0.0039062c0.13471 0.14951 0.243 0.33415 0.32031 0.55664a0.50005 0.50005 0 0 0 0.001953 0.0039063c0.07631 0.21501 0.11678 0.45941 0.11719 0.73438a0.50005 0.50005 0 0 0-0.003907 0.0039062c0 0.28181-0.04026 0.52999-0.11719 0.74609a0.50005 0.50005 0 0 0 0 0.0019531c-0.077527 0.21848-0.18468 0.4004-0.32031 0.55078a0.50005 0.50005 0 0 0-0.0058593 0.0058594c-0.13102 0.14913-0.28715 0.26294-0.4707 0.3457-0.049636 0.020853-0.10019 0.039225-0.15234 0.054687 0.022235 0.10684 0.033203 0.21706 0.033203 0.33008v0.6875c0.17911-0.033331 0.35402-0.08457 0.52148-0.15625a0.50005 0.50005 0 0 0 0.011719-0.0078125l-0.0019531 0.0039062c0.30772-0.13875 0.58226-0.33957 0.80664-0.59375l0.001953-0.0019531c0.22934-0.25491 0.40283-0.55564 0.51953-0.88477h-0.001953c0.12064-0.3389 0.1754-0.70201 0.17578-1.0781a0.50005 0.50005 0 0 0 0.003907-0.0039063c0-0.37298-0.05564-0.73377-0.17578-1.0723-0.11541-0.33129-0.28666-0.63498-0.51562-0.89062-0.22597-0.25736-0.50623-0.45869-0.81836-0.59375-0.27526-0.12308-0.57488-0.16826-0.87695-0.18359a0.50005 0.50005 0 0 0-0.015625-0.013672l-0.0019532-0.0019531-0.0019531 0.011719c-0.037108-0.001596-0.070159-0.02341-0.10742-0.023438h-0.0019531z" color="#000000" style="-inkscape-stroke:none"/>
  <path d="m1.1387 4.1641c-0.35314 0-0.63867 0.28553-0.63867 0.63867v6.3945c0 0.35315 0.28552 0.64062 0.63867 0.64062h6.3965c0.35313 0 0.63867-0.28747 0.63867-0.64062v-6.3945c0-0.35315-0.28554-0.63867-0.63867-0.63867h-6.3965zm1.1992 1.5859h1.5 1 1.5v1h-1.5v3.5h-1v-3.5h-1.5v-1z" color="#000000" style="-inkscape-stroke:none"/>
  <path d="m13.58 1.3945a0.50005 0.50005 0 0 0-0.0078 0.00391c-0.25732 0.0013-0.51418 0.052993-0.75 0.1582-9.79e-4 4.237e-4 -0.0029-4.254e-4 -0.0039 0-0.2287 0.099476-0.43291 0.24772-0.60352 0.43359-0.0032 0.00352-0.0085 0.00426-0.01172 0.00781a0.50005 0.50005 0 0 0-2e-3 0.00391 0.50005 0.50005 0 0 0-0.01172 0.013672c-0.16597 0.19204-0.29078 0.41649-0.375 0.6582-0.08909 0.25257-0.12891 0.51932-0.12891 0.79102 0 0.27522 0.03838 0.54568 0.12891 0.80078 0.08611 0.24221 0.21286 0.46631 0.38086 0.6582a0.50005 0.50005 0 0 0 0.0078 0.00781c0.17208 0.19057 0.38115 0.34255 0.61328 0.44727a0.50005 0.50005 0 0 0 0.01172 0.00586c0.0019 8.107e-4 4e-3 0.00115 0.0059 0.00195 0.23623 0.10004 0.49133 0.14844 0.74805 0.14844 0.25876 0 0.51443-0.050675 0.75195-0.15234a0.50005 0.50005 0 0 0 0.30274-0.45898l-0.29297 0.45508c0.2332-0.10529 0.44291-0.25919 0.61328-0.45312 0.17158-0.19177 0.30042-0.41681 0.38672-0.66016 0.09083-0.25442 0.13067-0.52368 0.13086-0.79883 1e-6 -6.552e-4 0-0.0013 0-0.00195a0.50005 0.50005 0 0 0 2e-3 0c0-0.2717-0.04012-0.53903-0.12891-0.79102-0.086616-0.24811-0.21684-0.47881-0.39262-0.67383-0.17017-0.19217-0.38135-0.3439-0.61523-0.44531-0.23903-0.10665-0.4992-0.16016-0.75977-0.16016zm-1.377 3.5371a0.50005 0.50005 0 0 0 0.01172 0.013672l2e-3 0.00195a0.50005 0.50005 0 0 0 0.10156 0.080078zm1.3809-2.5371c0.13108 5.163e-4 0.2456 0.025581 0.34961 0.072266a0.50005 0.50005 0 0 0 0.0078 0.00391c0.10477 0.045039 0.1927 0.1081 0.26758 0.19336a0.50005 0.50005 0 0 0 0.0039 0.00586c0.0781 0.086647 0.14342 0.1945 0.19141 0.33203a0.50005 0.50005 0 0 0 0 0.00391c0.0462 0.13034 0.07206 0.28119 0.07227 0.45703a0.50005 0.50005 0 0 0-2e-3 0.00195c0 0.18064-0.02585 0.33481-0.07226 0.46484a0.50005 0.50005 0 0 0-2e-3 0.00195c-0.04758 0.13417-0.112 0.24202-0.19141 0.33008a0.50005 0.50005 0 0 0-0.0039 0.00391c-0.07489 0.085254-0.16377 0.15065-0.26953 0.19922-0.10626 0.044941-0.21993 0.070312-0.35352 0.070312-0.13281 0-0.25026-0.024234-0.35547-0.068359l-0.0039-0.00195c-0.10584-0.048409-0.19476-0.11328-0.27335-0.19923l-2e-3 -0.00195c-0.077114-0.088635-0.14139-0.19697-0.18941-0.33203-0.046118-0.12996-0.072266-0.28558-0.072266-0.4668 0-0.1773 0.02591-0.32833 0.07227-0.45898a0.50005 0.50005 0 0 0 0-0.00391c0.04746-0.1362 0.11253-0.24506 0.1875-0.33203 1.89e-4 -2.196e-4 0.0018 2.193e-4 2e-3 0 0.07846-0.086537 0.16701-0.15354 0.27344-0.19922a0.50005 0.50005 0 0 0 0.0078-0.00195c0.10531-0.047262 0.22104-0.072266 0.35352-0.072266a0.50005 0.50005 0 0 0 2e-3 -0.00195zm-0.58984 0.20703-0.04492 0.0625c-5.27e-4 6.014e-4 -0.0014 0.00135-2e-3 0.00195l-0.10156 0.085937a0.50005 0.50005 0 0 0 0.14844-0.15039zm-0.16602 1.5645 0.05469 0.033203 0.04492 0.044922 0.01758 0.017578a0.50005 0.50005 0 0 0-0.11719-0.095703z" color="#000000" style="-inkscape-stroke:none"/>
 </g>
</svg>
