<svg version="1.1" viewBox="0 0 16 16" xmlns="http://www.w3.org/2000/svg" xmlns:osb="http://www.openswatchbook.org/uri/2009/osb">
 <path d="m15.52 0.47656a0.50005 0.50005 0 0 0-0.70508 0.001953l-8.8457 8.8457a0.50005 0.50005 0 0 0-0.095703 0.57617l2.5645 5.1914c0.31094 0.62908 0.95783 0.94106 1.5625 0.9043 0.60467-0.03677 1.207-0.42576 1.4395-1.0879l4.4688-12.736c0.2027-0.5783 0.06217-1.2249-0.36133-1.668-0.02461-0.025632-0.03624-0.036179-0.02734-0.027344zm-0.57226 1.2832c-0.0058 0.028507 0.02739 0.052077 0.01758 0.080078l-4.4688 12.738c-0.09952 0.28352-0.31407 0.40517-0.55664 0.41992-0.24257 0.01475-0.47233-0.08024-0.60547-0.34961l-2.4062-4.8691z" color="#000000" fill="#808080" fill-rule="evenodd" stroke-linejoin="round" style="-inkscape-stroke:none"/>
 <path d="m13.828 0.091797-12.736 4.4688c-0.66213 0.23241-1.0511 0.83479-1.0879 1.4395s0.27522 1.2516 0.9043 1.5625l5.1914 2.5645a0.50005 0.50005 0 0 0 0.57617-0.0957l8.8457-8.8457-0.3457 0.14648a0.50005 0.50005 0 0 0 0.3457-0.85352c0.0091 0.009096-2.87e-4 -0.00127-0.02539-0.025391-0.09388-0.089737-0.24399-0.012493-0.35352-0.076172l0.01758-0.044922a0.50005 0.50005 0 0 0-0.07617 0.03125c-0.39663-0.21047-0.82049-0.42409-1.2559-0.27148zm0.33203 0.94336c0.028-0.00982 0.05157 0.023341 0.08008 0.017578l-8.0195 8.0195-4.8691-2.4062c-0.26936-0.13314-0.36436-0.3629-0.34961-0.60547 0.01475-0.24257 0.13641-0.45713 0.41992-0.55664z" color="#000000" fill="#808080" fill-rule="evenodd" stroke-linejoin="round" style="-inkscape-stroke:none"/>
</svg>
