<?xml version="1.0" encoding="UTF-8" standalone="no"?>
<svg
   height="16.000032"
   id="svg7384"
   version="1.1"
   width="16.000046"
   sodipodi:docname="thunderbird-mail-symbolic.svg"
   inkscape:version="1.2.2 (b0a8486541, 2022-12-01)"
   xmlns:inkscape="http://www.inkscape.org/namespaces/inkscape"
   xmlns:sodipodi="http://sodipodi.sourceforge.net/DTD/sodipodi-0.dtd"
   xmlns="http://www.w3.org/2000/svg"
   xmlns:svg="http://www.w3.org/2000/svg"
   xmlns:rdf="http://www.w3.org/1999/02/22-rdf-syntax-ns#"
   xmlns:cc="http://creativecommons.org/ns#"
   xmlns:dc="http://purl.org/dc/elements/1.1/"
   xmlns:osb="http://www.openswatchbook.org/uri/2009/osb">
  <sodipodi:namedview
     id="namedview22"
     pagecolor="#505050"
     bordercolor="#eeeeee"
     borderopacity="1"
     inkscape:showpageshadow="0"
     inkscape:pageopacity="0"
     inkscape:pagecheckerboard="0"
     inkscape:deskcolor="#505050"
     showgrid="false"
     inkscape:zoom="16"
     inkscape:cx="7.03125"
     inkscape:cy="12.125"
     inkscape:window-width="1312"
     inkscape:window-height="699"
     inkscape:window-x="0"
     inkscape:window-y="0"
     inkscape:window-maximized="1"
     inkscape:current-layer="svg7384" />
  <metadata
     id="metadata20854">
    <rdf:RDF>
      <cc:Work
         rdf:about="">
        <dc:title />
        <dc:format>image/svg+xml</dc:format>
        <dc:type
           rdf:resource="http://purl.org/dc/dcmitype/StillImage" />
      </cc:Work>
    </rdf:RDF>
  </metadata>
  <defs
     id="defs7386">
    <linearGradient
       id="linearGradient5606"
       osb:paint="solid">
      <stop
         id="stop5608"
         offset="0"
         style="stop-color:#000000;stop-opacity:1;" />
    </linearGradient>
    <linearGradient
       id="linearGradient4526"
       osb:paint="solid">
      <stop
         id="stop4528"
         offset="0"
         style="stop-color:#ffffff;stop-opacity:1;" />
    </linearGradient>
    <linearGradient
       id="linearGradient3600-4"
       osb:paint="gradient">
      <stop
         id="stop3602-7"
         offset="0"
         style="stop-color:#f4f4f4;stop-opacity:1" />
      <stop
         id="stop3604-6"
         offset="1"
         style="stop-color:#dbdbdb;stop-opacity:1" />
    </linearGradient>
  </defs>
  <g
     id="layer9"
     label="status"
     style="display:inline"
     transform="translate(-753.00024,187)" />
  <g
     id="layer2"
     style="display:inline"
     transform="translate(-512.00004,-180)" />
  <g
     id="layer4"
     style="display:inline"
     transform="translate(-512.00004,-180)" />
  <g
     id="g1812"
     style="display:inline"
     transform="translate(-512.00004,-180)" />
  <g
     id="g6217"
     style="display:inline"
     transform="translate(-512.00004,-180)" />
  <g
     id="layer3"
     style="display:inline"
     transform="translate(-512.00004,-180)" />
  <g
     id="layer1"
     style="display:inline"
     transform="translate(-512.00004,-180)" />
  <path
     id="path5064"
     style="color:#000000;fill:#808080;fill-opacity:1;fill-rule:evenodd;stroke-width:0.98533;stroke-linecap:round;stroke-linejoin:round;stroke-miterlimit:6;-inkscape-stroke:none"
     d="M 5.8046741,5.0494546e-7 A 0.50005,0.48548648 0 0 0 5.3105331,0.41527744 c -0.0018,0.0121958 -9.53e-4,0.00626 -0.00195,0.0132737 C 5.1878791,0.9929874 4.8076341,1.4731508 4.2753771,1.7236843 a 0.50005,0.48548648 0 0 0 -0.00977,0.0038 c -0.32434,0.160444 -0.635181,0.345963 -0.929687,0.5537026 -0.294506,0.207698 -0.570695,0.4365678 -0.828125,0.6864396 a 0.50005,0.48548648 0 0 0 -0.00195,0.00189 c -0.257374,0.2499288 -0.493098,0.5180507 -0.707032,0.804006 -0.213968,0.2859265 -0.405053,0.5877136 -0.570312,0.9026112 -0.165284,0.3148824 -0.30350902,0.6423491 -0.41601602,0.9784608 -0.012824,0.038313 -0.024969,0.077148 -0.037109,0.1156708 A 0.50005,0.48548648 0 0 1 1.2167861,6.1589949 c 0.065762,0.3438849 0.162739,0.6791005 0.287109,1.003112 0.011462,-0.1091641 0.023314,-0.2175374 0.041016,-0.3261536 0.04875,-0.298832 0.122439,-0.5940166 0.21875,-0.8817526 0.09631,-0.2877325 0.213973,-0.566679 0.355469,-0.8362427 0.14148,-0.2695873 0.30511,-0.5288944 0.488281,-0.7736667 0.183145,-0.2448013 0.387096,-0.4743824 0.607422,-0.6883357 0.220387,-0.2139145 0.456852,-0.4119151 0.708984,-0.5897313 0.249483,-0.1759793 0.512563,-0.3320095 0.78711,-0.4683718 l 0.00586,-0.0038 c 0.587877,-0.2785063 0.988322,-0.7727836 1.269531,-1.3311618 0.03094,0.028478 0.061627,0.056045 0.091797,0.085331 0.04532,0.044052 0.09011,0.089688 0.132813,0.1346331 0.04314,0.045291 0.08578,0.0916 0.126953,0.1384257 0.04151,0.047162 0.082072,0.094114 0.121093,0.1422181 l -0.00586,-0.0038 c 0.0099,0.012546 0.02059,0.024088 0.03125,0.037925 l 0.00391,-0.00758 a 0.50005,0.48548648 0 0 0 0.00195,0.018962 c 0.02858,0.035035 0.057838,0.071412 0.085938,0.1080858 0.04825,0.064666 0.09541,0.1316171 0.140625,0.1991054 0.04601,0.068732 0.090171,0.1388277 0.132813,0.2104828 0.042278,0.070981 0.082419,0.1425773 0.121093,0.2161717 0.03856,0.073452 0.07506,0.1487892 0.109375,0.2237565 0.03447,0.075097 0.067298,0.1507375 0.097656,0.227549 0.03039,0.076901 0.057775,0.1548894 0.083985,0.2332378 0.02613,0.078064 0.050267,0.1573082 0.072265,0.2370302 0.013083,0.047414 0.0233,0.094943 0.035157,0.1422182 h 1.023437 C 8.3858381,3.571998 8.3806471,3.537048 8.3730331,3.5023532 8.3517431,3.4048612 8.3271671,3.3078992 8.3007671,3.2122282 8.2743771,3.1166102 8.2445471,3.0224267 8.2128771,2.927792 8.1812771,2.833325 8.1479271,2.7398204 8.1113141,2.6471481 8.0748841,2.5549891 8.0355341,2.4624785 7.9941271,2.372193 V 2.370303 C 7.9526571,2.2797872 7.9074471,2.1908184 7.8613141,2.1029327 7.8149841,2.0147791 7.7662141,1.927513 7.7148301,1.8412513 7.6638701,1.7556249 7.6106451,1.6707722 7.5546741,1.5871549 7.4991741,1.5043217 7.4410971,1.4211444 7.3808461,1.3406435 a 0.50005,0.48548648 0 0 0 -0.00195,-0.0038 c -0.03019,-0.039395 -0.06201,-0.078398 -0.09375,-0.1175671 v -0.00189 c -0.0029,-0.00375 -0.00677,-0.00757 -0.00976,-0.011378 -0.0092,-0.011904 -0.017564,-0.025505 -0.027344,-0.037925 a 0.50005,0.48548648 0 0 0 -0.00391,-0.00379 C 7.1963571,1.1054073 7.1472771,1.0462298 7.0976421,0.98983875 7.0481321,0.9335295 6.9970491,0.87921972 6.9452991,0.8248657 V 0.8229697 C 6.8931091,0.76807606 6.8386351,0.71568253 6.7851421,0.66368525 a 0.50005,0.48548648 0 0 0 0,-0.001896 C 6.7308621,0.60908931 6.6755001,0.55873735 6.6191271,0.50819343 6.5629971,0.45782614 6.5058661,0.40885337 6.4472521,0.36028656 6.3889421,0.31196267 6.3295671,0.26405907 6.2695171,0.21806841 6.2143071,0.17596919 6.1570921,0.13357017 6.0995961,0.09291645 A 0.50005,0.48548648 0 0 0 5.8046741,5.0494546e-7 Z" />
  <path
     id="path5062"
     style="color:#000000;fill:#808080;fill-opacity:1;stroke-linecap:round;stroke-linejoin:round;-inkscape-stroke:none"
     d="m 0.74022008,5.7187468 a 0.50005,0.50005 0 0 0 -0.5,0.3789063 C 0.08508908,6.718467 0.00322108,7.3572063 -1.3915159e-5,7.9980437 a 0.50005,0.50005 0 0 0 0,0.00391 C 0.00318608,9.3673419 0.35275708,10.659182 0.96483008,11.789062 a 0.50005,0.50005 0 0 0 0.18164002,0.183594 c 0.00279,-0.330666 0.349484,-0.611487 0.705079,-0.453125 0.566453,0.252594 1.163641,0.428146 1.773437,0.523437 a 0.50005,0.50005 0 0 0 -0.013672,-0.248047 c -0.01479,-0.04607 -0.026826,-0.08296 -0.035156,-0.111328 -0.061108,-0.208291 -0.10729,-0.420301 -0.138672,-0.636718 -1.5e-4,-0.0052 -0.00126,-0.01793 -0.00391,-0.03711 a 0.50005,0.50005 0 0 0 -0.025391,-0.03516 v -0.158203 l -0.5,0.27539 v -0.685546 l 0.490235,-0.312499 c 4.57e-4,-0.0079 0.00146,-0.01556 0.00195,-0.02344 A 0.50005,0.50005 0 0 0 3.2304551,9.6621067 C 2.1799901,8.7441827 1.4714371,7.4985339 1.2167831,6.1269499 A 0.50005,0.50005 0 0 0 0.74022008,5.7187468 Z M 1.1816271,8.7148405 c 0.331808,0.5464838 0.745438,1.04038 1.214843,1.4843745 -0.0021,0.06133 -0.00586,0.121092 -0.00586,0.183594 0,0.144214 0.0067,0.288829 0.017578,0.433593 v 0.27539 a 0.50005,0.50005 0 0 0 0.035157,0.06055 c -4.09e-4,-6.97e-4 -4.63e-4,-0.0012 0.00391,0.0293 6.51e-4,0.0045 0.00125,0.0091 0.00195,0.01367 -0.130321,-0.04813 -0.267565,-0.07619 -0.394531,-0.132813 a 0.50005,0.50005 0 0 0 -0.00977,-0.0039 c -0.0851,-0.03549 -0.172095,0.02851 -0.261719,0.01758 -0.358165,-0.718774 -0.50881,-1.5323369 -0.601562,-2.3613265 z" />
  <path
     id="rect833"
     style="display:inline;fill:#808080;fill-opacity:1;stroke:none;stroke-width:1.45455;stroke-linecap:round;stroke-linejoin:round;stroke-miterlimit:4;stroke-dasharray:none;stroke-opacity:1;enable-background:new"
     d="m 3.9999861,3.4999968 c -0.872711,0 -1.589844,0.7171323 -1.589844,1.5898437 v 5.8183585 c 0,0.345585 0.114652,0.66544 0.304688,0.927734 0.640645,0.19007 1.305964,0.290376 1.976562,0.291016 1.607823,-0.0062 3.162488,-0.567503 4.40625,-1.585938 0.071804,-0.06962 0.143191,-0.148482 0.212891,-0.236327 a 0.50005,0.50005 0 0 1 0.00195,-0.0098 C 9.5527821,9.9913523 9.7129971,9.6359903 9.7831861,9.259758 L 9.1640491,8.9179655 7.9999861,9.8183562 6.8378771,8.9160124 2.9081891,11.091792 V 10.406246 L 6.1191271,8.3671843 2.9101421,6.3300749 V 5.6445281 l 5.089844,2.71875 1.035156,-0.5527344 c 0.134595,0.084276 0.263553,0.1774892 0.386719,0.2792968 -0.595014,-0.4981157 -1.338053,-0.7891748 -2.125,-0.7910156 h -0.00195 c -0.186049,0.00196 -0.371895,0.020203 -0.554688,0.052734 A 0.50005,0.50005 0 0 1 6.1601421,6.7695281 c 0.180099,-0.9890309 0.854279,-1.8195679 1.785157,-2.1992188 0.0179,-0.00802 0.036647,-0.013824 0.054687,-0.021484 0.084565,-0.1054444 0.16882,-0.2124098 0.25586,-0.3046875 a 0.50005,0.50005 0 0 1 0.00391,-0.00195 c 0.288075,-0.2989857 0.622793,-0.538995 0.978515,-0.7421875 z m 5.421875,4.5898437 c 0.060874,0.050318 0.120139,0.101562 0.177735,0.15625 -0.057212,-0.0548 -0.117318,-0.1056718 -0.177735,-0.15625 z m 0.361328,1.1699219 c 0.00363,-0.019447 0.00663,-0.03904 0.00977,-0.058594 -0.00318,0.019582 -0.00613,0.039126 -0.00977,0.058594 z M 9.6054551,8.2519499 c 0.056824,0.054219 0.112721,0.1113732 0.166015,0.1699219 -0.053338,-0.058596 -0.109282,-0.1153256 -0.166015,-0.1699219 z" />
  <path
     style="color:#000000;fill:#808080;fill-opacity:1;fill-rule:evenodd;stroke-linecap:round;stroke-linejoin:round;stroke-miterlimit:6;-inkscape-stroke:none"
     d="m 12.955064,2.5410124 c -0.127608,-1.07e-5 -0.252344,0.00453 -0.376953,0.00977 -0.0013,-5.1e-6 -0.0026,-5.1e-6 -0.0039,0 -0.380895,0.018133 -0.760352,0.062637 -1.134766,0.1347657 -0.374469,0.072196 -0.743032,0.1701633 -1.103515,0.2949219 -0.0092,0.00363 -0.01835,0.00754 -0.02734,0.011719 -0.7372869,0.3034236 -1.4820959,0.6618047 -2.0488279,1.25 -0.0013,6.443e-4 -0.0026,0.00129 -0.0039,0.00195 -0.08704,0.092278 -0.171294,0.1992428 -0.255859,0.3046875 -0.01804,0.00766 -0.03679,0.013465 -0.05469,0.021484 -0.930881,0.3796521 -1.605058,1.2101851 -1.785157,2.1992187 -0.06267,0.3432614 0.236608,0.6435494 0.580078,0.5820313 0.182793,-0.032531 0.368639,-0.050775 0.554688,-0.052734 6.51e-4,1.2e-6 0.0013,-1.5e-6 0.002,0 0.949055,0.00222 1.837056,0.4226436 2.474609,1.1230469 0.02602,0.1385682 0.0518,0.276799 0.05274,0.4179688 -0.0024,0.5287639 -0.183505,1.0404557 -0.511719,1.4550778 -6.99e-4,0.0032 -0.0014,0.0065 -0.002,0.0098 -0.0697,0.08785 -0.141087,0.166704 -0.212891,0.236327 -1.243768,1.018438 -2.798424,1.579715 -4.40625,1.585938 -0.977838,-9.33e-4 -1.946109,-0.208885 -2.839843,-0.607422 -0.451192,-0.200935 -0.88954602,0.304334 -0.626953,0.722656 1.460513,2.335017 4.021225,3.755296 6.77539,3.757813 h 0.002 c 3.2347789,-0.0032 6.0682079,-1.94015 7.3164059,-4.779297 l 0.01172,-0.02149 c 0.0052,-0.01347 0.0105,-0.02752 0.01563,-0.04101 0.0025,-0.0065 0.0054,-0.01306 0.0078,-0.01953 v -0.002 c 0.08092,-0.190143 0.153522,-0.382868 0.21875,-0.576171 0.02897,-0.08655 0.05799,-0.174231 0.08398,-0.261719 v -0.0019 c 0.0515,-0.172239 0.0992,-0.3492188 0.140625,-0.5332022 6.51e-4,-6.482e-4 0.0013,-0.0013 0.0019,-0.00195 0.02087,-0.094142 0.03919,-0.1883687 0.05664,-0.2832032 0.02631,-0.1405155 0.04867,-0.2858853 0.06836,-0.4355468 2.72e-4,-0.00207 0.0017,-0.00379 0.002,-0.00586 -6.29e-4,-0.00261 -0.0013,-0.00521 -0.002,-0.00781 0.04691,-0.3398972 0.07325,-0.6822754 0.07617,-1.0253907 1.03e-4,-0.00586 1.03e-4,-0.011719 0,-0.017578 -0.0023,-0.095851 -0.0059,-0.1914062 -0.01172,-0.2871094 l -0.0019,-0.021484 v 0.070312 c -3e-5,-2.29e-4 -0.004,-0.1171565 -0.004,-0.1171565 l 0.0039,0.046875 c -0.0027,-0.1221821 -0.0073,-0.2452574 -0.01563,-0.3671875 -4.34e-4,-0.00848 -0.0011,-0.016945 -0.0019,-0.025391 v -0.00391 c -0.008,-0.067051 -0.01762,-0.1343455 -0.02734,-0.2011719 -0.016,-0.1547469 -0.03555,-0.3093365 -0.06055,-0.4628906 -0.0012,-0.00458 -0.0025,-0.00913 -0.0039,-0.013672 l 0.0039,0.023437 c -0.0052,-0.00595 -0.0026,-0.015622 -0.0039,-0.023433 -1.11e-4,-6.276e-4 1.11e-4,-0.00133 0,-0.00195 2e-6,-6.5e-4 2e-6,-0.0013 0,-0.00195 l -0.0059,-0.023437 c -0.03929,-0.2177004 -0.08539,-0.4327921 -0.14258,-0.6464909 -0.0013,-0.00327 -0.0026,-0.00653 -0.0039,-0.00977 -0.03517,-0.1215169 -0.07238,-0.24356 -0.113277,-0.3632769 -0.0052,-0.014587 -0.01106,-0.028926 -0.01758,-0.042969 -0.107613,-0.2391557 -0.255162,-0.4490266 -0.400391,-0.6621091 0.303594,-0.2081876 0.285779,-0.6619584 -0.0332,-0.8457031 -0.193244,-0.091046 -0.389809,-0.1746095 -0.589844,-0.25 -0.0013,-6.557e-4 -0.0026,-0.00131 -0.0039,-0.00195 -0.03325,-0.012205 -0.06816,-0.019493 -0.101563,-0.03125 0.06011,-0.096859 0.04751,-0.099681 0.16211,-0.2207032 0.273416,-0.2889855 0.116255,-0.7660477 -0.275387,-0.8359406 -0.210259,-0.037971 -0.420307,-0.066784 -0.632813,-0.087891 -6.5e-4,-1.3e-6 -0.0013,-1.3e-6 -0.002,0 -0.252803,-0.024091 -0.507375,-0.037109 -0.76164,-0.037109 z m 0,1 c 0.180645,0 0.3608,0.013393 0.541016,0.027344 -0.07557,0.1556572 -0.246722,0.2485719 -0.244141,0.4570312 0.003,0.2240564 0.154592,0.4187957 0.371094,0.4765625 0.180021,0.04825 0.355755,0.1075011 0.531249,0.1699219 -0.01929,0.080051 -0.09505,0.1267559 -0.08203,0.2109375 0.01356,0.085789 0.04924,0.1665657 0.103516,0.234375 0.02575,0.032259 0.05254,0.065777 0.07813,0.099609 0.174575,0.2298997 0.310153,0.4525441 0.419922,0.6933593 0.03203,0.095142 0.06193,0.1906755 0.08984,0.2871094 0.05102,0.1917441 0.09435,0.3846914 0.128906,0.5800781 l -0.002,-0.019531 c 0.0012,0.00719 0.0025,0.014352 0.0039,0.021484 l 0.05273,0.4121093 c 4.02e-4,0.00393 0.0016,0.00779 0.002,0.011719 4.95e-4,0.00717 0.0011,0.014337 0.0019,0.021484 0.0082,0.056321 0.01466,0.1134178 0.02148,0.1699218 3.96e-4,0.00328 0.0016,0.00649 0.0019,0.00977 0.0068,0.1045181 0.01161,0.2097347 0.01367,0.3144531 -1.1e-5,0.00195 -1.1e-5,0.00391 0,0.00586 -8.1e-5,0.00521 -8.1e-5,0.010417 0,0.015625 0.0053,0.08419 0.0094,0.1695798 0.01172,0.2539062 v 0.00586 c -0.0028,0.3022543 -0.02457,0.6049339 -0.06641,0.9042969 6.38e-4,0.00196 0.0013,0.00391 0.002,0.00586 -0.01655,0.1264013 -0.03809,0.2544083 -0.0625,0.3847656 -6.52e-4,6.482e-4 -0.0013,0.0013 -0.002,0.00195 -0.01527,0.08298 -0.03057,0.1656727 -0.04883,0.2480469 -0.03491,0.1547837 -0.07808,0.3099435 -0.125,0.4667969 -0.02288,0.07708 -0.04674,0.154227 -0.07227,0.230468 -0.06059,0.179567 -0.127047,0.353474 -0.199219,0.521484 -0.0021,0.0065 -0.004,0.01298 -0.0059,0.01953 -6.51e-4,6.48e-4 -0.0013,0.0013 -0.002,0.0019 -0.0039,0.01033 -0.0078,0.02094 -0.01172,0.03125 -0.0013,6.44e-4 -0.0026,0.0013 -0.0039,0.002 -1.091184,2.482007 -3.564888,4.178046 -6.4003889,4.181641 -1.858336,-0.0017 -3.472742,-0.909418 -4.765625,-2.183594 0.489337,0.09361 0.952089,0.310069 1.453125,0.310547 h 0.002 c 1.793854,-0.0064 3.521495,-0.636515 4.925782,-1.748047 0.152254,-0.117197 0.3996069,-0.446706 0.5351359,-0.61719 0.403369,-0.565395 0.669299,-1.2246322 0.671875,-1.9218745 10e-7,-6.5e-4 10e-7,-0.0013 0,-0.00195 10e-7,-6.5e-4 10e-7,-0.0013 0,-0.00195 -0.0014,-0.2675871 -0.03667,-0.533314 -0.101379,-0.792967 -0.0184,-0.074776 -0.05383,-0.1442906 -0.103516,-0.203125 C 9.8618501,6.9513844 8.7707221,6.4594006 7.6152201,6.3691374 c 0.212655,-0.3233196 0.337233,-0.7222273 0.707032,-0.8730469 0.0066,-0.00247 0.01308,-0.00507 0.01953,-0.00781 0.04397,-0.020075 0.08924,-0.037746 0.134766,-0.054687 0.09153,-0.034359 0.170973,-0.094793 0.228515,-0.1738281 0.08009,-0.1094116 0.173353,-0.2158721 0.275391,-0.3242187 0.393721,-0.4086317 1.0101569,-0.7293311 1.6992179,-1.0136719 0.310565,-0.1066809 0.626675,-0.1917213 0.949219,-0.2539062 0.326436,-0.062886 0.658232,-0.1031512 0.990234,-0.1191407 0.113471,-0.00477 0.225226,-0.00782 0.335938,-0.00781 z m 1.9375,3.2363281 c 0.004,0.024595 0.006,0.049584 0.0098,0.074219 l -0.0078,-0.070312 z"
     id="path5190"
     sodipodi:nodetypes="scccccccccccccccccccccsccccccccccccscccccccccccccccccccccccccccccccccssccccccccccccccccsccccccccccccccccccccscccsccccccccccccccccccc" />
</svg>
