<svg version="1.1" viewBox="0 0 16 16" xmlns="http://www.w3.org/2000/svg" xmlns:osb="http://www.openswatchbook.org/uri/2009/osb">
 <g fill="#808080">
  <path d="m8 16a8 8 0 0 1-8-8 8 8 0 0 1 8-8 8 8 0 0 1 8 8 8 8 0 0 1-8 8zm0-1a7 7 0 0 0 7-7 7 7 0 0 0-7-7 7 7 0 0 0-7 7 7 7 0 0 0 7 7z"/>
  <path d="m8.125 6.5c-0.8225 0-1.5 0.6775-1.5 1.5s0.6775 1.5 1.5 1.5 1.5-0.6775 1.5-1.5-0.6775-1.5-1.5-1.5z" color="#000000" stroke-dashoffset="1.9" stroke-linecap="square" stroke-miterlimit="1.5" style="-inkscape-stroke:none"/>
  <g stroke-linecap="round" stroke-linejoin="round">
   <path d="m8.125 4.5c-1.9271 0-3.5 1.5729-3.5 3.5s1.5729 3.5 3.5 3.5c1.9271 0 3.5-1.5729 3.5-3.5s-1.5729-3.5-3.5-3.5zm0 1c1.3866 0 2.5 1.1134 2.5 2.5s-1.1134 2.5-2.5 2.5-2.5-1.1134-2.5-2.5 1.1134-2.5 2.5-2.5z" color="#000000" style="-inkscape-stroke:none"/>
   <path d="m8.125 2.5c-3.0316 0-5.5 2.4684-5.5 5.5 0 3.0316 2.4684 5.5 5.5 5.5 3.0316 0 5.5-2.4684 5.5-5.5 0-3.0316-2.4684-5.5-5.5-5.5zm0 1c2.4912 0 4.5 2.0088 4.5 4.5 0 2.4912-2.0088 4.5-4.5 4.5-2.4912 0-4.5-2.0088-4.5-4.5 0-2.4912 2.0088-4.5 4.5-4.5z" color="#000000" style="-inkscape-stroke:none"/>
   <path d="m8.125 2.25c-3.1694 0-5.75 2.5806-5.75 5.75s2.5806 5.75 5.75 5.75z" color="#000000" enable-background="new" stroke-width="1.0454" style="-inkscape-stroke:none"/>
  </g>
 </g>
</svg>
