<svg version="1.1" viewBox="0 0 16 16" xmlns="http://www.w3.org/2000/svg" xmlns:osb="http://www.openswatchbook.org/uri/2009/osb">
 <path d="m4.4451 1.6212e-5c-1.6832 0-2.7629 0.025701-3.5313 0.625-0.38416 0.29965-0.6253 0.74023-0.75195 1.2539-0.12665 0.51368-0.16211 1.117-0.16211 1.8711v8.5c0 0.75405 0.03546 1.3574 0.16211 1.8711 0.12665 0.51368 0.36779 0.95426 0.75195 1.2539 0.76832 0.5993 1.8481 0.625 3.5313 0.625h7.1094c1.6836 0 2.7664-0.02605 3.5371-0.625 0.38533-0.29947 0.62808-0.73937 0.75391-1.2539 0.1257-0.514 0.1587-1.1176 0.1543-1.8711v-8.5c0.004398-0.75347-0.028597-1.3571-0.1543-1.8711-0.12583-0.51453-0.36857-0.95443-0.75391-1.2539-0.77066-0.59894-1.8535-0.625-3.5371-0.625zm0 1h7.1094c1.6534 0 2.552 0.12512 2.9238 0.41406 0.18589 0.14447 0.30574 0.33207 0.39648 0.70312 0.09074 0.37105 0.12927 0.9098 0.125 1.6289v8.5079c0.0043 0.71911-0.03426 1.2579-0.125 1.6289-0.09074 0.37105-0.21059 0.55865-0.39648 0.70312-0.37179 0.2889-1.2704 0.41402-2.9238 0.41402h-7.1094c-1.653 0-2.546-0.12548-2.916-0.41406-0.18498-0.14429-0.30479-0.33122-0.39648-0.70312-0.091695-0.37191-0.13281-0.91317-0.13281-1.6328v-8.5c0-0.71964 0.04112-1.2609 0.13281-1.6328 0.0917-0.37191 0.2115-0.55883 0.39648-0.70312 0.36997-0.28858 1.263-0.41406 2.916-0.41406z" color="#000000" fill="#808080" style="-inkscape-stroke:none"/>
 <g transform="translate(0 .50003)" fill="#808080">
  <path d="m7.3228 13c-0.27272-0.56818-0.53407-1.144-0.78406-1.7273-0.25-0.57573-0.50389-1.1818-0.76146-1.8182-0.24999-0.63635-0.77266-2.0227-0.77266-2.0227l-0.58972-1.4318h1.4951l0.54088 1.4862 3.049 0.40669 0.64786-1.8928h1.489l-0.64483 1.409s-0.5265 1.3826-0.78407 2.0114c-0.25 0.63637-0.50004 1.2462-0.75003 1.8295s-0.79538 1.75-0.79538 1.75h-0.67348zm1.2044-2.875c0.27272-0.67422 0.55297-1.4015 0.84086-2.1818l-2.6865 0.10223c0.23484 0.65908 0.46972 1.2954 0.70456 1.909 0.19355 0.496 0.39473 0.97439 0.60278 1.4366v9e-3s0.30492-0.6989 0.53831-1.2749z" enable-background="new"/>
  <rect transform="scale(1,-1)" x="4" y="-9.004" width="8" height="1.5556" rx=".77142" ry=".77778" color="#000000"/>
  <rect x="7.25" y="2" width="1.5" height="4.4485" enable-background="new" style="-inkscape-stroke:none;paint-order:stroke fill markers"/>
 </g>
</svg>
