<svg version="1.1" viewBox="0 0 16 16" xmlns="http://www.w3.org/2000/svg" xmlns:osb="http://www.openswatchbook.org/uri/2009/osb">
 <path d="m3.9942 2.0001c-1.2582 0.0145-2.1789-0.0306-2.9316 0.38477-0.37637 0.20766-0.67323 0.55938-0.83789 0.99804-0.16467 0.43867-0.22461 0.95958-0.22461 1.6172v7c0 0.65761 0.0599 1.1785 0.22461 1.6172 0.16467 0.43866 0.46152 0.79039 0.83789 0.99804 0.75275 0.41532 1.6734 0.3702 2.9316 0.38477h4e-3 8.0039 4e-3c1.2582-0.0145 2.1789 0.0306 2.9316-0.38477 0.37637-0.20766 0.67322-0.55938 0.83789-0.99804 0.16413-0.43867 0.22443-0.95958 0.22443-1.6172v-7c0-0.65761-0.0599-1.1785-0.22461-1.6172-0.16466-0.43866-0.46152-0.79038-0.83789-0.99804-0.75275-0.41534-1.6734-0.37025-2.9316-0.38477h-4e-3 -8.0039zm2.9023 1.0918c1.749-4e-3 3.4973-1e-3 5.2461 0.0215 0.86117 0.14671 2.161-0.34154 2.6738 0.66797 0.25574 2.924 0.0694 5.882 0.1289 8.8184-0.0871 0.38019-0.18482 1.1436-0.73047 1.1289-3.5364 0.23538-7.0915 0.10846-10.635 0.13476-0.78646-0.11198-1.9999 0.2903-2.4043-0.6914-0.1705-2.4656-0.0888-4.9496-0.0898-7.4356 0.12175-0.84105-0.29598-2.0645 0.6875-2.5117 1.6892-0.21162 3.4084-0.0775 5.123-0.13281z" color="#000000" color-rendering="auto" dominant-baseline="auto" fill="#808080" image-rendering="auto" shape-rendering="auto" solid-color="#000000" style="font-feature-settings:normal;font-variant-alternates:normal;font-variant-caps:normal;font-variant-ligatures:normal;font-variant-numeric:normal;font-variant-position:normal;isolation:auto;mix-blend-mode:normal;shape-padding:0;text-decoration-color:#000000;text-decoration-line:none;text-decoration-style:solid;text-indent:0;text-orientation:mixed;text-transform:none;white-space:normal"/>
 <path d="m6.9336 4.2198a0.28003 0.28003 0 0 0-0.2793 0.2793v2.3867h-0.87109a0.28003 0.28003 0 0 0-0.25977 0.38281s1.0962 2.833 2.25 4.4121a0.28003 0.28003 0 0 0 0.011719 0.0059h-2.9844a0.28003 0.28003 0 0 0-0.28125 0.2793v0.5332a0.28003 0.28003 0 0 0 0.28125 0.28125h6.4004a0.28003 0.28003 0 0 0 0.2793-0.28125v-0.53324a0.28003 0.28003 0 0 0-0.2793-0.2793h-2.9844a0.28003 0.28003 0 0 0 0.00977-0.0059c1.1538-1.579 2.25-4.4121 2.25-4.4121a0.28003 0.28003 0 0 0-0.25976-0.38281h-0.86914v-2.3867a0.28003 0.28003 0 0 0-0.28125-0.2793zm0.81445 1.0938h0.50586v2.3867a0.28003 0.28003 0 0 0 0.2793 0.2793h0.40039c-0.20935 0.49877-0.51696 1.1809-0.93555 1.9277-0.42616-0.74908-0.74579-1.4324-0.95898-1.9277h0.42773a0.28003 0.28003 0 0 0 0.28125-0.2793z" color="#000000" fill="#808080" style="-inkscape-stroke:none"/>
</svg>
