<svg version="1.1" viewBox="0 0 16 16" xmlns="http://www.w3.org/2000/svg" xmlns:osb="http://www.openswatchbook.org/uri/2009/osb">
 <g transform="translate(17 -3)" fill="#808080">
  <path d="m-9.5957 6.5859-1.4648 5.6504-1.0781-3.2363h-4.2891v1h3.5684l1.9199 5.7617 1.5137-5.8438 0.98047 2.6426 1.0352-2.7852 1.0469 3.2246h4.791v-1h-4.0645l-1.709-5.2695-1.0996 2.959z" color="#000000" style="-inkscape-stroke:none"/>
  <path d="m-12.555 3c-1.6832 0-2.7629 0.025701-3.5312 0.625-0.38416 0.29965-0.6253 0.74023-0.75195 1.2539-0.12665 0.51368-0.16211 1.117-0.16211 1.8711v8.5c0 0.75405 0.03546 1.3574 0.16211 1.8711 0.12665 0.51368 0.36779 0.95426 0.75195 1.2539 0.76832 0.5993 1.848 0.625 3.5312 0.625h7.1094c1.6836 0 2.7664-0.02605 3.5371-0.625 0.38533-0.29947 0.62808-0.73937 0.75391-1.2539 0.1257-0.514 0.1587-1.1176 0.1543-1.8711v-8.5c0.0043987-0.75347-0.028596-1.3571-0.1543-1.8711-0.12583-0.51453-0.36857-0.95443-0.75391-1.2539-0.77066-0.59894-1.8535-0.625-3.5371-0.625zm0 1h7.1094c1.6534 0 2.552 0.12512 2.9238 0.41406 0.18589 0.14447 0.30574 0.33207 0.39648 0.70312 0.090742 0.37105 0.12927 0.9098 0.125 1.6289v8.5079c0.00428 0.71911-0.03426 1.2579-0.125 1.6289-0.09074 0.37105-0.21059 0.55865-0.39648 0.70312-0.37179 0.2889-1.2704 0.41402-2.9238 0.41402h-7.1094c-1.653 0-2.546-0.12548-2.916-0.41406-0.18498-0.14429-0.30479-0.33122-0.39648-0.70312-0.091695-0.37191-0.13281-0.91317-0.13281-1.6328v-8.5c0-0.71964 0.04112-1.2609 0.13281-1.6328 0.0917-0.37191 0.2115-0.55883 0.39648-0.70312 0.36997-0.28858 1.263-0.41406 2.916-0.41406z" color="#000000" style="-inkscape-stroke:none"/>
 </g>
</svg>
