<svg version="1.1" viewBox="0 0 16 16" xmlns="http://www.w3.org/2000/svg" xmlns:osb="http://www.openswatchbook.org/uri/2009/osb">
 <g transform="matrix(1.0667 0 0 1.0667 18.371 .76003)" fill="#808080" stroke-width=".64935">
  <path d="m-17.222 4.1901 2.0942 5.1948h1.4935l2.0617-5.1948h-1.4123l-1.4123 3.4253-1.3961-3.4253z"/>
  <path d="m-10.127 4.1895-1.4141 3.4258-0.0039-0.013672-0.74219 1.7832h1.4941l0.66796-1.6348-0.0039-0.00781 0.71484-1.7656 0.00391 0.00586 0.00391-0.011719 0.00586 0.011719 0.00391-0.00586 1.3789 3.4082h1.4941l1.3809-3.4082 0.00195 0.00586 0.019531-0.046875 1.4062 3.4492h1.4922c-0.74099-1.7246-1.4705-3.4547-2.1738-5.1953h-1.4609l-1.4082 3.4141-0.00391 0.00977-0.00586-0.00977-1.4082-3.4141z" enable-background="new"/>
 </g>
</svg>
