<svg version="1.1" viewBox="0 0 16 16" xmlns="http://www.w3.org/2000/svg" xmlns:osb="http://www.openswatchbook.org/uri/2009/osb">
 <path d="m8 16a8 8 0 0 1-8-8 8 8 0 0 1 8-8 8 8 0 0 1 8 8 8 8 0 0 1-8 8zm0-1a7 7 0 0 0 7-7 7 7 0 0 0-7-7 7 7 0 0 0-7 7 7 7 0 0 0 7 7z" fill="#808080"/>
 <path d="m4.22 4.2532c-0.9506 0.04855-1.487 1.059-1.0117 1.8887 0.47092 0.82524 0.9451 1.646 1.416 2.4668 0.77459 1.3504 1.5506 2.7067 2.334 4.0527 0.25965 0.4413 0.66331 0.65641 1.1738 0.62109 0.45772-0.0353 0.79263-0.27419 1.0215-0.67578 1.2367-2.1536 2.4742-4.302 3.7109-6.4512 0.14966-0.26037 0.21007-0.53832 0.16602-0.83398-0.08802-0.68844-0.791-1.1872-1.4688-1.0371-0.8319 0.18535-1.2423 1.0466-0.85938 1.8145 0.14089 0.27802 0.20879 0.57663 0.21289 0.92969-4e-3 0.03971-0.0094 0.12377-0.01758 0.20313-0.12323 1.09-1.08 1.8372-2.1055 1.7754-0.72618-0.04414-1.2709-0.39337-1.6406-1.0156-0.25526-0.42364-0.49719-0.86049-0.74805-1.293-0.34768-0.60018-0.69139-1.205-1.0391-1.8008-0.25527-0.4369-0.6428-0.67099-1.1445-0.64453z" fill="#808080"/>
</svg>
