<svg version="1.1" viewBox="0 0 16 16" xmlns="http://www.w3.org/2000/svg" xmlns:osb="http://www.openswatchbook.org/uri/2009/osb">
 <g fill="#808080">
  <path d="m5.6736 1.4187c-0.21722 0.096712-0.42816 0.20696-0.63159 0.33008-0.069388 1.0092-0.090886 2.0043-0.050781 2.9739 0.17173-0.092706 0.3642-0.15075 0.57128-0.15075 0.082363 0 0.16319 0.00959 0.24122 0.02535-0.039894-1.0227-0.023644-2.0771 0.066625-3.1627zm5.0067 0.16821c-0.01373 0.61495-0.06898 1.2215-0.16504 1.8186 0.10541-0.030063 0.21408-0.052406 0.32849-0.052406 0.17392 0 0.33832 0.039487 0.48877 0.10632 0.06898-0.44545 0.11347-0.89676 0.14282-1.3521-0.25003-0.19537-0.51597-0.36948-0.79504-0.5205zm-7.5664 2.1154c-0.14137 0.23562-0.26547 0.48118-0.37134 0.73474 0.49367 0.34214 0.99583 0.68383 1.5187 1.0188-0.66794 0.27617-1.3111 0.61767-1.9408 0.99976-0.00325 0.0481-0.0056875 0.096241-0.008125 0.14441 0.0024375 0.25599 0.021938 0.51154 0.058744 0.7649 0.66642-0.43032 1.3605-0.78892 2.0789-1.0902-0.066788-0.14979-0.10638-0.31376-0.10632-0.48718-1.3e-4 -0.38789 0.18908-0.7322 0.47608-0.95532-0.58296-0.36949-1.1501-0.74864-1.7059-1.1299zm9.8976 0.21741c-0.37107 0.016412-0.75132 0.024212-1.1172 0.045987 0.10424 0.17874 0.16828 0.38298 0.16821 0.60303 2.4e-5 0.068819-0.0094 0.13575-0.02064 0.20154 0.42966-0.024538 0.87778-0.035181 1.3171-0.052406-0.09528-0.27456-0.21146-0.54142-0.34753-0.79822zm-3.3071 0.23169c-1.1918 0.1357-2.3451 0.33655-3.4531 0.63635 0.24265 0.16752 0.41983 0.42092 0.49194 0.71411 0.9474-0.23914 1.935-0.40694 2.958-0.52686-0.046312-0.12777-0.076212-0.26332-0.076131-0.40625-4.87e-5 -0.14698 0.03055-0.28654 0.079381-0.41736zm0.32532 1.314c-0.12374 0.3848-0.26219 0.76344-0.41577 1.1362 0.00406-3.25e-5 0.00731-0.00162 0.011131-0.00162 0.28524 0 0.5465 0.10306 0.75537 0.26977 0.14583-0.35844 0.27985-0.72154 0.3999-1.0918-0.28736-0.015275-0.54872-0.12996-0.75061-0.31262zm-3.2675 0.5094c-0.044931 0.28363-0.18814 0.53373-0.39514 0.71728 0.66601 0.36141 1.3495 0.69704 2.0519 0.99817 0.030225-0.28626 0.15628-0.54511 0.3523-0.73792-0.68478-0.29401-1.3544-0.62109-2.009-0.97754zm-0.72363 0.92835c-0.14698 0.063212-0.30718 0.09997-0.47608 0.09997-0.12727 0-0.24759-0.026569-0.36341-0.063456 0.10889 0.66847 0.26429 1.3127 0.46021 1.9329 0.20205-0.14812 0.44853-0.23804 0.7157-0.23804 0.021694 0 0.042088 0.00488 0.063456 0.0065-0.17374-0.55174-0.29812-1.1371-0.3999-1.7377zm4.7941 0.80615c0.0032 0.035506 0.01113 0.070037 0.01113 0.10632 9e-5 0.25392-0.08019 0.48978-0.21582 0.68555 0.81696 0.23792 1.6561 0.4101 2.5153 0.51099 0.12008-0.25245 0.22139-0.51341 0.3031-0.78076-0.89024-0.091504-1.7617-0.2725-2.6136-0.5221zm-2.401 0.35072c-0.39062 0.34014-0.81998 0.63017-1.2759 0.86645 0.21071 0.17779 0.36145 0.42146 0.41418 0.70142 0.45428-0.24013 0.89199-0.52942 1.2965-0.87121-0.21661-0.17447-0.3766-0.41604-0.43482-0.69665zm-3.2532 1.5821c-0.1177 0.029656-0.23815 0.071419-0.35388 0.095217-0.52271 0.10747-0.99808 0.15487-1.4346 0.1809 0.19521 0.27159 0.41399 0.52542 0.65381 0.75855 0.30412-0.03575 0.61414-0.074994 0.94421-0.14282 0.10832-0.022262 0.223-0.062562 0.33325-0.088871-0.1016-0.17705-0.16511-0.37806-0.16504-0.59509-2.44e-5 -0.071012 0.010319-0.14011 0.022181-0.20789zm2.1265 0.98071c-0.17921 0.2136-0.4257 0.36781-0.70935 0.42053 0.19139 0.32697 0.8034 1.4561 1.0359 1.7565l0.6427-0.49829c-0.21027-0.2717-0.79877-1.3763-0.96929-1.6788z" color="#000000" color-rendering="auto" dominant-baseline="auto" fill-rule="evenodd" image-rendering="auto" opacity=".5" shape-rendering="auto" solid-color="#000000" style="font-feature-settings:normal;font-variant-alternates:normal;font-variant-caps:normal;font-variant-ligatures:normal;font-variant-numeric:normal;font-variant-position:normal;isolation:auto;mix-blend-mode:normal;shape-padding:0;text-decoration-color:#000000;text-decoration-line:none;text-decoration-style:solid;text-indent:0;text-orientation:mixed;text-transform:none;white-space:normal"/>
  <path d="m8 0c-3.6439 0-6.5996 2.9557-6.5996 6.5996 0 3.6439 2.9557 6.5996 6.5996 6.5996 3.6439 0 6.5996-2.9557 6.5996-6.5996 0-3.6439-2.9557-6.5996-6.5996-6.5996zm0 1.0117c3.0871 0 5.5879 2.5008 5.5879 5.5879s-2.5008 5.5879-5.5879 5.5879c-3.0871 0-5.5879-2.5008-5.5879-5.5879s2.5008-5.5879 5.5879-5.5879zm2.8438 2.6484c-0.50266 0-0.91228 0.40699-0.91211 0.9082-1.709e-4 0.50122 0.40945 0.91016 0.91211 0.91016 0.50266 1e-7 0.91228-0.40894 0.91211-0.91016 1.71e-4 -0.50122-0.40944-0.9082-0.91211-0.9082zm-5.2812 1.2188c-0.50266 0-0.91228 0.40699-0.91211 0.9082-1.709e-4 0.50122 0.40944 0.91016 0.91211 0.91016 0.50266 1e-7 0.91228-0.40894 0.91211-0.91016 1.709e-4 -0.50122-0.40944-0.9082-0.91211-0.9082zm4.0625 2.0273c-0.50266 0-0.91228 0.40894-0.91211 0.91016-1.76e-4 0.50122 0.40944 0.9082 0.91211 0.9082 0.50267 0 0.91228-0.40698 0.91211-0.9082 1.71e-4 -0.50122-0.40944-0.91016-0.91211-0.91016zm-3.25 2.0352c-0.50266 0-0.91228 0.40699-0.91211 0.9082-1.709e-4 0.50122 0.40944 0.91016 0.91211 0.91016s0.91228-0.40894 0.91211-0.91016c1.709e-4 -0.50122-0.40944-0.9082-0.91211-0.9082z" color="#000000" stroke-linecap="square" stroke-linejoin="round" style="-inkscape-stroke:none"/>
  <path d="m3 15v1h10v-1z" style="font-feature-settings:normal;font-variant-alternates:normal;font-variant-caps:normal;font-variant-ligatures:none;font-variant-numeric:normal;font-variant-position:normal;isolation:auto;mix-blend-mode:normal;shape-padding:0;text-decoration-color:#000000;text-decoration-line:none;text-decoration-style:solid;text-indent:0;text-transform:none"/>
  <path d="m7 12.481v1.519h2v-1.519" color="#000000" style="font-feature-settings:normal;font-variant-alternates:normal;font-variant-caps:normal;font-variant-ligatures:none;font-variant-numeric:normal;font-variant-position:normal;isolation:auto;mix-blend-mode:normal;shape-padding:0;text-decoration-color:#000000;text-decoration-line:none;text-decoration-style:solid;text-indent:0;text-transform:none;white-space:normal"/>
 </g>
</svg>
