<svg version="1.1" viewBox="0 0 16 16" xmlns="http://www.w3.org/2000/svg">
 <path d="m9.1834 15.31c-0.49534-0.25247-0.68115-0.71286-0.48111-1.1916 0.21619-0.51742 0.67281-0.66799 2.0257-0.66799 0.62061 0 1.1284-0.0378 1.1284-0.08353 0-0.04611-0.35066-0.43408-0.77926-0.86249l-0.77926-0.77896h-1.7627v-2.0484h0.40712c0.51312 0 0.66424-0.15194 0.66424-0.66845v-0.4097h2.1427v1.7843l1.607 1.6064v-1.1597c0-1.4118 0.1443-1.844 0.69253-2.0745 0.33419-0.1406 0.4235-0.1406 0.75767 0 0.62945 0.26457 0.69253 0.56466 0.69253 3.2936 0 3.6012 0.15352 3.4501-3.5053 3.4498-2.1112-1.13e-4 -2.4907-0.02646-2.8104-0.1886zm-4.2681-3.747c-0.50385-0.22035-0.66559-0.69086-0.66559-1.9364v-1.0277h2.1427v0.4097c0 0.51636 0.15114 0.66845 0.66424 0.66845h0.40712v2.0484l-1.0981-0.0038c-0.70721-0.0025-1.2235-0.05894-1.4504-0.15834zm-3.7498-4.3125c-0.59922-0.26192-0.66559-0.58983-0.66559-3.2876 0-2.7255 0.06357-3.0291 0.68909-3.2922 0.54249-0.22828 5.0429-0.22828 5.5853-1.5118e-4 0.78313 0.3292 0.80693 1.3114 0.04123 1.7019-0.28365 0.14476-0.63741 0.1886-1.5213 0.1886-0.63345 7.56e-5 -1.1517 0.034016-1.1517 0.078614 0 0.043087 0.34832 0.43117 0.77406 0.86249l0.77406 0.78418h1.7731v2.0484h-0.40712c-0.51312 0-0.66424 0.15194-0.66424 0.66845v0.40966h-2.1427v-1.7843l-0.80352-0.80323-0.80352-0.80319v1.1597c0 1.409-0.14464 1.8442-0.68909 2.0731-0.44107 0.18557-0.35218 0.18595-0.78804-0.00378zm8.441-0.24718c0-0.51636-0.15111-0.66845-0.66424-0.66845h-0.40712v-2.0484h1.7731l0.77406-0.78418c0.42573-0.43132 0.77405-0.81944 0.77405-0.86249 0-0.043087-0.51827-0.078614-1.1517-0.078614-0.88389-1.135e-4 -1.2377-0.044221-1.5213-0.1886-0.76569-0.39054-0.74189-1.3726 0.04123-1.7019 0.54242-0.22791 5.0428-0.22791 5.5853 1.5118e-4 0.62554 0.26306 0.68909 0.56663 0.68909 3.2921 0 2.729-0.06308 3.029-0.69253 3.2936-0.33418 0.1406-0.4235 0.1406-0.75767 0-0.54823-0.23055-0.69253-0.66278-0.69253-2.0746v-1.1597l-0.80352 0.80323-0.80352 0.80319v1.7843h-2.1427z" fill="#808080"/>
</svg>
