<svg version="1.1" viewBox="0 0 16 16" xmlns="http://www.w3.org/2000/svg" xmlns:osb="http://www.openswatchbook.org/uri/2009/osb">
 <path d="m8.2813 0.21882c-0.03379-7.2305e-4 -0.06851 0.002373-0.10208 0.008333-0.06451 0.011853-0.12785 0.036019-0.18333 0.070833l-0.0021 0.002083c-0.24455 0.15689-0.31122 0.46337-0.15417 0.70625 1.7708 2.7423 2.2262 4.909 2.0375 6.7958l-0.0021 0.029167-0.0063 0.027083c-0.37166 1.7603-0.97539 2.891-1.7312 3.5854-0.75586 0.69439-1.6444 0.90625-2.4125 0.90625-0.47738 0-0.91823-0.24418-1.1438-0.59583-0.22552-0.35165-0.27571-0.75549-0.24583-1.1479 0.05975-0.78485 0.42125-1.6039 1.1271-2.0562l0.0021-0.00208h0.0021c0.67974-0.4244 1.492-0.69375 2.2229-0.69375 0.29158 2e-7 0.51458-0.22442 0.51458-0.5125 0-0.28834-0.223-0.51042-0.51458-0.51042-0.60762 0-1.2107 0.12716-1.7812 0.35l-0.92083 0.36042 0.20417-0.96667c0.11703-0.55203 0.15506-1.1144 0.0125-1.7104v-0.00208c-0.21474-0.90051-0.84297-1.8045-2.0333-2.7292-0.10786-0.083934-0.24512-0.121-0.38125-0.10417-0.13625 0.016852-0.25792 0.086501-0.34167 0.19375-0.17799 0.22825-0.13987 0.5387 0.08958 0.71667 1.076 0.83573 1.5175 1.5441 1.6646 2.1604 0.1503 0.6295 0.02112 1.2558-0.22083 2-0.30309 0.98172-0.63472 1.8263-0.77083 2.5687-0.06264 0.34202-0.07163 0.75803-0.09167 1.1271l-0.06458 1.1729-0.84167-0.81875c-0.85294-0.83134-1.1833-1.9694-1.1833-3.425-1.01e-4 -0.2882-0.22344-0.51259-0.51458-0.5125-0.29113 2.343e-4 -0.5145 0.22442-0.51458 0.5125 0 1.7829 0.50666 3.3901 1.8333 4.4646l0.03334 0.02916c0.48213 0.45932 1.5909 0.69979 2.6542 1.0104 0.53165 0.15531 1.0559 0.33552 1.4938 0.675 0.43785 0.33948 0.76042 0.89242 0.76042 1.5521 1e-6 0.02873 0.01327 0.07496 0.2 0.16875 0.18674 0.0938 0.4887 0.15625 0.69167 0.15625 0.17795 0 0.44353-0.07501 0.61667-0.17917 0.17314-0.10416 0.18958-0.20191 0.18958-0.14583 0-1.3489 0.75946-2.488 1.9958-3.2 1.2364-0.71202 2.9391-1.0657 5.0167-1.0625 0.29127 4.75e-4 0.51416-0.22212 0.51458-0.51042v-0.0021c4.73e-4 -0.28854-0.22104-0.51198-0.5125-0.5125-0.26267-3.73e-4 -0.52035 0.0099-0.77708 0.025l-0.85833 0.05 0.33542-0.79167c0.41767-0.98219 0.60581-2.0673 0.56671-3.2604-0.0095-0.28824-0.2401-0.50528-0.53125-0.49583-0.29168 0.00946-0.50739 0.24046-0.49792 0.52917 0.0277 0.83696 0.03222 1.6583-0.15208 2.4208-0.18431 0.76249-0.59159 1.4804-1.3312 1.9479-0.38954 0.24593-0.86504 0.49583-1.4271 0.49583h-0.76458l0.26458-0.71875c0.28724-0.78128 0.5003-1.5938 0.5875-2.4667 0.05525-0.55222 0.05942-1.2324 0-1.7187-0.10418-0.84161-0.28174-1.879 0.13125-2.8083l0.0021-0.00417 0.0021-0.00208c0.196-0.42289 0.54248-0.75047 0.95625-0.9375 0.41376-0.18703 0.88566-0.25417 1.4083-0.25417 0.29104-2.42e-4 0.5145-0.22468 0.51458-0.5125 1.94e-4 -0.28843-0.22331-0.51224-0.51458-0.5125-1.2212 1e-7 -2.1209 0.63455-2.6396 1.4021l-0.52503 0.77917-0.4-0.85208c-0.30557-0.65267-0.67784-1.3271-1.1312-2.0292-0.07364-0.11411-0.19072-0.1938-0.325-0.22292-0.03336-0.007234-0.06621-0.011777-0.1-0.0125z" color="#000000" fill="#808080" stroke-width="1.0667" style="-inkscape-stroke:none"/>
</svg>
