<svg width="16" height="16" version="1.1" xmlns="http://www.w3.org/2000/svg">
 <path d="m11.379 15.495c-0.04471-0.0047-0.11507-0.01847-0.15634-0.03061-0.07782-0.02288-0.23688-0.09408-0.22866-0.10236 0.0026-0.0026 0.03206 0.0035 0.0655 0.01369 0.1202 0.03639 0.28608 0.01745 0.41195-0.04707 0.11197-0.05738 0.22487-0.19609 0.26424-0.32463 0.01978-0.06459 0.02161-0.52675 0.02735-6.9212 0.0043-4.734 0.0021-6.888-7e-3 -6.9684-0.02723-0.24187-0.15614-0.40584-0.37923-0.48236-0.09561-0.032789-0.25193-0.035979-0.33243-0.006741-0.07497 0.027205-0.06599 0.014699 0.02127-0.02962 0.1923-0.097664 0.45262-0.12348 0.65684-0.065116 0.08472 0.024207 1.331 0.61943 3.1346 1.4971 0.22466 0.10932 0.32971 0.18341 0.42753 0.30151 0.07656 0.092422 0.15031 0.23543 0.18678 0.36213l0.02877 0.099958v5.2035c0 4.952-0.0011 5.2078-0.02231 5.2916-0.01227 0.04844-0.04817 0.1417-0.07978 0.20724-0.04909 0.10177-0.07411 0.13574-0.17156 0.2329-0.09373 0.09346-0.13641 0.12532-0.23916 0.17859-0.2213 0.11472-3.0992 1.5036-3.1769 1.5332-0.13302 0.05064-0.29149 0.07148-0.43151 0.05677zm-0.86203-0.54866c-0.03041-0.01112-0.07544-0.03309-0.10006-0.04884-0.05325-0.034055-9.5676-8.808-9.7138-8.9578-0.11607-0.11899-0.15964-0.19803-0.189-0.34286-0.016626-0.082029-0.017748-0.11562-0.00633-0.18952 0.018422-0.11922 0.05424-0.2114 0.11191-0.28802 0.073414-0.097533 0.94684-0.8924 1.0295-0.9369 0.17617-0.094847 0.37779-0.10145 0.56191-0.018402 0.044713 0.020163 0.5231 0.38576 1.3633 1.0419 1.0665 0.83283 1.2979 1.0084 1.3142 0.99694 0.018605-0.013019 1.9681-1.8182 4.411-4.0845 1.2268-1.1381 1.1656-1.0891 1.3589-1.0885 0.09102 3.018e-4 0.12636 0.00614 0.17637 0.028906 0.14295 0.065206 0.22857 0.15808 0.2704 0.29332 0.02254 0.072883 0.02352 0.14808 0.02352 1.8108v1.7348l-1.9606 1.5626c-1.0783 0.85945-1.9618 1.5662-1.9632 1.5705-0.00148 0.00433 0.88044 0.69595 1.9598 1.5369l1.9625 1.529-0.0024 1.7555-0.0024 1.7555-0.03007 0.07512c-0.03819 0.0954-0.13674 0.19692-0.23549 0.24255-0.09172 0.04239-0.25413 0.05244-0.34007 0.02103zm-8.7162-3.0702c-0.12064-0.03267-0.2045-0.084281-0.34601-0.21294-0.55288-0.50266-0.80619-0.73987-0.83507-0.78199-0.095087-0.13867-0.13598-0.30855-0.11097-0.46097 0.018567-0.11313 0.082391-0.2485 0.15368-0.32597 0.058439-0.06351 1.9524-1.7068 1.9789-1.7171 0.013532-0.00522 1.9098 1.7186 1.9171 1.7427 0.00419 0.01389-2.2559 1.6676-2.3343 1.7081-0.12942 0.06671-0.2882 0.08478-0.42334 0.04818z" fill="#808080" stroke-width=".012546"/>
</svg>
