<svg version="1.1" viewBox="0 0 16 16" xmlns="http://www.w3.org/2000/svg" xmlns:osb="http://www.openswatchbook.org/uri/2009/osb">
 <g fill="#808080">
  <path d="m1.5003 7.5v1h13v-1z" enable-background="new"/>
  <path d="m3.5059 2.375c-0.09796 8e-7 -0.19329 0.01995-0.29102 0.083984-0.097726 0.064035-0.21484 0.20379-0.21484 0.39063v5.1758c0 0.18684 0.11712 0.32464 0.21484 0.38867 0.097726 0.064035 0.19306 0.085938 0.29102 0.085938h3.9883c0.097961 0 0.19329-0.021902 0.29102-0.085937 0.097726-0.064036 0.21484-0.20184 0.21484-0.38867v-5.1758c0-0.18684-0.11712-0.32659-0.21484-0.39062-0.097726-0.064035-0.19306-0.083984-0.29102-0.083984zm0.32812 0.83203h3.334v4.459h-3.334z" color="#000000" style="-inkscape-stroke:none"/>
  <rect x="8.0004" y="4.7502" width="4.9996" height="2.7499" rx=".10693" ry=".048774" enable-background="new" stroke-width=".049655"/>
  <path d="m8.5059 9.875c-0.097947 0-0.19328 0.019944-0.29102 0.083984-0.097737 0.064041-0.21484 0.20383-0.21484 0.39062v5.1758c0 0.18685 0.11712 0.32463 0.21484 0.38867 0.09772 0.064037 0.19304 0.085937 0.29102 0.085937h3.9883c0.09795 0 0.19328-0.0219 0.29102-0.08594 0.097737-0.064038 0.21484-0.20187 0.21484-0.38867v-5.1758c0-0.18685-0.11712-0.32659-0.21484-0.39062-0.09772-0.064037-0.19304-0.083984-0.29102-0.083984zm0.32812 0.83203h3.332v4.459h-3.332z" color="#000000" style="-inkscape-stroke:none"/>
  <rect transform="scale(-1,1)" x="-7.9999" y="12.25" width="4.9996" height="2.7499" rx=".10693" ry=".048774" enable-background="new" stroke-width=".049655"/>
  <path d="m4.9198 1.602e-5c-1.4631 0-2.4431 0.031234-3.1289 0.64844-0.34288 0.3086-0.54432 0.74053-0.65234 1.2461-0.10803 0.50557-0.13867 1.1037-0.13867 1.8555v8.5c0 0.75175 0.03064 1.3499 0.13867 1.8555 0.10803 0.50557 0.30946 0.93749 0.65234 1.2461 0.68577 0.6172 1.6658 0.64844 3.1289 0.64844h6.1621c1.4635 0 2.4448-0.02955 3.1328-0.64648 0.34399-0.30847 0.54699-0.74174 0.6543-1.248 0.1072-0.50577 0.13467-1.1044 0.13086-1.8555v-8.5c0.003807-0.75109-0.023665-1.3497-0.13086-1.8555-0.10731-0.5063-0.31031-0.93958-0.6543-1.248-0.68798-0.61694-1.6693-0.64648-3.1328-0.64648zm0 1h6.1621c1.4286 0 2.1627 0.12163 2.4648 0.39258 0.15108 0.13548 0.26336 0.3297 0.34375 0.70898 0.08039 0.37928 0.1131 0.92306 0.10938 1.6445v8.5079c0.0037 0.72147-0.02899 1.2652-0.10938 1.6445-0.08039 0.37928-0.19267 0.57351-0.34375 0.70898-0.30216 0.27091-1.0362 0.39253-2.4648 0.39253h-6.1621c-1.4283 0-2.1582-0.11995-2.459-0.39062-0.15037-0.13534-0.26255-0.33287-0.34375-0.71289-0.0812-0.38002-0.11719-0.92455-0.11719-1.6465v-8.5c0-0.72193 0.03599-1.2665 0.11719-1.6465 0.0812-0.38002 0.19338-0.57755 0.34375-0.71289 0.30075-0.27068 1.0307-0.39062 2.459-0.39062z" color="#000000" style="-inkscape-stroke:none"/>
 </g>
</svg>
