<svg version="1.1" viewBox="0 0 16 16" xmlns="http://www.w3.org/2000/svg" xmlns:osb="http://www.openswatchbook.org/uri/2009/osb">
 <g transform="matrix(.98722 0 0 .98722 19.949 -3.9489)" fill="#808080">
  <path d="m-12.061 4-0.060547 0.015625 0.12109-0.015625zm0.060547 0c-4.4124 0-8 3.5876-8 8v2e-3c0.0056 1.3142 0.3643 2.5935 0.98633 3.748l-1.1934 4.457 4.4551-1.1934c1.1551 0.62237 2.4352 0.98093 3.75 0.98633h0.001953c4.4124 0 8-3.5876 8-8 0-4.4124-3.5876-8-8-8zm0 1c3.8719 0 7 3.1281 7 7 0 3.8712-3.1271 6.9989-6.998 7-1.2296-0.0051-2.4359-0.3336-3.498-0.95312-0.30262-0.07335-0.54146-0.0053-0.69531 0.05078l-2.6035 0.69727 0.6875-2.5645c0.06132-0.25746 0.10225-0.43064 0.0625-0.73242-0.62015-1.0619-0.94946-2.2683-0.95508-3.498v-2e-3c0.001076-3.8709 3.1288-6.998 7-6.998z" color="#000000" fill="#808080" stroke-linecap="round" stroke-miterlimit="2" style="-inkscape-stroke:none"/>
 </g>
 <path d="m6.1317 4.5901c-0.14755-0.32775-0.30281-0.33438-0.44297-0.34006l-0.37734-0.00476c-0.13127 0-0.34456 0.049291-0.52487 0.24628-0.18032 0.19701-0.68903 0.67317-0.68903 1.6417s0.70541 1.9043 0.8037 2.0358c0.098345 0.13149 1.3618 2.1823 3.3627 2.9713 1.6628 0.65573 2.0011 0.52531 2.3622 0.49254 0.36105-0.03274 1.1646-0.47616 1.3286-0.93583 0.16392-0.45966 0.16403-0.85349 0.1149-0.93582-0.049177-0.082393-0.18042-0.13128-0.37744-0.22979-0.19701-0.098464-1.1646-0.57467-1.3451-0.64041-0.18041-0.065722-0.31158-0.098464-0.44297 0.098583-0.13137 0.19702-0.50818 0.6402-0.62306 0.77159-0.11489 0.13137-0.22957 0.14786-0.42658 0.04941-0.19702-0.098345-0.83091-0.30633-1.583-0.97695-0.58516-0.52177-0.98016-1.1661-1.0952-1.3631-0.11501-0.1969-0.012263-0.30355 0.086558-0.40163 0.088344-0.088224 0.19681-0.2299 0.29543-0.34478 0.098583-0.11489 0.13105-0.19702 0.19658-0.32819 0.065484-0.13116 0.032861-0.24637-0.01643-0.34478-0.049291-0.098464-0.43172-1.0719-0.60668-1.4613" enable-background="new" fill="#808080" fill-rule="evenodd" stroke-width=".10708"/>
</svg>
