<svg version="1.1" viewBox="0 0 16 16" xml:space="preserve" xmlns="http://www.w3.org/2000/svg" xmlns:osb="http://www.openswatchbook.org/uri/2009/osb"><path d="m13.011 11.524c-0.036471-1.8137-0.18632-3.5873-0.333-3.9414-0.14677-0.35402-0.23223-1.2574-0.1901-2.0073 0.11028-1.963 0.7878-2.4951 2.4218-1.9021 0.4163 0.15109 0.83093 0.20071 0.9214 0.11023 0.20692-0.20692 0.23229-2.09 0.030856-2.2914-0.26095-0.26095-1.2003-0.22109-1.4844 0.062989-0.29953 0.29953-1.0165 0.15624-1.4656-0.29291-0.34034-0.34034-2.2247-0.35087-3.2522-0.01814-0.48959 0.15851-1.1291 0.63502-1.9382 1.4441-1.2231 1.2231-1.5317 1.937-0.57431 1.3287 0.28755-0.18279 0.9825-0.37309 1.5442-0.42298 1.4463-0.12848 1.9096 0.39829 2.0787 2.3635 0.07231 0.84056 0.03733 1.6224-0.07775 1.7375-0.25453 0.25453-0.49545 6.8707-0.25881 7.1074 0.17866 0.17866 2.3842 0.279 2.5473 0.1159 0.05305-0.05305 0.06669-1.5804 0.03018-3.3941z" enable-background="new" fill="#808080" stroke-width=".41733"/><g transform="matrix(.52633 -.52633 .52633 .52633 -5.8307 7.9954)"><g transform="translate(-552 -460)"><path d="m564.45 460.09c0.39933 0 0.78638 0.0916 1.1433 0.21572l-1.8849 1.8797c-0.38734 0.38627-0.38734 1.0004 0 1.3867l0.7107 0.70874c0.38734 0.38628 1.0031 0.38628 1.3905 0l1.8849-1.8797c0.12444 0.35591 0.2163 0.74191 0.2163 1.1402 0 1.9061-1.5494 3.4513-3.4608 3.4513-0.39933 0-0.78639-0.0916-1.1433-0.2157l-1.1742 1.171c-0.0206-2.6e-4 -0.0412-2.6e-4 -0.0618 0l-2.0703-2.0646 1.2051-1.2018c-0.12444-0.35592-0.2163-0.74191-0.2163-1.1402 0-1.9061 1.5494-3.4513 3.4608-3.4513zm-2.5507 3.8886 2.0703 2.0646c-0.0109 0.0306-0.0212 0.0614-0.0309 0.0924l-5.1433 5.1402c0.12444 0.35596 0.21629 0.74196 0.21629 1.1402 0 1.9061-1.5494 3.4513-3.4608 3.4513-0.43346 0-0.85361-0.10141-1.236-0.24653l2.0085-2.003c0.38735-0.38629 0.38735-1.0312 0-1.4175l-0.67979-0.67792c-0.19368-0.19315-0.45794-0.30816-0.7107-0.30816-0.25275 0-0.51702 0.11501-0.71069 0.30816l-1.9467 1.9413c-0.10485-0.32958-0.1854-0.68351-0.1854-1.0477 0-1.9061 1.5494-3.4513 3.4608-3.4513 0.39933 0 0.78638 0.0916 1.1433 0.2157l5.2051-5.2018z" color="#000000" fill="#808080" style="text-decoration-line:none;text-indent:0;text-transform:none"/></g></g></svg>
