<svg version="1.1" viewBox="0 0 16 16" xmlns="http://www.w3.org/2000/svg" xmlns:osb="http://www.openswatchbook.org/uri/2009/osb" xmlns:xlink="http://www.w3.org/1999/xlink">
 <g transform="translate(19.697 -.20091)" fill="#808080">
  <g>
   <path d="m-15.873 1.2012c-0.76154-0.00373-1.3657 0.012131-1.875 0.097656-0.50979 0.085614-0.94912 0.25359-1.2734 0.58203-0.32432 0.32844-0.48892 0.77002-0.57422 1.2832-0.0853 0.51319-0.10156 1.1217-0.10156 1.8906v0.20703l2.9219 2.9395-2.9219 2.9414v0.20508c0 0.76891 0.01621 1.3784 0.10156 1.8906 0.08535 0.51222 0.24974 0.95202 0.57422 1.2793 0.32448 0.32728 0.76437 0.49576 1.2734 0.58203 0.50907 0.08627 1.1128 0.10156 1.875 0.10156h2.2949l1.8809-1.8906 1.8809 1.8906h2.2969c0.76221 0 1.3661-0.01528 1.875-0.10156 0.50892-0.08628 0.94725-0.25465 1.2715-0.58203s0.48908-0.76715 0.57422-1.2793c0.08514-0.51215 0.10156-1.1218 0.10156-1.8906v-0.20508l-2.9219-2.9414 2.9219-2.9395v-0.20703c0-0.76884-0.016476-1.3775-0.10156-1.8906-0.085087-0.51312-0.25015-0.95466-0.57422-1.2832-0.32407-0.32854-0.76379-0.49641-1.2734-0.58203-0.50911-0.085534-1.1115-0.10139-1.873-0.097656h-2.2969l-1.8809 1.8926-1.8809-1.8926h-2.293zm-2e-3 1h1.8809l2.2969 2.3125 2.2969-2.3125h1.8828c0.7445-0.00368 1.3092 0.017475 1.7051 0.083984s0.59881 0.16733 0.72852 0.29883c0.1297 0.13149 0.23198 0.34099 0.29883 0.74414 0.059289 0.35754 0.073518 0.90026 0.078125 1.5312l-3.3223 3.3418 3.3223 3.3438c-0.00465 0.62965-0.018962 1.1734-0.078125 1.5293-0.066794 0.40179-0.16929 0.60944-0.29883 0.74023s-0.33192 0.23159-0.72852 0.29883c-0.3966 0.06724-0.96207 0.08789-1.707 0.08789h-1.8809l-2.2969-2.3105-2.2969 2.3105h-1.8789c-0.74497 0-1.3102-0.02064-1.707-0.08789s-0.60069-0.16793-0.73047-0.29883-0.23189-0.33851-0.29883-0.74023c-0.05937-0.35628-0.07349-0.90048-0.07813-1.5312l3.3223-3.3418-3.3223-3.3398c0.0046-0.6321 0.01863-1.1753 0.07813-1.5332 0.067-0.40308 0.16888-0.61254 0.29883-0.74414s0.33242-0.23231 0.72852-0.29883c0.39609-0.066519 0.96253-0.087665 1.707-0.083984z" color="#000000" style="-inkscape-stroke:none"/>
   <circle cx="-11.697" cy="8.2009" r="2.5" enable-background="new" fill-rule="evenodd"/>
   <path d="m-15.947 1.2012c-0.75109-0.00381-1.3497 0.025618-1.8555 0.13281-0.5063 0.10731-0.93958 0.31031-1.248 0.6543-0.61694 0.68798-0.64648 1.6693-0.64648 3.1328v6.1621c0 1.4631 0.03123 2.4412 0.64844 3.127 0.3086 0.34288 0.74053 0.54432 1.2461 0.65234 0.50556 0.10803 1.1037 0.13867 1.8555 0.13867h8.5c0.75175 0 1.3499-0.03064 1.8555-0.13867 0.50557-0.10803 0.93749-0.30946 1.2461-0.65234 0.6172-0.68577 0.64844-1.6638 0.64844-3.127v-6.1621c0-1.4635-0.0315-2.4448-0.64844-3.1328-0.30847-0.34399-0.73979-0.54699-1.2461-0.6543-0.50577-0.10719-1.1044-0.13662-1.8555-0.13281h-8.498zm-0.0039 1h8.5059c0.72147-0.00372 1.2672 0.030942 1.6465 0.11133 0.37928 0.080386 0.57351 0.19072 0.70898 0.3418 0.27095 0.30216 0.39258 1.0381 0.39258 2.4668v6.1621c0 1.4283-0.11995 2.1582-0.39062 2.459-0.13534 0.15037-0.33287 0.26255-0.71289 0.34375-0.38002 0.0812-0.92455 0.11523-1.6465 0.11523h-8.5c-0.72193 0-1.2684-0.03403-1.6484-0.11523-0.38002-0.0812-0.5756-0.19338-0.71094-0.34375-0.27068-0.30075-0.39062-1.0307-0.39062-2.459v-6.1621c0-1.4286 0.11967-2.1646 0.39062-2.4668 0.13548-0.15108 0.33166-0.26141 0.71094-0.3418 0.37928-0.080386 0.92306-0.11505 1.6445-0.11133z" color="#000000" style="-inkscape-stroke:none"/>
  </g>
  <g fill-rule="evenodd" stroke-linecap="square" stroke-opacity=".4">
   <path d="m-18.509 6.0667h0.23697c0.2149 0 0.3879 0.173 0.3879 0.3879l1.6657 1.5454-1.6657 2.3471c-0.12437 0.17525-0.173 0.3879-0.3879 0.3879h-0.23697c-0.2149 0-0.3879-0.173-0.3879-0.3879v-3.8926c0-0.2149 0.173-0.3879 0.3879-0.3879z"/>
   <path d="m-4.7436 5.8667h-0.23697c-0.2149 0-0.3879 0.173-0.3879 0.3879l-1.6657 1.5454 1.6657 2.3472c0.12437 0.17525 0.173 0.3879 0.3879 0.3879h0.23697c0.2149 0 0.3879-0.173 0.3879-0.3879v-3.8926c0-0.2149-0.173-0.3879-0.3879-0.3879z"/>
   <path d="m-9.3631 1.7513v0.23697c0 0.2149-0.173 0.3879-0.3879 0.3879l-1.5454 1.6657-2.3472-1.6657c-0.17525-0.12437-0.3879-0.173-0.3879-0.3879v-0.23697c0-0.2149 0.173-0.3879 0.3879-0.3879h3.8926c0.2149 0 0.3879 0.173 0.3879 0.3879z"/>
   <path d="m-14.031 14.717v-0.23697c0-0.2149 0.173-0.3879 0.3879-0.3879l1.5454-1.6657 2.3471 1.6657c0.17525 0.12437 0.3879 0.173 0.3879 0.3879v0.23697c0 0.2149-0.173 0.3879-0.3879 0.3879h-3.8926c-0.2149 0-0.3879-0.173-0.3879-0.3879z"/>
  </g>
 </g>
</svg>
