<svg version="1.1" viewBox="0 0 16 16" xmlns="http://www.w3.org/2000/svg" xmlns:osb="http://www.openswatchbook.org/uri/2009/osb">
 <g transform="matrix(1.3237 0 0 1.3237 -22.589 .057913)" fill="#808080">
  <path d="m19.145 2v0.36254h0.24171c0.64352 0 0.86529 0.0834 1.0876 0.41088l2.151 3.2628-1.9335 2.8278c-0.16381 0.23401-0.5101 0.77342-1.6918 0.77342v0.36254l1.3051-0.0483c0.43294 0 1.0773 0.0131 1.4985 0.0483v-0.36254c-0.5382-0.0113-0.74922-0.34528-0.74922-0.5559 0-0.10533 0.039-0.13719 0.12089-0.26583l1.6676-2.4652 1.8369 2.8036c0.0235 0.0468 0.0725 0.0857 0.0725 0.12087 0 0.14038-0.27031 0.35085-0.77341 0.36253v0.36254c0.40953-0.035 1.2714-0.0483 1.716-0.0483l1.5227 0.0483v-0.36254h-0.21754c-0.60841 0-0.86605-0.0724-1.1118-0.43505l-2.4652-3.722 1.5952-2.3444c0.2574-0.37441 0.67464-0.76171 1.716-0.77342v-0.36254l-1.3051 0.0483c-0.46802 0-1.0305-0.0131-1.4985-0.0483v0.36254c0.46802 0.0113 0.72508 0.2626 0.72508 0.53172 0 0.11695-0.015 0.16137-0.0967 0.29003l-1.3535 1.9577-1.4984-2.2477c-0.0235-0.035-0.0725-0.12238-0.0725-0.16923 0-0.14038 0.24609-0.35083 0.74921-0.36255v-0.36248c-0.4095 0.035-1.2714 0.0483-1.716 0.0483z" enable-background="new" opacity=".5"/>
  <path d="m20.447 3-0.16188 2.4604h0.21583c0.1219-1.4019 0.25-1.6907 1.5648-1.6907 0.15673 0 0.38057 5.6e-4 0.46766 0.018 0.18286 0.0349 0.19785 0.12344 0.19785 0.32374v3.6868c0 0.29604-3e-3 0.4499-0.91733 0.43168h-0.35972v0.77017c0.35702-0.0261 1.2542-0.036 1.6548-0.036 0.40057 0 1.2978 0.01 1.6548 0.036v-0.77017h-0.35975c-0.91428 0-0.89934-0.13571-0.89934-0.43168v-3.6868c0-0.17415-0.0125-0.28893 0.1439-0.32375 0.0958-0.0174 0.33819-0.018 0.50362-0.018 1.3148 0 1.443 0.28883 1.5648 1.6908h0.21586l-0.16188-2.4604z" enable-background="new"/>
 </g>
 <path d="m4.4434 0c-1.6832 0-2.761 0.025701-3.5293 0.625-0.38416 0.29965-0.6253 0.74023-0.75195 1.2539-0.12665 0.51368-0.16211 1.117-0.16211 1.8711v8.5c0 0.75405 0.03546 1.3574 0.16211 1.8711 0.12665 0.51368 0.36779 0.95426 0.75195 1.2539 0.76832 0.5993 1.8461 0.625 3.5293 0.625h7.1113c1.6836 0 2.7664-0.02605 3.5371-0.625 0.38533-0.29947 0.62808-0.73937 0.75391-1.2539 0.1257-0.514 0.1587-1.1176 0.1543-1.8711v-8.5c0.0044-0.75347-0.0286-1.3571-0.1543-1.8711-0.12583-0.51453-0.36857-0.95443-0.75391-1.2539-0.77066-0.59894-1.8535-0.625-3.5371-0.625zm0 1h7.1113c1.6534 0 2.552 0.12512 2.9238 0.41406 0.18589 0.14447 0.30379 0.33207 0.39453 0.70312s0.13122 0.9098 0.12695 1.6289v8.5079c0.0043 0.71911-0.03621 1.2579-0.12695 1.6289-0.09074 0.37105-0.20864 0.55865-0.39453 0.70312-0.37179 0.2889-1.2704 0.41402-2.9238 0.41402h-7.1113c-1.653 0-2.546-0.12548-2.916-0.41406-0.18498-0.14429-0.30284-0.33122-0.39453-0.70312-0.0917-0.37191-0.13281-0.91317-0.13281-1.6328v-8.5c0-0.71964 0.04112-1.2609 0.13281-1.6328 0.0917-0.37191 0.20955-0.55883 0.39453-0.70312 0.36997-0.28858 1.263-0.41406 2.916-0.41406z" color="#000000" fill="#808080" style="-inkscape-stroke:none"/>
</svg>
