<svg version="1.1" viewBox="0 0 16 16" xmlns="http://www.w3.org/2000/svg" xmlns:osb="http://www.openswatchbook.org/uri/2009/osb">
 <path d="m8.0009 1.226e-8c-4.4119-9.9989e-8 -7.9991 3.5873-7.9991 7.9991a0.49999 0.49999 0 0 0 0 2e-3c0.0055994 1.3147 0.36178 2.5948 0.98427 3.7496l-0.96864 3.6187a0.49999 0.49999 0 0 0 0.61321 0.61321l3.6207-0.96864c1.1543 0.62144 2.4339 0.97887 3.7476 0.98427a0.49999 0.49999 0 0 0 2e-3 0c4.4119 0 7.9991-3.5873 7.9991-7.9991 1e-6 -4.4119-3.5873-7.9991-7.9991-7.9991zm0 0.99989c3.8715 1e-7 6.9992 3.1277 6.9992 6.9992 0 3.8708-3.1267 6.9981-6.9973 6.9992-1.2294-0.0051-2.4357-0.33356-3.4977-0.95302a0.49999 0.49999 0 0 0-0.39839-0.017578l0.013668-0.01563-0.048825 0.01367a0.49999 0.49999 0 0 0-0.041016 0.0098l-2.822 0.75577 0.77726-2.904a0.49999 0.49999 0 0 0-0.029297-0.39058c-0.62008-1.0618-0.94936-2.2681-0.95497-3.4977v-2e-3c0.0011-3.8706 3.1284-6.9973 6.9992-6.9973z" color="#000000" fill="#808080" stroke-linecap="round" stroke-linejoin="round" stroke-width=".99989" style="-inkscape-stroke:none"/>
 <path d="m8 2.5002a5.4994 5.4994 0 0 0-5.2224 3.8121h5.2224l-5.3198 3.0714a5.4994 5.4994 0 0 0 5.3198 4.1153 5.4994 5.4994 0 0 0 5.2225-3.8121h-5.2225l5.3199-3.0714a5.4994 5.4994 0 0 0-5.3199-4.1153z" enable-background="new" fill="#808080"/>
</svg>
