<?xml version="1.0" encoding="UTF-8" standalone="no"?>
<svg
   version="1.1"
   viewBox="0 0 16 16"
   height="16px"
   width="16px"
   id="svg2"
   sodipodi:docname="history-undo-symbolic.svg"
   inkscape:version="1.3.2 (1:1.3.2+202410171156+9f538bd40a)"
   xmlns:inkscape="http://www.inkscape.org/namespaces/inkscape"
   xmlns:sodipodi="http://sodipodi.sourceforge.net/DTD/sodipodi-0.dtd"
   xmlns="http://www.w3.org/2000/svg"
   xmlns:svg="http://www.w3.org/2000/svg">
  <defs
     id="defs2" />
  <sodipodi:namedview
     id="namedview2"
     pagecolor="#505050"
     bordercolor="#eeeeee"
     borderopacity="1"
     inkscape:showpageshadow="0"
     inkscape:pageopacity="0"
     inkscape:pagecheckerboard="0"
     inkscape:deskcolor="#505050"
     inkscape:zoom="22.627417"
     inkscape:cx="7.1815532"
     inkscape:cy="6.4081552"
     inkscape:window-width="1316"
     inkscape:window-height="699"
     inkscape:window-x="0"
     inkscape:window-y="0"
     inkscape:window-maximized="1"
     inkscape:current-layer="svg2" />
  <g
     transform="rotate(45 6.8899 8.4303)"
     fill="gray"
     id="g1">
    <path
       d="m1.5514 1.8466c-0.20058 0.75937-0.38477 1.5505-0.55071 2.3731-0.16031 0.81808-0.29813 1.6233-0.4128 2.4123 0.76468-0.24357 1.5361-0.51805 2.313-0.81789 0.78228-0.30635 1.5242-0.62596 2.2297-0.96172l-1.3316-1.1173a5.995 5.995 0 0 1 6.1104-1.4329 5.995 5.995 0 0 1 4.0723 6.3924c-0.33142 2.8278-2.5947 5.0308-5.4313 5.2816-0.00186 1.64e-4 -0.00364 3.19e-4 -0.0055 4.81e-4l-0.77102 0.01339 0.022363 1.0004 0.33487-0.0071 0.00289 0.03302 0.49804-0.04357a7.005 7.005 0 0 0 6.3428-6.1613 7.005 7.005 0 0 0-4.7518-7.4573c-0.78669-0.26043-1.5942-0.37482-2.3863-0.3527l2.408e-4 0.00275a7.006 7.006 0 0 0-4.8027 2.0866zm0.75589 10.193 0.54012 0.67503 0.044352 0.04742 0.099711 0.09387 0.69091-0.72312-0.08026-0.07755-0.51498-0.64118zm2.0712 0.71299-0.58941 0.80574 0.45326 0.33188 0.0529 0.03419 0.38715 0.21012 0.48061-0.87663-0.35819-0.19602zm1.636 0.88831-0.36352 0.93154 0.22826 0.08955 0.061206 0.01821 0.73559 0.1838 0.23787-0.97323-0.69413-0.1694z"
       fill="#808080"
       id="path1" />
  </g>
  <g
     transform="translate(-632.00314,-219.0719)"
     id="g2">
    <path
       d="m 643.5781,224.9883 c -0.10897,-0.0129 -0.23096,0.01 -0.33398,0.0859 l -3.3594,2.002 c -0.12197,-0.0505 -0.25274,-0.0763 -0.38477,-0.0761 -0.13711,3e-4 -0.27284,0.029 -0.39844,0.084 l -2.3457,-0.99218 c -0.20603,-0.15201 -0.4867,-0.0939 -0.5918,0.0469 l -0.0859,0.11328 c -0.12662,0.16964 -0.10641,0.49636 0.0996,0.64844 l 2.3301,0.98242 c -0.005,0.0389 -0.007,0.078 -0.008,0.11719 9.8e-4,0.35628 0.19145,0.68514 0.5,0.86328 v 2.6366 c 0,0.277 0.20866,0.5 0.46875,0.5 h 0.0625 c 0.26001,0 0.46891,-0.223 0.46891,-0.5 v -2.6348 c 0.30916,-0.17849 0.49972,-0.50825 0.5,-0.86523 0,-0.0451 -0.004,-0.0902 -0.01,-0.13477 l 3.332,-1.9824 c 0.20601,-0.15208 0.22622,-0.47882 0.0996,-0.64843 l -0.0859,-0.11329 c -0.0525,-0.0704 -0.14879,-0.11991 -0.25782,-0.13281 z"
       color="#000000"
       color-rendering="auto"
       dominant-baseline="auto"
       fill="#808080"
       image-rendering="auto"
       shape-rendering="auto"
       solid-color="#000000"
       style="font-variant-ligatures:normal;font-variant-position:normal;font-variant-caps:normal;font-variant-numeric:normal;font-variant-alternates:normal;font-feature-settings:normal;text-indent:0;text-decoration-line:none;text-decoration-style:solid;text-decoration-color:#000000;text-transform:none;text-orientation:mixed;white-space:normal;shape-padding:0;isolation:auto;mix-blend-mode:normal"
       id="path1-5"
       sodipodi:nodetypes="ccccccccccccsssscccccccc" />
  </g>
</svg>
